<?xml version="1.0" encoding="UTF-8"?>
<svg xmlns="http://www.w3.org/2000/svg" xmlns:xlink="http://www.w3.org/1999/xlink" width="312" height="312" viewBox="0 0 312 312" version="1.1">
<g id="surface1">
<path style=" stroke:none;fill-rule:nonzero;fill:rgb(100%,63.921571%,67.450982%);fill-opacity:1;" d="M 184.390625 163.121094 C 184.390625 165.992188 180.789062 168.320312 176.34375 168.320312 C 171.902344 168.320312 168.300781 165.992188 168.300781 163.121094 C 168.300781 160.253906 171.902344 157.925781 176.34375 157.925781 C 180.789062 157.925781 184.390625 160.253906 184.390625 163.121094 Z M 184.390625 163.121094 "/>
<path style=" stroke:none;fill-rule:nonzero;fill:rgb(100%,63.921571%,67.450982%);fill-opacity:1;" d="M 130.917969 163.121094 C 130.917969 165.992188 127.316406 168.320312 122.871094 168.320312 C 118.429688 168.320312 114.824219 165.992188 114.824219 163.121094 C 114.824219 160.253906 118.429688 157.925781 122.871094 157.925781 C 127.316406 157.925781 130.917969 160.253906 130.917969 163.121094 Z M 130.917969 163.121094 "/>
<path style=" stroke:none;fill-rule:nonzero;fill:rgb(34.509805%,35.294119%,65.882355%);fill-opacity:1;" d="M 143.546875 173.429688 C 144.765625 173.875 146.894531 174.472656 149.589844 174.328125 C 152.308594 174.1875 154.382812 173.351562 155.550781 172.78125 C 155.386719 180.933594 152.832031 186.730469 150.472656 186.890625 C 148.105469 187.050781 144.769531 181.613281 143.542969 173.433594 Z M 143.546875 173.429688 "/>
<path style=" stroke:none;fill-rule:nonzero;fill:rgb(34.509805%,35.294119%,65.882355%);fill-opacity:1;" d="M 139.792969 151.113281 C 139.792969 157.03125 136.863281 161.828125 133.253906 161.828125 C 129.640625 161.828125 126.710938 157.03125 126.710938 151.113281 C 126.710938 145.195312 129.640625 140.398438 133.253906 140.398438 C 136.863281 140.398438 139.792969 145.195312 139.792969 151.113281 Z M 139.792969 151.113281 "/>
<path style=" stroke:none;fill-rule:nonzero;fill:rgb(90.196079%,90.196079%,90.196079%);fill-opacity:1;" d="M 132.347656 143.109375 C 131.929688 143.09375 131.503906 144.914062 131.414062 145.296875 C 131.195312 146.234375 131.320312 146.253906 131.167969 146.535156 C 130.394531 147.953125 127.234375 147.496094 127.207031 147.871094 C 127.195312 148.023438 127.710938 148.148438 128.539062 148.441406 C 129.792969 148.886719 130.523438 149.144531 131.011719 149.582031 C 131.796875 150.28125 131.464844 150.984375 132.152344 153.582031 C 132.230469 153.878906 132.925781 156.492188 133.296875 156.441406 C 133.636719 156.390625 133.890625 154.082031 133.675781 151.867188 C 133.558594 150.648438 133.332031 149.804688 133.867188 149.203125 C 134.074219 148.96875 134.519531 148.785156 135.390625 148.441406 C 136.585938 147.960938 137.105469 147.875 137.101562 147.679688 C 137.101562 147.574219 136.957031 147.457031 135.769531 147.109375 C 134.277344 146.667969 133.839844 146.769531 133.484375 146.347656 C 133.277344 146.097656 133.363281 145.996094 133.105469 145.015625 C 132.820312 143.921875 132.617188 143.121094 132.34375 143.109375 Z M 132.347656 143.109375 "/>
<path style=" stroke:none;fill-rule:nonzero;fill:rgb(90.196079%,90.196079%,90.196079%);fill-opacity:1;" d="M 136.058594 152.445312 C 136.238281 152.273438 136.542969 152.167969 136.761719 152.273438 C 136.972656 152.371094 137.058594 152.644531 137.113281 154.027344 C 137.1875 155.898438 137.058594 156.101562 136.941406 156.136719 C 136.820312 156.171875 136.6875 156.054688 136.585938 155.960938 C 136.230469 155.636719 136.164062 155.207031 136.058594 154.378906 C 135.867188 152.851562 135.871094 152.628906 136.058594 152.445312 Z M 136.058594 152.445312 "/>
<path style=" stroke:none;fill-rule:nonzero;fill:rgb(34.509805%,35.294119%,65.882355%);fill-opacity:1;" d="M 173.746094 151.113281 C 173.746094 157.03125 170.820312 161.828125 167.207031 161.828125 C 163.59375 161.828125 160.667969 157.03125 160.667969 151.113281 C 160.667969 145.195312 163.59375 140.398438 167.207031 140.398438 C 170.820312 140.398438 173.746094 145.195312 173.746094 151.113281 Z M 173.746094 151.113281 "/>
<path style=" stroke:none;fill-rule:nonzero;fill:rgb(90.196079%,90.196079%,90.196079%);fill-opacity:1;" d="M 166.511719 143.109375 C 166.09375 143.09375 165.667969 144.914062 165.578125 145.296875 C 165.359375 146.234375 165.484375 146.253906 165.332031 146.535156 C 164.558594 147.953125 161.398438 147.496094 161.371094 147.871094 C 161.359375 148.023438 161.875 148.148438 162.703125 148.441406 C 163.957031 148.886719 164.6875 149.144531 165.175781 149.582031 C 165.960938 150.28125 165.628906 150.984375 166.316406 153.582031 C 166.394531 153.878906 167.089844 156.492188 167.460938 156.441406 C 167.800781 156.390625 168.054688 154.082031 167.839844 151.867188 C 167.722656 150.648438 167.492188 149.804688 168.03125 149.203125 C 168.238281 148.96875 168.683594 148.785156 169.554688 148.441406 C 170.75 147.960938 171.269531 147.875 171.265625 147.679688 C 171.265625 147.574219 171.121094 147.457031 169.933594 147.109375 C 168.4375 146.667969 168.003906 146.769531 167.648438 146.347656 C 167.441406 146.097656 167.527344 145.996094 167.269531 145.015625 C 166.980469 143.921875 166.78125 143.121094 166.507812 143.109375 Z M 166.511719 143.109375 "/>
<path style=" stroke:none;fill-rule:nonzero;fill:rgb(90.196079%,90.196079%,90.196079%);fill-opacity:1;" d="M 170.222656 152.445312 C 170.402344 152.273438 170.707031 152.167969 170.925781 152.273438 C 171.136719 152.371094 171.222656 152.644531 171.277344 154.027344 C 171.351562 155.898438 171.222656 156.101562 171.105469 156.136719 C 170.984375 156.171875 170.851562 156.054688 170.75 155.960938 C 170.390625 155.636719 170.328125 155.207031 170.222656 154.378906 C 170.03125 152.851562 170.035156 152.628906 170.222656 152.445312 Z M 170.222656 152.445312 "/>
</g>
</svg>
