<?xml version="1.0" encoding="UTF-8"?>
<svg id="face" xmlns="http://www.w3.org/2000/svg" viewBox="0 0 1000 1000">
  <defs>
    <style>
      .cls-1 {
        fill: #e6e6e6;
      }

      .cls-2 {
        fill: #585aa8;
      }

      .cls-3 {
        fill: #ffa3ac;
      }
    </style>
  </defs>
  <g>
    <ellipse class="cls-3" cx="565.21" cy="522.83" rx="25.79" ry="16.66"/>
    <ellipse class="cls-3" cx="393.82" cy="522.83" rx="25.79" ry="16.66"/>
  </g>
  <g>
    <path class="cls-2" d="M460.08,555.87c3.91,1.42,10.74,3.34,19.37,2.88,8.72-.46,15.37-3.14,19.11-4.97-.52,26.14-8.71,44.72-16.27,45.23-7.59,.51-18.29-16.92-22.22-43.13Z"/>
    <g>
      <g>
        <ellipse class="cls-2" cx="427.09" cy="484.34" rx="20.96" ry="34.34"/>
        <path class="cls-1" d="M424.19,458.68c-1.34-.05-2.7,5.79-2.99,7.02-.7,3-.3,3.06-.79,3.97-2.48,4.54-12.61,3.07-12.7,4.27-.03,.49,1.62,.89,4.27,1.83,4.02,1.43,6.36,2.26,7.93,3.66,2.52,2.24,1.45,4.49,3.66,12.82,.25,.95,2.47,9.33,3.66,9.16,1.09-.16,1.91-7.56,1.22-14.65-.38-3.91-1.11-6.62,.61-8.55,.67-.75,2.09-1.33,4.88-2.44,3.83-1.53,5.5-1.81,5.49-2.44,0-.33-.47-.71-4.27-1.83-4.79-1.41-6.18-1.09-7.32-2.44-.67-.8-.39-1.12-1.22-4.27-.92-3.5-1.56-6.07-2.44-6.1Z"/>
        <path class="cls-1" d="M436.09,488.61c.57-.55,1.55-.89,2.25-.56,.68,.32,.95,1.2,1.13,5.63,.23,6-.18,6.65-.56,6.76-.38,.11-.81-.27-1.13-.56-1.15-1.05-1.36-2.42-1.69-5.07-.62-4.9-.6-5.61,0-6.2Z"/>
      </g>
      <g>
        <ellipse class="cls-2" cx="535.92" cy="484.34" rx="20.96" ry="34.34"/>
        <path class="cls-1" d="M533.69,458.68c-1.34-.05-2.7,5.79-2.99,7.02-.7,3-.3,3.06-.79,3.97-2.48,4.54-12.61,3.07-12.7,4.27-.03,.49,1.62,.89,4.27,1.83,4.02,1.43,6.36,2.26,7.93,3.66,2.52,2.24,1.45,4.49,3.66,12.82,.25,.95,2.47,9.33,3.66,9.16,1.09-.16,1.91-7.56,1.22-14.65-.38-3.91-1.11-6.62,.61-8.55,.67-.75,2.09-1.33,4.88-2.44,3.83-1.53,5.5-1.81,5.49-2.44,0-.33-.47-.71-4.27-1.83-4.79-1.41-6.18-1.09-7.32-2.44-.67-.8-.39-1.12-1.22-4.27-.92-3.5-1.56-6.07-2.44-6.1Z"/>
        <path class="cls-1" d="M545.59,488.61c.57-.55,1.55-.89,2.25-.56,.68,.32,.95,1.2,1.13,5.63,.23,6-.18,6.65-.56,6.76-.38,.11-.81-.27-1.13-.56-1.15-1.05-1.36-2.42-1.69-5.07-.62-4.9-.6-5.61,0-6.2Z"/>
      </g>
    </g>
  </g>
</svg>
