<?xml version="1.0" encoding="UTF-8"?>
<svg xmlns="http://www.w3.org/2000/svg" xmlns:xlink="http://www.w3.org/1999/xlink" width="200" height="200" viewBox="0 0 200 200" version="1.1">
<g id="surface1">
<path style=" stroke:none;fill-rule:nonzero;fill:rgb(100%,63.921571%,67.450982%);fill-opacity:1;" d="M 118.199219 104.566406 C 118.199219 106.40625 115.890625 107.898438 113.039062 107.898438 C 110.195312 107.898438 107.886719 106.40625 107.886719 104.566406 C 107.886719 102.726562 110.195312 101.234375 113.039062 101.234375 C 115.890625 101.234375 118.199219 102.726562 118.199219 104.566406 Z M 118.199219 104.566406 "/>
<path style=" stroke:none;fill-rule:nonzero;fill:rgb(100%,63.921571%,67.450982%);fill-opacity:1;" d="M 83.921875 104.566406 C 83.921875 106.40625 81.613281 107.898438 78.761719 107.898438 C 75.917969 107.898438 73.605469 106.40625 73.605469 104.566406 C 73.605469 102.726562 75.917969 101.234375 78.761719 101.234375 C 81.613281 101.234375 83.921875 102.726562 83.921875 104.566406 Z M 83.921875 104.566406 "/>
<path style=" stroke:none;fill-rule:nonzero;fill:rgb(34.509805%,35.294119%,65.882355%);fill-opacity:1;" d="M 92.015625 111.171875 C 92.796875 111.457031 94.164062 111.839844 95.890625 111.75 C 97.632812 111.660156 98.964844 111.121094 99.710938 110.757812 C 99.605469 115.984375 97.96875 119.699219 96.457031 119.800781 C 94.9375 119.90625 92.800781 116.417969 92.015625 111.175781 Z M 92.015625 111.171875 "/>
<path style=" stroke:none;fill-rule:nonzero;fill:rgb(34.509805%,35.294119%,65.882355%);fill-opacity:1;" d="M 89.609375 96.867188 C 89.609375 100.660156 87.734375 103.734375 85.417969 103.734375 C 83.101562 103.734375 81.226562 100.660156 81.226562 96.867188 C 81.226562 93.074219 83.101562 90 85.417969 90 C 87.734375 90 89.609375 93.074219 89.609375 96.867188 Z M 89.609375 96.867188 "/>
<path style=" stroke:none;fill-rule:nonzero;fill:rgb(90.196079%,90.196079%,90.196079%);fill-opacity:1;" d="M 84.839844 91.738281 C 84.570312 91.726562 84.296875 92.894531 84.238281 93.140625 C 84.097656 93.738281 84.179688 93.753906 84.082031 93.933594 C 83.585938 94.839844 81.558594 94.546875 81.542969 94.789062 C 81.535156 94.886719 81.867188 94.96875 82.398438 95.15625 C 83.199219 95.441406 83.667969 95.605469 83.980469 95.886719 C 84.484375 96.335938 84.273438 96.785156 84.714844 98.449219 C 84.761719 98.640625 85.207031 100.316406 85.445312 100.28125 C 85.664062 100.25 85.828125 98.769531 85.691406 97.351562 C 85.613281 96.570312 85.46875 96.027344 85.8125 95.644531 C 85.945312 95.492188 86.230469 95.375 86.789062 95.15625 C 87.554688 94.847656 87.886719 94.792969 87.886719 94.667969 C 87.886719 94.597656 87.792969 94.523438 87.03125 94.300781 C 86.074219 94.019531 85.792969 94.082031 85.566406 93.8125 C 85.433594 93.652344 85.488281 93.585938 85.324219 92.957031 C 85.140625 92.257812 85.011719 91.746094 84.835938 91.738281 Z M 84.839844 91.738281 "/>
<path style=" stroke:none;fill-rule:nonzero;fill:rgb(90.196079%,90.196079%,90.196079%);fill-opacity:1;" d="M 87.21875 97.722656 C 87.332031 97.609375 87.527344 97.542969 87.667969 97.609375 C 87.804688 97.671875 87.859375 97.847656 87.894531 98.734375 C 87.941406 99.933594 87.859375 100.066406 87.78125 100.085938 C 87.707031 100.109375 87.621094 100.035156 87.554688 99.976562 C 87.328125 99.765625 87.285156 99.492188 87.21875 98.960938 C 87.09375 97.980469 87.097656 97.839844 87.21875 97.722656 Z M 87.21875 97.722656 "/>
<path style=" stroke:none;fill-rule:nonzero;fill:rgb(34.509805%,35.294119%,65.882355%);fill-opacity:1;" d="M 111.375 96.867188 C 111.375 100.660156 109.5 103.734375 107.183594 103.734375 C 104.867188 103.734375 102.992188 100.660156 102.992188 96.867188 C 102.992188 93.074219 104.867188 90 107.183594 90 C 109.5 90 111.375 93.074219 111.375 96.867188 Z M 111.375 96.867188 "/>
<path style=" stroke:none;fill-rule:nonzero;fill:rgb(90.196079%,90.196079%,90.196079%);fill-opacity:1;" d="M 106.738281 91.738281 C 106.46875 91.726562 106.199219 92.894531 106.140625 93.140625 C 106 93.738281 106.078125 93.753906 105.980469 93.933594 C 105.484375 94.839844 103.460938 94.546875 103.441406 94.789062 C 103.433594 94.886719 103.765625 94.96875 104.296875 95.15625 C 105.101562 95.441406 105.570312 95.605469 105.882812 95.886719 C 106.386719 96.335938 106.171875 96.785156 106.613281 98.449219 C 106.664062 98.640625 107.109375 100.316406 107.347656 100.28125 C 107.566406 100.25 107.726562 98.769531 107.589844 97.351562 C 107.515625 96.570312 107.367188 96.027344 107.710938 95.644531 C 107.84375 95.492188 108.128906 95.375 108.6875 95.15625 C 109.457031 94.847656 109.789062 94.792969 109.785156 94.667969 C 109.785156 94.597656 109.691406 94.523438 108.933594 94.300781 C 107.972656 94.019531 107.695312 94.082031 107.46875 93.8125 C 107.335938 93.652344 107.390625 93.585938 107.222656 92.957031 C 107.039062 92.257812 106.910156 91.746094 106.734375 91.738281 Z M 106.738281 91.738281 "/>
<path style=" stroke:none;fill-rule:nonzero;fill:rgb(90.196079%,90.196079%,90.196079%);fill-opacity:1;" d="M 109.117188 97.722656 C 109.230469 97.609375 109.425781 97.542969 109.566406 97.609375 C 109.703125 97.671875 109.757812 97.847656 109.792969 98.734375 C 109.839844 99.933594 109.757812 100.066406 109.683594 100.085938 C 109.605469 100.109375 109.519531 100.035156 109.457031 99.976562 C 109.226562 99.765625 109.183594 99.492188 109.117188 98.960938 C 108.996094 97.980469 108.996094 97.839844 109.117188 97.722656 Z M 109.117188 97.722656 "/>
</g>
</svg>
