<?xml version="1.0" encoding="UTF-8"?>
<svg xmlns="http://www.w3.org/2000/svg" xmlns:xlink="http://www.w3.org/1999/xlink" width="200" height="200" viewBox="0 0 200 200" version="1.1">
<g id="surface1">
<path style="fill-rule:nonzero;fill:rgb(100%,64.313728%,56.862748%);fill-opacity:1;stroke-width:7;stroke-linecap:butt;stroke-linejoin:miter;stroke:rgb(34.509805%,35.294119%,65.882355%);stroke-opacity:1;stroke-miterlimit:10;" d="M 499.355469 575.390625 C 501.542969 579.84375 501.445312 585.371094 499.355469 589.765625 C 493.007812 603.007812 468.90625 604.902344 462.890625 597.128906 C 460.898438 594.53125 460.429688 590.292969 462.148438 587.558594 C 465.800781 581.777344 478.730469 583.457031 478.710938 583.125 C 478.710938 582.773438 464.609375 584.941406 461.40625 579.453125 C 459.746094 576.582031 461.308594 572.109375 463.613281 569.511719 C 470.898438 561.289062 493.28125 563.105469 499.335938 575.390625 Z M 499.355469 575.390625 " transform="matrix(0.2,0,0,0.2,0,0)"/>
<path style=" stroke:none;fill-rule:nonzero;fill:rgb(34.509805%,35.294119%,65.882355%);fill-opacity:1;" d="M 88.972656 102.285156 C 88.820312 104.042969 88.511719 107.671875 86.035156 108.789062 C 85.949219 108.824219 84.390625 109.5 82.90625 108.789062 C 80.722656 107.738281 80.457031 104.53125 80.273438 102.285156 C 80.152344 100.847656 80.152344 98.480469 81.097656 95.617188 L 87.847656 95.617188 C 89.097656 98.546875 89.082031 100.992188 88.972656 102.285156 Z M 88.972656 102.285156 "/>
<path style=" stroke:none;fill-rule:nonzero;fill:rgb(34.509805%,35.294119%,65.882355%);fill-opacity:1;" d="M 111.527344 102.285156 C 111.375 104.042969 111.0625 107.671875 108.589844 108.789062 C 108.503906 108.824219 106.945312 109.5 105.460938 108.789062 C 103.277344 107.738281 103.011719 104.53125 102.824219 102.285156 C 102.707031 100.847656 102.707031 98.480469 103.648438 95.617188 L 110.398438 95.617188 C 111.652344 98.546875 111.636719 100.992188 111.527344 102.285156 Z M 111.527344 102.285156 "/>
<path style="fill:none;stroke-width:8;stroke-linecap:round;stroke-linejoin:miter;stroke:rgb(34.509805%,35.294119%,65.882355%);stroke-opacity:1;stroke-miterlimit:10;" d="M 399.707031 475.605469 L 444.980469 475.605469 " transform="matrix(0.2,0,0,0.2,0,0)"/>
<path style="fill:none;stroke-width:8;stroke-linecap:round;stroke-linejoin:miter;stroke:rgb(34.509805%,35.294119%,65.882355%);stroke-opacity:1;stroke-miterlimit:10;" d="M 513.300781 475.605469 L 558.59375 475.605469 " transform="matrix(0.2,0,0,0.2,0,0)"/>
<path style=" stroke:none;fill-rule:nonzero;fill:rgb(90.196079%,90.196079%,90.196079%);fill-opacity:1;" d="M 84.84375 96.957031 C 84.566406 96.945312 84.285156 98.15625 84.222656 98.414062 C 84.078125 99.035156 84.160156 99.046875 84.058594 99.238281 C 83.546875 100.179688 81.445312 99.875 81.425781 100.125 C 81.417969 100.226562 81.761719 100.308594 82.3125 100.503906 C 83.144531 100.800781 83.632812 100.972656 83.957031 101.265625 C 84.480469 101.730469 84.261719 102.195312 84.71875 103.925781 C 84.769531 104.121094 85.230469 105.859375 85.476562 105.824219 C 85.703125 105.792969 85.875 104.257812 85.730469 102.785156 C 85.652344 101.972656 85.503906 101.410156 85.859375 101.011719 C 85.996094 100.855469 86.289062 100.734375 86.871094 100.503906 C 87.667969 100.1875 88.011719 100.128906 88.011719 99.996094 C 88.011719 99.929688 87.914062 99.851562 87.125 99.617188 C 86.132812 99.324219 85.84375 99.390625 85.605469 99.113281 C 85.464844 98.945312 85.523438 98.878906 85.351562 98.226562 C 85.160156 97.5 85.027344 96.96875 84.847656 96.960938 Z M 84.84375 96.957031 "/>
<path style=" stroke:none;fill-rule:nonzero;fill:rgb(90.196079%,90.196079%,90.196079%);fill-opacity:1;" d="M 107.234375 96.957031 C 106.957031 96.945312 106.675781 98.15625 106.613281 98.414062 C 106.46875 99.035156 106.550781 99.046875 106.449219 99.238281 C 105.9375 100.179688 103.835938 99.875 103.816406 100.125 C 103.808594 100.226562 104.152344 100.308594 104.703125 100.503906 C 105.535156 100.800781 106.023438 100.972656 106.347656 101.265625 C 106.871094 101.730469 106.648438 102.195312 107.109375 103.925781 C 107.160156 104.121094 107.621094 105.859375 107.867188 105.824219 C 108.09375 105.792969 108.265625 104.257812 108.121094 102.785156 C 108.042969 101.972656 107.890625 101.410156 108.246094 101.011719 C 108.386719 100.855469 108.679688 100.734375 109.261719 100.503906 C 110.058594 100.1875 110.402344 100.128906 110.402344 99.996094 C 110.402344 99.929688 110.304688 99.851562 109.515625 99.617188 C 108.523438 99.324219 108.234375 99.390625 107.996094 99.113281 C 107.855469 98.945312 107.914062 98.878906 107.742188 98.226562 C 107.550781 97.5 107.417969 96.96875 107.234375 96.960938 Z M 107.234375 96.957031 "/>
<path style=" stroke:none;fill-rule:nonzero;fill:rgb(34.509805%,35.294119%,65.882355%);fill-opacity:1;" d="M 81.023438 94.929688 C 80.792969 94.929688 80.589844 94.769531 80.539062 94.539062 L 80.027344 92.121094 C 79.972656 91.855469 80.140625 91.59375 80.40625 91.535156 C 80.675781 91.476562 80.9375 91.648438 80.992188 91.914062 L 81.507812 94.332031 C 81.5625 94.597656 81.390625 94.863281 81.125 94.917969 C 81.09375 94.925781 81.054688 94.929688 81.023438 94.929688 Z M 81.023438 94.929688 "/>
<path style=" stroke:none;fill-rule:nonzero;fill:rgb(34.509805%,35.294119%,65.882355%);fill-opacity:1;" d="M 84.550781 94.957031 C 84.28125 94.957031 84.058594 94.734375 84.058594 94.464844 L 84.058594 91.992188 C 84.058594 91.722656 84.28125 91.5 84.550781 91.5 C 84.824219 91.5 85.046875 91.722656 85.046875 91.992188 L 85.046875 94.464844 C 85.046875 94.734375 84.824219 94.957031 84.550781 94.957031 Z M 84.550781 94.957031 "/>
<path style=" stroke:none;fill-rule:nonzero;fill:rgb(34.509805%,35.294119%,65.882355%);fill-opacity:1;" d="M 87.910156 94.929688 C 87.875 94.929688 87.839844 94.925781 87.804688 94.914062 C 87.539062 94.859375 87.371094 94.59375 87.429688 94.328125 L 87.957031 91.914062 C 88.015625 91.648438 88.28125 91.480469 88.546875 91.539062 C 88.8125 91.597656 88.980469 91.863281 88.921875 92.128906 L 88.390625 94.539062 C 88.34375 94.769531 88.136719 94.929688 87.910156 94.929688 Z M 87.910156 94.929688 "/>
<path style=" stroke:none;fill-rule:nonzero;fill:rgb(34.509805%,35.294119%,65.882355%);fill-opacity:1;" d="M 103.742188 94.929688 C 103.515625 94.929688 103.308594 94.769531 103.261719 94.539062 L 102.746094 92.121094 C 102.691406 91.855469 102.863281 91.59375 103.128906 91.535156 C 103.394531 91.476562 103.65625 91.648438 103.714844 91.914062 L 104.226562 94.332031 C 104.28125 94.597656 104.113281 94.863281 103.847656 94.917969 C 103.8125 94.925781 103.777344 94.929688 103.742188 94.929688 Z M 103.742188 94.929688 "/>
<path style=" stroke:none;fill-rule:nonzero;fill:rgb(34.509805%,35.294119%,65.882355%);fill-opacity:1;" d="M 107.273438 94.957031 C 107 94.957031 106.777344 94.734375 106.777344 94.464844 L 106.777344 91.992188 C 106.777344 91.722656 107 91.5 107.273438 91.5 C 107.542969 91.5 107.765625 91.722656 107.765625 91.992188 L 107.765625 94.464844 C 107.765625 94.734375 107.542969 94.957031 107.273438 94.957031 Z M 107.273438 94.957031 "/>
<path style=" stroke:none;fill-rule:nonzero;fill:rgb(34.509805%,35.294119%,65.882355%);fill-opacity:1;" d="M 110.628906 94.929688 C 110.59375 94.929688 110.558594 94.925781 110.523438 94.914062 C 110.257812 94.859375 110.089844 94.59375 110.148438 94.328125 L 110.679688 91.914062 C 110.734375 91.648438 111 91.480469 111.265625 91.539062 C 111.53125 91.597656 111.699219 91.863281 111.640625 92.128906 L 111.113281 94.539062 C 111.0625 94.769531 110.855469 94.929688 110.628906 94.929688 Z M 110.628906 94.929688 "/>
</g>
</svg>
