<?xml version="1.0" encoding="UTF-8"?>
<svg xmlns="http://www.w3.org/2000/svg" xmlns:xlink="http://www.w3.org/1999/xlink" width="200" height="200" viewBox="0 0 200 200" version="1.1">
<g id="surface1">
<path style=" stroke:none;fill-rule:nonzero;fill:rgb(34.509805%,35.294119%,65.882355%);fill-opacity:1;" d="M 88.972656 102.640625 C 88.972656 106.460938 87.082031 109.558594 84.75 109.558594 C 82.417969 109.558594 80.527344 106.460938 80.527344 102.640625 C 80.527344 98.824219 82.417969 95.726562 84.75 95.726562 C 87.082031 95.726562 88.972656 98.824219 88.972656 102.640625 Z M 88.972656 102.640625 "/>
<path style=" stroke:none;fill-rule:nonzero;fill:rgb(100%,100%,100%);fill-opacity:1;" d="M 85.320312 99.445312 C 85.320312 100.285156 84.640625 100.964844 83.804688 100.964844 C 82.964844 100.964844 82.285156 100.285156 82.285156 99.445312 C 82.285156 98.609375 82.964844 97.929688 83.804688 97.929688 C 84.640625 97.929688 85.320312 98.609375 85.320312 99.445312 Z M 85.320312 99.445312 "/>
<path style=" stroke:none;fill-rule:nonzero;fill:rgb(34.509805%,35.294119%,65.882355%);fill-opacity:1;" d="M 81.8125 90.320312 C 80.84375 89.6875 80.40625 88.726562 80.246094 88.269531 C 80.136719 87.960938 80.304688 87.535156 80.621094 87.320312 C 80.9375 87.105469 81.28125 87.183594 81.390625 87.492188 C 81.550781 87.949219 82.066406 89.054688 83.355469 89.4375 C 84.503906 89.777344 85.613281 89.363281 86.175781 89.085938 C 86.503906 88.925781 86.816406 89.066406 86.875 89.40625 C 86.933594 89.746094 86.710938 90.152344 86.382812 90.3125 C 85.664062 90.667969 84.242188 91.199219 82.769531 90.761719 C 82.402344 90.652344 82.089844 90.503906 81.8125 90.320312 Z M 81.8125 90.320312 "/>
<path style=" stroke:none;fill-rule:nonzero;fill:rgb(34.509805%,35.294119%,65.882355%);fill-opacity:1;" d="M 110.890625 102.640625 C 110.890625 106.460938 109 109.558594 106.667969 109.558594 C 104.335938 109.558594 102.445312 106.460938 102.445312 102.640625 C 102.445312 98.824219 104.335938 95.726562 106.667969 95.726562 C 109 95.726562 110.890625 98.824219 110.890625 102.640625 Z M 110.890625 102.640625 "/>
<path style=" stroke:none;fill-rule:nonzero;fill:rgb(100%,100%,100%);fill-opacity:1;" d="M 107.375 99.445312 C 107.375 100.285156 106.695312 100.964844 105.855469 100.964844 C 105.019531 100.964844 104.339844 100.285156 104.339844 99.445312 C 104.339844 98.609375 105.019531 97.929688 105.855469 97.929688 C 106.695312 97.929688 107.375 98.609375 107.375 99.445312 Z M 107.375 99.445312 "/>
<path style=" stroke:none;fill-rule:nonzero;fill:rgb(34.509805%,35.294119%,65.882355%);fill-opacity:1;" d="M 103.386719 89.523438 C 102.417969 88.886719 101.980469 87.925781 101.820312 87.46875 C 101.710938 87.160156 101.878906 86.734375 102.195312 86.523438 C 102.511719 86.304688 102.855469 86.382812 102.964844 86.691406 C 103.125 87.148438 103.640625 88.257812 104.929688 88.636719 C 106.078125 88.976562 107.1875 88.5625 107.746094 88.285156 C 108.078125 88.125 108.390625 88.265625 108.449219 88.605469 C 108.507812 88.945312 108.285156 89.351562 107.957031 89.515625 C 107.238281 89.867188 105.816406 90.398438 104.34375 89.960938 C 103.976562 89.855469 103.660156 89.703125 103.386719 89.523438 Z M 103.386719 89.523438 "/>
<path style=" stroke:none;fill-rule:nonzero;fill:rgb(34.509805%,35.294119%,65.882355%);fill-opacity:1;" d="M 95.59375 115.785156 C 98.113281 115.785156 100.4375 117.46875 101.257812 119.980469 C 101.40625 120.441406 101.15625 120.9375 100.695312 121.089844 C 100.234375 121.238281 99.738281 120.988281 99.589844 120.527344 C 98.957031 118.601562 97.097656 117.355469 95.164062 117.566406 C 93.480469 117.753906 92.050781 119.03125 91.605469 120.746094 C 91.484375 121.21875 91.007812 121.5 90.535156 121.378906 C 90.066406 121.257812 89.785156 120.78125 89.902344 120.308594 C 90.527344 117.890625 92.566406 116.085938 94.972656 115.820312 C 95.183594 115.796875 95.386719 115.785156 95.59375 115.785156 Z M 95.59375 115.785156 "/>
</g>
</svg>
