<?xml version="1.0" encoding="UTF-8"?>
<svg id="Pots" xmlns="http://www.w3.org/2000/svg" viewBox="0 0 1000 1000">
  <defs>
    <style>
      .cls-1 {
        fill: #fff;
      }

      .cls-2 {
        fill: #5461ab;
      }

      .cls-3 {
        fill: #b9499a;
      }
    </style>
  </defs>
  <path class="cls-2" d="M471.45,513.17c-.14,11.29-2.94,21.7-9.6,30.86-8.53,11.74-22.57,13.55-33.36,3.92-12.86-11.48-20.42-25.82-20.12-43.38,.36-21.41,22.83-37,42.04-29.32,12.23,4.89,17.5,15.17,19.86,27.33,.68,3.48,.8,7.06,1.18,10.6Zm-5.48,2.42c.02-8.9-1.77-16.69-5.32-23.08-5.25-9.46-14.5-14.11-24.59-12.37-12.63,2.18-22.44,14.4-22.03,27.95,.43,14.18,6.3,26.17,16.05,36.21,9.53,9.82,21.41,8.43,28.78-3.16,4.94-7.77,7.26-16.33,7.11-25.55Z"/>
  <path class="cls-2" d="M551.24,502.89c.52,17.2-5.39,32.11-18.52,43.6-13.47,11.79-29.03,8.69-37.27-7.21-4.6-8.88-6.84-18.36-6.82-30.35-.04-9.29,2.75-19.52,11.6-27.16,9.78-8.45,20.98-11.34,33.2-6.28,11.99,4.96,17.44,14.97,17.81,27.4"/>
  <path class="cls-2" d="M454.54,582.28c-1.94,1.37-3.45,2.56-5.07,3.54-.73,.44-1.7,.49-2.56,.72-.12-.9-.5-1.85-.31-2.68,1.35-6,7-9.9,12.95-8.95,.73,.12,1.79,.67,1.92,1.21,.14,.56-.5,1.7-1.09,1.98-2.86,1.35-2.56,3.47-1.78,5.86,2.36,7.21,6.3,13.32,12.51,17.78,7.18,5.16,13.97,5.03,21.04-.35,6.82-5.19,9.31-12.77,11.01-20.67,.17-.8-1.53-2.02-2.38-3.02-.58-.68-1.21-1.32-1.81-1.98,.74-.55,1.39-1.38,2.22-1.62,5.21-1.51,11.42,1.98,12.91,7.17,.54,1.87-.33,2.67-2.06,2.14-1.61-.49-3.09-1.38-5-2.27-.71,3.26-1.25,6.22-2,9.12-1.61,6.19-4.42,11.7-9.42,15.91-9.58,8.07-20.87,7.73-29.86-.96-6.33-6.11-9.75-13.7-11.22-22.95Z"/>
  <path class="cls-2" d="M411.29,470.4c.52-8.53,2.06-15.4,6.59-21.27,7.74-10.02,20.58-9.46,27.31,1.25,.61,.97,.17,2.58,.22,3.9-1.21-.15-2.67,.1-3.57-.51-7.85-5.27-11.28-5.07-17.05,2.44-3.24,4.22-5.45,9.23-8.26,13.8-.84,1.37-2.14,2.45-3.23,3.67-.85-1.4-1.71-2.81-2-3.29Z"/>
  <path class="cls-2" d="M541.2,466.78c0,1.26,.15,1.82-.03,2.23-.54,1.22-1.22,2.37-1.84,3.55-.97-.89-2.19-1.63-2.86-2.71-3.4-5.48-6.21-11.39-10.1-16.48-4.35-5.7-8.78-5.67-14.72-1.47-1.15,.82-2.92,.76-4.4,1.11,.27-1.6,.02-3.6,.89-4.75,7.81-10.38,20.22-9.94,27.54,.87,3.76,5.55,5.24,11.81,5.52,17.65Z"/>
  <path class="cls-1" d="M465.98,515.59c.15,9.22-2.18,17.78-7.11,25.55-7.36,11.59-19.24,12.98-28.78,3.16-9.75-10.04-15.62-22.03-16.05-36.21-.41-13.55,9.39-25.77,22.03-27.95,10.09-1.74,19.34,2.91,24.59,12.37,3.55,6.39,5.34,14.18,5.32,23.08Zm-31.14,10.82c.05,5.8,3.91,10.24,8.86,10.19,4.92-.05,8.81-4.61,8.82-10.32,0-5.59-4.02-10.41-8.76-10.49-4.97-.08-8.97,4.69-8.92,10.62Z"/>
  <path class="cls-1" d="M545.57,508.5c-.52,11.39-4.51,23.26-13.79,32.98-1.94,2.03-4.11,3.92-6.47,5.44-9.01,5.81-18.81,3.84-24.13-5.4-7.84-13.62-9.87-28.27-5-43.35,4.1-12.72,18.2-20.7,30.64-18.01,11.77,2.55,18.72,12.38,18.75,28.34Zm-39.97,17.4c-.03,5.79,3.73,10.36,8.62,10.48,4.94,.12,9.13-4.74,9.06-10.5-.07-5.69-4.06-10.29-8.91-10.27-4.95,.02-8.74,4.47-8.78,10.3Z"/>
  <path class="cls-2" d="M434.84,526.41c-.05-5.93,3.95-10.7,8.92-10.62,4.74,.08,8.77,4.9,8.76,10.49,0,5.71-3.9,10.27-8.82,10.32-4.94,.05-8.81-4.39-8.86-10.19Z"/>
  <path class="cls-2" d="M417.59,487.98l.22-.17c-.01,.06-.02,.11-.04,.17-.06,0-.12,0-.18,0Z"/>
  <path class="cls-2" d="M405.21,478.9c5.31-.23,10.13,1.09,14.52,4.22,.93,.67,2.93,.84,3.9,.29l-5.82,4.39c.13-.6,.26-1.2,.39-1.8-5.08-2.11-10.15-4.22-15.56-6.47"/>
  <path class="cls-2" d="M393.09,489.22c.72-1.05,1.56-1.67,2.49-2.07,6.18-2.71,12.26-1.98,18.34,.51,1.09,.45,2.43,.26,3.68,.31l-4.78,3.61c-6.37-3.22-12.81-3.88-19.73-2.36"/>
  <path class="cls-2" d="M542.53,486.09l-.22-.17c.01,.06,.02,.11,.04,.17,.06,0,.12,0,.18,0Z"/>
  <path class="cls-2" d="M554.91,477.01c-5.31-.23-10.13,1.09-14.52,4.22-.93,.67-2.93,.84-3.9,.29l5.82,4.39c-.13-.6-.26-1.2-.39-1.8,5.08-2.11,10.15-4.22,15.56-6.47"/>
  <path class="cls-2" d="M567.04,487.34c-.72-1.05-1.56-1.67-2.49-2.07-6.18-2.71-12.26-1.98-18.34,.51-1.09,.45-2.43,.26-3.68,.31l4.78,3.61c6.37-3.22,12.81-3.88,19.73-2.36"/>
  <path class="cls-1" d="M514.99,523.55c1.18,0,2.15,.96,2.15,2.15s-.96,2.15-2.15,2.15-2.15-.96-2.15-2.15,.96-2.15,2.15-2.15"/>
  <path class="cls-1" d="M443.68,524.06c1.18,0,2.15,.96,2.15,2.15s-.96,2.15-2.15,2.15-2.15-.96-2.15-2.15,.96-2.15,2.15-2.15"/>
  <path class="cls-3" d="M458.18,488.88c-15.39-2.29-29.71,.07-42.98,8.45,1.6-8.67,11.12-17.29,20.35-18.75,9.17-1.45,18.43,2.64,22.63,10.3Z"/>
  <path class="cls-3" d="M501.79,488.96c15.39-2.29,29.71,.07,42.98,8.45-1.6-8.67-11.12-17.29-20.35-18.75-9.17-1.45-18.43,2.64-22.63,10.3Z"/>
  <path class="cls-2" d="M415.86,496.36c.18-.27,.47-1.03,1.19-1.59,2.08-1.61,4.32-2.57,5.97-3.36,3.49-1.67,6.44-2.76,7.7-3.05,7.94-1.84,10.19-2.57,16.06-2.35,8.31,.3,10.55-.38,12.36,1.16,2.92,2.49,3.88,6.15,3.37,6.66-.72,.73-5.27-.91-12.05-.91-8.22,0-13.64-.17-17.52,.86-10.44,2.79-13.26,4.33-17.81,6.49-1.29,.62-.38-2.3,.72-3.92Z"/>
  <path class="cls-2" d="M544.21,497.01c-.18-.27-.47-1.03-1.19-1.59-2.08-1.61-4.32-2.57-5.97-3.36-3.49-1.67-6.44-2.76-7.7-3.05-7.94-1.84-10.19-2.57-16.06-2.35-8.31,.3-10.55-.38-12.36,1.16-2.92,2.49-3.88,6.15-3.37,6.66,.72,.73,5.27-.91,12.05-.91,8.22,0,13.64-.17,17.52,.86,10.44,2.79,13.26,4.33,17.81,6.49,1.29,.62,.38-2.3-.72-3.92Z"/>
</svg>