<?xml version="1.0" encoding="UTF-8"?>
<svg xmlns="http://www.w3.org/2000/svg" xmlns:xlink="http://www.w3.org/1999/xlink" width="200" height="200" viewBox="0 0 200 200" version="1.1">
<g id="surface1">
<path style=" stroke:none;fill-rule:nonzero;fill:rgb(32.941177%,38.039216%,67.058825%);fill-opacity:1;" d="M 94.289062 102.632812 C 94.261719 104.890625 93.703125 106.972656 92.371094 108.804688 C 90.664062 111.152344 87.855469 111.515625 85.699219 109.589844 C 83.125 107.292969 81.613281 104.425781 81.675781 100.914062 C 81.746094 96.632812 86.238281 93.515625 90.082031 95.050781 C 92.527344 96.027344 93.582031 98.085938 94.054688 100.515625 C 94.191406 101.210938 94.214844 101.929688 94.289062 102.636719 Z M 93.195312 103.117188 C 93.199219 101.339844 92.839844 99.78125 92.128906 98.503906 C 91.078125 96.609375 89.230469 95.679688 87.210938 96.027344 C 84.6875 96.464844 82.722656 98.90625 82.804688 101.617188 C 82.890625 104.453125 84.066406 106.851562 86.015625 108.859375 C 87.921875 110.824219 90.296875 110.546875 91.773438 108.226562 C 92.761719 106.675781 93.222656 104.960938 93.195312 103.117188 Z M 93.195312 103.117188 "/>
<path style=" stroke:none;fill-rule:nonzero;fill:rgb(32.941177%,38.039216%,67.058825%);fill-opacity:1;" d="M 110.246094 100.578125 C 110.351562 104.019531 109.171875 107 106.542969 109.296875 C 103.851562 111.65625 100.738281 111.035156 99.089844 107.855469 C 98.171875 106.078125 97.722656 104.183594 97.726562 101.785156 C 97.71875 99.929688 98.277344 97.882812 100.046875 96.355469 C 102.003906 94.664062 104.242188 94.085938 106.6875 95.097656 C 109.085938 96.089844 110.175781 98.09375 110.246094 100.578125 "/>
<path style=" stroke:none;fill-rule:nonzero;fill:rgb(32.941177%,38.039216%,67.058825%);fill-opacity:1;" d="M 90.90625 116.457031 C 90.519531 116.730469 90.21875 116.96875 89.894531 117.164062 C 89.746094 117.253906 89.554688 117.261719 89.382812 117.308594 C 89.359375 117.128906 89.28125 116.9375 89.320312 116.773438 C 89.589844 115.570312 90.71875 114.792969 91.910156 114.980469 C 92.054688 115.007812 92.269531 115.117188 92.292969 115.222656 C 92.320312 115.335938 92.195312 115.5625 92.074219 115.621094 C 91.503906 115.890625 91.5625 116.3125 91.71875 116.792969 C 92.191406 118.234375 92.980469 119.457031 94.222656 120.347656 C 95.65625 121.378906 97.015625 121.355469 98.429688 120.277344 C 99.792969 119.238281 100.292969 117.722656 100.632812 116.144531 C 100.664062 115.984375 100.324219 115.738281 100.15625 115.539062 C 100.039062 115.402344 99.914062 115.277344 99.792969 115.144531 C 99.941406 115.035156 100.070312 114.867188 100.238281 114.820312 C 101.28125 114.519531 102.523438 115.214844 102.820312 116.253906 C 102.929688 116.628906 102.753906 116.789062 102.40625 116.683594 C 102.085938 116.585938 101.789062 116.40625 101.40625 116.226562 C 101.265625 116.878906 101.15625 117.472656 101.007812 118.050781 C 100.6875 119.289062 100.125 120.390625 99.125 121.234375 C 97.207031 122.847656 94.949219 122.78125 93.152344 121.042969 C 91.886719 119.820312 91.203125 118.300781 90.90625 116.453125 Z M 90.90625 116.457031 "/>
<path style=" stroke:none;fill-rule:nonzero;fill:rgb(32.941177%,38.039216%,67.058825%);fill-opacity:1;" d="M 82.257812 94.078125 C 82.363281 92.375 82.671875 91 83.574219 89.824219 C 85.125 87.820312 87.691406 87.933594 89.039062 90.074219 C 89.160156 90.269531 89.070312 90.59375 89.082031 90.855469 C 88.839844 90.824219 88.546875 90.875 88.367188 90.753906 C 86.796875 89.699219 86.113281 89.738281 84.957031 91.242188 C 84.308594 92.085938 83.867188 93.089844 83.304688 94.003906 C 83.136719 94.277344 82.878906 94.492188 82.660156 94.734375 C 82.488281 94.457031 82.316406 94.175781 82.261719 94.078125 Z M 82.257812 94.078125 "/>
<path style=" stroke:none;fill-rule:nonzero;fill:rgb(32.941177%,38.039216%,67.058825%);fill-opacity:1;" d="M 108.238281 93.355469 C 108.238281 93.609375 108.269531 93.71875 108.234375 93.800781 C 108.125 94.046875 107.988281 94.277344 107.867188 94.511719 C 107.671875 94.335938 107.429688 94.1875 107.292969 93.96875 C 106.613281 92.875 106.050781 91.691406 105.273438 90.675781 C 104.402344 89.535156 103.519531 89.539062 102.328125 90.378906 C 102.101562 90.542969 101.746094 90.53125 101.449219 90.601562 C 101.503906 90.28125 101.453125 89.882812 101.628906 89.652344 C 103.191406 87.574219 105.671875 87.664062 107.136719 89.824219 C 107.886719 90.9375 108.183594 92.1875 108.238281 93.355469 Z M 108.238281 93.355469 "/>
<path style=" stroke:none;fill-rule:nonzero;fill:rgb(100%,100%,100%);fill-opacity:1;" d="M 93.195312 103.117188 C 93.226562 104.960938 92.761719 106.675781 91.773438 108.226562 C 90.300781 110.546875 87.925781 110.824219 86.019531 108.859375 C 84.066406 106.851562 82.894531 104.453125 82.808594 101.617188 C 82.726562 98.90625 84.6875 96.464844 87.214844 96.027344 C 89.230469 95.679688 91.082031 96.609375 92.132812 98.503906 C 92.84375 99.78125 93.199219 101.339844 93.195312 103.117188 Z M 86.96875 105.28125 C 86.976562 106.441406 87.75 107.328125 88.738281 107.320312 C 89.722656 107.308594 90.503906 106.398438 90.503906 105.257812 C 90.503906 104.136719 89.699219 103.175781 88.753906 103.15625 C 87.757812 103.140625 86.957031 104.097656 86.96875 105.28125 Z M 86.96875 105.28125 "/>
<path style=" stroke:none;fill-rule:nonzero;fill:rgb(100%,100%,100%);fill-opacity:1;" d="M 109.113281 101.699219 C 109.011719 103.976562 108.210938 106.351562 106.355469 108.296875 C 105.96875 108.703125 105.535156 109.078125 105.0625 109.382812 C 103.261719 110.546875 101.300781 110.152344 100.234375 108.304688 C 98.667969 105.578125 98.261719 102.648438 99.234375 99.632812 C 100.054688 97.089844 102.875 95.492188 105.363281 96.03125 C 107.71875 96.542969 109.109375 98.507812 109.113281 101.699219 Z M 101.121094 105.179688 C 101.113281 106.339844 101.867188 107.253906 102.84375 107.277344 C 103.832031 107.300781 104.671875 106.328125 104.65625 105.175781 C 104.640625 104.039062 103.84375 103.117188 102.875 103.121094 C 101.882812 103.125 101.125 104.015625 101.117188 105.183594 Z M 101.121094 105.179688 "/>
<path style=" stroke:none;fill-rule:nonzero;fill:rgb(32.941177%,38.039216%,67.058825%);fill-opacity:1;" d="M 86.96875 105.28125 C 86.957031 104.097656 87.757812 103.140625 88.753906 103.15625 C 89.699219 103.175781 90.507812 104.136719 90.503906 105.257812 C 90.503906 106.398438 89.722656 107.308594 88.738281 107.320312 C 87.753906 107.328125 86.976562 106.441406 86.96875 105.28125 Z M 86.96875 105.28125 "/>
<path style=" stroke:none;fill-rule:nonzero;fill:rgb(32.941177%,38.039216%,67.058825%);fill-opacity:1;" d="M 83.519531 97.597656 L 83.5625 97.5625 C 83.558594 97.574219 83.558594 97.585938 83.554688 97.597656 C 83.542969 97.597656 83.53125 97.597656 83.519531 97.597656 Z M 83.519531 97.597656 "/>
<path style=" stroke:none;fill-rule:nonzero;fill:rgb(32.941177%,38.039216%,67.058825%);fill-opacity:1;" d="M 81.042969 95.78125 C 82.105469 95.734375 83.066406 95.996094 83.945312 96.625 C 84.132812 96.757812 84.53125 96.792969 84.726562 96.683594 L 83.5625 97.558594 C 83.589844 97.441406 83.613281 97.320312 83.640625 97.199219 C 82.625 96.777344 81.609375 96.355469 80.527344 95.90625 "/>
<path style=" stroke:none;fill-rule:nonzero;fill:rgb(32.941177%,38.039216%,67.058825%);fill-opacity:1;" d="M 78.617188 97.84375 C 78.761719 97.632812 78.929688 97.511719 79.117188 97.429688 C 80.351562 96.886719 81.566406 97.035156 82.785156 97.53125 C 83.003906 97.621094 83.269531 97.585938 83.519531 97.59375 L 82.5625 98.316406 C 81.289062 97.671875 80.003906 97.539062 78.617188 97.84375 "/>
<path style=" stroke:none;fill-rule:nonzero;fill:rgb(32.941177%,38.039216%,67.058825%);fill-opacity:1;" d="M 108.507812 97.21875 L 108.460938 97.183594 C 108.464844 97.195312 108.464844 97.207031 108.46875 97.21875 C 108.480469 97.21875 108.492188 97.21875 108.507812 97.21875 Z M 108.507812 97.21875 "/>
<path style=" stroke:none;fill-rule:nonzero;fill:rgb(32.941177%,38.039216%,67.058825%);fill-opacity:1;" d="M 110.980469 95.402344 C 109.921875 95.355469 108.957031 95.621094 108.078125 96.246094 C 107.890625 96.378906 107.492188 96.414062 107.296875 96.304688 L 108.460938 97.183594 C 108.4375 97.0625 108.410156 96.941406 108.382812 96.820312 C 109.398438 96.398438 110.414062 95.976562 111.496094 95.527344 "/>
<path style=" stroke:none;fill-rule:nonzero;fill:rgb(32.941177%,38.039216%,67.058825%);fill-opacity:1;" d="M 113.40625 97.46875 C 113.265625 97.257812 113.097656 97.132812 112.910156 97.054688 C 111.675781 96.511719 110.457031 96.65625 109.242188 97.15625 C 109.023438 97.246094 108.757812 97.207031 108.507812 97.21875 L 109.460938 97.941406 C 110.734375 97.296875 112.023438 97.164062 113.40625 97.46875 "/>
<path style=" stroke:none;fill-rule:nonzero;fill:rgb(100%,100%,100%);fill-opacity:1;" d="M 102.996094 104.710938 C 103.234375 104.710938 103.429688 104.902344 103.429688 105.140625 C 103.429688 105.378906 103.234375 105.570312 102.996094 105.570312 C 102.761719 105.570312 102.566406 105.378906 102.566406 105.140625 C 102.566406 104.902344 102.761719 104.710938 102.996094 104.710938 "/>
<path style=" stroke:none;fill-rule:nonzero;fill:rgb(100%,100%,100%);fill-opacity:1;" d="M 88.734375 104.8125 C 88.972656 104.8125 89.164062 105.003906 89.164062 105.242188 C 89.164062 105.480469 88.972656 105.671875 88.734375 105.671875 C 88.496094 105.671875 88.304688 105.480469 88.304688 105.242188 C 88.304688 105.003906 88.496094 104.8125 88.734375 104.8125 "/>
<path style=" stroke:none;fill-rule:nonzero;fill:rgb(72.549021%,28.627452%,60.392159%);fill-opacity:1;" d="M 91.636719 97.777344 C 88.558594 97.316406 85.695312 97.789062 83.039062 99.464844 C 83.359375 97.730469 85.265625 96.007812 87.109375 95.714844 C 88.945312 95.425781 90.796875 96.242188 91.636719 97.777344 Z M 91.636719 97.777344 "/>
<path style=" stroke:none;fill-rule:nonzero;fill:rgb(72.549021%,28.627452%,60.392159%);fill-opacity:1;" d="M 100.359375 97.792969 C 103.4375 97.335938 106.300781 97.804688 108.953125 99.480469 C 108.632812 97.746094 106.730469 96.023438 104.882812 95.730469 C 103.050781 95.441406 101.199219 96.261719 100.359375 97.792969 Z M 100.359375 97.792969 "/>
<path style=" stroke:none;fill-rule:nonzero;fill:rgb(32.941177%,38.039216%,67.058825%);fill-opacity:1;" d="M 83.171875 99.273438 C 83.207031 99.21875 83.265625 99.066406 83.410156 98.953125 C 83.824219 98.632812 84.273438 98.441406 84.605469 98.28125 C 85.300781 97.949219 85.890625 97.730469 86.144531 97.671875 C 87.730469 97.304688 88.183594 97.15625 89.355469 97.203125 C 91.019531 97.261719 91.464844 97.125 91.828125 97.433594 C 92.410156 97.933594 92.605469 98.664062 92.503906 98.765625 C 92.359375 98.910156 91.449219 98.585938 90.09375 98.585938 C 88.449219 98.585938 87.363281 98.550781 86.589844 98.757812 C 84.5 99.3125 83.9375 99.621094 83.027344 100.054688 C 82.769531 100.179688 82.949219 99.59375 83.171875 99.269531 Z M 83.171875 99.273438 "/>
<path style=" stroke:none;fill-rule:nonzero;fill:rgb(32.941177%,38.039216%,67.058825%);fill-opacity:1;" d="M 108.84375 99.402344 C 108.804688 99.347656 108.746094 99.195312 108.605469 99.085938 C 108.1875 98.761719 107.738281 98.570312 107.410156 98.410156 C 106.710938 98.078125 106.121094 97.859375 105.871094 97.800781 C 104.28125 97.433594 103.832031 97.289062 102.65625 97.332031 C 100.996094 97.390625 100.546875 97.257812 100.1875 97.5625 C 99.601562 98.0625 99.410156 98.792969 99.511719 98.894531 C 99.65625 99.042969 100.566406 98.714844 101.921875 98.714844 C 103.566406 98.714844 104.648438 98.679688 105.425781 98.886719 C 107.515625 99.445312 108.078125 99.753906 108.988281 100.183594 C 109.246094 100.308594 109.0625 99.722656 108.84375 99.398438 Z M 108.84375 99.402344 "/>
</g>
</svg>
