<?xml version="1.0" encoding="UTF-8"?>
<svg xmlns="http://www.w3.org/2000/svg" xmlns:xlink="http://www.w3.org/1999/xlink" width="200" height="200" viewBox="0 0 200 200" version="1.1">
<g id="surface1">
<path style=" stroke:none;fill-rule:nonzero;fill:rgb(32.941177%,38.039216%,67.058825%);fill-opacity:1;" d="M 86.757812 89.574219 C 86.265625 89.855469 85.710938 90.0625 85.289062 90.429688 C 84.371094 91.230469 83.527344 92.113281 82.640625 92.953125 C 82.457031 93.128906 82.242188 93.285156 82.015625 93.390625 C 81.894531 93.445312 81.65625 93.425781 81.574219 93.339844 C 81.496094 93.257812 81.492188 93 81.5625 92.898438 C 82.507812 91.59375 83.417969 90.253906 84.453125 89.019531 C 85.089844 88.253906 86.015625 87.882812 87.054688 88.070312 C 87.625 88.171875 88.144531 88.421875 88.027344 89.113281 C 87.921875 89.734375 87.449219 89.898438 86.757812 89.574219 Z M 86.757812 89.574219 "/>
<path style=" stroke:none;fill-rule:nonzero;fill:rgb(32.941177%,38.039216%,67.058825%);fill-opacity:1;" d="M 106.230469 88.285156 C 107.339844 89.105469 108.007812 90.601562 109.03125 92.039062 C 109.113281 92.152344 109.023438 92.390625 109.015625 92.570312 C 108.828125 92.550781 108.59375 92.59375 108.46875 92.492188 C 107.890625 92.035156 107.332031 91.550781 106.789062 91.050781 C 106.207031 90.511719 105.683594 89.894531 105.0625 89.402344 C 104.734375 89.140625 104.242188 88.921875 103.847656 88.957031 C 103.21875 89.015625 102.722656 88.980469 102.609375 88.292969 C 102.566406 88.050781 102.601562 87.867188 102.683594 87.722656 C 102.902344 87.339844 103.441406 87.261719 103.660156 87.230469 C 103.972656 87.195312 104.726562 87.179688 106.230469 88.289062 Z M 106.230469 88.285156 "/>
<path style=" stroke:none;fill-rule:nonzero;fill:rgb(32.941177%,38.039216%,67.058825%);fill-opacity:1;" d="M 109.335938 100.609375 C 109.171875 103.375 108.085938 106.144531 105.585938 108.226562 C 103.046875 110.335938 100.121094 109.773438 98.585938 106.859375 C 97.164062 104.167969 96.703125 101.316406 97.585938 98.351562 C 98.875 94.027344 104.441406 92.414062 107.554688 95.441406 C 108.890625 96.738281 109.34375 98.378906 109.335938 100.609375 Z M 98.121094 101.65625 C 98.175781 103.425781 98.527344 105.117188 99.335938 106.695312 C 100.53125 109.03125 102.746094 109.507812 104.785156 107.835938 C 106.871094 106.125 107.871094 103.839844 108.175781 101.203125 C 108.226562 100.757812 108.070312 100.511719 107.6875 100.292969 C 105.222656 98.90625 102.605469 98.296875 99.785156 98.640625 C 98.515625 98.792969 98.449219 98.867188 98.277344 100.164062 C 98.210938 100.660156 98.171875 101.15625 98.121094 101.652344 Z M 108.125 99.734375 C 108.105469 97.484375 106.585938 95.613281 104.542969 95.21875 C 102.65625 94.855469 100.164062 95.890625 99.546875 97.316406 C 102.730469 96.835938 105.53125 97.746094 108.125 99.734375 Z M 108.125 99.734375 "/>
<path style=" stroke:none;fill-rule:nonzero;fill:rgb(100%,100%,100%);fill-opacity:1;" d="M 98.121094 101.65625 C 98.171875 101.15625 98.210938 100.660156 98.277344 100.164062 C 98.449219 98.871094 98.519531 98.796875 99.785156 98.640625 C 102.605469 98.296875 105.222656 98.90625 107.6875 100.296875 C 108.070312 100.511719 108.226562 100.757812 108.175781 101.203125 C 107.871094 103.84375 106.871094 106.128906 104.785156 107.839844 C 102.746094 109.507812 100.53125 109.03125 99.335938 106.695312 C 98.527344 105.117188 98.175781 103.429688 98.121094 101.65625 Z M 98.121094 101.65625 "/>
<path style=" stroke:none;fill-rule:nonzero;fill:rgb(72.549021%,28.627452%,60.392159%);fill-opacity:1;" d="M 108.152344 99.734375 C 105.558594 97.746094 102.070312 97.878906 98.886719 98.359375 C 99.792969 95.820312 102.191406 95.101562 104.277344 94.914062 C 106.050781 94.902344 108.195312 97.328125 108.152344 99.734375 Z M 108.152344 99.734375 "/>
<path style=" stroke:none;fill-rule:nonzero;fill:rgb(100%,100%,100%);fill-opacity:1;" d="M 92.808594 101.367188 C 92.839844 103.699219 92.429688 105.535156 91.324219 107.171875 C 89.898438 109.285156 87.671875 109.523438 85.882812 107.703125 C 83.925781 105.714844 82.800781 103.324219 82.699219 100.496094 C 82.683594 100.105469 82.773438 99.832031 83.164062 99.648438 C 85.964844 98.34375 88.878906 98.085938 91.882812 98.65625 C 92.089844 98.695312 92.351562 98.992188 92.402344 99.214844 C 92.601562 100.046875 92.722656 100.894531 92.808594 101.367188 Z M 92.808594 101.367188 "/>
<path style=" stroke:none;fill-rule:nonzero;fill:rgb(72.549021%,28.627452%,60.392159%);fill-opacity:1;" d="M 91.378906 97.207031 C 88.402344 96.765625 85.675781 96.773438 83.109375 98.398438 C 83.417969 96.722656 85.632812 94.441406 87.628906 94.496094 C 89.425781 94.546875 90.566406 95.726562 91.382812 97.207031 Z M 91.378906 97.207031 "/>
<path style=" stroke:none;fill-rule:nonzero;fill:rgb(32.941177%,38.039216%,67.058825%);fill-opacity:1;" d="M 89.382812 119.257812 C 88.71875 119.132812 88.300781 118.847656 88.089844 118.675781 C 87.476562 118.179688 87.0625 117.582031 86.96875 116.265625 C 86.953125 116.03125 86.945312 115.792969 86.972656 115.5625 C 86.980469 115.476562 87.101562 115.402344 87.171875 115.324219 C 87.238281 115.402344 87.34375 115.472656 87.367188 115.558594 C 87.414062 115.734375 87.410156 115.925781 87.433594 116.109375 C 87.683594 118.15625 89.101562 119.097656 91.078125 118.449219 C 91.867188 118.1875 92.605469 117.773438 93.355469 117.40625 C 94.992188 116.609375 96.605469 115.761719 98.261719 115 C 99.421875 114.46875 100.636719 114.457031 101.820312 114.964844 C 102.816406 115.394531 103.414062 116.15625 103.625 117.34375 C 103.511719 117.449219 103.367188 117.695312 103.195312 117.710938 C 103.023438 117.730469 102.703125 117.558594 102.660156 117.410156 C 102.460938 116.707031 102.101562 116.15625 101.414062 115.867188 C 100.597656 115.519531 99.734375 115.449219 98.921875 115.800781 C 97.9375 116.222656 96.933594 116.488281 94.136719 117.992188 C 93.050781 118.578125 92.511719 118.886719 91.609375 119.09375 C 90.703125 119.300781 89.921875 119.292969 89.386719 119.257812 Z M 89.382812 119.257812 "/>
<path style=" stroke:none;fill-rule:nonzero;fill:rgb(32.941177%,38.039216%,67.058825%);fill-opacity:1;" d="M 108.398438 97.84375 L 108.371094 97.789062 C 108.367188 97.800781 108.363281 97.8125 108.363281 97.824219 C 108.375 97.828125 108.386719 97.835938 108.398438 97.84375 Z M 108.398438 97.84375 "/>
<path style=" stroke:none;fill-rule:nonzero;fill:rgb(32.941177%,38.039216%,67.058825%);fill-opacity:1;" d="M 111.722656 97.125 C 110.671875 96.597656 109.574219 96.429688 108.40625 96.667969 C 108.15625 96.71875 107.738281 96.574219 107.589844 96.375 L 108.371094 97.789062 C 108.398438 97.65625 108.425781 97.523438 108.453125 97.390625 C 109.671875 97.425781 110.886719 97.453125 112.183594 97.488281 "/>
<path style=" stroke:none;fill-rule:nonzero;fill:rgb(32.941177%,38.039216%,67.058825%);fill-opacity:1;" d="M 113.242188 100.304688 C 113.191406 100.027344 113.074219 99.828125 112.925781 99.660156 C 111.921875 98.554688 110.625 98.15625 109.171875 98.109375 C 108.910156 98.101562 108.65625 97.941406 108.398438 97.84375 L 109.042969 99.003906 C 110.621094 98.925781 111.980469 99.371094 113.242188 100.304688 "/>
<path style=" stroke:none;fill-rule:nonzero;fill:rgb(32.941177%,38.039216%,67.058825%);fill-opacity:1;" d="M 82.445312 98.398438 L 82.464844 98.339844 C 82.46875 98.351562 82.472656 98.363281 82.476562 98.375 C 82.464844 98.382812 82.457031 98.390625 82.445312 98.398438 Z M 82.445312 98.398438 "/>
<path style=" stroke:none;fill-rule:nonzero;fill:rgb(32.941177%,38.039216%,67.058825%);fill-opacity:1;" d="M 79.046875 98.230469 C 80 97.539062 81.050781 97.195312 82.246094 97.238281 C 82.5 97.25 82.890625 97.039062 83.003906 96.816406 L 82.464844 98.339844 C 82.414062 98.214844 82.367188 98.085938 82.316406 97.960938 C 81.121094 98.191406 79.925781 98.417969 78.652344 98.664062 "/>
<path style=" stroke:none;fill-rule:nonzero;fill:rgb(32.941177%,38.039216%,67.058825%);fill-opacity:1;" d="M 81.550781 98.863281 C 81.589844 98.847656 81.644531 98.804688 81.722656 98.789062 C 81.980469 98.738281 82.207031 98.539062 82.441406 98.394531 L 81.996094 99.644531 C 81.929688 99.664062 81.859375 99.6875 81.789062 99.707031 "/>
<path style=" stroke:none;fill-rule:nonzero;fill:rgb(32.941177%,38.039216%,67.058825%);fill-opacity:1;" d="M 99.378906 105.011719 C 99.378906 103.894531 100.117188 103 101.058594 102.976562 C 102 102.953125 102.824219 103.917969 102.808594 105.03125 C 102.796875 106.140625 102.027344 107.019531 101.074219 107.011719 C 100.117188 107.007812 99.382812 106.140625 99.382812 105.011719 Z M 99.378906 105.011719 "/>
<path style=" stroke:none;fill-rule:nonzero;fill:rgb(100%,100%,100%);fill-opacity:1;" d="M 100.609375 105.421875 C 100.839844 105.421875 101.023438 105.609375 101.023438 105.839844 C 101.023438 106.066406 100.839844 106.253906 100.609375 106.253906 C 100.378906 106.253906 100.191406 106.066406 100.191406 105.839844 C 100.191406 105.609375 100.378906 105.421875 100.609375 105.421875 "/>
<path style=" stroke:none;fill-rule:nonzero;fill:rgb(32.941177%,38.039216%,67.058825%);fill-opacity:1;" d="M 87.753906 104.125 C 87.753906 103.015625 88.5 102.113281 89.441406 102.09375 C 90.386719 102.070312 91.199219 103.035156 91.1875 104.152344 C 91.171875 105.242188 90.375 106.160156 89.449219 106.148438 C 88.515625 106.140625 87.753906 105.230469 87.753906 104.125 Z M 87.753906 104.125 "/>
<path style=" stroke:none;fill-rule:nonzero;fill:rgb(100%,100%,100%);fill-opacity:1;" d="M 90.132812 104.578125 C 90.363281 104.578125 90.546875 104.765625 90.546875 104.996094 C 90.546875 105.226562 90.363281 105.410156 90.132812 105.410156 C 89.902344 105.410156 89.714844 105.226562 89.714844 104.996094 C 89.714844 104.765625 89.902344 104.578125 90.132812 104.578125 "/>
<path style=" stroke:none;fill-rule:nonzero;fill:rgb(32.941177%,38.039216%,67.058825%);fill-opacity:1;" d="M 93.386719 98.65625 C 92.925781 96.921875 92.015625 95.457031 90.378906 94.570312 C 86.839844 92.652344 82.347656 95.054688 81.675781 99.214844 C 81.144531 102.492188 83.347656 107.203125 86.210938 108.910156 C 88.164062 110.078125 90.402344 109.660156 91.820312 107.832031 C 93.222656 106.027344 93.777344 103.941406 93.90625 101.675781 C 93.738281 100.664062 93.648438 99.636719 93.386719 98.65625 Z M 87 95.214844 C 88.773438 94.933594 90.566406 95.722656 91.378906 97.207031 C 88.402344 96.765625 85.628906 97.074219 83.0625 98.699219 C 83.371094 97.023438 85.214844 95.496094 87 95.214844 Z M 91.308594 107.195312 C 89.882812 109.308594 87.65625 109.546875 85.867188 107.726562 C 83.90625 105.738281 82.785156 103.351562 82.683594 100.523438 C 82.667969 100.128906 82.757812 99.855469 83.148438 99.671875 C 85.949219 98.367188 88.863281 98.109375 91.867188 98.679688 C 92.074219 98.71875 92.335938 99.019531 92.386719 99.242188 C 92.585938 100.070312 92.707031 100.921875 92.792969 101.390625 C 92.820312 103.722656 92.410156 105.558594 91.308594 107.195312 Z M 91.308594 107.195312 "/>
<path style=" stroke:none;fill-rule:nonzero;fill:rgb(72.549021%,28.627452%,60.392159%);fill-opacity:1;" d="M 83.226562 98.269531 C 83.796875 97.878906 84.40625 97.527344 84.5625 97.609375 C 85.03125 97.847656 83.902344 97.945312 84.234375 97.785156 C 84.929688 97.453125 85.546875 96.960938 85.800781 96.902344 C 87.382812 96.539062 87.820312 96.910156 88.988281 96.957031 C 90.644531 97.015625 90.820312 96.585938 91.179688 96.890625 C 91.761719 97.386719 92.460938 98.847656 92.339844 98.773438 C 92.03125 98.59375 91.070312 98.335938 89.71875 98.335938 C 88.082031 98.335938 87.074219 98.914062 86.300781 99.121094 C 84.21875 99.679688 83.578125 101.054688 82.671875 101.484375 C 82.414062 101.609375 82.902344 98.488281 83.222656 98.269531 Z M 83.226562 98.269531 "/>
<path style=" stroke:none;fill-rule:nonzero;fill:rgb(72.549021%,28.627452%,60.392159%);fill-opacity:1;" d="M 107.886719 98.261719 C 107.851562 98.207031 107.925781 99.1875 107.78125 99.074219 C 107.367188 98.753906 107.03125 98.394531 106.703125 98.238281 C 106.007812 97.90625 105.417969 97.6875 105.164062 97.628906 C 103.585938 97.265625 103.136719 97.117188 101.964844 97.160156 C 100.308594 97.222656 99.863281 97.089844 99.503906 97.394531 C 98.921875 97.890625 98.488281 99.050781 98.613281 98.980469 C 98.921875 98.796875 99.882812 98.542969 101.234375 98.542969 C 102.871094 98.542969 103.878906 99.121094 104.652344 99.328125 C 106.734375 99.882812 107.375 101.261719 108.28125 101.691406 C 108.539062 101.8125 108.105469 98.585938 107.886719 98.265625 Z M 107.886719 98.261719 "/>
<path style=" stroke:none;fill-rule:nonzero;fill:rgb(32.941177%,38.039216%,67.058825%);fill-opacity:1;" d="M 108.273438 101.28125 C 108.234375 101.207031 108.175781 101.011719 108.023438 100.863281 C 107.582031 100.441406 107.109375 100.1875 106.757812 99.976562 C 106.019531 99.539062 105.394531 99.253906 105.125 99.175781 C 103.445312 98.691406 102.96875 98.5625 101.726562 98.554688 C 99.949219 98.546875 99.042969 98.316406 98.660156 98.722656 C 98.042969 99.375 97.839844 100.359375 97.949219 100.492188 C 98.101562 100.6875 99.515625 100.378906 100.949219 100.378906 C 102.6875 100.378906 103.835938 100.332031 104.65625 100.605469 C 106.867188 101.339844 107.464844 101.742188 108.429688 102.3125 C 108.703125 102.472656 108.507812 101.707031 108.277344 101.28125 Z M 108.273438 101.28125 "/>
<path style=" stroke:none;fill-rule:nonzero;fill:rgb(32.941177%,38.039216%,67.058825%);fill-opacity:1;" d="M 82.703125 101.039062 C 82.738281 100.96875 82.800781 100.769531 82.953125 100.621094 C 83.394531 100.199219 83.867188 99.945312 84.21875 99.738281 C 84.957031 99.300781 85.582031 99.011719 85.851562 98.933594 C 87.53125 98.449219 88.007812 98.320312 89.25 98.316406 C 91.027344 98.304688 91.933594 98.074219 92.316406 98.480469 C 92.933594 99.136719 93.136719 100.117188 93.027344 100.253906 C 92.875 100.445312 91.460938 100.136719 90.027344 100.136719 C 88.289062 100.136719 87.140625 100.09375 86.316406 100.367188 C 84.109375 101.101562 83.511719 101.503906 82.546875 102.070312 C 82.273438 102.234375 82.46875 101.464844 82.699219 101.042969 Z M 82.703125 101.039062 "/>
<path style=" stroke:none;fill-rule:nonzero;fill:rgb(32.941177%,38.039216%,67.058825%);fill-opacity:1;" d="M 77.851562 100.964844 C 77.902344 100.6875 78.019531 100.488281 78.167969 100.320312 C 79.175781 99.214844 80.46875 98.816406 81.921875 98.769531 C 82.183594 98.761719 82.4375 98.601562 82.695312 98.503906 L 82.050781 99.660156 C 80.472656 99.585938 79.113281 100.03125 77.851562 100.964844 "/>
</g>
</svg>
