<?xml version="1.0" encoding="UTF-8"?>
<svg id="Pots" xmlns="http://www.w3.org/2000/svg" viewBox="0 0 1000 1000">
  <defs>
    <style>
      .cls-1 {
        fill: #fff;
      }

      .cls-2 {
        fill: #5461ab;
      }

      .cls-3 {
        fill: none;
      }

      .cls-4 {
        fill: #b9499a;
      }
    </style>
  </defs>
  <path class="cls-2" d="M433.79,447.87c-2.47,1.4-5.24,2.45-7.34,4.28-4.59,4-8.82,8.42-13.24,12.62-.92,.87-1.99,1.66-3.13,2.18-.61,.28-1.79,.17-2.2-.26-.39-.41-.42-1.69-.06-2.19,4.72-6.54,9.27-13.24,14.44-19.41,3.19-3.82,7.81-5.67,13.02-4.74,2.84,.51,5.45,1.76,4.86,5.22-.53,3.11-2.9,3.93-6.36,2.31Z"/>
  <path class="cls-2" d="M531.15,441.43c5.55,4.09,8.88,11.58,14,18.76,.41,.58-.03,1.76-.08,2.67-.92-.11-2.1,.1-2.72-.39-2.89-2.29-5.69-4.72-8.4-7.22-2.92-2.7-5.53-5.78-8.63-8.24-1.64-1.3-4.11-2.4-6.09-2.22-3.14,.28-5.62,.12-6.19-3.32-.2-1.22-.04-2.14,.37-2.85,1.11-1.93,3.79-2.32,4.89-2.46,1.57-.19,5.34-.26,12.85,5.28Z"/>
  <path class="cls-2" d="M546.67,503.04c-.81,13.84-6.24,27.69-18.75,38.09-12.69,10.55-27.31,7.73-34.99-6.83-7.1-13.46-9.42-27.72-5.01-42.54,6.45-21.63,34.28-29.69,49.86-14.55,6.68,6.48,8.93,14.69,8.89,25.83Zm-56.07,5.24c.27,8.85,2.03,17.3,6.07,25.19,5.99,11.69,17.06,14.07,27.26,5.71,10.43-8.55,15.43-19.98,16.95-33.17,.26-2.23-.53-3.46-2.45-4.54-12.31-6.94-25.41-9.99-39.51-8.27-6.34,.77-6.68,1.14-7.54,7.62-.33,2.48-.53,4.97-.78,7.45Zm50.02-9.61c-.09-11.25-7.7-20.6-17.91-22.57-9.43-1.82-21.88,3.36-24.98,10.48,15.93-2.4,29.92,2.16,42.89,12.09Z"/>
  <path class="cls-1" d="M490.6,508.28c.26-2.49,.45-4.98,.78-7.45,.86-6.48,1.21-6.84,7.54-7.62,14.1-1.72,27.2,1.33,39.51,8.27,1.92,1.08,2.71,2.31,2.45,4.54-1.52,13.19-6.52,24.62-16.95,33.17-10.2,8.35-21.27,5.97-27.26-5.71-4.04-7.89-5.8-16.34-6.07-25.19Z"/>
  <path class="cls-4" d="M540.76,498.67c-12.96-9.93-30.4-9.28-46.33-6.88,4.54-12.69,16.52-16.29,26.96-17.22,8.86-.05,19.58,12.07,19.37,24.1Z"/>
  <path class="cls-1" d="M464.04,506.84c.15,11.66-1.9,20.84-7.41,29.02-7.13,10.57-18.27,11.75-27.22,2.66-9.79-9.95-15.41-21.89-15.92-36.03-.07-1.97,.37-3.33,2.34-4.25,13.99-6.52,28.56-7.82,43.58-4.96,1.04,.2,2.34,1.69,2.6,2.8,.99,4.15,1.61,8.39,2.03,10.75Z"/>
  <path class="cls-4" d="M456.9,486.04c-14.89-2.22-28.53-2.17-41.36,5.95,1.55-8.38,12.62-19.78,22.61-19.5,8.98,.25,14.69,6.14,18.76,13.55Z"/>
  <path class="cls-2" d="M446.91,596.28c-3.31-.61-5.41-2.05-6.47-2.91-3.05-2.48-5.12-5.46-5.59-12.05-.08-1.17-.12-2.35,.01-3.51,.05-.43,.65-.79,1-1.19,.34,.39,.86,.74,.98,1.18,.23,.88,.22,1.82,.33,2.74,1.25,10.25,8.34,14.95,18.22,11.7,3.94-1.3,7.63-3.37,11.39-5.2,8.19-3.99,16.25-8.24,24.53-12.04,5.79-2.66,11.88-2.72,17.8-.17,4.97,2.14,7.96,5.95,9.01,11.89-.56,.52-1.29,1.75-2.14,1.84-.86,.09-2.46-.76-2.67-1.51-1.01-3.52-2.8-6.26-6.23-7.71-4.1-1.74-8.41-2.09-12.48-.34-4.92,2.12-9.93,3.44-23.91,10.97-5.44,2.93-8.14,4.46-12.64,5.49-4.53,1.04-8.45,1.01-11.12,.82Z"/>
  <g>
    <path class="cls-2" d="M542,489.21l-.15-.27c-.01,.06-.03,.12-.04,.19,.06,.02,.12,.05,.19,.08Z"/>
    <path class="cls-2" d="M558.61,485.62c-5.26-2.63-10.73-3.47-16.58-2.28-1.24,.25-3.34-.47-4.08-1.46l3.9,7.07c.14-.66,.28-1.33,.42-1.99,6.08,.16,12.17,.31,18.65,.48"/>
    <path class="cls-2" d="M566.21,501.53c-.25-1.39-.83-2.39-1.58-3.22-5.03-5.53-11.5-7.53-18.77-7.76-1.3-.04-2.58-.84-3.86-1.34l3.21,5.8c7.89-.38,14.7,1.85,21.01,6.52"/>
  </g>
  <g>
    <path class="cls-2" d="M412.22,491.99l.1-.29c.02,.06,.05,.12,.07,.18-.06,.03-.11,.07-.17,.11Z"/>
    <path class="cls-2" d="M395.24,491.15c4.76-3.45,10.02-5.17,15.99-4.95,1.27,.05,3.22-1.01,3.79-2.11l-2.7,7.61c-.25-.63-.49-1.27-.74-1.9-5.98,1.15-11.95,2.29-18.32,3.52"/>
    <path class="cls-2" d="M407.76,494.32c.19-.09,.47-.3,.86-.38,1.28-.25,2.41-1.25,3.59-1.96l-2.22,6.25c-.35,.1-.69,.2-1.04,.3"/>
  </g>
  <g>
    <path class="cls-2" d="M496.9,525.06c0-5.59,3.68-10.06,8.39-10.18,4.71-.11,8.83,4.71,8.76,10.27-.07,5.55-3.91,9.94-8.67,9.91-4.79-.03-8.46-4.36-8.47-10.01Z"/>
    <path class="cls-1" d="M503.04,527.11c1.15,0,2.08,.93,2.08,2.08s-.93,2.08-2.08,2.08-2.08-.93-2.08-2.08,.93-2.08,2.08-2.08"/>
  </g>
  <g>
    <path class="cls-2" d="M438.76,520.63c0-5.55,3.74-10.07,8.44-10.17,4.73-.1,8.8,4.71,8.73,10.3-.07,5.45-4.06,10.04-8.69,9.99-4.67-.04-8.48-4.59-8.48-10.13Z"/>
    <path class="cls-1" d="M450.66,522.9c1.15,0,2.08,.93,2.08,2.08s-.93,2.08-2.08,2.08-2.08-.93-2.08-2.08,.93-2.08,2.08-2.08"/>
  </g>
  <line class="cls-3" x1="456.9" y1="486.04" x2="461.44" y2="494.22"/>
  <line class="cls-3" x1="456.9" y1="486.04" x2="462.01" y2="496.09"/>
  <g>
    <path class="cls-3" d="M459.33,493.41c-15.02-2.86-29.59-1.55-43.58,4.96-1.98,.92-2.42,2.28-2.34,4.25,.51,14.14,6.13,26.08,15.92,36.03,8.95,9.09,20.09,7.91,27.22-2.66,5.52-8.18,7.56-17.36,7.41-29.02-.42-2.36-1.04-6.6-2.03-10.75-.27-1.11-1.57-2.61-2.6-2.81Z"/>
    <path class="cls-3" d="M456.9,486.04c-4.06-7.41-13.02-11.37-21.9-9.97-8.93,1.41-18.15,9.76-19.69,18.14,12.84-8.11,26.7-10.4,41.59-8.18Z"/>
    <path class="cls-2" d="M466.94,493.29c-2.31-8.69-6.86-16-15.04-20.43-17.71-9.59-40.17,2.42-43.53,23.22-2.65,16.38,8.37,39.94,22.68,48.48,9.78,5.84,20.96,3.75,28.06-5.4,7-9.02,9.77-19.46,10.43-30.79-.84-5.04-1.3-10.18-2.6-15.09Zm-31.94-17.22c8.87-1.4,17.83,2.55,21.9,9.97-14.89-2.22-28.75-.66-41.59,7.45,1.55-8.38,10.76-16.01,19.69-17.42Zm21.55,59.91c-7.13,10.57-18.27,11.75-27.22,2.66-9.79-9.95-15.41-21.89-15.92-36.03-.07-1.97,.37-3.33,2.34-4.25,13.99-6.52,28.56-7.82,43.58-4.96,1.04,.2,2.34,1.69,2.6,2.81,.99,4.15,1.61,8.39,2.03,10.75,.15,11.66-1.9,20.84-7.41,29.02Z"/>
  </g>
  <path class="cls-4" d="M416.13,491.34c2.86-1.95,5.91-3.7,6.69-3.3,2.33,1.2-3.3,1.68-1.65,.89,3.47-1.66,6.57-4.12,7.83-4.41,7.91-1.83,10.1,.04,15.94,.26,8.28,.3,9.16-1.86,10.96-.33,2.91,2.48,6.41,9.78,5.8,9.42-1.54-.91-6.34-2.19-13.1-2.19-8.19,0-13.23,2.9-17.1,3.93-10.4,2.78-13.61,9.66-18.14,11.82-1.29,.61,1.15-14.99,2.76-16.09Z"/>
  <path class="cls-4" d="M539.44,491.31c-.18-.27,.19,4.62-.53,4.06-2.07-1.6-3.75-3.39-5.4-4.18-3.47-1.66-6.42-2.75-7.68-3.04-7.91-1.83-10.15-2.56-16-2.34-8.28,.3-10.51-.37-12.31,1.16-2.91,2.48-5.07,8.29-4.45,7.93,1.54-.91,6.34-2.19,13.1-2.19,8.19,0,13.23,2.9,17.1,3.93,10.4,2.78,13.61,9.66,18.14,11.82,1.29,.61-.88-15.53-1.98-17.14Z"/>
  <path class="cls-2" d="M541.37,506.4c-.19-.36-.49-1.35-1.26-2.09-2.2-2.11-4.57-3.38-6.32-4.42-3.69-2.19-6.82-3.63-8.16-4.02-8.41-2.42-10.78-3.06-17-3.09-8.88-.05-13.42-1.2-15.33,.83-3.09,3.27-4.1,8.18-3.56,8.86,.76,.96,7.83-.58,15-.58,8.7,0,14.44-.23,18.55,1.14,11.05,3.67,14.04,5.69,18.85,8.53,1.37,.81,.4-3.03-.76-5.15Z"/>
  <path class="cls-2" d="M413.51,505.2c.19-.36,.49-1.35,1.26-2.09,2.2-2.11,4.57-3.38,6.32-4.42,3.69-2.19,6.82-3.63,8.16-4.02,8.41-2.42,10.78-3.06,17-3.09,8.88-.05,13.42-1.2,15.33,.83,3.09,3.27,4.1,8.18,3.56,8.86-.76,.96-7.83-.58-15-.58-8.7,0-14.44-.23-18.55,1.14-11.05,3.67-14.04,5.69-18.85,8.53-1.37,.81-.4-3.03,.76-5.15Z"/>
  <path class="cls-2" d="M389.26,504.83c.25-1.39,.83-2.39,1.58-3.22,5.03-5.53,11.5-7.53,18.77-7.76,1.3-.04,2.58-.84,3.86-1.34l-3.21,5.8c-7.89-.38-14.7,1.85-21.01,6.52"/>
</svg>