<?xml version="1.0" encoding="UTF-8"?>
<svg xmlns="http://www.w3.org/2000/svg" xmlns:xlink="http://www.w3.org/1999/xlink" width="200" height="200" viewBox="0 0 200 200" version="1.1">
<g id="surface1">
<path style=" stroke:none;fill-rule:nonzero;fill:rgb(48.627451%,75.686276%,78.431374%);fill-opacity:1;" d="M 89.746094 102.472656 C 89.222656 103.003906 89.113281 103.085938 88.101562 103.269531 C 87.503906 103.375 87.511719 104.027344 87.03125 103.992188 C 86.769531 103.972656 86.160156 104.578125 85.3125 104.886719 C 84.859375 105.054688 85.042969 104.976562 84.746094 105.09375 L 84.003906 105.480469 C 84.003906 105.480469 84.164062 105.546875 84.546875 105.554688 C 84.808594 105.558594 85.601562 105.554688 85.953125 105.554688 C 86.4375 105.554688 86.585938 105.625 87.632812 105.320312 C 89.132812 104.886719 92.058594 101.96875 92.058594 101.507812 "/>
<path style=" stroke:none;fill-rule:nonzero;fill:rgb(48.627451%,75.686276%,78.431374%);fill-opacity:1;" d="M 101.179688 101.300781 C 101.667969 101.867188 101.773438 101.953125 102.773438 102.203125 C 103.359375 102.347656 103.308594 102.996094 103.792969 102.992188 C 104.054688 102.992188 104.625 103.632812 105.453125 103.996094 C 105.894531 104.191406 105.714844 104.101562 106.003906 104.238281 L 106.71875 104.671875 C 106.71875 104.671875 106.609375 104.507812 106.226562 104.488281 C 105.960938 104.476562 105.289062 104.507812 104.9375 104.480469 C 104.457031 104.453125 104.007812 104.363281 103.039062 103.863281 C 101.652344 103.140625 99.753906 100.09375 99.78125 99.632812 "/>
<path style=" stroke:none;fill-rule:nonzero;fill:rgb(32.941177%,38.039216%,67.058825%);fill-opacity:1;" d="M 108.691406 104.292969 C 109.839844 105.105469 110.859375 105.828125 111.875 106.550781 C 110.40625 106.367188 109.171875 105.789062 108.136719 104.773438 C 107.894531 104.535156 107.523438 104.429688 107.210938 104.261719 C 107.132812 104.378906 107.050781 104.492188 106.96875 104.609375 C 107.941406 105.464844 108.914062 106.320312 110.027344 107.300781 C 109.6875 107.234375 109.464844 107.226562 109.273438 107.148438 C 108.078125 106.683594 107.117188 105.910156 106.300781 104.921875 C 106.054688 104.625 105.640625 104.375 105.261719 104.292969 C 102.585938 103.726562 100.828125 102.105469 99.785156 99.636719 C 99.722656 99.484375 99.648438 99.320312 99.65625 99.167969 C 99.675781 98.867188 99.753906 98.570312 99.804688 98.273438 C 99.996094 98.484375 100.238281 98.667969 100.375 98.910156 C 101.734375 101.289062 103.765625 102.730469 106.460938 103.085938 C 107.628906 103.238281 108.835938 103.046875 110.027344 103.03125 C 110.210938 103.03125 110.394531 103.140625 110.578125 103.199219 C 110.484375 103.371094 110.429688 103.628906 110.285156 103.699219 C 109.851562 103.90625 109.378906 104.042969 108.695312 104.292969 Z M 108.691406 104.292969 "/>
<path style=" stroke:none;fill-rule:nonzero;fill:rgb(32.941177%,38.039216%,67.058825%);fill-opacity:1;" d="M 90.652344 121.230469 C 90.359375 120 90.046875 118.863281 89.855469 117.691406 C 89.894531 113.796875 92.511719 111.929688 95.886719 113.140625 C 97.933594 113.875 99.3125 115.304688 100.15625 117.261719 C 100.660156 118.421875 101.078125 119.617188 101.535156 120.796875 C 101.582031 120.808594 101.628906 120.835938 101.671875 120.832031 C 101.992188 120.800781 102.316406 120.765625 102.636719 120.730469 C 102.546875 121.078125 102.566406 121.558594 102.34375 121.746094 C 101.917969 122.109375 101.375 122.382812 100.835938 122.539062 C 100.496094 122.636719 100.347656 122.28125 100.605469 122.011719 C 101.046875 121.550781 100.878906 121.125 100.644531 120.660156 C 99.90625 119.199219 99.265625 117.683594 98.394531 116.296875 C 98.320312 116.179688 98.222656 116.0625 98.121094 115.972656 C 94.496094 112.742188 90.96875 113.890625 90.945312 117.535156 C 90.9375 118.855469 91.265625 120.191406 91.546875 121.492188 C 91.621094 121.835938 92.113281 122.078125 92.386719 122.390625 C 92.503906 122.519531 92.542969 122.710938 92.621094 122.875 C 92.46875 122.933594 92.316406 123.039062 92.164062 123.039062 C 91.242188 123.039062 90.4375 122.789062 89.960938 121.921875 C 89.851562 121.71875 89.816406 121.476562 89.746094 121.25 C 89.96875 121.242188 90.191406 121.234375 90.414062 121.226562 C 90.484375 121.226562 90.554688 121.226562 90.648438 121.226562 Z M 90.652344 121.230469 "/>
<path style=" stroke:none;fill-rule:nonzero;fill:rgb(32.941177%,38.039216%,67.058825%);fill-opacity:1;" d="M 83.46875 98.542969 C 83.359375 98.453125 83.0625 98.324219 83.066406 98.199219 C 83.066406 98.007812 83.230469 97.714844 83.402344 97.640625 C 86.050781 96.480469 88.164062 94.652344 89.988281 92.441406 C 90.113281 92.289062 90.394531 92.265625 90.601562 92.179688 C 90.648438 92.417969 90.796875 92.6875 90.730469 92.890625 C 89.75 95.941406 87.675781 97.773438 84.523438 98.367188 C 84.207031 98.429688 83.894531 98.472656 83.46875 98.542969 Z M 83.46875 98.542969 "/>
<path style=" stroke:none;fill-rule:nonzero;fill:rgb(32.941177%,38.039216%,67.058825%);fill-opacity:1;" d="M 108.855469 97.984375 C 104.882812 97.484375 102.71875 95.660156 101.589844 92.300781 C 101.527344 92.121094 101.683594 91.867188 101.734375 91.644531 C 101.945312 91.726562 102.230469 91.75 102.355469 91.902344 C 104.160156 94.105469 106.273438 95.910156 108.894531 97.085938 C 109.082031 97.167969 109.1875 97.433594 109.328125 97.613281 C 109.136719 97.765625 108.945312 97.914062 108.855469 97.984375 Z M 108.855469 97.984375 "/>
<path style=" stroke:none;fill-rule:nonzero;fill:rgb(32.941177%,38.039216%,67.058825%);fill-opacity:1;" d="M 83.023438 105.25 L 83.082031 105.257812 C 83.082031 105.257812 83.066406 105.238281 83.058594 105.226562 C 83.046875 105.234375 83.035156 105.242188 83.023438 105.246094 Z M 83.023438 105.25 "/>
<path style=" stroke:none;fill-rule:nonzero;fill:rgb(32.941177%,38.039216%,67.058825%);fill-opacity:1;" d="M 83.347656 105.546875 C 82.644531 106.476562 81.941406 107.40625 81.195312 108.398438 C 81.402344 108.339844 81.585938 108.316406 81.734375 108.238281 C 82.730469 107.714844 83.46875 106.953125 83.9375 105.910156 C 84.035156 105.6875 84.382812 105.441406 84.617188 105.4375 L 83.082031 105.261719 C 83.171875 105.355469 83.257812 105.453125 83.347656 105.546875 Z M 83.347656 105.546875 "/>
<path style=" stroke:none;fill-rule:nonzero;fill:rgb(32.941177%,38.039216%,67.058825%);fill-opacity:1;" d="M 92.96875 99.605469 C 92.363281 99.261719 92.214844 99.914062 91.949219 100.21875 C 88.886719 103.730469 85.097656 104.847656 80.609375 103.722656 C 80.441406 103.679688 80.234375 103.789062 80.046875 103.824219 C 80.128906 104.003906 80.167969 104.261719 80.308594 104.347656 C 80.761719 104.628906 81.253906 104.847656 81.761719 105.105469 L 83.023438 105.25 C 83.03125 105.242188 83.042969 105.234375 83.054688 105.230469 C 83.0625 105.238281 83.070312 105.246094 83.078125 105.257812 L 84.617188 105.4375 C 88.1875 105.375 90.765625 103.652344 92.601562 100.695312 C 92.804688 100.363281 93.035156 99.640625 92.964844 99.605469 Z M 92.96875 99.605469 "/>
<path style=" stroke:none;fill-rule:nonzero;fill:rgb(32.941177%,38.039216%,67.058825%);fill-opacity:1;" d="M 78.40625 107.652344 C 78.648438 107.769531 78.871094 107.789062 79.085938 107.765625 C 80.507812 107.597656 81.539062 106.8125 82.382812 105.703125 C 82.535156 105.507812 82.800781 105.394531 83.023438 105.253906 L 81.761719 105.105469 C 80.941406 106.378906 79.835938 107.191406 78.40625 107.652344 Z M 78.40625 107.652344 "/>
<path style=" stroke:none;fill-rule:nonzero;fill:rgb(48.627451%,75.686276%,78.431374%);fill-opacity:1;" d="M 84.375 105.492188 C 84.886719 105.730469 85.40625 105.945312 85.699219 106.421875 C 85.800781 106.589844 85.789062 106.851562 85.574219 107.054688 C 85.367188 107.261719 85.144531 107.472656 84.875 107.351562 C 84.648438 107.246094 84.359375 107.078125 84.324219 106.789062 C 84.277344 106.398438 84.492188 105.996094 84.238281 105.609375 C 84.175781 105.511719 84.324219 105.503906 84.371094 105.492188 Z M 84.375 105.492188 "/>
<path style=" stroke:none;fill-rule:nonzero;fill:rgb(48.627451%,75.686276%,78.431374%);fill-opacity:1;" d="M 84.046875 106.828125 C 84.199219 107.328125 84.425781 107.671875 84.089844 108.050781 C 83.972656 108.1875 83.871094 108.351562 83.679688 108.257812 C 83.445312 108.140625 83.441406 107.890625 83.523438 107.699219 C 83.632812 107.4375 83.816406 107.203125 84.046875 106.828125 Z M 84.046875 106.828125 "/>
<path style=" stroke:none;fill-rule:nonzero;fill:rgb(48.627451%,75.686276%,78.431374%);fill-opacity:1;" d="M 84.617188 107.59375 C 85.035156 107.910156 85.417969 108.058594 85.367188 108.5625 C 85.347656 108.738281 85.363281 108.933594 85.148438 108.96875 C 84.890625 109.011719 84.742188 108.808594 84.695312 108.605469 C 84.632812 108.328125 84.648438 108.035156 84.617188 107.59375 Z M 84.617188 107.59375 "/>
<path style=" stroke:none;fill-rule:nonzero;fill:rgb(48.627451%,75.686276%,78.431374%);fill-opacity:1;" d="M 105.691406 104.460938 C 105.179688 104.699219 104.660156 104.910156 104.367188 105.390625 C 104.265625 105.554688 104.277344 105.816406 104.488281 106.023438 C 104.699219 106.226562 104.921875 106.441406 105.191406 106.316406 C 105.417969 106.214844 105.707031 106.046875 105.742188 105.757812 C 105.789062 105.367188 105.574219 104.964844 105.824219 104.574219 C 105.890625 104.476562 105.742188 104.46875 105.695312 104.460938 Z M 105.691406 104.460938 "/>
<path style=" stroke:none;fill-rule:nonzero;fill:rgb(48.627451%,75.686276%,78.431374%);fill-opacity:1;" d="M 106.023438 105.796875 C 105.871094 106.296875 105.640625 106.640625 105.976562 107.019531 C 106.097656 107.152344 106.195312 107.316406 106.386719 107.222656 C 106.625 107.109375 106.628906 106.859375 106.546875 106.664062 C 106.4375 106.402344 106.253906 106.171875 106.019531 105.796875 Z M 106.023438 105.796875 "/>
<path style=" stroke:none;fill-rule:nonzero;fill:rgb(48.627451%,75.686276%,78.431374%);fill-opacity:1;" d="M 105.449219 106.558594 C 105.035156 106.878906 104.648438 107.027344 104.703125 107.53125 C 104.71875 107.707031 104.707031 107.898438 104.917969 107.9375 C 105.175781 107.980469 105.324219 107.777344 105.371094 107.574219 C 105.433594 107.296875 105.421875 107.003906 105.449219 106.558594 Z M 105.449219 106.558594 "/>
<path style=" stroke:none;fill-rule:nonzero;fill:rgb(72.549021%,28.627452%,60.392159%);fill-opacity:1;" d="M 92.480469 99.507812 C 90.367188 100.535156 88.339844 101.628906 86.734375 102.296875 C 86.683594 102.320312 86.300781 102.410156 86.128906 102.46875 C 83.949219 103.207031 82.121094 103.324219 80.347656 103.738281 C 84.1875 104.515625 84.621094 104.292969 86.515625 104.019531 C 88.484375 103.3125 90.75 102.46875 92.480469 99.503906 Z M 92.480469 99.507812 "/>
<path style=" stroke:none;fill-rule:nonzero;fill:rgb(72.549021%,28.627452%,60.392159%);fill-opacity:1;" d="M 99.773438 98.273438 C 101.886719 99.300781 103.460938 100.835938 105.066406 101.507812 C 105.117188 101.527344 105.933594 101.832031 106.105469 101.890625 C 108.285156 102.625 108.585938 102.699219 110.359375 103.117188 C 106.519531 103.890625 107.144531 103.3125 105.246094 103.039062 C 103.277344 102.335938 101.503906 101.234375 99.769531 98.273438 Z M 99.773438 98.273438 "/>
<path style=" stroke:none;fill-rule:nonzero;fill:rgb(48.627451%,75.686276%,78.039217%);fill-opacity:1;" d="M 84.261719 108.398438 C 84.125 109.007812 84.15625 109.496094 83.585938 109.691406 C 83.382812 109.761719 83.183594 109.871094 83.039062 109.660156 C 82.863281 109.402344 83.003906 109.140625 83.203125 108.988281 C 83.472656 108.78125 83.796875 108.648438 84.261719 108.398438 Z M 84.261719 108.398438 "/>
<path style=" stroke:none;fill-rule:nonzero;fill:rgb(48.627451%,75.686276%,78.039217%);fill-opacity:1;" d="M 105.828125 107.457031 C 105.785156 107.90625 105.648438 108.238281 105.996094 108.507812 C 106.121094 108.601562 106.234375 108.722656 106.382812 108.609375 C 106.5625 108.472656 106.527344 108.257812 106.425781 108.109375 C 106.285156 107.902344 106.09375 107.734375 105.828125 107.457031 Z M 105.828125 107.457031 "/>
</g>
</svg>
