<?xml version="1.0" encoding="UTF-8"?>
<svg id="Pots" xmlns="http://www.w3.org/2000/svg" viewBox="0 0 1000 1000">
  <defs>
    <style>
      .cls-1 {
        fill: #7cc1c7;
      }

      .cls-2 {
        fill: #5461ab;
      }

      .cls-3 {
        fill: #7cc1c8;
      }

      .cls-4 {
        fill: #b9499a;
      }
    </style>
  </defs>
  <path class="cls-3" d="M448.74,512.36c-2.62,2.66-3.17,3.07-8.24,3.98-2.98,.54-2.94,3.8-5.35,3.63-1.31-.1-4.35,2.92-8.59,4.47-2.26,.83-1.34,.44-2.82,1.03l-3.72,1.93s.8,.34,2.71,.38c1.32,.02,5.28,0,7.04,0,2.41,0,3.16,.35,8.39-1.17,7.51-2.18,22.13-16.77,22.13-19.07"/>
  <path class="cls-3" d="M505.89,506.51c2.45,2.82,2.97,3.26,7.97,4.5,2.94,.73,2.69,3.98,5.11,3.96,1.31-.01,4.16,3.19,8.29,5.01,2.21,.97,1.31,.52,2.75,1.21l3.59,2.16s-.56-.82-2.47-.91c-1.32-.06-4.68,.09-6.44-.03-2.41-.15-4.65-.59-9.49-3.1-6.93-3.6-16.43-18.85-16.29-21.14"/>
  <g>
    <path class="cls-2" d="M543.46,521.46c5.73,4.07,10.83,7.69,15.92,11.3-7.34-.92-13.53-3.82-18.69-8.89-1.21-1.19-3.07-1.73-4.63-2.56-.4,.58-.81,1.16-1.21,1.74,4.86,4.28,9.72,8.56,15.28,13.46-1.7-.33-2.8-.38-3.77-.76-5.97-2.34-10.77-6.19-14.85-11.14-1.23-1.49-3.31-2.73-5.2-3.14-13.38-2.84-22.17-10.94-27.38-23.29-.32-.75-.69-1.58-.64-2.34,.09-1.5,.47-2.98,.73-4.47,.97,1.05,2.17,1.97,2.86,3.18,6.79,11.89,16.94,19.11,30.43,20.88,5.83,.76,11.87-.2,17.82-.27,.92-.01,1.85,.54,2.77,.83-.48,.86-.75,2.15-1.47,2.5-2.18,1.05-4.53,1.73-7.96,2.97Z"/>
    <path class="cls-2" d="M453.26,606.15c-1.46-6.15-3.02-11.83-3.98-17.7,.2-19.46,13.27-28.8,30.16-22.75,10.23,3.67,17.12,10.83,21.35,20.61,2.51,5.8,4.61,11.77,6.89,17.67,.23,.07,.46,.2,.67,.18,1.62-.15,3.23-.33,4.84-.5-.45,1.74-.35,4.13-1.47,5.08-2.13,1.81-4.85,3.18-7.55,3.96-1.69,.49-2.44-1.3-1.15-2.65,2.21-2.3,1.38-4.42,.21-6.74-3.69-7.31-6.91-14.89-11.26-21.83-.37-.59-.85-1.16-1.37-1.62-18.11-16.14-35.76-10.4-35.88,7.82-.04,6.6,1.6,13.27,3.02,19.78,.37,1.71,2.83,2.93,4.2,4.49,.57,.65,.78,1.61,1.16,2.43-.76,.29-1.52,.82-2.28,.82-4.6,0-8.64-1.26-11.02-5.59-.55-1.01-.72-2.23-1.06-3.36,1.11-.04,2.22-.08,3.33-.11,.35-.01,.71,0,1.17,0Z"/>
    <path class="cls-2" d="M417.34,492.71c-.55-.44-2.02-1.09-2.01-1.72,.01-.96,.82-2.41,1.68-2.78,13.25-5.81,23.82-14.95,32.93-26,.63-.76,2.03-.89,3.06-1.31,.24,1.19,.98,2.54,.66,3.55-4.91,15.26-15.28,24.41-31.05,27.39-1.57,.3-3.14,.52-5.27,.88Z"/>
    <path class="cls-2" d="M544.27,489.93c-19.85-2.51-30.68-11.63-36.33-28.42-.3-.91,.47-2.18,.74-3.28,1.05,.41,2.47,.52,3.09,1.28,9.04,11.01,19.59,20.05,32.71,25.91,.93,.42,1.45,1.75,2.16,2.65-.96,.75-1.92,1.5-2.37,1.85Z"/>
    <g>
      <path class="cls-2" d="M415.12,526.25l.29,.03s-.08-.09-.12-.14c-.05,.04-.11,.07-.17,.1Z"/>
      <path class="cls-2" d="M416.73,527.73c-3.51,4.65-7.02,9.31-10.76,14.26,1.05-.3,1.95-.4,2.7-.79,4.98-2.63,8.68-6.43,11.01-11.65,.5-1.11,2.23-2.34,3.41-2.36l-7.68-.89c.44,.48,.88,.96,1.32,1.44Z"/>
      <path class="cls-2" d="M464.84,498.02c-3.03-1.72-3.77,1.56-5.1,3.08-15.31,17.55-34.25,23.13-56.7,17.51-.84-.21-1.87,.33-2.81,.52,.42,.89,.61,2.17,1.31,2.61,2.27,1.4,4.73,2.49,7.26,3.78l6.31,.73c.05-.03,.11-.07,.17-.1,.04,.05,.08,.09,.12,.14l7.68,.89c17.86-.31,30.74-8.92,39.92-23.7,1.03-1.66,2.17-5.27,1.83-5.46Z"/>
      <path class="cls-2" d="M392.03,538.26c1.22,.58,2.32,.69,3.39,.56,7.11-.84,12.28-4.76,16.5-10.3,.76-.99,2.09-1.54,3.2-2.26l-6.31-.73c-4.1,6.36-9.63,10.42-16.78,12.74Z"/>
    </g>
  </g>
  <path class="cls-3" d="M421.87,527.46c2.56,1.19,5.16,2.26,6.62,4.65,.51,.83,.45,2.14-.61,3.17-1.05,1.02-2.15,2.09-3.51,1.47-1.13-.52-2.58-1.36-2.75-2.8-.23-1.95,.84-3.97-.42-5.91-.32-.49,.42-.53,.66-.58Z"/>
  <path class="cls-3" d="M420.23,534.14c.76,2.5,1.9,4.22,.22,6.12-.59,.67-1.09,1.49-2.05,1.02-1.18-.57-1.2-1.83-.79-2.79,.55-1.31,1.47-2.47,2.63-4.35Z"/>
  <path class="cls-3" d="M423.09,537.96c2.08,1.59,4,2.33,3.74,4.85-.09,.89-.02,1.85-1.08,2.03-1.29,.22-2.04-.79-2.27-1.81-.31-1.39-.24-2.86-.39-5.07Z"/>
  <path class="cls-3" d="M528.46,522.3c-2.56,1.19-5.16,2.26-6.62,4.65-.51,.83-.45,2.14,.61,3.17,1.05,1.02,2.15,2.09,3.51,1.47,1.13-.52,2.58-1.36,2.75-2.8,.23-1.95-.84-3.97,.42-5.91,.32-.49-.42-.53-.66-.58Z"/>
  <path class="cls-3" d="M530.11,528.98c-.76,2.5-1.9,4.22-.22,6.12,.59,.67,1.09,1.49,2.05,1.02,1.18-.57,1.2-1.83,.79-2.79-.55-1.31-1.47-2.47-2.63-4.35Z"/>
  <path class="cls-3" d="M527.25,532.8c-2.08,1.59-4,2.33-3.74,4.85,.09,.89,.02,1.85,1.08,2.03,1.29,.22,2.04-.79,2.27-1.81,.31-1.39,.24-2.86,.39-5.07Z"/>
  <path class="cls-4" d="M462.41,497.53c-10.58,5.14-20.72,10.61-28.74,13.96-.26,.11-2.16,.57-3.02,.86-10.9,3.68-20.04,4.28-28.92,6.35,19.2,3.87,21.37,2.77,30.84,1.4,9.85-3.53,21.18-7.76,29.84-22.58Z"/>
  <path class="cls-4" d="M498.86,491.36c10.58,5.14,18.45,12.82,26.47,16.17,.26,.11,4.33,1.63,5.19,1.92,10.9,3.68,12.4,4.05,21.28,6.13-19.2,3.87-16.08,.99-25.56-.38-9.85-3.53-18.72-9.02-27.39-23.84Z"/>
  <path class="cls-1" d="M421.31,541.99c-.69,3.05-.53,5.5-3.39,6.47-1.01,.34-2.01,.9-2.73-.16-.88-1.29-.17-2.6,.82-3.36,1.35-1.03,2.98-1.69,5.3-2.95Z"/>
  <path class="cls-1" d="M529.15,537.28c-.23,2.26-.91,3.92,.84,5.25,.62,.47,1.18,1.09,1.92,.52,.91-.69,.72-1.76,.21-2.51-.69-1.02-1.66-1.86-2.97-3.26Z"/>
</svg>