<?xml version="1.0" encoding="UTF-8"?>
<svg id="Pots" xmlns="http://www.w3.org/2000/svg" viewBox="0 0 1000 1000">
  <defs>
    <style>
      .cls-1 {
        fill: #e6e6e6;
      }

      .cls-2 {
        fill: #1d1d1b;
        stroke: #1d1d1b;
        stroke-miterlimit: 10;
      }
    </style>
  </defs>
  <g>
    <g>
      <ellipse cx="430.32" cy="514.21" rx="28.8" ry="17.58" transform="translate(-99.04 925.74) rotate(-87.94)"/>
      <path class="cls-1" d="M428.67,492.61c-1.12-.09-2.44,4.77-2.72,5.79-.68,2.49-.34,2.56-.78,3.3-2.22,3.73-10.66,2.19-10.77,3.2-.04,.41,1.33,.79,3.53,1.66,3.32,1.32,5.26,2.08,6.54,3.31,2.04,1.96,1.08,3.8,2.68,10.85,.18,.8,1.79,7.89,2.79,7.78,.92-.1,1.83-6.27,1.47-12.24-.2-3.29-.73-5.58,.77-7.14,.59-.61,1.79-1.05,4.17-1.9,3.26-1.17,4.66-1.35,4.68-1.88,0-.28-.37-.61-3.53-1.66-3.97-1.32-5.15-1.1-6.06-2.27-.54-.69-.3-.95-.89-3.62-.66-2.96-1.13-5.13-1.86-5.19Z"/>
      <path class="cls-1" d="M437.74,518.05c.49-.45,1.33-.7,1.91-.4,.56,.29,.76,1.03,.77,4.76,.02,5.04-.35,5.56-.68,5.65-.32,.08-.67-.25-.93-.51-.93-.91-1.06-2.07-1.26-4.3-.37-4.12-.33-4.72,.19-5.19Z"/>
    </g>
    <g>
      <ellipse cx="521.52" cy="517.49" rx="28.8" ry="17.58" transform="translate(-14.4 1020.05) rotate(-87.94)"/>
      <path class="cls-1" d="M520.43,495.92c-1.12-.09-2.44,4.77-2.72,5.79-.68,2.49-.34,2.56-.78,3.3-2.22,3.73-10.66,2.19-10.77,3.2-.04,.41,1.33,.79,3.53,1.66,3.32,1.32,5.26,2.08,6.54,3.31,2.04,1.96,1.08,3.8,2.68,10.85,.18,.8,1.79,7.89,2.79,7.78,.92-.1,1.83-6.27,1.47-12.24-.2-3.29-.73-5.58,.77-7.14,.59-.61,1.79-1.05,4.17-1.9,3.26-1.17,4.66-1.35,4.68-1.88,0-.28-.37-.61-3.53-1.66-3.97-1.32-5.15-1.1-6.06-2.27-.54-.69-.3-.95-.89-3.62-.66-2.96-1.13-5.13-1.86-5.19Z"/>
      <path class="cls-1" d="M529.5,521.35c.49-.45,1.33-.7,1.91-.4,.56,.29,.76,1.03,.77,4.76,.02,5.04-.35,5.56-.68,5.65-.32,.08-.67-.25-.93-.51-.93-.91-1.06-2.07-1.26-4.3-.37-4.12-.33-4.72,.19-5.19Z"/>
    </g>
  </g>
  <path d="M449.02,586.42c12.25,9.67,29.19,12.82,43.79,7.07,4.8-1.88,9.36-4.48,13.44-7.8-3.52,3.93-7.99,7.02-12.85,9.23-14.66,6.75-33.32,3.25-44.38-8.5h0Z"/>
  <path d="M419.05,551.99c.8,0,.81-1.25,0-1.25s-.81,1.25,0,1.25h0Z"/>
  <path d="M435.61,549.84c.8,0,.81-1.25,0-1.25s-.81,1.25,0,1.25h0Z"/>
  <path d="M448.81,564.97c.8,0,.81-1.25,0-1.25s-.81,1.25,0,1.25h0Z"/>
  <path d="M428.78,561.5c.8,0,.81-1.25,0-1.25s-.81,1.25,0,1.25h0Z"/>
  <path d="M421.06,572.22c.8,0,.81-1.25,0-1.25s-.81,1.25,0,1.25h0Z"/>
  <path d="M516.23,556.49c.8,0,.81-1.25,0-1.25s-.81,1.25,0,1.25h0Z"/>
  <path d="M514.79,571.09c.8,0,.81-1.25,0-1.25s-.81,1.25,0,1.25h0Z"/>
  <path d="M533.05,572.67c.8,0,.81-1.25,0-1.25s-.81,1.25,0,1.25h0Z"/>
  <path d="M529.92,557.9c.8,0,.81-1.25,0-1.25s-.81,1.25,0,1.25h0Z"/>
  <path d="M543.22,570.28c.8,0,.81-1.25,0-1.25s-.81,1.25,0,1.25h0Z"/>
  <path d="M556,554.01c.8,0,.81-1.25,0-1.25s-.81,1.25,0,1.25h0Z"/>
  <path class="cls-2" d="M555.2,473.48c-1.59-1.82-3.02-3.76-4.66-5.53-2.24-2.42-4.5-4.8-7.13-6.84-2.18-1.69-4.35-3.38-6.72-4.78-4.49-2.64-9.38-4.1-14.51-4.75-4.36-.55-8.53,.41-12.58,2.01-1.22,.48-2.5,.84-3.99,1.33,2.87-4.01,5.79-7.48,10.67-8.46,6-1.2,11.71-.31,17.24,2.25,6.26,2.89,11.58,6.93,15.9,12.31,2.94,3.67,5.01,7.74,5.78,12.46Z"/>
  <path class="cls-2" d="M395.22,477.47c1.65-1.77,3.13-3.67,4.82-5.39,2.32-2.35,4.64-4.66,7.33-6.62,2.23-1.63,4.45-3.24,6.87-4.57,4.57-2.51,9.5-3.82,14.64-4.31,4.38-.42,8.51,.66,12.51,2.39,1.21,.52,2.47,.91,3.95,1.45-2.75-4.09-5.56-7.65-10.41-8.78-5.96-1.38-11.69-.66-17.3,1.72-6.34,2.7-11.79,6.58-16.26,11.82-3.05,3.58-5.24,7.59-6.16,12.28Z"/>
</svg>