<?xml version="1.0" encoding="UTF-8"?>
<svg xmlns="http://www.w3.org/2000/svg" xmlns:xlink="http://www.w3.org/1999/xlink" width="200" height="200" viewBox="0 0 200 200" version="1.1">
<g id="surface1">
<path style=" stroke:none;fill-rule:nonzero;fill:rgb(0%,0%,0%);fill-opacity:1;" d="M 86.269531 97.082031 C 88.207031 97.148438 89.6875 99.785156 89.574219 102.960938 C 89.460938 106.140625 87.792969 108.664062 85.855469 108.59375 C 83.914062 108.523438 82.433594 105.890625 82.546875 102.710938 C 82.660156 99.53125 84.328125 97.011719 86.269531 97.082031 Z M 86.269531 97.082031 "/>
<path style=" stroke:none;fill-rule:nonzero;fill:rgb(90.196079%,90.196079%,90.196079%);fill-opacity:1;" d="M 85.734375 98.523438 C 85.511719 98.503906 85.246094 99.476562 85.191406 99.679688 C 85.054688 100.179688 85.121094 100.191406 85.035156 100.339844 C 84.589844 101.085938 82.902344 100.777344 82.878906 100.980469 C 82.871094 101.0625 83.144531 101.136719 83.585938 101.3125 C 84.25 101.574219 84.636719 101.726562 84.894531 101.972656 C 85.300781 102.367188 85.109375 102.734375 85.429688 104.144531 C 85.464844 104.304688 85.789062 105.722656 85.988281 105.699219 C 86.171875 105.679688 86.355469 104.445312 86.28125 103.253906 C 86.242188 102.59375 86.136719 102.136719 86.4375 101.824219 C 86.554688 101.703125 86.792969 101.613281 87.269531 101.445312 C 87.921875 101.210938 88.203125 101.175781 88.207031 101.066406 C 88.207031 101.011719 88.132812 100.945312 87.5 100.734375 C 86.707031 100.472656 86.46875 100.515625 86.289062 100.28125 C 86.179688 100.144531 86.226562 100.09375 86.109375 99.558594 C 85.976562 98.964844 85.882812 98.53125 85.738281 98.519531 Z M 85.734375 98.523438 "/>
<path style=" stroke:none;fill-rule:nonzero;fill:rgb(90.196079%,90.196079%,90.196079%);fill-opacity:1;" d="M 87.546875 103.609375 C 87.644531 103.519531 87.8125 103.46875 87.929688 103.53125 C 88.042969 103.589844 88.082031 103.734375 88.085938 104.480469 C 88.089844 105.488281 88.015625 105.59375 87.949219 105.613281 C 87.882812 105.628906 87.8125 105.5625 87.761719 105.511719 C 87.574219 105.328125 87.550781 105.097656 87.511719 104.648438 C 87.4375 103.824219 87.445312 103.707031 87.546875 103.613281 Z M 87.546875 103.609375 "/>
<path style=" stroke:none;fill-rule:nonzero;fill:rgb(0%,0%,0%);fill-opacity:1;" d="M 104.507812 97.738281 C 106.449219 97.808594 107.929688 100.441406 107.8125 103.621094 C 107.699219 106.800781 106.035156 109.320312 104.09375 109.25 C 102.152344 109.179688 100.671875 106.546875 100.785156 103.367188 C 100.902344 100.1875 102.566406 97.667969 104.507812 97.738281 Z M 104.507812 97.738281 "/>
<path style=" stroke:none;fill-rule:nonzero;fill:rgb(90.196079%,90.196079%,90.196079%);fill-opacity:1;" d="M 104.085938 99.183594 C 103.863281 99.164062 103.597656 100.136719 103.542969 100.34375 C 103.40625 100.839844 103.472656 100.855469 103.386719 101.003906 C 102.941406 101.746094 101.253906 101.441406 101.230469 101.640625 C 101.222656 101.722656 101.496094 101.800781 101.9375 101.972656 C 102.601562 102.238281 102.988281 102.390625 103.246094 102.636719 C 103.652344 103.027344 103.460938 103.394531 103.78125 104.804688 C 103.816406 104.964844 104.140625 106.382812 104.339844 106.363281 C 104.523438 106.34375 104.707031 105.109375 104.632812 103.914062 C 104.59375 103.257812 104.488281 102.796875 104.789062 102.484375 C 104.90625 102.363281 105.144531 102.277344 105.621094 102.105469 C 106.273438 101.871094 106.554688 101.835938 106.558594 101.730469 C 106.558594 101.675781 106.484375 101.609375 105.851562 101.398438 C 105.058594 101.132812 104.820312 101.179688 104.640625 100.945312 C 104.53125 100.804688 104.578125 100.753906 104.460938 100.21875 C 104.328125 99.628906 104.234375 99.195312 104.089844 99.183594 Z M 104.085938 99.183594 "/>
<path style=" stroke:none;fill-rule:nonzero;fill:rgb(90.196079%,90.196079%,90.196079%);fill-opacity:1;" d="M 105.898438 104.269531 C 105.996094 104.179688 106.164062 104.128906 106.28125 104.191406 C 106.394531 104.246094 106.433594 104.394531 106.4375 105.140625 C 106.441406 106.148438 106.367188 106.253906 106.300781 106.273438 C 106.234375 106.289062 106.164062 106.222656 106.113281 106.171875 C 105.929688 105.988281 105.902344 105.757812 105.863281 105.308594 C 105.789062 104.484375 105.796875 104.367188 105.898438 104.273438 Z M 105.898438 104.269531 "/>
<path style=" stroke:none;fill-rule:nonzero;fill:rgb(0%,0%,0%);fill-opacity:1;" d="M 89.804688 117.285156 C 92.253906 119.21875 95.640625 119.847656 98.5625 118.699219 C 99.523438 118.320312 100.433594 117.800781 101.25 117.136719 C 100.546875 117.925781 99.652344 118.542969 98.679688 118.984375 C 95.746094 120.335938 92.015625 119.632812 89.804688 117.285156 Z M 89.804688 117.285156 "/>
<path style=" stroke:none;fill-rule:nonzero;fill:rgb(0%,0%,0%);fill-opacity:1;" d="M 83.808594 110.398438 C 83.96875 110.398438 83.972656 110.148438 83.808594 110.148438 C 83.648438 110.148438 83.648438 110.398438 83.808594 110.398438 Z M 83.808594 110.398438 "/>
<path style=" stroke:none;fill-rule:nonzero;fill:rgb(0%,0%,0%);fill-opacity:1;" d="M 87.121094 109.96875 C 87.28125 109.96875 87.285156 109.71875 87.121094 109.71875 C 86.960938 109.71875 86.960938 109.96875 87.121094 109.96875 Z M 87.121094 109.96875 "/>
<path style=" stroke:none;fill-rule:nonzero;fill:rgb(0%,0%,0%);fill-opacity:1;" d="M 89.761719 112.992188 C 89.921875 112.992188 89.925781 112.742188 89.761719 112.742188 C 89.601562 112.742188 89.601562 112.992188 89.761719 112.992188 Z M 89.761719 112.992188 "/>
<path style=" stroke:none;fill-rule:nonzero;fill:rgb(0%,0%,0%);fill-opacity:1;" d="M 85.757812 112.300781 C 85.914062 112.300781 85.917969 112.050781 85.757812 112.050781 C 85.59375 112.050781 85.59375 112.300781 85.757812 112.300781 Z M 85.757812 112.300781 "/>
<path style=" stroke:none;fill-rule:nonzero;fill:rgb(0%,0%,0%);fill-opacity:1;" d="M 84.210938 114.445312 C 84.371094 114.445312 84.375 114.195312 84.210938 114.195312 C 84.050781 114.195312 84.050781 114.445312 84.210938 114.445312 Z M 84.210938 114.445312 "/>
<path style=" stroke:none;fill-rule:nonzero;fill:rgb(0%,0%,0%);fill-opacity:1;" d="M 103.246094 111.296875 C 103.40625 111.296875 103.40625 111.046875 103.246094 111.046875 C 103.085938 111.046875 103.085938 111.296875 103.246094 111.296875 Z M 103.246094 111.296875 "/>
<path style=" stroke:none;fill-rule:nonzero;fill:rgb(0%,0%,0%);fill-opacity:1;" d="M 102.957031 114.21875 C 103.117188 114.21875 103.121094 113.96875 102.957031 113.96875 C 102.796875 113.96875 102.796875 114.21875 102.957031 114.21875 Z M 102.957031 114.21875 "/>
<path style=" stroke:none;fill-rule:nonzero;fill:rgb(0%,0%,0%);fill-opacity:1;" d="M 106.609375 114.535156 C 106.769531 114.535156 106.773438 114.285156 106.609375 114.285156 C 106.449219 114.285156 106.449219 114.535156 106.609375 114.535156 Z M 106.609375 114.535156 "/>
<path style=" stroke:none;fill-rule:nonzero;fill:rgb(0%,0%,0%);fill-opacity:1;" d="M 105.984375 111.578125 C 106.144531 111.578125 106.144531 111.328125 105.984375 111.328125 C 105.820312 111.328125 105.820312 111.578125 105.984375 111.578125 Z M 105.984375 111.578125 "/>
<path style=" stroke:none;fill-rule:nonzero;fill:rgb(0%,0%,0%);fill-opacity:1;" d="M 108.644531 114.054688 C 108.804688 114.054688 108.804688 113.804688 108.644531 113.804688 C 108.480469 113.804688 108.480469 114.054688 108.644531 114.054688 Z M 108.644531 114.054688 "/>
<path style=" stroke:none;fill-rule:nonzero;fill:rgb(0%,0%,0%);fill-opacity:1;" d="M 111.199219 110.800781 C 111.359375 110.800781 111.363281 110.550781 111.199219 110.550781 C 111.039062 110.550781 111.039062 110.800781 111.199219 110.800781 Z M 111.199219 110.800781 "/>
<path style="fill-rule:nonzero;fill:rgb(11.372549%,11.372549%,10.588235%);fill-opacity:1;stroke-width:1;stroke-linecap:butt;stroke-linejoin:miter;stroke:rgb(11.372549%,11.372549%,10.588235%);stroke-opacity:1;stroke-miterlimit:10;" d="M 555.195312 473.476562 C 553.613281 471.660156 552.1875 469.726562 550.546875 467.949219 C 548.300781 465.527344 546.035156 463.144531 543.417969 461.113281 C 541.230469 459.414062 539.0625 457.734375 536.699219 456.328125 C 532.207031 453.691406 527.304688 452.226562 522.1875 451.582031 C 517.8125 451.035156 513.652344 451.992188 509.609375 453.59375 C 508.378906 454.0625 507.109375 454.433594 505.605469 454.921875 C 508.476562 450.917969 511.40625 447.441406 516.289062 446.464844 C 522.285156 445.253906 527.988281 446.152344 533.515625 448.710938 C 539.785156 451.601562 545.097656 455.644531 549.414062 461.015625 C 552.363281 464.6875 554.433594 468.769531 555.195312 473.476562 Z M 555.195312 473.476562 " transform="matrix(0.2,0,0,0.2,0,0)"/>
<path style="fill-rule:nonzero;fill:rgb(11.372549%,11.372549%,10.588235%);fill-opacity:1;stroke-width:1;stroke-linecap:butt;stroke-linejoin:miter;stroke:rgb(11.372549%,11.372549%,10.588235%);stroke-opacity:1;stroke-miterlimit:10;" d="M 395.214844 477.460938 C 396.875 475.703125 398.359375 473.808594 400.039062 472.070312 C 402.363281 469.726562 404.6875 467.421875 407.363281 465.46875 C 409.609375 463.828125 411.816406 462.226562 414.238281 460.898438 C 418.808594 458.378906 423.730469 457.070312 428.886719 456.582031 C 433.261719 456.152344 437.382812 457.246094 441.386719 458.964844 C 442.597656 459.492188 443.867188 459.882812 445.332031 460.429688 C 442.597656 456.328125 439.785156 452.773438 434.921875 451.640625 C 428.964844 450.253906 423.242188 450.976562 417.636719 453.359375 C 411.289062 456.054688 405.839844 459.941406 401.367188 465.175781 C 398.320312 468.769531 396.132812 472.773438 395.214844 477.460938 Z M 395.214844 477.460938 " transform="matrix(0.2,0,0,0.2,0,0)"/>
</g>
</svg>
