<?xml version="1.0" encoding="UTF-8"?>
<svg xmlns="http://www.w3.org/2000/svg" xmlns:xlink="http://www.w3.org/1999/xlink" width="200" height="200" viewBox="0 0 200 200" version="1.1">
<g id="surface1">
<path style=" stroke:none;fill-rule:nonzero;fill:rgb(0%,0%,0%);fill-opacity:1;" d="M 86.589844 95.84375 C 88.582031 95.917969 90.101562 98.625 89.984375 101.890625 C 89.867188 105.15625 88.15625 107.746094 86.164062 107.675781 C 84.167969 107.601562 82.648438 104.894531 82.765625 101.628906 C 82.882812 98.363281 84.59375 95.773438 86.589844 95.84375 Z M 86.589844 95.84375 "/>
<path style=" stroke:none;fill-rule:nonzero;fill:rgb(90.196079%,90.196079%,90.196079%);fill-opacity:1;" d="M 86.039062 97.324219 C 85.808594 97.308594 85.535156 98.304688 85.480469 98.515625 C 85.339844 99.027344 85.410156 99.042969 85.316406 99.195312 C 84.863281 99.960938 83.128906 99.644531 83.105469 99.851562 C 83.097656 99.9375 83.378906 100.015625 83.828125 100.195312 C 84.511719 100.464844 84.910156 100.621094 85.175781 100.875 C 85.59375 101.277344 85.394531 101.65625 85.726562 103.105469 C 85.765625 103.269531 86.09375 104.726562 86.300781 104.703125 C 86.488281 104.683594 86.675781 103.414062 86.601562 102.191406 C 86.558594 101.515625 86.449219 101.042969 86.757812 100.722656 C 86.878906 100.597656 87.125 100.507812 87.613281 100.332031 C 88.285156 100.09375 88.570312 100.054688 88.574219 99.945312 C 88.574219 99.886719 88.496094 99.820312 87.851562 99.605469 C 87.035156 99.332031 86.792969 99.378906 86.605469 99.136719 C 86.492188 98.996094 86.542969 98.941406 86.421875 98.394531 C 86.285156 97.785156 86.1875 97.339844 86.039062 97.328125 Z M 86.039062 97.324219 "/>
<path style=" stroke:none;fill-rule:nonzero;fill:rgb(90.196079%,90.196079%,90.196079%);fill-opacity:1;" d="M 87.902344 102.550781 C 88.003906 102.460938 88.175781 102.40625 88.292969 102.46875 C 88.410156 102.527344 88.449219 102.679688 88.453125 103.445312 C 88.457031 104.480469 88.382812 104.589844 88.316406 104.605469 C 88.25 104.625 88.179688 104.554688 88.125 104.503906 C 87.933594 104.3125 87.90625 104.074219 87.867188 103.617188 C 87.789062 102.773438 87.796875 102.648438 87.902344 102.550781 Z M 87.902344 102.550781 "/>
<path style=" stroke:none;fill-rule:nonzero;fill:rgb(0%,0%,0%);fill-opacity:1;" d="M 105.324219 96.519531 C 107.320312 96.589844 108.839844 99.296875 108.722656 102.5625 C 108.605469 105.832031 106.894531 108.421875 104.898438 108.347656 C 102.90625 108.277344 101.386719 105.570312 101.503906 102.304688 C 101.621094 99.039062 103.332031 96.449219 105.324219 96.519531 Z M 105.324219 96.519531 "/>
<path style=" stroke:none;fill-rule:nonzero;fill:rgb(90.196079%,90.196079%,90.196079%);fill-opacity:1;" d="M 104.890625 98.007812 C 104.660156 97.988281 104.390625 98.984375 104.335938 99.195312 C 104.195312 99.707031 104.265625 99.722656 104.171875 99.875 C 103.714844 100.640625 101.980469 100.324219 101.960938 100.53125 C 101.953125 100.617188 102.234375 100.695312 102.683594 100.875 C 103.367188 101.144531 103.765625 101.300781 104.027344 101.554688 C 104.449219 101.957031 104.25 102.335938 104.578125 103.785156 C 104.617188 103.949219 104.949219 105.40625 105.152344 105.382812 C 105.34375 105.363281 105.53125 104.09375 105.453125 102.871094 C 105.414062 102.195312 105.304688 101.722656 105.613281 101.402344 C 105.730469 101.277344 105.980469 101.1875 106.46875 101.011719 C 107.136719 100.773438 107.425781 100.734375 107.429688 100.625 C 107.429688 100.566406 107.351562 100.5 106.703125 100.285156 C 105.886719 100.011719 105.644531 100.058594 105.457031 99.816406 C 105.347656 99.675781 105.394531 99.621094 105.273438 99.074219 C 105.136719 98.464844 105.042969 98.019531 104.890625 98.007812 Z M 104.890625 98.007812 "/>
<path style=" stroke:none;fill-rule:nonzero;fill:rgb(90.196079%,90.196079%,90.196079%);fill-opacity:1;" d="M 106.753906 103.230469 C 106.855469 103.140625 107.027344 103.089844 107.144531 103.148438 C 107.261719 103.207031 107.300781 103.359375 107.304688 104.125 C 107.308594 105.160156 107.234375 105.269531 107.167969 105.285156 C 107.101562 105.304688 107.03125 105.234375 106.976562 105.183594 C 106.785156 104.992188 106.761719 104.757812 106.71875 104.296875 C 106.640625 103.453125 106.648438 103.328125 106.757812 103.230469 Z M 106.753906 103.230469 "/>
<path style=" stroke:none;fill-rule:nonzero;fill:rgb(0%,0%,0%);fill-opacity:1;" d="M 79.726562 95.335938 C 80.066406 94.621094 80.429688 94.015625 80.855469 93.449219 C 81.738281 92.277344 82.804688 91.308594 84.0625 90.558594 C 84.921875 90.046875 85.867188 89.75 86.863281 89.613281 C 87.445312 89.53125 88.015625 89.417969 88.539062 89.125 C 88.777344 88.988281 88.976562 88.8125 89.207031 88.5625 C 89.265625 89.386719 89.40625 90.15625 89.261719 90.929688 C 89.195312 91.285156 88.660156 91.613281 88.226562 91.585938 C 87.34375 91.527344 86.46875 91.589844 85.621094 91.824219 C 84.582031 92.113281 83.609375 92.558594 82.699219 93.160156 C 82.007812 93.621094 81.34375 94.121094 80.679688 94.617188 C 80.382812 94.835938 80.144531 95.128906 79.726562 95.335938 Z M 79.726562 95.335938 "/>
<path style=" stroke:none;fill-rule:nonzero;fill:rgb(0%,0%,0%);fill-opacity:1;" d="M 111.242188 95.933594 C 110.945312 95.199219 110.621094 94.570312 110.226562 93.980469 C 109.417969 92.761719 108.410156 91.730469 107.203125 90.90625 C 106.375 90.34375 105.449219 89.988281 104.464844 89.789062 C 103.886719 89.675781 103.324219 89.527344 102.820312 89.203125 C 102.589844 89.054688 102.402344 88.867188 102.191406 88.601562 C 102.082031 89.425781 101.894531 90.183594 101.992188 90.960938 C 102.039062 91.320312 102.550781 91.679688 102.984375 91.679688 C 103.871094 91.679688 104.738281 91.792969 105.570312 92.078125 C 106.59375 92.429688 107.535156 92.933594 108.40625 93.589844 C 109.070312 94.089844 109.699219 94.628906 110.335938 95.164062 C 110.617188 95.398438 110.839844 95.703125 111.242188 95.9375 Z M 111.242188 95.933594 "/>
<path style=" stroke:none;fill-rule:nonzero;fill:rgb(0%,0%,0%);fill-opacity:1;" d="M 84.0625 109.523438 C 84.222656 109.523438 84.222656 109.273438 84.0625 109.273438 C 83.898438 109.273438 83.898438 109.523438 84.0625 109.523438 Z M 84.0625 109.523438 "/>
<path style=" stroke:none;fill-rule:nonzero;fill:rgb(0%,0%,0%);fill-opacity:1;" d="M 87.464844 109.082031 C 87.625 109.082031 87.628906 108.832031 87.464844 108.832031 C 87.304688 108.832031 87.304688 109.082031 87.464844 109.082031 Z M 87.464844 109.082031 "/>
<path style=" stroke:none;fill-rule:nonzero;fill:rgb(0%,0%,0%);fill-opacity:1;" d="M 90.175781 112.191406 C 90.335938 112.191406 90.339844 111.941406 90.175781 111.941406 C 90.015625 111.941406 90.015625 112.191406 90.175781 112.191406 Z M 90.175781 112.191406 "/>
<path style=" stroke:none;fill-rule:nonzero;fill:rgb(0%,0%,0%);fill-opacity:1;" d="M 86.0625 111.476562 C 86.222656 111.476562 86.222656 111.226562 86.0625 111.226562 C 85.898438 111.226562 85.898438 111.476562 86.0625 111.476562 Z M 86.0625 111.476562 "/>
<path style=" stroke:none;fill-rule:nonzero;fill:rgb(0%,0%,0%);fill-opacity:1;" d="M 84.476562 113.679688 C 84.636719 113.679688 84.636719 113.429688 84.476562 113.429688 C 84.3125 113.429688 84.3125 113.679688 84.476562 113.679688 Z M 84.476562 113.679688 "/>
<path style=" stroke:none;fill-rule:nonzero;fill:rgb(0%,0%,0%);fill-opacity:1;" d="M 104.03125 110.445312 C 104.191406 110.445312 104.191406 110.195312 104.03125 110.195312 C 103.867188 110.195312 103.867188 110.445312 104.03125 110.445312 Z M 104.03125 110.445312 "/>
<path style=" stroke:none;fill-rule:nonzero;fill:rgb(0%,0%,0%);fill-opacity:1;" d="M 103.734375 113.449219 C 103.894531 113.449219 103.894531 113.199219 103.734375 113.199219 C 103.570312 113.199219 103.570312 113.449219 103.734375 113.449219 Z M 103.734375 113.449219 "/>
<path style=" stroke:none;fill-rule:nonzero;fill:rgb(0%,0%,0%);fill-opacity:1;" d="M 107.484375 113.769531 C 107.644531 113.769531 107.648438 113.519531 107.484375 113.519531 C 107.324219 113.519531 107.324219 113.769531 107.484375 113.769531 Z M 107.484375 113.769531 "/>
<path style=" stroke:none;fill-rule:nonzero;fill:rgb(0%,0%,0%);fill-opacity:1;" d="M 106.84375 110.734375 C 107.003906 110.734375 107.003906 110.484375 106.84375 110.484375 C 106.679688 110.484375 106.679688 110.734375 106.84375 110.734375 Z M 106.84375 110.734375 "/>
<path style=" stroke:none;fill-rule:nonzero;fill:rgb(0%,0%,0%);fill-opacity:1;" d="M 109.574219 113.28125 C 109.734375 113.28125 109.734375 113.03125 109.574219 113.03125 C 109.410156 113.03125 109.410156 113.28125 109.574219 113.28125 Z M 109.574219 113.28125 "/>
<path style=" stroke:none;fill-rule:nonzero;fill:rgb(0%,0%,0%);fill-opacity:1;" d="M 82.101562 111.230469 C 82.261719 111.230469 82.265625 110.980469 82.101562 110.980469 C 81.941406 110.980469 81.941406 111.230469 82.101562 111.230469 Z M 82.101562 111.230469 "/>
<path style=" stroke:none;fill-rule:nonzero;fill:rgb(0%,0%,0%);fill-opacity:1;" d="M 81.273438 109.382812 C 81.433594 109.382812 81.433594 109.132812 81.273438 109.132812 C 81.109375 109.132812 81.109375 109.382812 81.273438 109.382812 Z M 81.273438 109.382812 "/>
<path style=" stroke:none;fill-rule:nonzero;fill:rgb(0%,0%,0%);fill-opacity:1;" d="M 112.199219 109.9375 C 112.359375 109.9375 112.363281 109.6875 112.199219 109.6875 C 112.039062 109.6875 112.039062 109.9375 112.199219 109.9375 Z M 112.199219 109.9375 "/>
<path style=" stroke:none;fill-rule:nonzero;fill:rgb(0%,0%,0%);fill-opacity:1;" d="M 88.867188 116.753906 C 91.039062 116.355469 93.222656 116.265625 95.417969 116.253906 C 97.613281 116.261719 99.796875 116.355469 101.96875 116.753906 C 99.796875 117.148438 97.613281 117.242188 95.417969 117.253906 C 93.222656 117.238281 91.039062 117.148438 88.867188 116.753906 Z M 88.867188 116.753906 "/>
</g>
</svg>
