<?xml version="1.0" encoding="UTF-8"?>
<svg id="Pots" xmlns="http://www.w3.org/2000/svg" viewBox="0 0 1000 1000">
  <defs>
    <style>
      .cls-1 {
        fill: #e6e6e6;
      }
    </style>
  </defs>
  <g>
    <g>
      <ellipse cx="431.89" cy="508.82" rx="29.59" ry="18.06" transform="translate(-92.14 922.12) rotate(-87.94)"/>
      <path class="cls-1" d="M430.19,486.63c-1.15-.09-2.51,4.9-2.79,5.95-.7,2.56-.35,2.63-.81,3.39-2.28,3.83-10.95,2.25-11.06,3.29-.04,.42,1.37,.81,3.62,1.71,3.41,1.35,5.4,2.14,6.72,3.4,2.1,2.01,1.11,3.91,2.76,11.15,.19,.82,1.84,8.11,2.87,8,.94-.1,1.88-6.45,1.5-12.57-.2-3.38-.75-5.74,.79-7.34,.6-.63,1.84-1.08,4.28-1.95,3.35-1.2,4.79-1.39,4.8-1.93,0-.29-.38-.63-3.62-1.71-4.08-1.36-5.29-1.13-6.23-2.33-.55-.71-.31-.98-.92-3.72-.68-3.04-1.16-5.27-1.91-5.33Z"/>
      <path class="cls-1" d="M439.51,512.76c.5-.46,1.36-.72,1.96-.42,.58,.29,.78,1.06,.8,4.89,.02,5.17-.36,5.72-.69,5.8-.33,.09-.69-.26-.95-.52-.96-.94-1.09-2.13-1.3-4.42-.38-4.23-.34-4.85,.19-5.34Z"/>
    </g>
    <g>
      <ellipse cx="525.58" cy="512.19" rx="29.59" ry="18.06" transform="translate(-5.19 1019) rotate(-87.94)"/>
      <path class="cls-1" d="M524.46,490.03c-1.15-.09-2.51,4.9-2.79,5.95-.7,2.56-.35,2.63-.81,3.39-2.28,3.83-10.95,2.25-11.06,3.29-.04,.42,1.37,.81,3.62,1.71,3.41,1.35,5.4,2.14,6.72,3.4,2.1,2.01,1.11,3.91,2.76,11.15,.19,.82,1.84,8.11,2.87,8,.94-.1,1.88-6.45,1.5-12.57-.2-3.38-.75-5.74,.79-7.34,.6-.63,1.84-1.08,4.28-1.95,3.35-1.2,4.79-1.39,4.8-1.93,0-.29-.38-.63-3.62-1.71-4.08-1.36-5.29-1.13-6.23-2.33-.55-.71-.31-.98-.92-3.72-.68-3.04-1.16-5.27-1.91-5.33Z"/>
      <path class="cls-1" d="M533.77,516.16c.5-.46,1.36-.72,1.96-.42,.58,.29,.78,1.06,.8,4.89,.02,5.17-.36,5.72-.69,5.8-.33,.09-.69-.26-.95-.52-.96-.94-1.09-2.13-1.3-4.42-.38-4.23-.34-4.85,.19-5.34Z"/>
    </g>
  </g>
  <path d="M398.63,476.67c1.71-3.57,3.51-6.6,5.65-9.43,4.41-5.85,9.75-10.69,16.03-14.44,4.3-2.57,9.02-4.05,14-4.74,2.91-.4,5.77-.97,8.39-2.44,1.19-.67,2.19-1.55,3.33-2.81,.29,4.13,1,7.97,.27,11.83-.33,1.78-2.99,3.42-5.17,3.28-4.41-.28-8.78,.03-13.02,1.2-5.2,1.45-10.07,3.68-14.61,6.68-3.47,2.3-6.78,4.81-10.11,7.29-1.47,1.09-2.67,2.55-4.76,3.58Z"/>
  <path d="M556.21,479.66c-1.49-3.67-3.11-6.8-5.07-9.75-4.05-6.1-9.09-11.26-15.13-15.38-4.14-2.82-8.76-4.59-13.69-5.58-2.88-.58-5.7-1.31-8.22-2.94-1.15-.74-2.09-1.68-3.15-3-.54,4.11-1.48,7.9-.98,11.8,.23,1.8,2.78,3.59,4.96,3.59,4.42,0,8.76,.56,12.92,1.99,5.11,1.76,9.83,4.28,14.18,7.55,3.33,2.5,6.47,5.21,9.65,7.88,1.4,1.18,2.52,2.7,4.53,3.86Z"/>
  <path d="M420.31,547.62c.8,0,.81-1.25,0-1.25s-.81,1.25,0,1.25h0Z"/>
  <path d="M437.33,545.41c.8,0,.81-1.25,0-1.25s-.81,1.25,0,1.25h0Z"/>
  <path d="M450.88,560.95c.8,0,.81-1.25,0-1.25s-.81,1.25,0,1.25h0Z"/>
  <path d="M430.31,557.39c.8,0,.81-1.25,0-1.25s-.81,1.25,0,1.25h0Z"/>
  <path d="M422.38,568.39c.8,0,.81-1.25,0-1.25s-.81,1.25,0,1.25h0Z"/>
  <path d="M520.15,552.23c.8,0,.81-1.25,0-1.25s-.81,1.25,0,1.25h0Z"/>
  <path d="M518.67,567.24c.8,0,.81-1.25,0-1.25s-.81,1.25,0,1.25h0Z"/>
  <path d="M537.43,568.85c.8,0,.81-1.25,0-1.25s-.81,1.25,0,1.25h0Z"/>
  <path d="M534.21,553.68c.8,0,.81-1.25,0-1.25s-.81,1.25,0,1.25h0Z"/>
  <path d="M547.87,566.41c.8,0,.81-1.25,0-1.25s-.81,1.25,0,1.25h0Z"/>
  <path d="M410.51,556.15c.8,0,.81-1.25,0-1.25s-.81,1.25,0,1.25h0Z"/>
  <path d="M406.36,546.92c.8,0,.81-1.25,0-1.25s-.81,1.25,0,1.25h0Z"/>
  <path d="M561,549.69c.8,0,.81-1.25,0-1.25s-.81,1.25,0,1.25h0Z"/>
  <path d="M444.33,583.76c10.86-1.98,21.78-2.44,32.76-2.5,10.98,.05,21.9,.51,32.76,2.5-10.86,1.99-21.78,2.45-32.76,2.5-10.98-.06-21.9-.52-32.76-2.5h0Z"/>
</svg>