<?xml version="1.0" encoding="UTF-8"?>
<svg xmlns="http://www.w3.org/2000/svg" xmlns:xlink="http://www.w3.org/1999/xlink" width="200" height="200" viewBox="0 0 200 200" version="1.1">
<g id="surface1">
<path style=" stroke:none;fill-rule:nonzero;fill:rgb(0%,0%,0%);fill-opacity:1;" d="M 86.535156 96.726562 C 88.421875 96.792969 89.863281 99.355469 89.753906 102.453125 C 89.640625 105.546875 88.019531 108 86.132812 107.929688 C 84.242188 107.863281 82.800781 105.300781 82.914062 102.207031 C 83.023438 99.109375 84.644531 96.65625 86.535156 96.726562 Z M 86.535156 96.726562 "/>
<path style=" stroke:none;fill-rule:nonzero;fill:rgb(90.196079%,90.196079%,90.196079%);fill-opacity:1;" d="M 86.015625 98.128906 C 85.796875 98.113281 85.542969 99.054688 85.484375 99.257812 C 85.355469 99.742188 85.421875 99.753906 85.335938 99.898438 C 84.902344 100.625 83.261719 100.324219 83.238281 100.519531 C 83.230469 100.601562 83.496094 100.675781 83.925781 100.84375 C 84.570312 101.101562 84.949219 101.25 85.195312 101.488281 C 85.59375 101.867188 85.40625 102.226562 85.71875 103.601562 C 85.753906 103.757812 86.066406 105.136719 86.261719 105.113281 C 86.441406 105.09375 86.617188 103.890625 86.546875 102.730469 C 86.511719 102.09375 86.40625 101.644531 86.699219 101.34375 C 86.8125 101.222656 87.046875 101.136719 87.507812 100.972656 C 88.140625 100.746094 88.414062 100.710938 88.417969 100.605469 C 88.417969 100.550781 88.347656 100.488281 87.730469 100.28125 C 86.960938 100.023438 86.730469 100.066406 86.550781 99.839844 C 86.449219 99.707031 86.492188 99.652344 86.378906 99.136719 C 86.246094 98.558594 86.15625 98.136719 86.015625 98.125 Z M 86.015625 98.128906 "/>
<path style=" stroke:none;fill-rule:nonzero;fill:rgb(90.196079%,90.196079%,90.196079%);fill-opacity:1;" d="M 87.78125 103.078125 C 87.878906 102.992188 88.039062 102.945312 88.152344 103.003906 C 88.261719 103.058594 88.300781 103.203125 88.300781 103.929688 C 88.304688 104.90625 88.234375 105.011719 88.171875 105.027344 C 88.105469 105.042969 88.039062 104.980469 87.988281 104.929688 C 87.808594 104.753906 87.78125 104.527344 87.742188 104.09375 C 87.671875 103.289062 87.679688 103.171875 87.78125 103.082031 Z M 87.78125 103.078125 "/>
<path style=" stroke:none;fill-rule:nonzero;fill:rgb(0%,0%,0%);fill-opacity:1;" d="M 104.285156 97.367188 C 106.175781 97.433594 107.617188 99.996094 107.503906 103.089844 C 107.394531 106.1875 105.773438 108.640625 103.882812 108.570312 C 101.996094 108.503906 100.554688 105.941406 100.664062 102.84375 C 100.777344 99.75 102.398438 97.296875 104.285156 97.367188 Z M 104.285156 97.367188 "/>
<path style=" stroke:none;fill-rule:nonzero;fill:rgb(90.196079%,90.196079%,90.196079%);fill-opacity:1;" d="M 103.875 98.773438 C 103.65625 98.757812 103.402344 99.699219 103.347656 99.898438 C 103.214844 100.386719 103.28125 100.398438 103.195312 100.542969 C 102.761719 101.269531 101.121094 100.96875 101.097656 101.164062 C 101.089844 101.242188 101.355469 101.316406 101.785156 101.488281 C 102.429688 101.742188 102.808594 101.894531 103.054688 102.132812 C 103.453125 102.511719 103.265625 102.871094 103.578125 104.242188 C 103.613281 104.398438 103.925781 105.78125 104.121094 105.757812 C 104.300781 105.738281 104.476562 104.535156 104.40625 103.375 C 104.371094 102.734375 104.265625 102.289062 104.558594 101.984375 C 104.671875 101.867188 104.90625 101.78125 105.367188 101.617188 C 106.003906 101.390625 106.277344 101.355469 106.277344 101.25 C 106.277344 101.195312 106.207031 101.132812 105.59375 100.925781 C 104.820312 100.667969 104.589844 100.710938 104.410156 100.484375 C 104.308594 100.351562 104.355469 100.296875 104.238281 99.78125 C 104.109375 99.203125 104.019531 98.78125 103.875 98.769531 Z M 103.875 98.773438 "/>
<path style=" stroke:none;fill-rule:nonzero;fill:rgb(90.196079%,90.196079%,90.196079%);fill-opacity:1;" d="M 105.640625 103.722656 C 105.738281 103.636719 105.898438 103.589844 106.011719 103.644531 C 106.121094 103.703125 106.160156 103.847656 106.160156 104.570312 C 106.164062 105.550781 106.09375 105.652344 106.03125 105.671875 C 105.964844 105.6875 105.898438 105.625 105.851562 105.574219 C 105.667969 105.394531 105.640625 105.171875 105.605469 104.734375 C 105.53125 103.933594 105.539062 103.816406 105.640625 103.726562 Z M 105.640625 103.722656 "/>
<path style=" stroke:none;fill-rule:nonzero;fill:rgb(0%,0%,0%);fill-opacity:1;" d="M 80.035156 96.238281 C 80.359375 95.5625 80.703125 94.988281 81.105469 94.453125 C 81.941406 93.347656 82.953125 92.429688 84.144531 91.71875 C 84.960938 91.230469 85.855469 90.949219 86.796875 90.820312 C 87.347656 90.742188 87.890625 90.636719 88.382812 90.359375 C 88.609375 90.230469 88.796875 90.0625 89.015625 89.824219 C 89.070312 90.609375 89.203125 91.335938 89.066406 92.066406 C 89.003906 92.40625 88.5 92.714844 88.085938 92.691406 C 87.25 92.636719 86.421875 92.695312 85.621094 92.917969 C 84.632812 93.191406 83.710938 93.613281 82.851562 94.183594 C 82.195312 94.621094 81.566406 95.097656 80.9375 95.5625 C 80.660156 95.773438 80.433594 96.046875 80.035156 96.242188 Z M 80.035156 96.238281 "/>
<path style=" stroke:none;fill-rule:nonzero;fill:rgb(0%,0%,0%);fill-opacity:1;" d="M 109.890625 96.808594 C 109.609375 96.113281 109.304688 95.519531 108.933594 94.960938 C 108.164062 93.804688 107.210938 92.824219 106.0625 92.046875 C 105.28125 91.511719 104.402344 91.175781 103.46875 90.988281 C 102.925781 90.878906 102.390625 90.742188 101.910156 90.433594 C 101.695312 90.289062 101.515625 90.113281 101.3125 89.863281 C 101.210938 90.640625 101.035156 91.359375 101.128906 92.097656 C 101.171875 92.4375 101.652344 92.777344 102.066406 92.777344 C 102.902344 92.777344 103.726562 92.882812 104.515625 93.152344 C 105.484375 93.484375 106.378906 93.964844 107.203125 94.585938 C 107.835938 95.058594 108.429688 95.570312 109.03125 96.078125 C 109.296875 96.300781 109.507812 96.589844 109.890625 96.808594 Z M 109.890625 96.808594 "/>
<path style=" stroke:none;fill-rule:nonzero;fill:rgb(0%,0%,0%);fill-opacity:1;" d="M 89.976562 117.527344 C 92.128906 115.234375 95.765625 114.554688 98.617188 115.871094 C 99.5625 116.300781 100.433594 116.902344 101.117188 117.671875 C 100.320312 117.027344 99.433594 116.519531 98.5 116.15625 C 95.65625 115.039062 92.367188 115.652344 89.976562 117.527344 Z M 89.976562 117.527344 "/>
<path style=" stroke:none;fill-rule:nonzero;fill:rgb(0%,0%,0%);fill-opacity:1;" d="M 84.144531 109.691406 C 84.304688 109.691406 84.304688 109.441406 84.144531 109.441406 C 83.980469 109.441406 83.980469 109.691406 84.144531 109.691406 Z M 84.144531 109.691406 "/>
<path style=" stroke:none;fill-rule:nonzero;fill:rgb(0%,0%,0%);fill-opacity:1;" d="M 87.367188 109.273438 C 87.527344 109.273438 87.53125 109.023438 87.367188 109.023438 C 87.207031 109.023438 87.207031 109.273438 87.367188 109.273438 Z M 87.367188 109.273438 "/>
<path style=" stroke:none;fill-rule:nonzero;fill:rgb(0%,0%,0%);fill-opacity:1;" d="M 89.9375 112.214844 C 90.097656 112.214844 90.097656 111.964844 89.9375 111.964844 C 89.773438 111.964844 89.773438 112.214844 89.9375 112.214844 Z M 89.9375 112.214844 "/>
<path style=" stroke:none;fill-rule:nonzero;fill:rgb(0%,0%,0%);fill-opacity:1;" d="M 86.039062 111.542969 C 86.199219 111.542969 86.199219 111.292969 86.039062 111.292969 C 85.875 111.292969 85.875 111.542969 86.039062 111.542969 Z M 86.039062 111.542969 "/>
<path style=" stroke:none;fill-rule:nonzero;fill:rgb(0%,0%,0%);fill-opacity:1;" d="M 84.535156 113.625 C 84.695312 113.625 84.699219 113.375 84.535156 113.375 C 84.375 113.375 84.375 113.625 84.535156 113.625 Z M 84.535156 113.625 "/>
<path style=" stroke:none;fill-rule:nonzero;fill:rgb(0%,0%,0%);fill-opacity:1;" d="M 103.058594 110.566406 C 103.21875 110.566406 103.222656 110.316406 103.058594 110.316406 C 102.898438 110.316406 102.898438 110.566406 103.058594 110.566406 Z M 103.058594 110.566406 "/>
<path style=" stroke:none;fill-rule:nonzero;fill:rgb(0%,0%,0%);fill-opacity:1;" d="M 102.78125 113.40625 C 102.941406 113.40625 102.941406 113.15625 102.78125 113.15625 C 102.617188 113.15625 102.617188 113.40625 102.78125 113.40625 Z M 102.78125 113.40625 "/>
<path style=" stroke:none;fill-rule:nonzero;fill:rgb(0%,0%,0%);fill-opacity:1;" d="M 106.335938 113.714844 C 106.492188 113.714844 106.496094 113.464844 106.335938 113.464844 C 106.171875 113.464844 106.171875 113.714844 106.335938 113.714844 Z M 106.335938 113.714844 "/>
<path style=" stroke:none;fill-rule:nonzero;fill:rgb(0%,0%,0%);fill-opacity:1;" d="M 105.722656 110.839844 C 105.882812 110.839844 105.886719 110.589844 105.722656 110.589844 C 105.5625 110.589844 105.5625 110.839844 105.722656 110.839844 Z M 105.722656 110.839844 "/>
<path style=" stroke:none;fill-rule:nonzero;fill:rgb(0%,0%,0%);fill-opacity:1;" d="M 108.3125 113.25 C 108.472656 113.25 108.472656 113 108.3125 113 C 108.148438 113 108.148438 113.25 108.3125 113.25 Z M 108.3125 113.25 "/>
<path style=" stroke:none;fill-rule:nonzero;fill:rgb(0%,100%,100%);fill-opacity:1;" d="M 102.285156 107.765625 C 102.1875 107.511719 102.59375 107.394531 102.863281 107.347656 C 103.609375 107.207031 104.320312 107.90625 105.070312 107.785156 C 105.300781 107.746094 105.523438 107.632812 105.753906 107.652344 C 105.984375 107.671875 106.222656 107.921875 106.101562 108.121094 C 106.027344 108.238281 105.632812 108.40625 105.503906 108.398438 C 104.9375 108.378906 104.753906 108.660156 104.195312 108.742188 C 103.855469 108.792969 103.363281 108.632812 103.042969 108.511719 C 102.742188 108.390625 102.523438 108.136719 102.3125 107.890625 "/>
<path style=" stroke:none;fill-rule:nonzero;fill:rgb(0%,100%,100%);fill-opacity:1;" d="M 106.464844 108.808594 C 106.476562 109.148438 106.523438 109.484375 106.605469 109.8125 C 106.660156 110.050781 106.742188 110.292969 106.917969 110.460938 C 107.09375 110.632812 107.382812 110.707031 107.585938 110.570312 C 107.925781 110.347656 107.753906 109.792969 107.4375 109.535156 C 107.125 109.277344 106.703125 109.136719 106.46875 108.800781 "/>
<path style=" stroke:none;fill-rule:nonzero;fill:rgb(0%,0%,0%);fill-opacity:1;" d="M 82.285156 111.308594 C 82.445312 111.308594 82.449219 111.058594 82.285156 111.058594 C 82.125 111.058594 82.125 111.308594 82.285156 111.308594 Z M 82.285156 111.308594 "/>
<path style=" stroke:none;fill-rule:nonzero;fill:rgb(0%,0%,0%);fill-opacity:1;" d="M 81.5 109.558594 C 81.660156 109.558594 81.660156 109.308594 81.5 109.308594 C 81.339844 109.308594 81.339844 109.558594 81.5 109.558594 Z M 81.5 109.558594 "/>
<path style=" stroke:none;fill-rule:nonzero;fill:rgb(0%,0%,0%);fill-opacity:1;" d="M 110.800781 110.085938 C 110.960938 110.085938 110.960938 109.835938 110.800781 109.835938 C 110.636719 109.835938 110.636719 110.085938 110.800781 110.085938 Z M 110.800781 110.085938 "/>
</g>
</svg>
