<?xml version="1.0" encoding="UTF-8"?>
<svg id="Pots" xmlns="http://www.w3.org/2000/svg" viewBox="0 0 1000 1000">
  <defs>
    <style>
      .cls-1 {
        fill: aqua;
      }

      .cls-2 {
        fill: #e6e6e6;
      }
    </style>
  </defs>
  <g>
    <g>
      <ellipse cx="431.69" cy="511.66" rx="28.03" ry="17.11" transform="translate(-95.18 924.66) rotate(-87.94)"/>
      <path class="cls-2" d="M430.08,490.64c-1.09-.08-2.37,4.64-2.65,5.64-.66,2.43-.33,2.49-.76,3.21-2.16,3.63-10.37,2.13-10.48,3.11-.04,.4,1.29,.77,3.43,1.62,3.23,1.28,5.12,2.03,6.36,3.22,1.99,1.9,1.05,3.7,2.61,10.56,.18,.78,1.74,7.68,2.72,7.57,.89-.1,1.78-6.11,1.43-11.91-.19-3.2-.71-5.44,.75-6.95,.57-.59,1.74-1.02,4.05-1.85,3.17-1.13,4.54-1.31,4.55-1.83,0-.27-.36-.59-3.43-1.62-3.86-1.29-5.01-1.07-5.9-2.21-.52-.67-.29-.93-.87-3.52-.65-2.88-1.1-4.99-1.81-5.05Z"/>
      <path class="cls-2" d="M438.91,515.4c.48-.43,1.29-.68,1.85-.39,.55,.28,.74,1.01,.75,4.63,.02,4.9-.34,5.41-.66,5.5-.32,.08-.65-.24-.9-.49-.91-.89-1.04-2.02-1.23-4.19-.36-4.01-.32-4.6,.18-5.05Z"/>
    </g>
    <g>
      <ellipse cx="520.44" cy="514.86" rx="28.03" ry="17.11" transform="translate(-12.81 1016.44) rotate(-87.94)"/>
      <path class="cls-2" d="M519.38,493.86c-1.09-.08-2.37,4.64-2.65,5.64-.66,2.43-.33,2.49-.76,3.21-2.16,3.63-10.37,2.13-10.48,3.11-.04,.4,1.29,.77,3.43,1.62,3.23,1.28,5.12,2.03,6.36,3.22,1.99,1.9,1.05,3.7,2.61,10.56,.18,.78,1.74,7.68,2.72,7.57,.89-.1,1.78-6.11,1.43-11.91-.19-3.2-.71-5.44,.75-6.95,.57-.59,1.74-1.02,4.05-1.85,3.17-1.13,4.54-1.31,4.55-1.83,0-.27-.36-.59-3.43-1.62-3.86-1.29-5.01-1.07-5.9-2.21-.52-.67-.29-.93-.87-3.52-.65-2.88-1.1-4.99-1.81-5.05Z"/>
      <path class="cls-2" d="M528.21,518.62c.48-.43,1.29-.68,1.85-.39,.55,.28,.74,1.01,.75,4.63,.02,4.9-.34,5.41-.66,5.5-.32,.08-.65-.24-.9-.49-.91-.89-1.04-2.02-1.23-4.19-.36-4.01-.32-4.6,.18-5.05Z"/>
    </g>
  </g>
  <path d="M400.18,481.2c1.62-3.38,3.33-6.25,5.35-8.93,4.18-5.54,9.24-10.13,15.19-13.68,4.08-2.43,8.55-3.84,13.26-4.49,2.75-.38,5.47-.91,7.94-2.31,1.13-.64,2.07-1.47,3.15-2.66,.28,3.92,.94,7.55,.26,11.21-.32,1.69-2.83,3.24-4.9,3.11-4.18-.26-8.32,.03-12.33,1.14-4.93,1.37-9.54,3.48-13.84,6.33-3.29,2.18-6.42,4.56-9.57,6.9-1.39,1.04-2.53,2.41-4.51,3.39Z"/>
  <path d="M549.46,484.04c-1.41-3.47-2.94-6.44-4.8-9.24-3.84-5.78-8.61-10.67-14.34-14.57-3.92-2.67-8.3-4.35-12.97-5.28-2.72-.55-5.4-1.24-7.79-2.79-1.09-.71-1.98-1.59-2.99-2.85-.51,3.89-1.4,7.48-.93,11.18,.21,1.7,2.63,3.4,4.7,3.4,4.18,0,8.3,.53,12.24,1.88,4.84,1.66,9.31,4.05,13.44,7.15,3.15,2.37,6.13,4.93,9.14,7.47,1.33,1.12,2.38,2.56,4.29,3.66Z"/>
  <path d="M449.89,587.64c10.75-11.47,28.93-14.87,43.2-8.29,4.73,2.16,9.07,5.17,12.5,9-3.98-3.22-8.42-5.75-13.09-7.57-14.22-5.59-30.67-2.52-42.61,6.86h0Z"/>
  <path d="M420.72,548.45c.8,0,.81-1.25,0-1.25s-.81,1.25,0,1.25h0Z"/>
  <path d="M436.84,546.36c.8,0,.81-1.25,0-1.25s-.81,1.25,0,1.25h0Z"/>
  <path d="M449.68,561.08c.8,0,.81-1.25,0-1.25s-.81,1.25,0,1.25h0Z"/>
  <path d="M430.19,557.71c.8,0,.81-1.25,0-1.25s-.81,1.25,0,1.25h0Z"/>
  <path d="M422.68,568.13c.8,0,.81-1.25,0-1.25s-.81,1.25,0,1.25h0Z"/>
  <path d="M515.3,552.83c.8,0,.81-1.25,0-1.25s-.81,1.25,0,1.25h0Z"/>
  <path d="M513.9,567.04c.8,0,.81-1.25,0-1.25s-.81,1.25,0,1.25h0Z"/>
  <path d="M531.67,568.57c.8,0,.81-1.25,0-1.25s-.81,1.25,0,1.25h0Z"/>
  <path d="M528.62,554.2c.8,0,.81-1.25,0-1.25s-.81,1.25,0,1.25h0Z"/>
  <path d="M541.56,566.25c.8,0,.81-1.25,0-1.25s-.81,1.25,0,1.25h0Z"/>
  <path class="cls-1" d="M511.43,538.83c-.5-1.28,1.53-1.85,2.88-2.1,3.74-.69,7.29,2.81,11.05,2.2,1.15-.19,2.25-.76,3.41-.67s2.34,1.34,1.73,2.34c-.36,.59-2.34,1.43-2.99,1.4-2.82-.1-3.75,1.3-6.54,1.71-1.7,.25-4.15-.54-5.75-1.16-1.5-.59-2.61-1.87-3.66-3.1"/>
  <path class="cls-1" d="M532.33,544.05c.05,1.69,.28,3.38,.69,5.02,.29,1.18,.7,2.39,1.57,3.24,.87,.85,2.32,1.22,3.33,.55,1.7-1.12,.84-3.9-.73-5.19-1.57-1.29-3.68-1.99-4.84-3.66"/>
  <path d="M411.43,556.54c.8,0,.81-1.25,0-1.25s-.81,1.25,0,1.25h0Z"/>
  <path d="M407.5,547.79c.8,0,.81-1.25,0-1.25s-.81,1.25,0,1.25h0Z"/>
  <path d="M554,550.42c.8,0,.81-1.25,0-1.25s-.81,1.25,0,1.25h0Z"/>
</svg>