<?xml version="1.0" encoding="UTF-8"?>
<svg id="face" xmlns="http://www.w3.org/2000/svg" viewBox="0 0 1000 1000">
  <defs>
    <style>
      .cls-1 {
        fill: #e6e6e6;
      }

      .cls-2 {
        fill: #ffa491;
        stroke-width: 7px;
      }

      .cls-2, .cls-3 {
        stroke: #585aa8;
        stroke-miterlimit: 10;
      }

      .cls-4 {
        fill: #585aa8;
      }

      .cls-3 {
        fill: none;
        stroke-linecap: round;
        stroke-width: 8px;
      }
    </style>
  </defs>
  <path class="cls-2" d="M499.35,575.4c2.19,4.45,2.1,9.97,0,14.36-6.34,13.25-30.44,15.14-36.46,7.37-2-2.59-2.46-6.84-.74-9.58,3.65-5.78,16.58-4.09,16.57-4.42,0-.35-14.12,1.82-17.31-3.68-1.66-2.86-.1-7.34,2.21-9.94,7.28-8.22,29.67-6.4,35.72,5.89Z"/>
  <g>
    <g>
      <path class="cls-4" d="M444.86,511.42c-.75,8.79-2.31,26.94-14.69,32.52-.43,.19-8.22,3.56-15.64,0-10.92-5.24-12.24-21.28-13.17-32.52-.59-7.19-.6-19.02,4.12-33.34h33.75c6.26,14.66,6.18,26.89,5.63,33.34Z"/>
      <path class="cls-4" d="M557.63,511.42c-.75,8.79-2.31,26.94-14.69,32.52-.43,.19-8.22,3.56-15.64,0-10.92-5.24-12.24-21.28-13.17-32.52-.59-7.19-.6-19.02,4.12-33.34h33.75c6.26,14.66,6.18,26.89,5.63,33.34Z"/>
      <line class="cls-3" x1="399.71" y1="475.61" x2="444.99" y2="475.61"/>
      <line class="cls-3" x1="513.31" y1="475.61" x2="558.59" y2="475.61"/>
    </g>
    <path class="cls-1" d="M424.22,484.79c-1.39-.06-2.8,6-3.1,7.28-.73,3.11-.31,3.17-.82,4.12-2.57,4.71-13.08,3.18-13.17,4.43-.04,.51,1.68,.92,4.43,1.9,4.17,1.48,6.6,2.34,8.23,3.8,2.61,2.33,1.51,4.65,3.8,13.3,.26,.98,2.57,9.68,3.8,9.5,1.13-.16,1.98-7.84,1.27-15.2-.39-4.06-1.15-6.87,.63-8.87,.7-.78,2.16-1.38,5.07-2.53,3.98-1.59,5.7-1.87,5.7-2.53,0-.35-.48-.74-4.43-1.9-4.97-1.46-6.41-1.13-7.6-2.53-.7-.83-.41-1.17-1.27-4.43-.95-3.63-1.62-6.29-2.53-6.33Z"/>
    <path class="cls-1" d="M536.17,484.79c-1.39-.06-2.8,6-3.1,7.28-.73,3.11-.31,3.17-.82,4.12-2.57,4.71-13.08,3.18-13.17,4.43-.04,.51,1.68,.92,4.43,1.9,4.17,1.48,6.6,2.34,8.23,3.8,2.61,2.33,1.51,4.65,3.8,13.3,.26,.98,2.57,9.68,3.8,9.5,1.13-.16,1.98-7.84,1.27-15.2-.39-4.06-1.15-6.87,.63-8.87,.7-.78,2.16-1.38,5.07-2.53,3.98-1.59,5.7-1.87,5.7-2.53,0-.35-.48-.74-4.43-1.9-4.97-1.46-6.41-1.13-7.6-2.53-.7-.83-.41-1.17-1.27-4.43-.95-3.63-1.62-6.29-2.53-6.33Z"/>
    <path class="cls-4" d="M405.11,474.65c-1.14,0-2.17-.8-2.41-1.96l-2.56-12.08c-.28-1.33,.57-2.65,1.9-2.93,1.34-.29,2.65,.57,2.93,1.9l2.56,12.08c.28,1.33-.57,2.65-1.9,2.93-.17,.04-.35,.05-.51,.05Z"/>
    <path class="cls-4" d="M422.76,474.79c-1.36,0-2.47-1.11-2.47-2.47v-12.35c0-1.36,1.11-2.47,2.47-2.47s2.47,1.11,2.47,2.47v12.35c0,1.36-1.11,2.47-2.47,2.47Z"/>
    <path class="cls-4" d="M439.55,474.64c-.18,0-.35-.02-.53-.06-1.33-.29-2.17-1.61-1.88-2.94l2.65-12.06c.29-1.33,1.61-2.18,2.94-1.88,1.33,.29,2.17,1.61,1.88,2.94l-2.65,12.06c-.25,1.15-1.28,1.94-2.41,1.94Z"/>
    <path class="cls-4" d="M518.71,474.65c-1.14,0-2.17-.8-2.41-1.96l-2.56-12.08c-.28-1.33,.57-2.65,1.9-2.93,1.34-.29,2.65,.57,2.93,1.9l2.56,12.08c.28,1.33-.57,2.65-1.9,2.93-.17,.04-.35,.05-.51,.05Z"/>
    <path class="cls-4" d="M536.36,474.79c-1.36,0-2.47-1.11-2.47-2.47v-12.35c0-1.36,1.11-2.47,2.47-2.47s2.47,1.11,2.47,2.47v12.35c0,1.36-1.11,2.47-2.47,2.47Z"/>
    <path class="cls-4" d="M553.15,474.64c-.18,0-.35-.02-.53-.06-1.33-.29-2.17-1.61-1.88-2.94l2.65-12.06c.29-1.33,1.61-2.18,2.94-1.88,1.33,.29,2.17,1.61,1.88,2.94l-2.65,12.06c-.25,1.15-1.28,1.94-2.41,1.94Z"/>
  </g>
</svg>