<?xml version="1.0" encoding="UTF-8"?>
<svg id="face" xmlns="http://www.w3.org/2000/svg" viewBox="0 0 1000 1000">
  <defs>
    <style>
      .cls-1 {
        fill: #fff;
      }

      .cls-2 {
        fill: #585aa8;
      }
    </style>
  </defs>
  <g>
    <ellipse class="cls-2" cx="423.75" cy="513.21" rx="21.11" ry="34.58"/>
    <circle class="cls-1" cx="419.02" cy="497.23" r="7.59"/>
    <path class="cls-2" d="M409.07,451.61c-4.85-3.17-7.03-7.98-7.84-10.26-.55-1.54,.29-3.67,1.87-4.74,1.58-1.08,3.3-.69,3.85,.85,.81,2.29,3.39,7.82,9.83,9.72,5.74,1.7,11.29-.37,14.09-1.75,1.65-.81,3.21-.1,3.5,1.6,.29,1.7-.82,3.73-2.46,4.54-3.59,1.77-10.7,4.42-18.07,2.24-1.82-.54-3.4-1.3-4.77-2.2Z"/>
    <ellipse class="cls-2" cx="533.34" cy="513.21" rx="21.11" ry="34.58"/>
    <circle class="cls-1" cx="529.28" cy="497.23" r="7.59"/>
    <path class="cls-2" d="M516.94,447.61c-4.85-3.17-7.03-7.98-7.84-10.26-.55-1.54,.29-3.67,1.87-4.74,1.58-1.08,3.3-.69,3.85,.85,.81,2.29,3.39,7.82,9.83,9.72,5.74,1.7,11.29-.37,14.09-1.75,1.65-.81,3.21-.1,3.5,1.6,.29,1.7-.82,3.73-2.46,4.54-3.59,1.77-10.7,4.42-18.07,2.24-1.82-.54-3.4-1.3-4.77-2.2Z"/>
  </g>
  <path class="cls-2" d="M477.96,578.93c12.61,0,24.22,8.42,28.33,20.97,.75,2.31-.5,4.79-2.81,5.54-2.31,.75-4.79-.5-5.54-2.81-3.15-9.63-12.45-15.86-22.11-14.8-8.43,.93-15.58,7.32-17.8,15.91-.61,2.35-3,3.76-5.35,3.16-2.35-.61-3.76-3-3.16-5.35,3.12-12.1,13.31-21.12,25.35-22.45,1.04-.11,2.07-.17,3.09-.17Z"/>
</svg>