<?xml version="1.0" encoding="UTF-8"?>
<svg id="face" xmlns="http://www.w3.org/2000/svg" viewBox="0 0 48 48">
  <defs>
    <style>
      .cls-1 {
        fill: #d9ece1;
      }

      .cls-2 {
        fill: #0a5251;
      }
    </style>
  </defs>
  <circle class="cls-2" cx="24" cy="24" r="24"/>
  <path class="cls-1" d="M37.48,19.52s-.05,0-.07,.01c-1.04-2.37-2.69-4.4-4.82-5.91-2.42-1.72-5.24-2.62-8.17-2.62-.07,0-.15,0-.22,0-5.6,.09-10.65,3.55-12.83,8.71-.04-.01-.08-.02-.13-.03-1-.09-2.36,2.64-2.46,5.2-.11,2.92,1.41,6,2.46,5.91,.08,0,.16-.03,.23-.07,.09,.05,.18,.07,.27,.07,.91,0,1.65-2.49,1.65-5.55,0-1.89-.28-3.57-.71-4.57,1.86-4.77,6.45-8,11.54-8.08,5.21-.08,9.87,3.04,11.85,7.85-.45,.99-.75,2.7-.75,4.64,0,3.07,.74,5.55,1.65,5.55,.09,0,.18-.03,.27-.07,.07,.04,.15,.07,.23,.07,1,.09,2.36-2.64,2.46-5.2,.11-2.92-1.41-6-2.46-5.91Z"/>
</svg>