<?xml version="1.0" encoding="UTF-8"?>
<svg xmlns="http://www.w3.org/2000/svg" viewBox="0 0 48 48">
  <defs>
    <style>
      .cls-1 {
        fill: #d9ece1;
      }

      .cls-2 {
        fill: #0a5251;
      }
    </style>
  </defs>
  <g id="face">
    <circle class="cls-1" cx="24" cy="24" r="24"/>
  </g>
  <g id="Accesories">
    <g>
      <path class="cls-2" d="M17.55,37.66l-.77-13.39c.59-.14,1.02-.74,.98-1.43l-.23-3.54c-.02-.38-.2-.74-.47-.98-.18-.16-.4-.26-.63-.28l-.19-3.39h0c-.04-.49-.18-.92-.39-1.26-.16-.26-.33-.4-.62-.63-.47-.38-.92-.63-1.31-.71-.21-.04-.84-.18-1.02,.33-.05,.15-.05,.32,0,.49l.39,5.56c-.39,.25-.64,.74-.61,1.27l.12,1.81s-.01,.08-.01,.13c0,.09,.01,.17,.03,.24l.09,1.35c.02,.38,.2,.74,.47,.98,.1,.09,.21,.15,.32,.2l.81,11.64,1.39,.74s0,0,0,0l1.65,.87Zm-.8-13.95l-.11-1.96,.5-.05,.08,1.17c.02,.37-.18,.71-.46,.83Zm-.05-4.97c.17,.14,.27,.36,.28,.6l.09,1.39-.49,.05-.12-2.17c.09,.03,.17,.07,.24,.13Zm-3.38,.41l.13,1.93-.16,.02-.09-1.43c-.01-.19,.03-.36,.11-.51Zm.11,4.04l-.07-1.13,.16-.02,.12,1.66c-.12-.14-.19-.32-.2-.52Z"/>
      <path class="cls-2" d="M35.32,18.79l.39-5.56c.06-.16,.06-.34,0-.49-.18-.5-.81-.37-1.02-.33-.39,.08-.85,.33-1.31,.71-.29,.23-.46,.37-.62,.63-.21,.34-.35,.77-.39,1.25h0s-.19,3.4-.19,3.4c-.23,.03-.45,.12-.63,.28-.28,.24-.45,.59-.47,.98l-.23,3.54c-.04,.69,.38,1.29,.98,1.43l-.77,13.39,1.65-.87s0,0,0,0l1.39-.74,.81-11.64c.12-.05,.23-.12,.32-.2,.28-.24,.45-.59,.47-.98l.09-1.35c.02-.07,.04-.15,.03-.24,0-.04,0-.09-.01-.13l.12-1.81c.03-.53-.22-1.02-.61-1.27Zm.06,1.24l-.09,1.43-.16-.02,.13-1.93c.08,.15,.13,.32,.11,.51Zm-3.77-.32c.02-.24,.12-.46,.28-.6,.07-.06,.16-.11,.24-.13l-.12,2.17-.49-.05,.09-1.39Zm-.23,3.54l.08-1.17,.5,.05-.11,1.96c-.29-.12-.49-.46-.46-.83Zm3.77,.32c-.01,.2-.09,.38-.2,.52l.12-1.66,.16,.02-.07,1.13Z"/>
    </g>
  </g>
</svg>