<?xml version="1.0" encoding="UTF-8"?>
<svg xmlns="http://www.w3.org/2000/svg" viewBox="0 0 48 48">
  <defs>
    <style>
      .cls-1 {
        fill: #d9ece1;
      }

      .cls-2 {
        fill: #0a5251;
      }
    </style>
  </defs>
  <g id="face">
    <ellipse class="cls-1" cx="23.97" cy="24" rx="23.97" ry="24"/>
  </g>
  <g id="Pots">
    <g>
      <path class="cls-2" d="M23.92,37.9c-1.88,0-3.7-.37-5.42-1.09-1.66-.7-3.15-1.7-4.42-2.98-1.28-1.28-2.28-2.77-2.98-4.42-.73-1.72-1.09-3.54-1.09-5.42s.37-3.7,1.09-5.42c.7-1.66,1.7-3.15,2.98-4.42,1.28-1.28,2.77-2.28,4.42-2.98,1.72-.73,3.54-1.09,5.42-1.09s3.7,.37,5.42,1.09c1.66,.7,3.15,1.7,4.42,2.98,1.28,1.28,2.28,2.77,2.98,4.42,.73,1.72,1.09,3.54,1.09,5.42s-.37,3.7-1.09,5.42c-.7,1.66-1.7,3.15-2.98,4.42-1.28,1.28-2.77,2.28-4.42,2.98-1.72,.73-3.54,1.09-5.42,1.09Zm0-26.61c-7,0-12.69,5.69-12.69,12.69s5.69,12.69,12.69,12.69,12.69-5.69,12.69-12.69-5.69-12.69-12.69-12.69Z"/>
      <circle class="cls-2" cx="19.05" cy="21.26" r="1.99"/>
      <circle class="cls-2" cx="28.79" cy="21.26" r="1.99"/>
      <path class="cls-2" d="M23.72,33.08c-3.22,0-6.13-2.14-7.11-5.27-.14-.43,.1-.89,.53-1.02,.43-.14,.89,.1,1.02,.53,.78,2.49,3.12,4.18,5.69,4.12,2.43-.06,4.58-1.67,5.37-4.01,.14-.43,.61-.66,1.03-.52,.43,.14,.66,.61,.52,1.03-1,2.99-3.76,5.05-6.88,5.13-.06,0-.12,0-.18,0Z"/>
    </g>
  </g>
</svg>