<?xml version="1.0" encoding="UTF-8"?>
<svg xmlns="http://www.w3.org/2000/svg" viewBox="0 0 48 48">
  <defs>
    <style>
      .cls-1 {
        fill: #d9ece1;
      }

      .cls-2 {
        fill: #0a5251;
      }
    </style>
  </defs>
  <g id="face">
    <circle class="cls-2" cx="24" cy="24" r="24"/>
  </g>
  <g id="Plants">
    <path class="cls-1" d="M32.56,11c-1.38,.92-3.56,2.28-6.36,3.69-6.04,3.06-8.01,2.83-10.38,5.27-.49,.5-4.71,5.01-3.11,9.9,1.1,3.35,4.29,4.89,5.12,5.26,.24-1.27,.72-3.04,1.79-4.94,.3-.52,.84-1.49,1.79-2.55,.62-.69,1-.98,1.96-1.85,.65-.59,1.57-1.47,2.66-2.61-.33,.57-.88,1.46-1.63,2.5-1.5,2.07-2.1,2.33-2.99,3.91-.77,1.38-1.13,2.64-1.3,3.42-.26,1.15-.3,2.15-.3,2.87,.58,.17,1.01,.25,1.16,.28,4.28,.79,8.22-1.04,10.45-3.06,4.92-4.45,5.69-13.57,1.12-22.1Z"/>
  </g>
</svg>