<?xml version="1.0" encoding="UTF-8"?>
<svg xmlns="http://www.w3.org/2000/svg" xmlns:xlink="http://www.w3.org/1999/xlink" width="200" height="200" viewBox="0 0 200 200" version="1.1">
<g id="surface1">
<path style="fill-rule:nonzero;fill:rgb(96.862745%,57.647061%,11.764706%);fill-opacity:1;stroke-width:10;stroke-linecap:butt;stroke-linejoin:miter;stroke:rgb(34.509805%,35.294119%,65.882355%);stroke-opacity:1;stroke-miterlimit:10;" d="M 553.125 944.667969 C 535.664062 950.3125 505.292969 953.28125 479.550781 952.988281 C 448.730469 952.617188 416.171875 948.007812 398.28125 940.820312 C 339.804688 917.34375 303.808594 839.667969 298.359375 749.511719 C 344.6875 760.234375 405.722656 769.84375 477.519531 769.355469 C 548.242188 768.867188 608.339844 758.710938 654.121094 747.597656 C 646.09375 845.390625 608.515625 926.738281 553.144531 944.667969 Z M 553.125 944.667969 " transform="matrix(0.2,0,0,0.2,0,0)"/>
<path style="fill-rule:nonzero;fill:rgb(96.862745%,57.647061%,11.764706%);fill-opacity:1;stroke-width:10;stroke-linecap:butt;stroke-linejoin:miter;stroke:rgb(34.509805%,35.294119%,65.882355%);stroke-opacity:1;stroke-miterlimit:10;" d="M 293.984375 744.140625 C 284.121094 732.363281 277.1875 712.050781 285.039062 700.957031 C 301.738281 677.285156 371.464844 715.390625 478.261719 715.15625 C 583.203125 714.921875 650.566406 677.8125 667.011719 700.957031 C 675.390625 712.734375 665.507812 733.066406 656.777344 743.574219 C 643.574219 759.472656 623.417969 764.53125 599.179688 769.140625 C 530.039062 782.304688 477.617188 782.773438 477.617188 782.773438 C 477.617188 782.773438 407.304688 783.417969 330.449219 764.023438 C 321.367188 761.738281 305.019531 757.324219 293.984375 744.140625 Z M 293.984375 744.140625 " transform="matrix(0.2,0,0,0.2,0,0)"/>
</g>
</svg>
