<?xml version="1.0" encoding="UTF-8"?>
<svg xmlns="http://www.w3.org/2000/svg" xmlns:xlink="http://www.w3.org/1999/xlink" width="200" height="200" viewBox="0 0 200 200" version="1.1">
<g id="surface1">
<path style="fill-rule:nonzero;fill:rgb(98.431373%,69.01961%,23.137255%);fill-opacity:1;stroke-width:8;stroke-linecap:butt;stroke-linejoin:miter;stroke:rgb(34.509805%,35.294119%,65.882355%);stroke-opacity:1;stroke-miterlimit:10;" d="M 302.050781 741.855469 C 302.167969 755.46875 304.453125 863.652344 370.351562 916.992188 C 407.773438 947.285156 449.042969 946.425781 478.710938 945.800781 C 508.964844 945.195312 551.289062 944.316406 588.242188 911.230469 C 651.601562 854.570312 649.882812 747.480469 649.492188 734.042969 C 533.671875 736.640625 417.851562 739.257812 302.050781 741.855469 Z M 302.050781 741.855469 " transform="matrix(0.2,0,0,0.2,0,0)"/>
<path style="fill-rule:nonzero;fill:rgb(98.431373%,69.01961%,23.137255%);fill-opacity:1;stroke-width:8;stroke-linecap:butt;stroke-linejoin:miter;stroke:rgb(34.509805%,35.294119%,65.882355%);stroke-opacity:1;stroke-miterlimit:10;" d="M 305.742188 690.195312 C 348.789062 700.722656 405.996094 710.410156 473.59375 710.371094 C 542.363281 710.332031 600.429688 700.234375 643.847656 689.394531 C 645.078125 690.46875 663.691406 707.402344 659.335938 729.726562 C 658.984375 731.582031 655.039062 748.925781 642.265625 754.21875 C 630.546875 759.082031 624.804688 747.695312 610.546875 751.347656 C 598.398438 754.453125 599.257812 763.554688 587.382812 767.1875 C 572.050781 771.855469 566.796875 758.046875 549.570312 759.980469 C 532.832031 761.875 532.597656 776.171875 515.429688 778.710938 C 498.90625 781.171875 496.289062 768.378906 476.386719 768.632812 C 457.597656 768.90625 454.707031 780.390625 439.804688 777.285156 C 425.078125 774.199219 424.84375 762.34375 410.527344 759.980469 C 395.507812 757.519531 392.402344 770.039062 376.386719 768.632812 C 359.960938 767.207031 358.476562 753.652344 342.226562 752.773438 C 326.953125 751.953125 322.890625 763.671875 311.738281 759.980469 C 299.433594 755.917969 292.8125 738.300781 292.226562 725.410156 C 291.347656 706.484375 302.871094 693.320312 305.761719 690.195312 Z M 305.742188 690.195312 " transform="matrix(0.2,0,0,0.2,0,0)"/>
<path style="fill-rule:nonzero;fill:rgb(84.705883%,47.843137%,11.372549%);fill-opacity:1;stroke-width:8;stroke-linecap:butt;stroke-linejoin:miter;stroke:rgb(34.509805%,35.294119%,65.882355%);stroke-opacity:1;stroke-miterlimit:10;" d="M 302.050781 741.855469 C 302.167969 755.46875 304.453125 863.652344 370.351562 916.992188 C 407.773438 947.285156 449.042969 946.425781 478.710938 945.800781 C 508.964844 945.195312 551.289062 944.316406 588.242188 911.230469 C 651.601562 854.570312 649.882812 747.480469 649.492188 734.042969 C 533.671875 736.640625 417.851562 739.257812 302.050781 741.855469 Z M 302.050781 741.855469 " transform="matrix(0.2,0,0,0.2,0,0)"/>
<path style="fill-rule:nonzero;fill:rgb(84.705883%,47.843137%,11.372549%);fill-opacity:1;stroke-width:8;stroke-linecap:butt;stroke-linejoin:miter;stroke:rgb(34.509805%,35.294119%,65.882355%);stroke-opacity:1;stroke-miterlimit:10;" d="M 305.742188 690.195312 C 348.789062 700.722656 405.996094 710.410156 473.59375 710.371094 C 542.363281 710.332031 600.429688 700.234375 643.847656 689.394531 C 645.078125 690.46875 663.691406 707.402344 659.335938 729.726562 C 658.984375 731.582031 655.039062 748.925781 642.265625 754.21875 C 630.546875 759.082031 624.804688 747.695312 610.546875 751.347656 C 598.398438 754.453125 599.257812 763.554688 587.382812 767.1875 C 572.050781 771.855469 566.796875 758.046875 549.570312 759.980469 C 532.832031 761.875 532.597656 776.171875 515.429688 778.710938 C 498.90625 781.171875 496.289062 768.378906 476.386719 768.632812 C 457.597656 768.90625 454.707031 780.390625 439.804688 777.285156 C 425.078125 774.199219 424.84375 762.34375 410.527344 759.980469 C 395.507812 757.519531 392.402344 770.039062 376.386719 768.632812 C 359.960938 767.207031 358.476562 753.652344 342.226562 752.773438 C 326.953125 751.953125 322.890625 763.671875 311.738281 759.980469 C 299.433594 755.917969 292.8125 738.300781 292.226562 725.410156 C 291.347656 706.484375 302.871094 693.320312 305.761719 690.195312 Z M 305.742188 690.195312 " transform="matrix(0.2,0,0,0.2,0,0)"/>
</g>
</svg>
