<?xml version="1.0" encoding="UTF-8"?>
<svg id="Pots" xmlns="http://www.w3.org/2000/svg" viewBox="0 0 1000 1000">
  <defs>
    <style>
      .cls-1 {
        stroke-linecap: round;
        stroke-width: 4px;
      }

      .cls-1, .cls-2 {
        fill: #c7b299;
        stroke: #585aa8;
        stroke-miterlimit: 10;
      }

      .cls-3 {
        fill: #585aa8;
      }

      .cls-2 {
        stroke-width: 8px;
      }
    </style>
  </defs>
  <path class="cls-2" d="M392.22,928.93c5.35-5.86,21.67-6.53,28-.91,8.45,7.49-2.69,24.54-12.05,24.97-9.54,.44-23.21-16.12-15.96-24.06Z"/>
  <path class="cls-2" d="M543.44,929.11c5.23-5.92,21.53-6.79,27.98-1.26,8.61,7.38-2.17,24.57-11.52,25.12-9.53,.56-23.54-15.84-16.46-23.86Z"/>
  <path class="cls-2" d="M647.14,684.23c-23.92,4.97-52.13,9.73-83.95,13.1-4.77-25.23-17.68-41.08-28.19-40.33-9.53,.68-16.93,15-19,19-5.37,10.38-5.72,20.2-5.53,25.3-12.14,.55-24.75,.85-37.8,.86-9.53,0-18.83-.15-27.94-.44-8.13-27.79-19.43-46.69-28.72-45.73-7.28,.75-13.5,13.7-17,21-4.08,8.5-5.73,16.23-6.48,21.53-15.47-1.41-31.69-3.32-48.59-5.84-15.13-2.26-29.15-4.76-41.97-7.33-7.12,49.84-6.29,91.53-3.77,121.95,6.88,83.01,28.41,106.07,51.02,117.01,1.77,.85,3.04,1.48,4.63,2.07,10.42,3.91,31.2,6.4,124.38,7.46,93.79,1.07,114.5-.94,124.85-4.75,1.59-.59,2.83-1.19,4.55-2.02,24.42-11.8,43.47-37.04,46.09-127.31,.85-29.2,.07-68.65-6.58-115.53Z"/>
  <rect class="cls-3" x="423.29" y="757.07" width="23.04" height="17.58" rx="8.79" ry="8.79" transform="translate(1200.67 331.05) rotate(90)"/>
  <rect class="cls-3" x="505.59" y="757.07" width="23.04" height="17.58" rx="8.79" ry="8.79" transform="translate(1282.97 248.75) rotate(90)"/>
  <path class="cls-3" d="M467.73,785.95c1.41-2.87,6.97-2.91,11.27-2.95,4.27-.04,10.25-.08,11.77,2.95,2.03,4.05-3.69,14-11.24,14.14-7.76,.15-13.79-10.09-11.8-14.14Z"/>
  <g>
    <path class="cls-1" d="M413.41,782c-7.2-.7-15.35-1.16-24.28-1.09-14.39,.11-26.94,1.53-37.13,3.27"/>
    <path class="cls-1" d="M413.04,791.68c-6.9,1.71-14.53,3.95-22.57,6.91-12.96,4.78-23.51,10.15-31.76,15.04"/>
  </g>
  <g>
    <path class="cls-1" d="M532.17,782.27c7.2-.7,15.35-1.16,24.28-1.09,14.39,.11,26.94,1.53,37.13,3.27"/>
    <path class="cls-1" d="M532.55,791.95c6.9,1.71,14.53,3.95,22.57,6.91,12.96,4.78,23.51,10.15,31.76,15.04"/>
  </g>
</svg>