<?xml version="1.0" encoding="UTF-8"?>
<svg xmlns="http://www.w3.org/2000/svg" xmlns:xlink="http://www.w3.org/1999/xlink" width="200" height="200" viewBox="0 0 200 200" version="1.1">
<g id="surface1">
<path style="fill-rule:nonzero;fill:rgb(78.039217%,69.803923%,60.000002%);fill-opacity:1;stroke-width:8;stroke-linecap:butt;stroke-linejoin:miter;stroke:rgb(34.509805%,35.294119%,65.882355%);stroke-opacity:1;stroke-miterlimit:10;" d="M 392.226562 928.925781 C 397.578125 923.066406 413.886719 922.402344 420.214844 928.027344 C 428.671875 935.507812 417.539062 952.558594 408.164062 952.988281 C 398.632812 953.4375 384.960938 936.875 392.207031 928.925781 Z M 392.226562 928.925781 " transform="matrix(0.2,0,0,0.2,0,0)"/>
<path style="fill-rule:nonzero;fill:rgb(78.039217%,69.803923%,60.000002%);fill-opacity:1;stroke-width:8;stroke-linecap:butt;stroke-linejoin:miter;stroke:rgb(34.509805%,35.294119%,65.882355%);stroke-opacity:1;stroke-miterlimit:10;" d="M 543.4375 929.101562 C 548.671875 923.183594 564.960938 922.324219 571.425781 927.851562 C 580.039062 935.234375 569.257812 952.421875 559.902344 952.96875 C 550.371094 953.535156 536.367188 937.128906 543.4375 929.101562 Z M 543.4375 929.101562 " transform="matrix(0.2,0,0,0.2,0,0)"/>
<path style="fill-rule:nonzero;fill:rgb(89.803922%,87.843138%,85.490197%);fill-opacity:1;stroke-width:8;stroke-linecap:butt;stroke-linejoin:miter;stroke:rgb(34.509805%,35.294119%,65.882355%);stroke-opacity:1;stroke-miterlimit:10;" d="M 647.148438 684.238281 C 623.222656 689.199219 595.019531 693.964844 563.183594 697.324219 C 558.417969 672.109375 545.507812 656.25 535 656.992188 C 525.46875 657.675781 518.066406 671.992188 515.996094 675.996094 C 510.625 686.386719 510.273438 696.191406 510.46875 701.308594 C 498.320312 701.855469 485.722656 702.148438 472.675781 702.167969 C 463.144531 702.167969 453.847656 702.011719 444.726562 701.71875 C 436.601562 673.925781 425.292969 655.039062 416.015625 655.996094 C 408.730469 656.738281 402.519531 669.6875 399.003906 676.992188 C 394.921875 685.488281 393.28125 693.222656 392.539062 698.515625 C 377.050781 697.109375 360.839844 695.195312 343.945312 692.675781 C 328.808594 690.429688 314.785156 687.929688 301.972656 685.351562 C 294.84375 735.195312 295.683594 776.875 298.203125 807.304688 C 305.078125 890.3125 326.601562 913.378906 349.21875 924.316406 C 350.996094 925.15625 352.265625 925.78125 353.847656 926.386719 C 364.277344 930.292969 385.058594 932.773438 478.222656 933.847656 C 572.011719 934.902344 592.734375 932.890625 603.085938 929.082031 C 604.667969 928.496094 605.917969 927.890625 607.636719 927.070312 C 632.050781 915.273438 651.09375 890.039062 653.710938 799.765625 C 654.570312 770.566406 653.789062 731.113281 647.148438 684.238281 Z M 647.148438 684.238281 " transform="matrix(0.2,0,0,0.2,0,0)"/>
<path style=" stroke:none;fill-rule:nonzero;fill:rgb(34.509805%,35.294119%,65.882355%);fill-opacity:1;" d="M 88.71875 152.625 L 88.71875 153.71875 C 88.71875 154.6875 87.933594 155.476562 86.960938 155.476562 C 85.992188 155.476562 85.203125 154.6875 85.203125 153.71875 L 85.203125 152.625 C 85.203125 151.65625 85.992188 150.867188 86.960938 150.867188 C 87.933594 150.867188 88.71875 151.65625 88.71875 152.625 Z M 88.71875 152.625 "/>
<path style=" stroke:none;fill-rule:nonzero;fill:rgb(34.509805%,35.294119%,65.882355%);fill-opacity:1;" d="M 105.179688 152.625 L 105.179688 153.71875 C 105.179688 154.6875 104.394531 155.476562 103.421875 155.476562 C 102.449219 155.476562 101.664062 154.6875 101.664062 153.71875 L 101.664062 152.625 C 101.664062 151.65625 102.449219 150.867188 103.421875 150.867188 C 104.394531 150.867188 105.179688 151.65625 105.179688 152.625 Z M 105.179688 152.625 "/>
<path style=" stroke:none;fill-rule:nonzero;fill:rgb(34.509805%,35.294119%,65.882355%);fill-opacity:1;" d="M 93.546875 157.191406 C 93.828125 156.617188 94.941406 156.609375 95.800781 156.601562 C 96.652344 156.59375 97.851562 156.585938 98.152344 157.191406 C 98.558594 158 97.414062 159.988281 95.90625 160.019531 C 94.355469 160.046875 93.148438 158 93.546875 157.191406 Z M 93.546875 157.191406 "/>
<path style="fill-rule:nonzero;fill:rgb(78.039217%,69.803923%,60.000002%);fill-opacity:1;stroke-width:4;stroke-linecap:round;stroke-linejoin:miter;stroke:rgb(34.509805%,35.294119%,65.882355%);stroke-opacity:1;stroke-miterlimit:10;" d="M 413.417969 781.992188 C 406.210938 781.308594 398.066406 780.839844 389.121094 780.917969 C 374.746094 781.015625 362.1875 782.441406 351.992188 784.179688 " transform="matrix(0.2,0,0,0.2,0,0)"/>
<path style="fill-rule:nonzero;fill:rgb(78.039217%,69.803923%,60.000002%);fill-opacity:1;stroke-width:4;stroke-linecap:round;stroke-linejoin:miter;stroke:rgb(34.509805%,35.294119%,65.882355%);stroke-opacity:1;stroke-miterlimit:10;" d="M 413.046875 791.679688 C 406.132812 793.398438 398.515625 795.625 390.46875 798.59375 C 377.519531 803.378906 366.953125 808.730469 358.710938 813.632812 " transform="matrix(0.2,0,0,0.2,0,0)"/>
<path style="fill-rule:nonzero;fill:rgb(78.039217%,69.803923%,60.000002%);fill-opacity:1;stroke-width:4;stroke-linecap:round;stroke-linejoin:miter;stroke:rgb(34.509805%,35.294119%,65.882355%);stroke-opacity:1;stroke-miterlimit:10;" d="M 532.167969 782.265625 C 539.375 781.5625 547.519531 781.113281 556.445312 781.171875 C 570.839844 781.289062 583.398438 782.714844 593.574219 784.453125 " transform="matrix(0.2,0,0,0.2,0,0)"/>
<path style="fill-rule:nonzero;fill:rgb(78.039217%,69.803923%,60.000002%);fill-opacity:1;stroke-width:4;stroke-linecap:round;stroke-linejoin:miter;stroke:rgb(34.509805%,35.294119%,65.882355%);stroke-opacity:1;stroke-miterlimit:10;" d="M 532.558594 791.953125 C 539.453125 793.652344 547.070312 795.898438 555.117188 798.867188 C 568.085938 803.632812 578.632812 809.003906 586.875 813.90625 " transform="matrix(0.2,0,0,0.2,0,0)"/>
</g>
</svg>
