<?xml version="1.0" encoding="UTF-8"?>
<svg xmlns="http://www.w3.org/2000/svg" xmlns:xlink="http://www.w3.org/1999/xlink" width="200" height="200" viewBox="0 0 200 200" version="1.1">
<g id="surface1">
<path style="fill-rule:nonzero;fill:rgb(45.882353%,29.803923%,14.117648%);fill-opacity:1;stroke-width:10;stroke-linecap:butt;stroke-linejoin:miter;stroke:rgb(34.509805%,35.294119%,65.882355%);stroke-opacity:1;stroke-miterlimit:10;" d="M 642.167969 758.457031 C 662.011719 717.421875 657.246094 699.511719 648.90625 690.800781 C 627.148438 667.988281 575.136719 701.523438 479.277344 701.933594 C 382.246094 702.34375 330.410156 668.4375 307.714844 691.640625 C 298.378906 701.191406 293.671875 720.703125 314.453125 764.453125 C 312.851562 768.4375 280.273438 853.59375 338.554688 913.476562 C 385.527344 961.757812 457.832031 959.023438 496.464844 957.558594 C 532.421875 956.191406 586.5625 954.160156 623.847656 918.28125 C 663.730469 879.902344 669.472656 817.050781 642.167969 758.457031 Z M 642.167969 758.457031 " transform="matrix(0.2,0,0,0.2,0,0)"/>
</g>
</svg>
