<?xml version="1.0" encoding="UTF-8"?>
<svg id="Pots" xmlns="http://www.w3.org/2000/svg" viewBox="0 0 1000 1000">
  <defs>
    <style>
      .cls-1 {
        fill: #f9c33d;
        stroke: #585aa8;
        stroke-miterlimit: 10;
        stroke-width: 10px;
      }
    </style>
  </defs>
  <path class="cls-1" d="M553.13,944.66c-17.46,5.65-47.84,8.62-73.58,8.32-30.82-.36-63.37-4.97-81.26-12.16-58.48-23.48-94.48-101.15-99.93-191.31,46.33,10.72,107.36,20.33,179.16,19.84,70.73-.49,130.82-10.64,176.6-21.75-8.02,97.8-45.6,179.14-100.98,197.07Z"/>
  <path class="cls-1" d="M293.99,744.14c-9.87-11.77-16.8-32.09-8.96-43.19,16.71-23.66,86.44,14.45,193.23,14.21,104.94-.24,172.31-37.35,188.75-14.21,8.38,11.79-1.51,32.11-10.24,42.62-13.2,15.9-33.36,20.96-57.59,25.57-69.15,13.17-121.57,13.64-121.57,13.64,0,0-70.3,.63-147.16-18.75-9.08-2.29-25.43-6.71-36.47-19.89Z"/>
</svg>