<?xml version="1.0" encoding="UTF-8"?>
<svg id="Pots" xmlns="http://www.w3.org/2000/svg" viewBox="0 0 1000 1000">
  <defs>
    <style>
      .cls-1 {
        fill: #fbb03b;
        stroke: #585aa8;
        stroke-miterlimit: 10;
        stroke-width: 8px;
      }
    </style>
  </defs>
  <path class="cls-1" d="M302.05,741.85c.12,13.62,2.4,121.81,68.31,175.15,37.41,30.28,78.69,29.42,108.36,28.81,30.24-.62,72.56-1.5,109.53-34.57,63.35-56.67,61.63-163.75,61.24-177.19-115.81,2.6-231.63,5.2-347.44,7.8Z"/>
  <path class="cls-1" d="M305.75,690.2c43.03,10.52,100.24,20.21,167.84,20.17,68.77-.04,126.83-10.14,170.26-20.98,1.23,1.08,19.84,18.02,15.49,40.34-.36,1.86-4.31,19.19-17.08,24.49-11.72,4.86-17.45-6.53-31.71-2.88-12.15,3.11-11.3,12.22-23.17,15.85-15.32,4.67-20.59-9.14-37.81-7.2-16.74,1.88-16.98,16.18-34.15,18.73-16.51,2.45-19.14-10.35-39.03-10.08-18.8,.26-21.69,11.76-36.59,8.64-14.72-3.08-14.95-14.93-29.27-17.29-15.03-2.47-18.13,10.04-34.15,8.64-16.42-1.43-17.91-14.98-34.15-15.85-15.28-.82-19.33,10.9-30.49,7.2-12.3-4.07-18.92-21.67-19.52-34.57-.87-18.92,10.65-32.08,13.55-35.21Z"/>
</svg>