<?xml version="1.0" encoding="UTF-8"?>
<svg xmlns="http://www.w3.org/2000/svg" xmlns:xlink="http://www.w3.org/1999/xlink" width="200" height="200" viewBox="0 0 200 200" version="1.1">
<g id="surface1">
<path style="fill-rule:nonzero;fill:rgb(0%,66.274512%,61.56863%);fill-opacity:1;stroke-width:8;stroke-linecap:butt;stroke-linejoin:miter;stroke:rgb(34.509805%,35.294119%,65.882355%);stroke-opacity:1;stroke-miterlimit:10;" d="M 323.320312 699.003906 L 627.851562 699.003906 C 631.484375 699.003906 634.433594 701.953125 634.433594 705.585938 L 634.433594 742.792969 C 634.433594 746.425781 631.484375 749.375 627.851562 749.375 L 323.320312 749.375 C 319.6875 749.375 316.738281 746.425781 316.738281 742.792969 L 316.738281 705.585938 C 316.738281 701.953125 319.6875 699.003906 323.320312 699.003906 Z M 323.320312 699.003906 " transform="matrix(0.2,0,0,0.2,0,0)"/>
<path style="fill-rule:nonzero;fill:rgb(0%,66.274512%,61.56863%);fill-opacity:1;stroke-width:8;stroke-linecap:butt;stroke-linejoin:miter;stroke:rgb(34.509805%,35.294119%,65.882355%);stroke-opacity:1;stroke-miterlimit:10;" d="M 334.394531 749.375 C 343.027344 811.992188 351.640625 874.609375 360.273438 937.207031 C 437.558594 937.578125 514.824219 937.929688 592.089844 938.300781 C 600.332031 875.683594 608.554688 813.085938 616.796875 750.46875 C 522.675781 750.117188 428.535156 749.746094 334.394531 749.375 Z M 334.394531 749.375 " transform="matrix(0.2,0,0,0.2,0,0)"/>
</g>
</svg>
