<?xml version="1.0" encoding="UTF-8"?>
<svg xmlns="http://www.w3.org/2000/svg" xmlns:xlink="http://www.w3.org/1999/xlink" width="200" height="200" viewBox="0 0 200 200" version="1.1">
<g id="surface1">
<path style=" stroke:none;fill-rule:nonzero;fill:rgb(0%,0%,0%);fill-opacity:1;" d="M 82.699219 108.101562 C 76.523438 108.101562 71.5 103.074219 71.5 96.898438 C 71.5 90.722656 76.523438 85.699219 82.699219 85.699219 C 88.875 85.699219 93.898438 90.722656 93.898438 96.898438 C 93.898438 103.074219 88.875 108.101562 82.699219 108.101562 Z M 82.699219 87.300781 C 77.40625 87.300781 73.101562 91.605469 73.101562 96.898438 C 73.101562 102.195312 77.40625 106.5 82.699219 106.5 C 87.992188 106.5 92.300781 102.195312 92.300781 96.898438 C 92.300781 91.605469 87.992188 87.300781 82.699219 87.300781 Z M 82.699219 87.300781 "/>
<path style=" stroke:none;fill-rule:nonzero;fill:rgb(0%,0%,0%);fill-opacity:1;" d="M 109.898438 108.101562 C 103.722656 108.101562 98.699219 103.074219 98.699219 96.898438 C 98.699219 90.722656 103.722656 85.699219 109.898438 85.699219 C 116.074219 85.699219 121.101562 90.722656 121.101562 96.898438 C 121.101562 103.074219 116.074219 108.101562 109.898438 108.101562 Z M 109.898438 87.300781 C 104.605469 87.300781 100.300781 91.605469 100.300781 96.898438 C 100.300781 102.195312 104.605469 106.5 109.898438 106.5 C 115.195312 106.5 119.5 102.195312 119.5 96.898438 C 119.5 91.605469 115.195312 87.300781 109.898438 87.300781 Z M 109.898438 87.300781 "/>
<path style=" stroke:none;fill-rule:nonzero;fill:rgb(0%,0%,0%);fill-opacity:1;" d="M 96.304688 99.101562 C 96.246094 99.101562 96.191406 99.101562 96.132812 99.101562 C 94.222656 99.058594 92.976562 98.324219 92.53125 98.011719 L 93.105469 97.195312 C 93.394531 97.398438 94.472656 98.066406 96.15625 98.105469 C 98.046875 98.148438 99.285156 97.355469 99.515625 97.195312 L 100.089844 98.015625 C 99.714844 98.273438 98.363281 99.105469 96.308594 99.105469 Z M 96.304688 99.101562 "/>
</g>
</svg>
