<?xml version="1.0" encoding="UTF-8"?>
<svg id="face" xmlns="http://www.w3.org/2000/svg" viewBox="0 0 1000 1000">
  <path d="M413.5,540.5c-30.88,0-56-25.12-56-56s25.12-56,56-56,56,25.12,56,56-25.12,56-56,56Zm0-104c-26.47,0-48,21.53-48,48s21.53,48,48,48,48-21.53,48-48-21.53-48-48-48Z"/>
  <path d="M549.5,540.5c-30.88,0-56-25.12-56-56s25.12-56,56-56,56,25.12,56,56-25.12,56-56,56Zm0-104c-26.47,0-48,21.53-48,48s21.53,48,48,48,48-21.53,48-48-21.53-48-48-48Z"/>
  <path d="M481.53,495.51c-.29,0-.57,0-.87,0-9.54-.22-15.78-3.88-18.01-5.45l2.87-4.09c1.45,1.02,6.85,4.36,15.26,4.55,9.46,.22,15.65-3.75,16.79-4.55l2.87,4.1c-1.86,1.3-8.62,5.46-18.9,5.46Z"/>
</svg>