<?xml version="1.0" encoding="UTF-8"?>
<svg xmlns="http://www.w3.org/2000/svg" xmlns:xlink="http://www.w3.org/1999/xlink" width="200" height="200" viewBox="0 0 200 200" version="1.1">
<g id="surface1">
<path style=" stroke:none;fill-rule:nonzero;fill:rgb(29.803923%,29.803923%,29.803923%);fill-opacity:1;" d="M 68.199219 86.398438 C 76.839844 85.882812 85.988281 85.585938 95.601562 85.601562 C 104.699219 85.613281 113.378906 85.90625 121.601562 86.398438 C 120.011719 85.21875 117.597656 83.648438 114.398438 82.398438 C 112.660156 81.71875 110.382812 81.015625 105.800781 80.398438 C 102.800781 79.996094 95.519531 79.191406 85.601562 80.199219 C 79.429688 80.828125 76.941406 81.679688 75.601562 82.199219 C 72.292969 83.484375 69.816406 85.148438 68.199219 86.398438 Z M 68.199219 86.398438 "/>
<path style=" stroke:none;fill-rule:nonzero;fill:rgb(86.666667%,86.666667%,86.666667%);fill-opacity:1;" d="M 126.398438 105.59375 C 129.054688 100.394531 128.457031 92.945312 124.601562 88.398438 C 121.71875 85.003906 117.957031 84.332031 96.398438 84.199219 C 72.859375 84.054688 69.085938 84.800781 66.199219 88.199219 C 62.253906 92.847656 61.65625 100.492188 64.398438 105.789062 C 69.402344 115.453125 84.484375 115.292969 96.015625 115.171875 C 107.421875 115.046875 121.640625 114.894531 126.398438 105.589844 Z M 126.398438 105.59375 "/>
<path style=" stroke:none;fill-rule:nonzero;fill:rgb(86.666667%,86.666667%,86.666667%);fill-opacity:1;" d="M 91.800781 84.199219 L 98.8125 84.199219 C 98.808594 79.523438 98.804688 74.847656 98.800781 70.167969 C 98.144531 69.875 97.035156 69.476562 95.601562 69.410156 C 93.972656 69.332031 92.699219 69.714844 92 69.976562 C 91.933594 74.71875 91.867188 79.457031 91.800781 84.199219 Z M 91.800781 84.199219 "/>
</g>
</svg>
