<?xml version="1.0" encoding="UTF-8"?>
<svg id="Accesories" xmlns="http://www.w3.org/2000/svg" viewBox="0 0 1000 1000">
  <defs>
    <style>
      .cls-1 {
        fill: #ddd;
      }

      .cls-2 {
        fill: #4c4c4c;
      }
    </style>
  </defs>
  <path class="cls-2" d="M341,432c43.19-2.59,88.94-4.08,137-4,45.5,.07,88.9,1.53,130,4-7.94-5.91-20.01-13.75-36-20-8.69-3.4-20.08-6.93-43-10-15-2.01-51.41-6.04-101-1-30.86,3.14-43.29,7.39-50,10-16.53,6.42-28.91,14.74-37,21Z"/>
  <path class="cls-1" d="M632,527.96c13.28-25.98,10.28-63.24-9-85.97-14.41-16.98-33.22-20.33-141-20.99-117.7-.73-136.58,3-151,19.99-19.73,23.25-22.72,61.47-9,87.96,25.02,48.32,100.43,47.51,158.08,46.9,57.03-.61,128.13-1.37,151.92-47.9Z"/>
  <path class="cls-1" d="M459,421h35.06c-.02-23.39-.04-46.77-.06-70.16-3.27-1.46-8.82-3.45-16-3.79-8.13-.39-14.51,1.52-18,2.84-.33,23.7-.67,47.4-1,71.1Z"/>
</svg>