<?xml version="1.0" encoding="UTF-8"?>
<svg xmlns="http://www.w3.org/2000/svg" xmlns:xlink="http://www.w3.org/1999/xlink" width="200" height="200" viewBox="0 0 200 200" version="1.1">
<g id="surface1">
<path style="fill-rule:nonzero;fill:rgb(100%,8.235294%,8.235294%);fill-opacity:1;stroke-width:3;stroke-linecap:butt;stroke-linejoin:miter;stroke:rgb(28.627452%,28.627452%,28.627452%);stroke-opacity:1;stroke-miterlimit:10;" d="M 622.460938 455.878906 C 600.507812 390.859375 540.078125 347.890625 472.148438 349.003906 C 407.324219 350.039062 349.199219 392.226562 327.480469 453.984375 L 310.507812 448.027344 C 334.707031 379.199219 399.550781 332.167969 471.855469 331.015625 C 508.769531 330.429688 544.355469 341.523438 574.765625 363.105469 C 605.195312 384.726562 627.597656 414.804688 639.53125 450.136719 L 622.480469 455.898438 Z M 622.460938 455.878906 " transform="matrix(0.2,0,0,0.2,0,0)"/>
<path style=" stroke:none;fill-rule:nonzero;fill:rgb(25.882354%,25.882354%,25.882354%);fill-opacity:1;" d="M 67.761719 101.113281 C 67.761719 108.671875 65.9375 114.796875 63.6875 114.796875 C 61.4375 114.796875 59.613281 108.671875 59.613281 101.113281 C 59.613281 93.558594 61.4375 87.433594 63.6875 87.433594 C 65.9375 87.433594 67.761719 93.558594 67.761719 101.113281 Z M 67.761719 101.113281 "/>
<path style=" stroke:none;fill-rule:nonzero;fill:rgb(100%,8.235294%,8.235294%);fill-opacity:1;" d="M 66.523438 101.113281 C 66.515625 106.601562 65.019531 114.570312 62.449219 114.796875 C 59.867188 115.019531 56.125 107.421875 56.402344 100.230469 C 56.644531 93.945312 59.984375 87.210938 62.449219 87.433594 C 65.042969 87.671875 66.53125 95.597656 66.523438 101.117188 Z M 66.523438 101.113281 "/>
<path style=" stroke:none;fill-rule:nonzero;fill:rgb(25.882354%,25.882354%,25.882354%);fill-opacity:1;" d="M 129.9375 100.710938 C 129.9375 108.269531 128.113281 114.394531 125.863281 114.394531 C 123.613281 114.394531 121.789062 108.269531 121.789062 100.710938 C 121.789062 93.15625 123.613281 87.03125 125.863281 87.03125 C 128.113281 87.03125 129.9375 93.15625 129.9375 100.710938 Z M 129.9375 100.710938 "/>
<path style=" stroke:none;fill-rule:nonzero;fill:rgb(100%,8.235294%,8.235294%);fill-opacity:1;" d="M 123.023438 100.710938 C 123.03125 95.226562 124.527344 87.253906 127.097656 87.03125 C 129.679688 86.804688 133.421875 94.402344 133.144531 101.59375 C 132.902344 107.882812 129.5625 114.617188 127.097656 114.390625 C 124.503906 114.15625 123.015625 106.230469 123.023438 100.710938 Z M 123.023438 100.710938 "/>
</g>
</svg>
