<?xml version="1.0" encoding="UTF-8"?>
<svg id="face" xmlns="http://www.w3.org/2000/svg" viewBox="0 0 1000 1000">
  <defs>
    <style>
      .cls-1 {
        stroke: #494949;
        stroke-miterlimit: 10;
        stroke-width: 3px;
      }

      .cls-2 {
        fill: #424242;
      }
    </style>
  </defs>
  <path class="cls-1" d="M622.47,455.88c-21.97-65.02-82.4-107.98-150.33-106.88-64.81,1.04-122.94,43.23-144.65,104.99l-16.98-5.97c24.2-68.83,89.04-115.85,161.35-117.01,36.91-.58,72.5,10.51,102.91,32.1,30.43,21.61,52.83,51.7,64.76,87.02l-17.05,5.76Z"/>
  <ellipse class="cls-2" cx="318.43" cy="505.57" rx="20.37" ry="68.41"/>
  <path d="M332.62,505.57c-.04,27.43-7.52,67.29-20.37,68.41-12.92,1.12-31.62-36.87-30.24-72.82,1.21-31.44,17.91-65.11,30.24-63.99,12.97,1.18,20.41,40.81,20.37,68.41Z"/>
  <ellipse class="cls-2" cx="629.31" cy="503.56" rx="20.37" ry="68.41"/>
  <path d="M615.11,503.56c.04-27.43,7.52-67.29,20.37-68.41,12.92-1.12,31.62,36.87,30.24,72.82-1.21,31.44-17.91,65.11-30.24,63.99-12.97-1.18-20.41-40.81-20.37-68.41Z"/>
</svg>