<?xml version="1.0" encoding="UTF-8"?>
<svg id="face" xmlns="http://www.w3.org/2000/svg" viewBox="0 0 1000 1000">
  <defs>
    <style>
      .cls-1 {
        fill: #333;
      }
    </style>
  </defs>
  <path class="cls-1" d="M549.51,342.4c-4.19-10.58-7.75-24.52-7.26-40.97,.84-28.15,13.11-48.77,21.24-59.57,3.65-2.04,5.65-4.26,5.65-6.58,0-.09,0-.17-.02-.26,0,0,.01-.01,.02-.02h-.02c-.69-10.05-38.83-18.15-85.78-18.15s-85.1,8.1-85.78,18.15h-.02s.01,.01,.02,.02c0,.09-.02,.17-.02,.26,0,2.29,1.96,4.49,5.53,6.52,7.64,10.32,19.07,29.97,19.62,56.78,.38,18.38-4.48,33.56-9.78,44.59-30.62,5.69-50.57,14.99-50.57,25.49,0,17.31,54.17,31.35,121,31.35s121-14.04,121-31.35c0-10.99-21.82-20.65-54.83-26.25Z"/>
</svg>