<?xml version="1.0" encoding="UTF-8"?>
<svg xmlns="http://www.w3.org/2000/svg" xmlns:xlink="http://www.w3.org/1999/xlink" width="200" height="200" viewBox="0 0 200 200" version="1.1">
<g id="surface1">
<path style=" stroke:none;fill-rule:nonzero;fill:rgb(20%,20%,20%);fill-opacity:1;" d="M 109.902344 68.480469 C 109.0625 66.363281 108.351562 63.574219 108.449219 60.285156 C 108.617188 54.65625 111.070312 50.53125 112.699219 48.371094 C 113.429688 47.964844 113.828125 47.519531 113.828125 47.054688 C 113.828125 47.039062 113.828125 47.023438 113.824219 47.003906 C 113.824219 47.003906 113.824219 47.003906 113.828125 47 L 113.824219 47 C 113.6875 44.988281 106.058594 43.371094 96.667969 43.371094 C 87.277344 43.371094 79.648438 44.988281 79.511719 47 L 79.507812 47 C 79.507812 47 79.511719 47.003906 79.511719 47.003906 C 79.511719 47.023438 79.507812 47.039062 79.507812 47.054688 C 79.507812 47.515625 79.898438 47.953125 80.613281 48.359375 C 82.140625 50.425781 84.429688 54.355469 84.539062 59.714844 C 84.613281 63.390625 83.640625 66.429688 82.582031 68.632812 C 76.457031 69.773438 72.46875 71.632812 72.46875 73.730469 C 72.46875 77.195312 83.300781 80.003906 96.667969 80.003906 C 110.035156 80.003906 120.867188 77.195312 120.867188 73.730469 C 120.867188 71.535156 116.503906 69.601562 109.902344 68.480469 Z M 109.902344 68.480469 "/>
</g>
</svg>
