<?xml version="1.0" encoding="UTF-8"?>
<svg id="face" xmlns="http://www.w3.org/2000/svg" viewBox="0 0 1000 1000">
  <defs>
    <style>
      .cls-1 {
        fill: #fff;
        stroke: #000;
        stroke-miterlimit: 10;
        stroke-width: 5px;
      }
    </style>
  </defs>
  <path class="cls-1" d="M549.51,342.4c-4.19-10.58-7.75-24.52-7.26-40.97,.84-28.15,13.11-48.77,21.24-59.57,2.24-2.61,4.73-6.41,4.01-10.36-3.42-18.88-76.1-19.02-83-19-3.5,.01-81.93,.67-85,20-.57,3.57,1.58,6.94,3.56,9.29,7.64,10.32,19.06,29.97,19.62,56.78,.38,18.38-4.48,33.56-9.78,44.59-30.62,5.69-50.57,14.99-50.57,25.49,0,17.31,54.17,31.35,121,31.35s121-14.04,121-31.35c0-10.99-21.82-20.65-54.83-26.25Z"/>
</svg>