<?xml version="1.0" encoding="UTF-8"?>
<svg xmlns="http://www.w3.org/2000/svg" xmlns:xlink="http://www.w3.org/1999/xlink" width="200" height="200" viewBox="0 0 200 200" version="1.1">
<g id="surface1">
<path style="fill-rule:nonzero;fill:rgb(100%,100%,100%);fill-opacity:1;stroke-width:5;stroke-linecap:butt;stroke-linejoin:miter;stroke:rgb(0%,0%,0%);stroke-opacity:1;stroke-miterlimit:10;" d="M 549.511719 342.402344 C 545.3125 331.816406 541.757812 317.871094 542.246094 301.425781 C 543.085938 273.28125 555.351562 252.65625 563.496094 241.855469 C 565.722656 239.257812 568.222656 235.449219 567.5 231.503906 C 564.082031 212.617188 491.40625 212.480469 484.492188 212.5 C 480.996094 212.519531 402.578125 213.164062 399.492188 232.5 C 398.925781 236.074219 401.074219 239.433594 403.066406 241.796875 C 410.703125 252.109375 422.128906 271.757812 422.675781 298.574219 C 423.066406 316.953125 418.203125 332.128906 412.890625 343.164062 C 382.285156 348.847656 362.324219 358.144531 362.324219 368.652344 C 362.324219 385.957031 416.503906 400 483.320312 400 C 550.15625 400 604.335938 385.957031 604.335938 368.652344 C 604.335938 357.65625 582.519531 348.007812 549.492188 342.402344 Z M 549.511719 342.402344 " transform="matrix(0.2,0,0,0.2,0,0)"/>
</g>
</svg>
