<?xml version="1.0" encoding="UTF-8"?>
<svg xmlns="http://www.w3.org/2000/svg" xmlns:xlink="http://www.w3.org/1999/xlink" width="200" height="200" viewBox="0 0 200 200" version="1.1">
<g id="surface1">
<path style="fill-rule:nonzero;fill:rgb(98.823529%,93.333334%,12.941177%);fill-opacity:1;stroke-width:5;stroke-linecap:butt;stroke-linejoin:miter;stroke:rgb(85.882354%,75.294119%,22.745098%);stroke-opacity:1;stroke-miterlimit:10;" d="M 481.992188 218.007812 C 447.089844 218.007812 388.007812 211.269531 388.007812 185.996094 C 388.007812 160.742188 447.089844 154.003906 481.992188 154.003906 C 516.914062 154.003906 575.996094 160.742188 575.996094 185.996094 C 575.996094 211.269531 516.914062 218.007812 481.992188 218.007812 Z M 404.082031 185.996094 C 406.699219 190.800781 432.363281 201.992188 481.992188 201.992188 C 531.621094 201.992188 557.304688 190.800781 559.902344 185.996094 C 557.304688 181.191406 531.621094 170 481.992188 170 C 432.363281 170 406.699219 181.191406 404.082031 185.996094 Z M 404.082031 185.996094 " transform="matrix(0.2,0,0,0.2,0,0)"/>
</g>
</svg>
