<?xml version="1.0" encoding="UTF-8"?>
<svg xmlns="http://www.w3.org/2000/svg" xmlns:xlink="http://www.w3.org/1999/xlink" width="200" height="200" viewBox="0 0 200 200" version="1.1">
<g id="surface1">
<path style=" stroke:none;fill-rule:nonzero;fill:rgb(81.568629%,43.921569%,69.411767%);fill-opacity:1;" d="M 120.292969 152.9375 C 122.296875 145.609375 127.820312 140.773438 133.132812 138.554688 C 135.648438 137.507812 143.707031 134.144531 148.476562 138.601562 C 152.214844 142.09375 152.117188 148.683594 149.527344 153.101562 C 146.640625 158.03125 140.46875 160.585938 134.238281 159.242188 C 142.699219 159.734375 148.191406 165.425781 147.9375 170.402344 C 147.734375 174.414062 143.820312 177.664062 140.308594 178.753906 C 133.367188 180.902344 126.320312 175.105469 123.109375 170.554688 C 117.710938 162.90625 119.945312 154.214844 120.292969 152.933594 Z M 120.292969 152.9375 "/>
<path style=" stroke:none;fill-rule:nonzero;fill:rgb(34.509805%,35.294119%,65.882355%);fill-opacity:1;" d="M 137.242188 179.625 C 134.9375 179.625 132.515625 178.921875 130.101562 177.527344 C 127.335938 175.929688 124.660156 173.476562 122.773438 170.796875 C 120.453125 167.511719 119.226562 163.664062 119.132812 159.367188 C 119.066406 156.347656 119.582031 153.972656 119.894531 152.828125 C 121.671875 146.328125 126.558594 140.851562 132.972656 138.175781 C 134.257812 137.640625 136.925781 136.527344 139.902344 136.105469 C 143.652344 135.574219 146.632812 136.3125 148.761719 138.300781 C 150.578125 140 151.65625 142.550781 151.789062 145.484375 C 151.910156 148.1875 151.214844 151.039062 149.886719 153.308594 C 148.414062 155.820312 146.136719 157.757812 143.292969 158.90625 C 142.09375 159.394531 140.839844 159.722656 139.554688 159.886719 C 145.195312 161.90625 148.554688 166.382812 148.351562 170.425781 C 148.253906 172.378906 147.320312 174.296875 145.65625 175.96875 C 144.230469 177.402344 142.324219 178.5625 140.433594 179.148438 C 139.402344 179.464844 138.339844 179.625 137.246094 179.625 Z M 142.140625 136.753906 C 138.523438 136.753906 134.886719 138.269531 133.289062 138.9375 C 127.109375 141.515625 122.398438 146.792969 120.691406 153.046875 C 120.070312 155.308594 118.445312 163.234375 123.445312 170.324219 C 125.722656 173.550781 131.148438 178.816406 137.191406 178.816406 C 138.175781 178.816406 139.179688 178.675781 140.1875 178.363281 C 143.601562 177.304688 147.335938 174.152344 147.523438 170.386719 C 147.644531 168.007812 146.386719 165.480469 144.078125 163.453125 C 142.144531 161.757812 139.644531 160.566406 136.863281 160 C 135.960938 159.960938 135.054688 159.84375 134.148438 159.648438 L 134.261719 158.835938 C 135.207031 158.890625 136.121094 159.007812 136.988281 159.183594 C 142.054688 159.382812 146.746094 157.035156 149.171875 152.894531 C 151.550781 148.828125 151.855469 142.324219 148.195312 138.90625 C 146.476562 137.304688 144.3125 136.757812 142.140625 136.757812 Z M 142.140625 136.753906 "/>
<path style=" stroke:none;fill-rule:nonzero;fill:rgb(81.568629%,43.921569%,69.411767%);fill-opacity:1;" d="M 134.453125 153.191406 C 137.757812 154.980469 141.773438 153.8125 143.421875 150.921875 C 145.363281 147.527344 143.371094 142.929688 140.226562 141.851562 C 137.457031 140.898438 134.777344 143.011719 134.554688 143.191406 C 134.140625 143.527344 131.925781 145.324219 132.390625 147.109375 C 132.792969 148.644531 135.105469 149.84375 137.957031 149.375 "/>
<path style=" stroke:none;fill-rule:nonzero;fill:rgb(34.509805%,35.294119%,65.882355%);fill-opacity:1;" d="M 137.785156 154.660156 C 136.535156 154.660156 135.289062 154.347656 134.15625 153.734375 C 133.859375 153.570312 133.746094 153.195312 133.910156 152.894531 C 134.070312 152.597656 134.449219 152.484375 134.746094 152.648438 C 137.632812 154.214844 141.359375 153.285156 142.882812 150.617188 C 143.691406 149.203125 143.789062 147.429688 143.15625 145.75 C 142.546875 144.136719 141.378906 142.898438 140.023438 142.4375 C 137.554688 141.589844 135.050781 143.585938 134.945312 143.671875 C 133.46875 144.867188 132.757812 146.0625 132.988281 146.953125 C 133.304688 148.160156 135.335938 149.179688 137.855469 148.765625 C 138.195312 148.710938 138.511719 148.941406 138.566406 149.277344 C 138.621094 149.613281 138.390625 149.933594 138.054688 149.984375 C 134.722656 150.53125 132.253906 149.03125 131.792969 147.265625 C 131.425781 145.867188 132.269531 144.246094 134.164062 142.710938 C 134.484375 142.453125 137.367188 140.214844 140.425781 141.265625 C 142.125 141.847656 143.578125 143.363281 144.3125 145.3125 C 145.078125 147.339844 144.949219 149.496094 143.957031 151.230469 C 143.078125 152.769531 141.53125 153.929688 139.714844 154.410156 C 139.078125 154.578125 138.429688 154.664062 137.785156 154.664062 Z M 137.785156 154.660156 "/>
<path style=" stroke:none;fill-rule:nonzero;fill:rgb(81.568629%,43.921569%,69.411767%);fill-opacity:1;" d="M 134.953125 172.328125 C 136.644531 173.246094 138.707031 172.648438 139.554688 171.164062 C 140.550781 169.421875 139.527344 167.0625 137.914062 166.511719 C 136.492188 166.023438 135.117188 167.105469 135.003906 167.199219 C 134.792969 167.371094 133.652344 168.292969 133.894531 169.207031 C 134.101562 169.996094 135.285156 170.609375 136.75 170.371094 "/>
<path style=" stroke:none;fill-rule:nonzero;fill:rgb(34.509805%,35.294119%,65.882355%);fill-opacity:1;" d="M 136.675781 173.386719 C 135.992188 173.386719 135.300781 173.21875 134.65625 172.871094 C 134.359375 172.710938 134.246094 172.335938 134.410156 172.035156 C 134.574219 171.734375 134.949219 171.621094 135.246094 171.785156 C 136.589844 172.515625 138.3125 172.089844 139.019531 170.859375 C 139.386719 170.210938 139.429688 169.394531 139.136719 168.617188 C 138.863281 167.886719 138.316406 167.300781 137.714844 167.097656 C 136.605469 166.714844 135.445312 167.640625 135.398438 167.679688 C 134.765625 168.191406 134.410156 168.730469 134.496094 169.050781 C 134.609375 169.476562 135.480469 169.953125 136.652344 169.761719 C 136.992188 169.707031 137.308594 169.933594 137.363281 170.269531 C 137.421875 170.609375 137.191406 170.925781 136.855469 170.980469 C 135.171875 171.257812 133.609375 170.542969 133.300781 169.363281 C 133.078125 168.523438 133.546875 167.585938 134.621094 166.714844 C 134.796875 166.570312 136.394531 165.328125 138.121094 165.921875 C 139.074219 166.25 139.890625 167.09375 140.296875 168.179688 C 140.722656 169.300781 140.648438 170.503906 140.097656 171.46875 C 139.394531 172.695312 138.066406 173.382812 136.679688 173.382812 Z M 136.675781 173.386719 "/>
<path style=" stroke:none;fill-rule:nonzero;fill:rgb(81.568629%,43.921569%,69.411767%);fill-opacity:1;" d="M 71.105469 151.261719 C 69.011719 143.597656 63.230469 138.535156 57.675781 136.21875 C 55.042969 135.121094 46.617188 131.605469 41.625 136.265625 C 37.714844 139.914062 37.820312 146.808594 40.527344 151.433594 C 43.546875 156.589844 50.003906 159.265625 56.523438 157.855469 C 47.671875 158.375 41.929688 164.320312 42.191406 169.53125 C 42.402344 173.726562 46.5 177.128906 50.171875 178.265625 C 57.4375 180.511719 64.804688 174.449219 68.160156 169.691406 C 73.808594 161.691406 71.472656 152.601562 71.109375 151.261719 Z M 71.105469 151.261719 "/>
<path style=" stroke:none;fill-rule:nonzero;fill:rgb(34.509805%,35.294119%,65.882355%);fill-opacity:1;" d="M 53.375 179.175781 C 52.230469 179.175781 51.117188 179.011719 50.042969 178.679688 C 48.0625 178.066406 46.070312 176.851562 44.574219 175.351562 C 42.835938 173.601562 41.863281 171.597656 41.757812 169.550781 C 41.542969 165.320312 45.058594 160.640625 50.960938 158.53125 C 49.617188 158.355469 48.304688 158.015625 47.046875 157.507812 C 44.074219 156.300781 41.691406 154.277344 40.152344 151.652344 C 38.761719 149.273438 38.035156 146.292969 38.164062 143.46875 C 38.300781 140.398438 39.425781 137.730469 41.328125 135.953125 C 43.554688 133.875 46.675781 133.101562 50.597656 133.65625 C 53.710938 134.097656 56.5 135.261719 57.84375 135.820312 C 64.550781 138.621094 69.664062 144.351562 71.519531 151.148438 C 71.847656 152.347656 72.386719 154.832031 72.316406 157.988281 C 72.214844 162.480469 70.9375 166.503906 68.511719 169.941406 C 66.535156 172.742188 63.738281 175.308594 60.84375 176.980469 C 58.320312 178.4375 55.785156 179.175781 53.375 179.175781 Z M 53.769531 158.648438 C 50.863281 159.238281 48.246094 160.480469 46.222656 162.261719 C 43.808594 164.378906 42.492188 167.023438 42.621094 169.511719 C 42.816406 173.449219 46.722656 176.746094 50.296875 177.855469 C 57.8125 180.179688 65.035156 173.371094 67.804688 169.445312 C 73.035156 162.03125 71.335938 153.738281 70.6875 151.375 C 68.898438 144.828125 63.972656 139.3125 57.511719 136.617188 C 54.839844 135.503906 46.707031 132.109375 41.921875 136.578125 C 38.09375 140.15625 38.40625 146.960938 40.898438 151.214844 C 43.433594 155.542969 48.339844 157.996094 53.636719 157.789062 C 54.546875 157.609375 55.503906 157.484375 56.492188 157.425781 L 56.609375 158.277344 C 55.664062 158.480469 54.714844 158.605469 53.769531 158.644531 Z M 53.769531 158.648438 "/>
<path style=" stroke:none;fill-rule:nonzero;fill:rgb(81.568629%,43.921569%,69.411767%);fill-opacity:1;" d="M 55.992188 151.523438 C 52.539062 153.398438 48.339844 152.175781 46.609375 149.152344 C 44.578125 145.601562 46.664062 140.792969 49.953125 139.664062 C 52.847656 138.671875 55.652344 140.878906 55.882812 141.066406 C 56.316406 141.417969 58.636719 143.300781 58.144531 145.164062 C 57.722656 146.773438 55.304688 148.023438 52.324219 147.535156 "/>
<path style=" stroke:none;fill-rule:nonzero;fill:rgb(34.509805%,35.294119%,65.882355%);fill-opacity:1;" d="M 52.507812 153.0625 C 51.828125 153.0625 51.152344 152.972656 50.488281 152.796875 C 48.589844 152.292969 46.96875 151.082031 46.046875 149.46875 C 45.011719 147.65625 44.875 145.402344 45.675781 143.28125 C 46.445312 141.238281 47.964844 139.65625 49.742188 139.046875 C 52.941406 137.949219 55.957031 140.289062 56.289062 140.558594 C 58.273438 142.171875 59.15625 143.863281 58.773438 145.324219 C 58.289062 147.171875 55.703125 148.738281 52.21875 148.171875 C 51.867188 148.113281 51.628906 147.78125 51.6875 147.429688 C 51.742188 147.074219 52.074219 146.835938 52.429688 146.894531 C 55.0625 147.324219 57.191406 146.261719 57.519531 144.996094 C 57.765625 144.066406 57.019531 142.816406 55.472656 141.566406 C 55.363281 141.476562 52.746094 139.386719 50.160156 140.273438 C 48.742188 140.761719 47.519531 142.054688 46.882812 143.738281 C 46.222656 145.496094 46.324219 147.351562 47.167969 148.828125 C 48.761719 151.621094 52.660156 152.59375 55.679688 150.953125 C 55.992188 150.785156 56.382812 150.898438 56.554688 151.214844 C 56.726562 151.527344 56.609375 151.921875 56.296875 152.09375 C 55.113281 152.734375 53.808594 153.0625 52.5 153.0625 Z M 52.507812 153.0625 "/>
<path style=" stroke:none;fill-rule:nonzero;fill:rgb(81.568629%,43.921569%,69.411767%);fill-opacity:1;" d="M 57.148438 169.753906 C 56.269531 171.570312 54.152344 172.316406 52.53125 171.574219 C 50.621094 170.703125 50.050781 168.074219 51.082031 166.621094 C 51.988281 165.339844 53.820312 165.421875 53.972656 165.429688 C 54.257812 165.445312 55.789062 165.535156 56.140625 166.457031 C 56.449219 167.253906 55.8125 168.5 54.425781 169.191406 "/>
<path style=" stroke:none;fill-rule:nonzero;fill:rgb(34.509805%,35.294119%,65.882355%);fill-opacity:1;" d="M 53.871094 172.511719 C 53.324219 172.511719 52.777344 172.398438 52.261719 172.164062 C 51.199219 171.679688 50.40625 170.707031 50.078125 169.492188 C 49.765625 168.320312 49.941406 167.109375 50.554688 166.246094 C 51.65625 164.691406 53.773438 164.769531 54.011719 164.785156 C 55.449219 164.867188 56.421875 165.378906 56.746094 166.226562 C 57.203125 167.421875 56.3125 168.976562 54.714844 169.769531 C 54.394531 169.929688 54.007812 169.796875 53.847656 169.476562 C 53.6875 169.15625 53.816406 168.769531 54.136719 168.609375 C 55.25 168.058594 55.703125 167.121094 55.539062 166.691406 C 55.414062 166.367188 54.785156 166.125 53.933594 166.074219 C 53.867188 166.070312 52.320312 165.992188 51.609375 166.992188 C 51.222656 167.535156 51.117188 168.363281 51.328125 169.15625 C 51.554688 169.996094 52.089844 170.660156 52.796875 170.984375 C 54.144531 171.601562 55.871094 170.910156 56.5625 169.472656 C 56.71875 169.148438 57.105469 169.015625 57.429688 169.171875 C 57.75 169.328125 57.882812 169.714844 57.726562 170.035156 C 56.976562 171.585938 55.433594 172.511719 53.867188 172.511719 Z M 53.871094 172.511719 "/>
</g>
</svg>
