<?xml version="1.0" encoding="UTF-8"?>
<svg id="Accesories" xmlns="http://www.w3.org/2000/svg" viewBox="0 0 1000 1000">
  <defs>
    <style>
      .cls-1 {
        fill: #fff;
      }

      .cls-2 {
        stroke: #585aa8;
        stroke-miterlimit: 10;
      }

      .cls-2, .cls-3 {
        fill: #585aa8;
      }
    </style>
  </defs>
  <g>
    <path class="cls-1" d="M601.47,764.69c10.01-36.64,37.64-60.83,64.19-71.91,12.58-5.25,52.87-22.06,76.73,.22,18.69,17.46,18.19,50.41,5.25,72.5-14.43,24.65-45.29,37.43-76.45,30.71,42.3,2.47,69.76,30.91,68.5,55.8-1.01,20.06-20.59,36.32-38.14,41.75-34.72,10.75-69.95-18.24-86-40.98-26.99-38.25-15.83-81.7-14.08-88.11Z"/>
    <path class="cls-2" d="M686.22,898.13c-11.54,0-23.64-3.53-35.71-10.5-13.84-7.99-27.2-20.25-36.65-33.65-11.6-16.43-17.72-35.66-18.19-57.14-.34-15.1,2.24-26.97,3.81-32.7h0c8.88-32.5,33.32-59.88,65.39-73.26,6.41-2.67,19.75-8.24,34.64-10.35,18.75-2.66,33.65,1.03,44.29,10.97,9.1,8.5,14.48,21.26,15.14,35.93,.61,13.5-2.86,27.76-9.51,39.12-7.35,12.55-18.74,22.23-32.96,27.99-6.01,2.43-12.28,4.07-18.7,4.9,28.2,10.09,45.01,32.47,43.99,52.69-.49,9.77-5.15,19.35-13.47,27.71-7.14,7.18-16.67,12.98-26.13,15.9-5.14,1.59-10.47,2.38-15.93,2.38Zm24.49-214.36c-18.1,0-36.28,7.58-44.26,10.92-30.9,12.89-54.45,39.27-63,70.55h0c-3.09,11.3-11.22,50.94,13.78,86.38,11.38,16.13,38.51,42.46,68.72,42.46,4.93,0,9.94-.7,14.98-2.26,17.08-5.29,35.74-21.06,36.69-39.89,.6-11.89-5.68-24.52-17.22-34.66-9.68-8.49-22.18-14.43-36.08-17.27-4.51-.2-9.05-.79-13.58-1.76l.56-4.07c4.74,.28,9.3,.87,13.65,1.74,25.32,1,48.78-10.73,60.9-31.43,11.9-20.33,13.42-52.86-4.88-69.95-8.58-8.01-19.41-10.74-30.26-10.74Z"/>
    <path class="cls-3" d="M689.26,773.33c-6.26,.06-12.5-1.45-18.18-4.47-1.51-.8-2.08-2.67-1.28-4.18,.8-1.51,2.67-2.08,4.18-1.28,14.5,7.7,33.09,2.87,40.58-10.54,3.97-7.1,4.38-15.97,1.13-24.34-3.11-8.03-9.03-14.17-15.81-16.42-12.39-4.12-24.82,5.99-25.34,6.42-7.32,6.05-10.83,12.07-9.63,16.49,1.64,6.03,11.85,11.02,24.43,8.84,1.69-.29,3.28,.84,3.57,2.52,.29,1.68-.84,3.28-2.52,3.57-16.63,2.88-29.05-4.51-31.45-13.31-1.9-6.98,2.24-15.1,11.65-22.88,1.58-1.31,15.89-12.63,31.23-7.52,8.52,2.83,15.86,10.33,19.63,20.06,3.92,10.1,3.37,20.88-1.5,29.59-4.33,7.74-12.01,13.61-21.07,16.11-3.17,.87-6.4,1.32-9.63,1.35Z"/>
    <path class="cls-3" d="M683.38,866.93c-3.41,0-6.88-.83-10.09-2.57-1.5-.81-2.06-2.69-1.24-4.19s2.69-2.06,4.19-1.24c6.7,3.64,15.33,1.52,18.85-4.64,1.85-3.23,2.06-7.31,.6-11.2-1.38-3.66-4.11-6.58-7.11-7.61-5.56-1.91-11.35,2.72-11.59,2.91-3.16,2.56-4.93,5.26-4.51,6.86,.56,2.13,4.93,4.51,10.79,3.55,1.69-.27,3.27,.87,3.55,2.55,.28,1.69-.87,3.28-2.55,3.55-8.41,1.38-16.22-2.18-17.77-8.09-1.1-4.19,1.24-8.89,6.6-13.24,.88-.72,8.88-6.92,17.5-3.96,4.78,1.64,8.85,5.85,10.89,11.28,2.12,5.62,1.75,11.62-1.01,16.45-3.51,6.14-10.15,9.57-17.08,9.57Z"/>
  </g>
  <g>
    <path class="cls-1" d="M355.52,756.3c-10.47-38.32-39.37-63.62-67.14-75.21-13.16-5.49-55.3-23.07-80.25,.23-19.55,18.26-19.02,52.73-5.49,75.84,15.09,25.78,47.38,39.16,79.97,32.12-44.25,2.59-72.97,32.33-71.65,58.37,1.06,20.99,21.54,37.99,39.9,43.67,36.32,11.24,73.17-19.08,89.95-42.86,28.23-40.01,16.56-85.46,14.73-92.16Z"/>
    <path class="cls-2" d="M266.87,895.88c-5.71,0-11.29-.83-16.66-2.49-9.89-3.06-19.85-9.13-27.33-16.64-8.7-8.74-13.57-18.77-14.09-28.99-1.07-21.15,16.51-44.56,46.01-55.11-6.71-.87-13.27-2.58-19.56-5.12-14.87-6.03-26.79-16.15-34.47-29.27-6.96-11.89-10.59-26.8-9.95-40.92,.69-15.34,6.31-28.69,15.83-37.58,11.13-10.39,26.72-14.25,46.33-11.48,15.57,2.21,29.52,8.03,36.23,10.83,33.54,14,59.11,42.64,68.39,76.63h0c1.64,6,4.33,18.42,3.98,34.2-.5,22.47-6.9,42.58-19.03,59.77-9.88,14.01-23.86,26.84-38.33,35.19-12.62,7.29-25.29,10.98-37.35,10.98Zm1.98-102.64c-14.54,2.96-27.62,9.17-37.74,18.06-12.07,10.6-18.64,23.81-18.01,36.25,.99,19.69,20.52,36.19,38.38,41.72,37.58,11.63,73.7-22.42,87.55-42.05,26.15-37.06,17.64-78.52,14.41-90.35h0c-8.94-32.72-33.57-60.3-65.89-73.79-13.36-5.57-54.01-22.54-77.95-.18-19.14,17.88-17.56,51.9-5.11,73.17,12.68,21.65,37.2,33.92,63.7,32.88,4.55-.91,9.32-1.53,14.28-1.82l.58,4.26c-4.73,1.02-9.48,1.63-14.2,1.84Z"/>
    <path class="cls-3" d="M262.53,765.31c-3.38,0-6.76-.44-10.09-1.32-9.5-2.52-17.59-8.58-22.2-16.64-5.18-9.06-5.86-20.34-1.86-30.94,3.85-10.21,11.45-18.12,20.33-21.17,16-5.49,31.07,6.2,32.74,7.56,9.92,8.05,14.33,16.51,12.41,23.82-2.42,9.23-15.34,17.08-32.76,14.23-1.76-.29-2.96-1.95-2.67-3.71,.29-1.76,1.95-2.96,3.71-2.67,13.18,2.15,23.81-3.17,25.46-9.49,1.22-4.64-2.51-10.9-10.23-17.15-.55-.45-13.64-10.89-26.57-6.46-7.08,2.43-13.2,8.91-16.38,17.33-3.31,8.79-2.8,18.06,1.42,25.45,7.97,13.95,27.46,18.82,42.55,10.62,1.57-.85,3.53-.27,4.39,1.3,.85,1.57,.27,3.53-1.3,4.39-5.92,3.21-12.43,4.85-18.98,4.85Z"/>
    <path class="cls-3" d="M269.35,862.56c-2.73,0-5.46-.56-8.05-1.74-5.3-2.42-9.27-7.29-10.9-13.36-1.57-5.86-.69-11.92,2.37-16.23,5.51-7.77,16.09-7.38,17.28-7.31,7.2,.42,12.06,2.98,13.68,7.22,2.29,5.96-2.17,13.75-10.16,17.71-1.6,.8-3.54,.14-4.34-1.46-.8-1.6-.14-3.54,1.46-4.34,5.56-2.76,7.82-7.45,7-9.6-.62-1.62-3.77-2.83-8.02-3.08-.33-.02-8.07-.41-11.63,4.6-1.92,2.71-2.46,6.85-1.4,10.81,1.13,4.2,3.8,7.53,7.34,9.15,6.74,3.08,15.37-.38,18.84-7.57,.78-1.61,2.71-2.28,4.32-1.5,1.61,.78,2.28,2.71,1.5,4.32-3.75,7.75-11.47,12.38-19.3,12.38Z"/>
  </g>
</svg>