<?xml version="1.0" encoding="UTF-8"?>
<svg xmlns="http://www.w3.org/2000/svg" xmlns:xlink="http://www.w3.org/1999/xlink" width="200" height="200" viewBox="0 0 200 200" version="1.1">
<g id="surface1">
<path style=" stroke:none;fill-rule:nonzero;fill:rgb(100%,100%,100%);fill-opacity:1;" d="M 120.292969 152.9375 C 122.296875 145.609375 127.820312 140.773438 133.132812 138.554688 C 135.648438 137.507812 143.707031 134.144531 148.476562 138.601562 C 152.214844 142.09375 152.117188 148.683594 149.527344 153.101562 C 146.640625 158.03125 140.46875 160.585938 134.238281 159.242188 C 142.699219 159.734375 148.191406 165.425781 147.9375 170.402344 C 147.734375 174.414062 143.820312 177.664062 140.308594 178.753906 C 133.367188 180.902344 126.320312 175.105469 123.109375 170.554688 C 117.710938 162.90625 119.945312 154.214844 120.292969 152.933594 Z M 120.292969 152.9375 "/>
<path style="fill-rule:nonzero;fill:rgb(34.509805%,35.294119%,65.882355%);fill-opacity:1;stroke-width:1;stroke-linecap:butt;stroke-linejoin:miter;stroke:rgb(34.509805%,35.294119%,65.882355%);stroke-opacity:1;stroke-miterlimit:10;" d="M 686.210938 898.125 C 674.6875 898.125 662.578125 894.609375 650.507812 887.636719 C 636.679688 879.648438 623.300781 867.382812 613.867188 853.984375 C 602.265625 837.558594 596.132812 818.320312 595.664062 796.835938 C 595.332031 781.738281 597.910156 769.863281 599.472656 764.140625 C 608.359375 731.640625 632.792969 704.257812 664.863281 690.878906 C 671.289062 688.203125 684.628906 682.636719 699.511719 680.527344 C 718.261719 677.871094 733.164062 681.5625 743.808594 691.503906 C 752.890625 700 758.28125 712.753906 758.945312 727.421875 C 759.550781 740.9375 756.074219 755.195312 749.433594 766.542969 C 742.070312 779.101562 730.683594 788.789062 716.464844 794.53125 C 710.46875 796.972656 704.199219 798.613281 697.773438 799.433594 C 725.976562 809.53125 742.773438 831.914062 741.757812 852.128906 C 741.269531 861.894531 736.601562 871.484375 728.28125 879.84375 C 721.152344 887.011719 711.621094 892.8125 702.167969 895.742188 C 697.011719 897.324219 691.699219 898.125 686.230469 898.125 Z M 710.703125 683.769531 C 692.617188 683.769531 674.433594 691.347656 666.445312 694.6875 C 635.546875 707.578125 611.992188 733.964844 603.457031 765.234375 C 600.351562 776.542969 592.226562 816.171875 617.226562 851.621094 C 628.613281 867.753906 655.742188 894.082031 685.957031 894.082031 C 690.878906 894.082031 695.898438 893.378906 700.9375 891.816406 C 718.007812 886.523438 736.679688 870.761719 737.617188 851.933594 C 738.222656 840.039062 731.933594 827.402344 720.390625 817.265625 C 710.722656 808.789062 698.222656 802.832031 684.316406 800 C 679.804688 799.804688 675.273438 799.21875 670.742188 798.242188 L 671.308594 794.179688 C 676.035156 794.453125 680.605469 795.039062 684.941406 795.917969 C 710.273438 796.914062 733.730469 785.175781 745.859375 764.472656 C 757.753906 744.140625 759.277344 711.621094 740.976562 694.53125 C 732.382812 686.523438 721.5625 683.789062 710.703125 683.789062 Z M 710.703125 683.769531 " transform="matrix(0.2,0,0,0.2,0,0)"/>
<path style=" stroke:none;fill-rule:nonzero;fill:rgb(34.509805%,35.294119%,65.882355%);fill-opacity:1;" d="M 137.851562 154.664062 C 136.601562 154.679688 135.351562 154.375 134.214844 153.773438 C 133.914062 153.613281 133.800781 153.238281 133.960938 152.9375 C 134.121094 152.632812 134.492188 152.519531 134.796875 152.679688 C 137.695312 154.21875 141.414062 153.253906 142.910156 150.570312 C 143.707031 149.152344 143.789062 147.378906 143.136719 145.703125 C 142.515625 144.097656 141.332031 142.871094 139.976562 142.421875 C 137.496094 141.597656 135.011719 143.617188 134.90625 143.703125 C 133.445312 144.914062 132.742188 146.117188 132.980469 147.003906 C 133.308594 148.207031 135.351562 149.207031 137.867188 148.769531 C 138.207031 148.710938 138.523438 148.9375 138.582031 149.273438 C 138.640625 149.609375 138.414062 149.929688 138.078125 149.988281 C 134.753906 150.5625 132.269531 149.085938 131.789062 147.324219 C 131.40625 145.929688 132.234375 144.304688 134.117188 142.75 C 134.433594 142.488281 137.296875 140.222656 140.363281 141.246094 C 142.066406 141.8125 143.535156 143.3125 144.289062 145.257812 C 145.074219 147.277344 144.964844 149.433594 143.988281 151.175781 C 143.125 152.722656 141.589844 153.898438 139.777344 154.398438 C 139.140625 154.570312 138.496094 154.660156 137.851562 154.667969 Z M 137.851562 154.664062 "/>
<path style=" stroke:none;fill-rule:nonzero;fill:rgb(34.509805%,35.294119%,65.882355%);fill-opacity:1;" d="M 136.675781 173.386719 C 135.992188 173.386719 135.300781 173.21875 134.65625 172.871094 C 134.359375 172.710938 134.246094 172.335938 134.410156 172.035156 C 134.574219 171.734375 134.949219 171.621094 135.246094 171.785156 C 136.589844 172.515625 138.3125 172.089844 139.019531 170.859375 C 139.386719 170.210938 139.429688 169.394531 139.136719 168.617188 C 138.863281 167.886719 138.316406 167.300781 137.714844 167.097656 C 136.605469 166.714844 135.445312 167.640625 135.398438 167.679688 C 134.765625 168.191406 134.410156 168.730469 134.496094 169.050781 C 134.609375 169.476562 135.480469 169.953125 136.652344 169.761719 C 136.992188 169.707031 137.308594 169.933594 137.363281 170.269531 C 137.421875 170.609375 137.191406 170.925781 136.855469 170.980469 C 135.171875 171.257812 133.609375 170.542969 133.300781 169.363281 C 133.078125 168.523438 133.546875 167.585938 134.621094 166.714844 C 134.796875 166.570312 136.394531 165.328125 138.121094 165.921875 C 139.074219 166.25 139.890625 167.09375 140.296875 168.179688 C 140.722656 169.300781 140.648438 170.503906 140.097656 171.46875 C 139.394531 172.695312 138.066406 173.382812 136.679688 173.382812 Z M 136.675781 173.386719 "/>
<path style=" stroke:none;fill-rule:nonzero;fill:rgb(100%,100%,100%);fill-opacity:1;" d="M 71.105469 151.261719 C 69.011719 143.597656 63.230469 138.535156 57.675781 136.21875 C 55.042969 135.121094 46.617188 131.605469 41.625 136.265625 C 37.714844 139.914062 37.820312 146.808594 40.527344 151.433594 C 43.546875 156.589844 50.003906 159.265625 56.523438 157.855469 C 47.671875 158.375 41.929688 164.320312 42.191406 169.53125 C 42.402344 173.726562 46.5 177.128906 50.171875 178.265625 C 57.4375 180.511719 64.804688 174.449219 68.160156 169.691406 C 73.808594 161.691406 71.472656 152.601562 71.109375 151.261719 Z M 71.105469 151.261719 "/>
<path style="fill-rule:nonzero;fill:rgb(34.509805%,35.294119%,65.882355%);fill-opacity:1;stroke-width:1;stroke-linecap:butt;stroke-linejoin:miter;stroke:rgb(34.509805%,35.294119%,65.882355%);stroke-opacity:1;stroke-miterlimit:10;" d="M 266.875 895.878906 C 261.152344 895.878906 255.585938 895.058594 250.214844 893.398438 C 240.3125 890.332031 230.351562 884.257812 222.871094 876.757812 C 214.179688 868.007812 209.316406 857.988281 208.789062 847.753906 C 207.714844 826.601562 225.292969 803.203125 254.804688 792.65625 C 248.085938 791.777344 241.523438 790.078125 235.234375 787.539062 C 220.371094 781.503906 208.457031 771.386719 200.761719 758.261719 C 193.808594 746.367188 190.175781 731.464844 190.820312 717.34375 C 191.503906 701.992188 197.128906 688.652344 206.640625 679.765625 C 217.773438 669.375 233.378906 665.507812 252.988281 668.28125 C 268.554688 670.488281 282.5 676.308594 289.21875 679.101562 C 322.753906 693.105469 348.320312 721.757812 357.597656 755.742188 C 359.238281 761.738281 361.933594 774.160156 361.582031 789.941406 C 361.074219 812.402344 354.6875 832.519531 342.558594 849.707031 C 332.675781 863.710938 318.691406 876.542969 304.21875 884.902344 C 291.601562 892.1875 278.925781 895.878906 266.875 895.878906 Z M 268.847656 793.242188 C 254.316406 796.191406 241.230469 802.402344 231.113281 811.308594 C 219.042969 821.894531 212.460938 835.117188 213.105469 847.558594 C 214.082031 867.246094 233.613281 883.730469 251.484375 889.277344 C 289.0625 900.898438 325.175781 866.855469 339.023438 847.226562 C 365.175781 810.15625 356.679688 768.691406 353.4375 756.875 C 344.492188 724.140625 319.863281 696.5625 287.558594 683.085938 C 274.199219 677.519531 233.535156 660.546875 209.609375 682.890625 C 190.46875 700.78125 192.03125 734.804688 204.492188 756.074219 C 217.167969 777.714844 241.699219 789.980469 268.183594 788.945312 C 272.734375 788.046875 277.519531 787.421875 282.460938 787.128906 L 283.046875 791.386719 C 278.320312 792.402344 273.574219 793.027344 268.847656 793.222656 Z M 268.847656 793.242188 " transform="matrix(0.2,0,0,0.2,0,0)"/>
<path style=" stroke:none;fill-rule:nonzero;fill:rgb(34.509805%,35.294119%,65.882355%);fill-opacity:1;" d="M 52.507812 153.0625 C 51.828125 153.0625 51.152344 152.972656 50.488281 152.796875 C 48.589844 152.292969 46.96875 151.082031 46.046875 149.46875 C 45.011719 147.65625 44.875 145.402344 45.675781 143.28125 C 46.445312 141.238281 47.964844 139.65625 49.742188 139.046875 C 52.941406 137.949219 55.957031 140.289062 56.289062 140.558594 C 58.273438 142.171875 59.15625 143.863281 58.773438 145.324219 C 58.289062 147.171875 55.703125 148.738281 52.21875 148.171875 C 51.867188 148.113281 51.628906 147.78125 51.6875 147.429688 C 51.742188 147.074219 52.074219 146.835938 52.429688 146.894531 C 55.0625 147.324219 57.191406 146.261719 57.519531 144.996094 C 57.765625 144.066406 57.019531 142.816406 55.472656 141.566406 C 55.363281 141.476562 52.746094 139.386719 50.160156 140.273438 C 48.742188 140.761719 47.519531 142.054688 46.882812 143.738281 C 46.222656 145.496094 46.324219 147.351562 47.167969 148.828125 C 48.761719 151.621094 52.660156 152.59375 55.679688 150.953125 C 55.992188 150.785156 56.382812 150.898438 56.554688 151.214844 C 56.726562 151.527344 56.609375 151.921875 56.296875 152.09375 C 55.113281 152.734375 53.808594 153.0625 52.5 153.0625 Z M 52.507812 153.0625 "/>
<path style=" stroke:none;fill-rule:nonzero;fill:rgb(34.509805%,35.294119%,65.882355%);fill-opacity:1;" d="M 53.871094 172.511719 C 53.324219 172.511719 52.777344 172.398438 52.261719 172.164062 C 51.199219 171.679688 50.40625 170.707031 50.078125 169.492188 C 49.765625 168.320312 49.941406 167.109375 50.554688 166.246094 C 51.65625 164.691406 53.773438 164.769531 54.011719 164.785156 C 55.449219 164.867188 56.421875 165.378906 56.746094 166.226562 C 57.203125 167.421875 56.3125 168.976562 54.714844 169.769531 C 54.394531 169.929688 54.007812 169.796875 53.847656 169.476562 C 53.6875 169.15625 53.816406 168.769531 54.136719 168.609375 C 55.25 168.058594 55.703125 167.121094 55.539062 166.691406 C 55.414062 166.367188 54.785156 166.125 53.933594 166.074219 C 53.867188 166.070312 52.320312 165.992188 51.609375 166.992188 C 51.222656 167.535156 51.117188 168.363281 51.328125 169.15625 C 51.554688 169.996094 52.089844 170.660156 52.796875 170.984375 C 54.144531 171.601562 55.871094 170.910156 56.5625 169.472656 C 56.71875 169.148438 57.105469 169.015625 57.429688 169.171875 C 57.75 169.328125 57.882812 169.714844 57.726562 170.035156 C 56.976562 171.585938 55.433594 172.511719 53.867188 172.511719 Z M 53.871094 172.511719 "/>
</g>
</svg>
