<?xml version="1.0" encoding="UTF-8"?>
<svg xmlns="http://www.w3.org/2000/svg" xmlns:xlink="http://www.w3.org/1999/xlink" width="200" height="200" viewBox="0 0 200 200" version="1.1">
<g id="surface1">
<path style=" stroke:none;fill-rule:nonzero;fill:rgb(4.313726%,82.745099%,4.313726%);fill-opacity:1;" d="M 120.292969 152.738281 C 122.296875 145.410156 127.820312 140.570312 133.132812 138.355469 C 135.648438 137.304688 143.707031 133.945312 148.476562 138.398438 C 152.214844 141.890625 152.117188 148.480469 149.527344 152.898438 C 146.640625 157.828125 140.46875 160.386719 134.238281 159.042969 C 142.699219 159.535156 148.191406 165.222656 147.9375 170.203125 C 147.734375 174.214844 143.820312 177.464844 140.308594 178.550781 C 133.367188 180.703125 126.320312 174.902344 123.109375 170.355469 C 117.710938 162.707031 119.945312 154.015625 120.292969 152.734375 Z M 120.292969 152.738281 "/>
<path style=" stroke:none;fill-rule:nonzero;fill:rgb(34.509805%,35.294119%,65.882355%);fill-opacity:1;" d="M 137.242188 179.425781 C 134.9375 179.425781 132.515625 178.71875 130.101562 177.324219 C 127.335938 175.726562 124.660156 173.277344 122.773438 170.597656 C 120.453125 167.308594 119.226562 163.464844 119.132812 159.167969 C 119.066406 156.148438 119.582031 153.773438 119.894531 152.628906 C 121.671875 146.128906 126.558594 140.652344 132.972656 137.976562 C 134.257812 137.441406 136.925781 136.328125 139.902344 135.90625 C 143.652344 135.375 146.632812 136.113281 148.761719 138.101562 C 150.578125 139.800781 151.65625 142.351562 151.789062 145.285156 C 151.910156 147.984375 151.214844 150.839844 149.886719 153.109375 C 148.414062 155.621094 146.136719 157.554688 143.292969 158.707031 C 142.09375 159.195312 140.839844 159.523438 139.554688 159.6875 C 145.195312 161.707031 148.554688 166.183594 148.351562 170.226562 C 148.253906 172.179688 147.320312 174.097656 145.65625 175.769531 C 144.230469 177.203125 142.324219 178.363281 140.433594 178.949219 C 139.402344 179.265625 138.339844 179.425781 137.246094 179.425781 Z M 142.140625 136.554688 C 138.523438 136.554688 134.886719 138.070312 133.289062 138.738281 C 127.109375 141.316406 122.398438 146.59375 120.691406 152.847656 C 120.070312 155.109375 118.445312 163.035156 123.445312 170.125 C 125.722656 173.351562 131.148438 178.617188 137.191406 178.617188 C 138.175781 178.617188 139.179688 178.476562 140.1875 178.164062 C 143.601562 177.105469 147.335938 173.953125 147.523438 170.1875 C 147.644531 167.808594 146.386719 165.28125 144.078125 163.253906 C 142.144531 161.554688 139.644531 160.367188 136.863281 159.800781 C 135.960938 159.761719 135.054688 159.640625 134.148438 159.449219 L 134.261719 158.632812 C 135.207031 158.691406 136.121094 158.808594 136.988281 158.980469 C 142.054688 159.183594 146.746094 156.835938 149.171875 152.695312 C 151.550781 148.628906 151.855469 142.125 148.195312 138.707031 C 146.476562 137.105469 144.3125 136.558594 142.140625 136.558594 Z M 142.140625 136.554688 "/>
<path style=" stroke:none;fill-rule:nonzero;fill:rgb(34.509805%,35.294119%,65.882355%);fill-opacity:1;" d="M 137.785156 154.460938 C 136.535156 154.460938 135.289062 154.148438 134.15625 153.535156 C 133.859375 153.371094 133.746094 152.996094 133.910156 152.695312 C 134.070312 152.394531 134.449219 152.285156 134.746094 152.449219 C 137.632812 154.015625 141.359375 153.085938 142.882812 150.414062 C 143.691406 149.003906 143.789062 147.230469 143.15625 145.550781 C 142.546875 143.9375 141.378906 142.699219 140.023438 142.234375 C 137.554688 141.386719 135.050781 143.386719 134.945312 143.472656 C 133.46875 144.667969 132.757812 145.863281 132.988281 146.753906 C 133.304688 147.960938 135.335938 148.976562 137.855469 148.566406 C 138.195312 148.511719 138.511719 148.738281 138.566406 149.074219 C 138.621094 149.414062 138.390625 149.730469 138.054688 149.785156 C 134.722656 150.328125 132.253906 148.828125 131.792969 147.0625 C 131.425781 145.664062 132.269531 144.046875 134.164062 142.511719 C 134.484375 142.253906 137.367188 140.015625 140.425781 141.066406 C 142.125 141.648438 143.578125 143.160156 144.3125 145.113281 C 145.078125 147.140625 144.949219 149.296875 143.957031 151.03125 C 143.078125 152.570312 141.53125 153.730469 139.714844 154.210938 C 139.078125 154.378906 138.429688 154.464844 137.785156 154.464844 Z M 137.785156 154.460938 "/>
<path style=" stroke:none;fill-rule:nonzero;fill:rgb(34.509805%,35.294119%,65.882355%);fill-opacity:1;" d="M 136.675781 173.1875 C 135.992188 173.1875 135.300781 173.019531 134.65625 172.671875 C 134.359375 172.511719 134.246094 172.132812 134.410156 171.835938 C 134.574219 171.535156 134.949219 171.421875 135.246094 171.585938 C 136.589844 172.3125 138.3125 171.890625 139.019531 170.65625 C 139.386719 170.011719 139.429688 169.195312 139.136719 168.417969 C 138.863281 167.6875 138.316406 167.101562 137.714844 166.894531 C 136.605469 166.515625 135.445312 167.441406 135.398438 167.476562 C 134.765625 167.988281 134.410156 168.53125 134.496094 168.851562 C 134.609375 169.277344 135.480469 169.753906 136.652344 169.558594 C 136.992188 169.507812 137.308594 169.734375 137.363281 170.070312 C 137.421875 170.40625 137.191406 170.726562 136.855469 170.78125 C 135.171875 171.054688 133.609375 170.34375 133.300781 169.160156 C 133.078125 168.324219 133.546875 167.382812 134.621094 166.515625 C 134.796875 166.371094 136.394531 165.128906 138.121094 165.722656 C 139.074219 166.050781 139.890625 166.890625 140.296875 167.976562 C 140.722656 169.101562 140.648438 170.300781 140.097656 171.269531 C 139.394531 172.496094 138.066406 173.183594 136.679688 173.183594 Z M 136.675781 173.1875 "/>
<path style=" stroke:none;fill-rule:nonzero;fill:rgb(4.313726%,82.745099%,4.313726%);fill-opacity:1;" d="M 71.105469 151.058594 C 69.011719 143.394531 63.230469 138.335938 57.675781 136.019531 C 55.042969 134.921875 46.617188 131.402344 41.625 136.0625 C 37.714844 139.714844 37.820312 146.609375 40.527344 151.230469 C 43.546875 156.386719 50.003906 159.0625 56.523438 157.65625 C 47.671875 158.175781 41.929688 164.121094 42.191406 169.328125 C 42.402344 173.527344 46.5 176.929688 50.171875 178.0625 C 57.4375 180.3125 64.804688 174.246094 68.160156 169.492188 C 73.808594 161.488281 71.472656 152.398438 71.109375 151.058594 Z M 71.105469 151.058594 "/>
<path style=" stroke:none;fill-rule:nonzero;fill:rgb(34.509805%,35.294119%,65.882355%);fill-opacity:1;" d="M 53.375 178.976562 C 52.230469 178.976562 51.117188 178.808594 50.042969 178.476562 C 48.0625 177.867188 46.070312 176.652344 44.574219 175.148438 C 42.835938 173.402344 41.863281 171.394531 41.757812 169.351562 C 41.542969 165.121094 45.058594 160.441406 50.960938 158.328125 C 49.617188 158.15625 48.304688 157.8125 47.046875 157.304688 C 44.074219 156.101562 41.691406 154.074219 40.152344 151.453125 C 38.761719 149.074219 38.035156 146.09375 38.164062 143.269531 C 38.300781 140.199219 39.425781 137.53125 41.328125 135.753906 C 43.554688 133.675781 46.675781 132.902344 50.597656 133.457031 C 53.710938 133.898438 56.5 135.0625 57.84375 135.621094 C 64.550781 138.421875 69.664062 144.148438 71.519531 150.949219 C 71.847656 152.148438 72.386719 154.632812 72.316406 157.789062 C 72.214844 162.28125 70.9375 166.304688 68.511719 169.742188 C 66.535156 172.542969 63.738281 175.109375 60.84375 176.78125 C 58.320312 178.238281 55.785156 178.976562 53.375 178.976562 Z M 53.769531 158.449219 C 50.863281 159.039062 48.246094 160.28125 46.222656 162.058594 C 43.808594 164.179688 42.492188 166.820312 42.621094 169.308594 C 42.816406 173.246094 46.722656 176.546875 50.296875 177.652344 C 57.8125 179.980469 65.035156 173.171875 67.804688 169.242188 C 73.035156 161.832031 71.335938 153.539062 70.6875 151.175781 C 68.898438 144.628906 63.972656 139.113281 57.511719 136.414062 C 54.839844 135.300781 46.707031 131.90625 41.921875 136.378906 C 38.09375 139.957031 38.40625 146.761719 40.898438 151.015625 C 43.433594 155.34375 48.339844 157.796875 53.636719 157.589844 C 54.546875 157.40625 55.503906 157.285156 56.492188 157.226562 L 56.609375 158.078125 C 55.664062 158.28125 54.714844 158.402344 53.769531 158.445312 Z M 53.769531 158.449219 "/>
<path style=" stroke:none;fill-rule:nonzero;fill:rgb(34.509805%,35.294119%,65.882355%);fill-opacity:1;" d="M 52.507812 152.863281 C 51.828125 152.863281 51.152344 152.773438 50.488281 152.597656 C 48.589844 152.09375 46.96875 150.882812 46.046875 149.269531 C 45.011719 147.457031 44.875 145.203125 45.675781 143.082031 C 46.445312 141.039062 47.964844 139.457031 49.742188 138.847656 C 52.941406 137.75 55.957031 140.089844 56.289062 140.359375 C 58.273438 141.96875 59.15625 143.660156 58.773438 145.125 C 58.289062 146.96875 55.703125 148.539062 52.21875 147.96875 C 51.867188 147.910156 51.628906 147.578125 51.6875 147.226562 C 51.742188 146.875 52.074219 146.636719 52.429688 146.695312 C 55.0625 147.125 57.191406 146.058594 57.519531 144.796875 C 57.765625 143.867188 57.019531 142.617188 55.472656 141.367188 C 55.363281 141.277344 52.746094 139.1875 50.160156 140.074219 C 48.742188 140.558594 47.519531 141.855469 46.882812 143.539062 C 46.222656 145.296875 46.324219 147.152344 47.167969 148.628906 C 48.761719 151.421875 52.660156 152.394531 55.679688 150.753906 C 55.992188 150.585938 56.382812 150.699219 56.554688 151.015625 C 56.726562 151.328125 56.609375 151.71875 56.296875 151.890625 C 55.113281 152.535156 53.808594 152.863281 52.5 152.863281 Z M 52.507812 152.863281 "/>
<path style=" stroke:none;fill-rule:nonzero;fill:rgb(34.509805%,35.294119%,65.882355%);fill-opacity:1;" d="M 53.871094 172.3125 C 53.324219 172.3125 52.777344 172.199219 52.261719 171.964844 C 51.199219 171.480469 50.40625 170.507812 50.078125 169.292969 C 49.765625 168.121094 49.941406 166.90625 50.554688 166.046875 C 51.65625 164.492188 53.773438 164.570312 54.011719 164.585938 C 55.449219 164.667969 56.421875 165.179688 56.746094 166.027344 C 57.203125 167.21875 56.3125 168.777344 54.714844 169.570312 C 54.394531 169.730469 54.007812 169.597656 53.847656 169.277344 C 53.6875 168.957031 53.816406 168.570312 54.136719 168.410156 C 55.25 167.859375 55.703125 166.921875 55.539062 166.488281 C 55.414062 166.164062 54.785156 165.925781 53.933594 165.875 C 53.867188 165.871094 52.320312 165.792969 51.609375 166.792969 C 51.222656 167.335938 51.117188 168.164062 51.328125 168.957031 C 51.554688 169.796875 52.089844 170.460938 52.796875 170.785156 C 54.144531 171.402344 55.871094 170.710938 56.5625 169.273438 C 56.71875 168.949219 57.105469 168.816406 57.429688 168.972656 C 57.75 169.128906 57.882812 169.515625 57.726562 169.835938 C 56.976562 171.386719 55.433594 172.3125 53.867188 172.3125 Z M 53.871094 172.3125 "/>
</g>
</svg>
