<?xml version="1.0" encoding="UTF-8"?>
<svg xmlns="http://www.w3.org/2000/svg" xmlns:xlink="http://www.w3.org/1999/xlink" width="200" height="200" viewBox="0 0 200 200" version="1.1">
<g id="surface1">
<path style=" stroke:none;fill-rule:nonzero;fill:rgb(94.901961%,94.901961%,94.901961%);fill-opacity:1;" d="M 80.605469 189.105469 C 79.050781 188.285156 77.5 187.460938 75.949219 186.640625 C 75.289062 177.15625 74.628906 167.675781 73.96875 158.191406 C 73.546875 152.140625 73.125 146.09375 72.703125 140.042969 C 72.632812 139.882812 72.597656 139.660156 72.664062 139.46875 C 72.8125 139.050781 73.554688 139.214844 73.894531 139.285156 C 74.121094 139.335938 74.953125 139.53125 76.222656 140.570312 C 76.777344 141.027344 77.054688 141.253906 77.320312 141.675781 C 77.820312 142.472656 77.957031 143.371094 78.003906 143.882812 C 78.871094 158.957031 79.738281 174.03125 80.605469 189.105469 Z M 80.605469 189.105469 "/>
<path style=" stroke:none;fill-rule:nonzero;fill:rgb(34.509805%,35.294119%,65.882355%);fill-opacity:1;" d="M 81.410156 190.363281 L 75.242188 187.101562 L 71.976562 140.203125 C 71.867188 139.875 71.863281 139.523438 71.972656 139.21875 C 72.339844 138.203125 73.613281 138.472656 74.03125 138.5625 C 74.828125 138.730469 75.742188 139.226562 76.691406 140.003906 C 77.265625 140.472656 77.613281 140.761719 77.941406 141.285156 C 78.375 141.976562 78.648438 142.851562 78.734375 143.8125 L 78.734375 143.839844 C 78.734375 143.839844 81.414062 190.363281 81.414062 190.363281 Z M 76.652344 186.183594 L 79.792969 187.84375 L 77.269531 143.9375 C 77.199219 143.207031 77.003906 142.558594 76.695312 142.066406 C 76.492188 141.746094 76.277344 141.570312 75.757812 141.140625 C 74.703125 140.277344 73.996094 140.058594 73.742188 140.007812 C 73.675781 139.992188 73.550781 139.964844 73.433594 139.949219 L 73.4375 139.992188 Z M 73.363281 139.691406 Z M 73.363281 139.691406 "/>
<path style=" stroke:none;fill-rule:nonzero;fill:rgb(13.333334%,70.980394%,45.09804%);fill-opacity:1;" d="M 78.277344 188.644531 C 78.035156 188.644531 77.832031 188.457031 77.816406 188.214844 L 74.804688 139.867188 C 74.789062 139.613281 74.980469 139.394531 75.234375 139.378906 C 75.488281 139.363281 75.707031 139.554688 75.722656 139.808594 L 78.734375 188.15625 C 78.753906 188.410156 78.558594 188.628906 78.304688 188.644531 C 78.296875 188.644531 78.285156 188.644531 78.277344 188.644531 Z M 78.277344 188.644531 "/>
<path style=" stroke:none;fill-rule:nonzero;fill:rgb(80.000001%,80.000001%,80.000001%);fill-opacity:1;" d="M 74.484375 163.742188 C 73.929688 163.742188 73.390625 163.539062 72.949219 163.15625 C 72.390625 162.679688 72.042969 161.957031 71.992188 161.183594 L 71.535156 154.03125 C 71.4375 152.519531 72.46875 151.199219 73.839844 151.085938 L 78.691406 150.683594 C 79.308594 150.632812 79.921875 150.839844 80.414062 151.261719 C 80.96875 151.742188 81.320312 152.460938 81.367188 153.238281 L 81.828125 160.386719 C 81.925781 161.898438 80.890625 163.21875 79.523438 163.335938 L 74.671875 163.734375 C 74.609375 163.742188 74.546875 163.742188 74.484375 163.742188 Z M 78.875 151.78125 C 78.84375 151.78125 78.8125 151.78125 78.78125 151.785156 L 73.929688 152.1875 C 73.167969 152.246094 72.574219 153.0625 72.632812 153.960938 L 73.09375 161.113281 C 73.125 161.59375 73.335938 162.035156 73.667969 162.324219 C 73.933594 162.550781 74.257812 162.664062 74.578125 162.636719 L 79.433594 162.234375 C 80.191406 162.175781 80.785156 161.359375 80.726562 160.460938 L 80.265625 153.308594 C 80.234375 152.828125 80.027344 152.386719 79.691406 152.097656 C 79.453125 151.890625 79.164062 151.78125 78.875 151.78125 Z M 78.875 151.78125 "/>
<path style=" stroke:none;fill-rule:nonzero;fill:rgb(80.000001%,80.000001%,80.000001%);fill-opacity:1;" d="M 72.238281 158.886719 C 71.957031 158.871094 71.738281 158.46875 71.746094 157.949219 C 71.753906 157.402344 72.003906 156.9375 72.308594 156.90625 L 80.828125 156.082031 C 81.136719 156.050781 81.378906 156.472656 81.375 157.019531 C 81.371094 157.5625 81.117188 158.03125 80.808594 158.0625 L 72.289062 158.886719 C 72.273438 158.886719 72.257812 158.886719 72.242188 158.886719 Z M 72.238281 158.886719 "/>
<path style=" stroke:none;fill-rule:nonzero;fill:rgb(94.901961%,94.901961%,94.901961%);fill-opacity:1;" d="M 109.523438 189.839844 C 111.074219 189.019531 112.625 188.199219 114.175781 187.378906 C 114.835938 177.894531 115.496094 168.410156 116.15625 158.929688 C 116.578125 152.878906 117 146.828125 117.421875 140.78125 C 117.492188 140.617188 117.53125 140.398438 117.460938 140.207031 C 117.3125 139.785156 116.570312 139.949219 116.230469 140.023438 C 116.007812 140.070312 115.175781 140.269531 113.902344 141.308594 C 113.347656 141.761719 113.070312 141.988281 112.804688 142.410156 C 112.304688 143.210938 112.167969 144.105469 112.121094 144.617188 C 111.253906 159.691406 110.386719 174.765625 109.519531 189.84375 Z M 109.523438 189.839844 "/>
<path style=" stroke:none;fill-rule:nonzero;fill:rgb(34.509805%,35.294119%,65.882355%);fill-opacity:1;" d="M 111.390625 144.574219 L 111.390625 144.550781 C 111.476562 143.585938 111.753906 142.710938 112.1875 142.019531 C 112.515625 141.496094 112.863281 141.210938 113.4375 140.738281 C 114.382812 139.964844 115.296875 139.464844 116.097656 139.296875 C 116.515625 139.207031 117.792969 138.9375 118.15625 139.957031 C 118.265625 140.261719 118.261719 140.609375 118.148438 140.9375 L 114.882812 187.835938 L 108.714844 191.101562 Z M 116.691406 140.726562 L 116.695312 140.683594 C 116.574219 140.699219 116.453125 140.726562 116.382812 140.738281 C 116.128906 140.792969 115.425781 141.011719 114.371094 141.875 C 113.847656 142.304688 113.632812 142.480469 113.433594 142.800781 C 113.125 143.292969 112.925781 143.941406 112.859375 144.671875 L 110.332031 188.578125 L 113.472656 186.914062 L 116.691406 140.722656 Z M 116.765625 140.425781 Z M 116.765625 140.425781 "/>
<path style=" stroke:none;fill-rule:nonzero;fill:rgb(22.352941%,70.980394%,29.019609%);fill-opacity:1;" d="M 111.851562 189.378906 C 112.089844 189.378906 112.292969 189.191406 112.308594 188.949219 L 115.320312 140.601562 C 115.335938 140.347656 115.144531 140.128906 114.890625 140.113281 C 114.636719 140.097656 114.417969 140.289062 114.402344 140.542969 L 111.390625 188.890625 C 111.375 189.144531 111.566406 189.363281 111.820312 189.378906 C 111.828125 189.378906 111.839844 189.378906 111.847656 189.378906 Z M 111.851562 189.378906 "/>
<path style=" stroke:none;fill-rule:nonzero;fill:rgb(80.000001%,80.000001%,80.000001%);fill-opacity:1;" d="M 115.453125 164.46875 L 110.601562 164.066406 C 109.234375 163.953125 108.199219 162.632812 108.296875 161.121094 L 108.757812 153.972656 C 108.808594 153.195312 109.15625 152.476562 109.710938 151.996094 C 110.203125 151.570312 110.8125 151.367188 111.4375 151.417969 L 116.289062 151.820312 C 117.65625 151.933594 118.691406 153.253906 118.59375 154.765625 L 118.132812 161.914062 C 118.082031 162.691406 117.734375 163.410156 117.179688 163.890625 C 116.734375 164.273438 116.195312 164.476562 115.640625 164.476562 C 115.578125 164.476562 115.519531 164.476562 115.453125 164.46875 Z M 110.433594 152.828125 C 110.101562 153.117188 109.890625 153.558594 109.859375 154.042969 L 109.398438 161.191406 C 109.34375 162.09375 109.933594 162.902344 110.695312 162.96875 L 115.546875 163.371094 C 115.871094 163.398438 116.191406 163.285156 116.457031 163.054688 C 116.792969 162.769531 117.003906 162.324219 117.03125 161.84375 L 117.492188 154.695312 C 117.550781 153.792969 116.957031 152.980469 116.199219 152.917969 L 111.347656 152.515625 C 111.3125 152.515625 111.285156 152.511719 111.253906 152.511719 C 110.960938 152.511719 110.675781 152.621094 110.433594 152.828125 Z M 110.433594 152.828125 "/>
<path style=" stroke:none;fill-rule:nonzero;fill:rgb(80.000001%,80.000001%,80.000001%);fill-opacity:1;" d="M 117.886719 159.625 C 118.167969 159.609375 118.386719 159.203125 118.378906 158.6875 C 118.375 158.140625 118.121094 157.671875 117.816406 157.640625 L 109.296875 156.816406 C 108.988281 156.789062 108.746094 157.207031 108.753906 157.753906 C 108.757812 158.300781 109.011719 158.769531 109.316406 158.796875 L 117.835938 159.621094 C 117.851562 159.621094 117.867188 159.621094 117.882812 159.621094 Z M 117.886719 159.625 "/>
</g>
</svg>
