<?xml version="1.0" encoding="UTF-8"?>
<svg id="Accesories" xmlns="http://www.w3.org/2000/svg" viewBox="0 0 1000 1000">
  <defs>
    <style>
      .cls-1 {
        fill: #8cc63f;
      }

      .cls-2 {
        fill: #006837;
      }

      .cls-3 {
        fill: #585aa8;
      }

      .cls-4 {
        fill: #ccc;
      }
    </style>
  </defs>
  <g>
    <path class="cls-1" d="M403.02,945.52c-7.76-4.1-15.52-8.21-23.27-12.31-3.3-47.42-6.61-94.84-9.91-142.25-2.11-30.25-4.21-60.5-6.32-90.74-.36-.81-.54-1.91-.2-2.87,.75-2.1,4.45-1.28,6.16-.92,1.12,.24,5.28,1.23,11.64,6.43,2.77,2.27,4.16,3.41,5.48,5.52,2.5,3.99,3.19,8.47,3.42,11.03,4.34,75.37,8.67,150.74,13.01,226.12Z"/>
    <path class="cls-3" d="M407.06,951.82l-30.84-16.32-16.33-234.49c-.56-1.64-.58-3.39-.03-4.91,1.83-5.09,8.2-3.74,10.3-3.29,3.99,.85,8.56,3.33,13.29,7.2,2.88,2.36,4.62,3.79,6.26,6.41,2.16,3.46,3.53,7.83,3.97,12.65v.12s13.39,232.63,13.39,232.63Zm-23.79-20.91l15.7,8.31-12.63-219.54c-.34-3.65-1.33-6.88-2.87-9.35-1-1.6-2.08-2.48-4.69-4.62-5.27-4.32-8.8-5.41-10.07-5.68-.33-.07-.95-.2-1.55-.29l.02,.22,16.09,230.96Zm-16.46-232.46h0Z"/>
  </g>
  <path class="cls-2" d="M391.38,943.23c-1.2,0-2.22-.94-2.29-2.16l-15.06-241.74c-.08-1.27,.88-2.36,2.15-2.44,1.26-.07,2.36,.88,2.44,2.15l15.06,241.74c.08,1.27-.88,2.36-2.15,2.44-.05,0-.1,0-.14,0Z"/>
  <path class="cls-4" d="M372.42,818.72c-2.78,0-5.47-1.02-7.68-2.93-2.78-2.4-4.53-6-4.77-9.88l-2.3-35.75c-.49-7.56,4.68-14.16,11.52-14.73l24.26-2.01c3.1-.25,6.16,.77,8.62,2.89,2.78,2.4,4.53,6,4.77,9.88l2.3,35.75c.49,7.56-4.68,14.16-11.52,14.73l-24.26,2.01c-.31,.03-.62,.04-.94,.04Zm21.95-59.82c-.16,0-.31,0-.47,.02l-24.26,2.01c-3.8,.31-6.76,4.38-6.47,8.88l2.3,35.75c.16,2.41,1.2,4.62,2.87,6.06,1.33,1.14,2.94,1.7,4.56,1.57l24.26-2.01c3.8-.31,6.76-4.38,6.47-8.88l-2.3-35.75c-.16-2.41-1.2-4.62-2.87-6.06-1.2-1.03-2.63-1.59-4.09-1.59Z"/>
  <path class="cls-4" d="M361.2,794.44c-1.41-.08-2.5-2.1-2.47-4.69,.03-2.73,1.29-5.07,2.82-5.22l42.6-4.12c1.53-.15,2.74,1.95,2.72,4.68s-1.29,5.07-2.82,5.22l-42.6,4.12c-.08,0-.16,0-.24,0Z"/>
  <g>
    <path class="cls-1" d="M547.61,949.2c7.76-4.1,15.52-8.21,23.27-12.31,3.3-47.42,6.61-94.84,9.91-142.25,2.11-30.25,4.21-60.5,6.32-90.74,.36-.81,.54-1.91,.2-2.87-.75-2.1-4.45-1.28-6.16-.92-1.12,.24-5.28,1.23-11.64,6.43-2.77,2.27-4.16,3.41-5.48,5.52-2.5,3.99-3.19,8.47-3.42,11.03-4.34,75.37-8.67,150.74-13.01,226.12Z"/>
    <path class="cls-3" d="M556.95,722.87v-.12c.44-4.82,1.81-9.19,3.98-12.65,1.64-2.62,3.38-4.05,6.26-6.41,4.73-3.87,9.29-6.36,13.29-7.2,2.1-.45,8.48-1.8,10.3,3.29,.54,1.52,.53,3.27-.03,4.91l-16.33,234.49-30.84,16.32,13.38-232.63Zm26.5-19.24l.02-.22c-.6,.09-1.21,.22-1.55,.29-1.27,.27-4.8,1.36-10.07,5.68-2.61,2.14-3.69,3.02-4.69,4.62-1.54,2.47-2.54,5.7-2.87,9.35l-12.63,219.54,15.7-8.31,16.09-230.96Zm.37-1.5h0Z"/>
  </g>
  <path class="cls-2" d="M559.25,946.9c1.2,0,2.22-.94,2.29-2.16l15.06-241.74c.08-1.27-.88-2.36-2.15-2.44-1.26-.07-2.36,.88-2.44,2.15l-15.06,241.74c-.08,1.27,.88,2.36,2.15,2.44,.05,0,.1,0,.14,0Z"/>
  <path class="cls-4" d="M577.27,822.35l-24.26-2.01c-6.84-.57-12.01-7.17-11.52-14.73l2.3-35.75c.25-3.88,1.99-7.48,4.77-9.88,2.46-2.12,5.51-3.14,8.62-2.89l24.26,2.01c6.84,.57,12.01,7.17,11.52,14.73l-2.3,35.75c-.25,3.88-1.99,7.48-4.77,9.88-2.21,1.91-4.91,2.93-7.68,2.93-.31,0-.62-.01-.94-.04Zm-25.1-58.2c-1.67,1.44-2.72,3.65-2.87,6.06l-2.3,35.75c-.29,4.5,2.67,8.56,6.47,8.88l24.26,2.01c1.62,.14,3.23-.42,4.56-1.57,1.67-1.44,2.72-3.65,2.87-6.06l2.3-35.75c.29-4.5-2.67-8.56-6.47-8.88l-24.26-2.01c-.16-.01-.31-.02-.47-.02-1.45,0-2.89,.55-4.09,1.59Z"/>
  <path class="cls-4" d="M589.43,798.12c1.41-.08,2.5-2.1,2.47-4.69-.03-2.73-1.29-5.07-2.82-5.22l-42.6-4.12c-1.53-.15-2.74,1.95-2.72,4.68s1.29,5.07,2.82,5.22l42.6,4.12c.08,0,.16,0,.24,0Z"/>
</svg>