<?xml version="1.0" encoding="UTF-8"?>
<svg id="Plants" xmlns="http://www.w3.org/2000/svg" viewBox="0 0 1000 1000">
  <defs>
    <style>
      .cls-1 {
        fill: #8cba66;
      }

      .cls-1, .cls-2 {
        stroke: #585aa8;
        stroke-miterlimit: 10;
        stroke-width: 8px;
      }

      .cls-3 {
        fill: #585aa8;
      }

      .cls-2 {
        fill: none;
        stroke-linecap: round;
      }
    </style>
  </defs>
  <path class="cls-1" d="M633.81,724c-10.69-61.44-63.38-96.68-78.21-105.73-11.84-7.22-54.19-33.07-105.01-24.6-57.51,9.58-117.08,61.64-130.09,130.33h313.32Z"/>
  <g>
    <path class="cls-1" d="M691.5,578.15c-41.45,1.49-72.27-21.47-84.09-31.42,8.2-9.16,24.69-25.02,50.46-34.24,14.53-5.19,25.93-6.1,37.9-7.05,25.85-2.05,54.75-4.35,68.1,13.11,1.47,1.92,7.35,9.62,6.33,19.08-2.58,23.84-47.15,39.39-78.7,40.52Z"/>
    <path class="cls-3" d="M719.57,502.8c-1.95,0-3.53-1.58-3.53-3.53v-16.75c0-1.95,1.58-3.53,3.53-3.53s3.53,1.58,3.53,3.53v16.75c0,1.95-1.58,3.53-3.53,3.53Z"/>
    <path class="cls-3" d="M789.63,541.75c-.1,1.94-1.76,3.44-3.7,3.34l-16.72-.86c-1.94-.1-3.44-1.76-3.34-3.7,.1-1.94,1.76-3.44,3.7-3.34l16.72,.86c1.94,.1,3.44,1.76,3.34,3.7Z"/>
    <path class="cls-3" d="M681.8,578.21c1.87-.56,3.83,.51,4.39,2.37l4.78,16.05c.56,1.87-.51,3.83-2.37,4.39s-3.83-.51-4.39-2.37l-4.78-16.05c-.56-1.87,.51-3.83,2.37-4.39Z"/>
  </g>
  <g>
    <path class="cls-1" d="M683.01,138.73c7.66,20.66,1.97,44.87-14.65,62.26-1.84-.21-39.13-5.06-52.57-36.65-9.43-22.17-5.72-54.23,11.48-62.02,17.85-8.09,46.55,11.62,55.74,36.4Z"/>
    <path class="cls-1" d="M804.25,171.32c-19.76,23.15-52.8,32.59-84.97,24.26-2.38-6.51-22.51-64.09,8.44-103.25,5.15-6.51,17.09-21.63,38.18-25.16,1.41-.24,27.57-4.22,44.73,12.4,23.21,22.48,14.32,67.5-6.38,91.76Z"/>
    <path class="cls-1" d="M735.91,350.52c-18.33,25.83-44.53,38.15-58.36,44.69-36.21,17.12-69.68,18.11-87.79,17.29-30.46-60.37-26.01-127.32,10.41-170.93,31.92-38.22,95.53-67.06,132.73-42.04,40.07,26.96,36.24,104.15,3.01,150.99Z"/>
    <path class="cls-3" d="M771.97,65.43c-1.92,0-3.47-1.55-3.47-3.47v-16.49c0-1.92,1.55-3.47,3.47-3.47s3.47,1.55,3.47,3.47v16.49c0,1.92-1.55,3.47-3.47,3.47Z"/>
    <path class="cls-3" d="M819.74,92.14c-.89-1.7-.24-3.8,1.45-4.69l14.59-7.68c1.7-.89,3.8-.24,4.69,1.45s.24,3.8-1.45,4.69l-14.59,7.68c-1.7,.89-3.8,.24-4.69-1.45Z"/>
    <path class="cls-3" d="M759.82,357.69c-1.11,1.56-3.28,1.93-4.84,.81l-13.43-9.56c-1.56-1.11-1.93-3.28-.81-4.84s3.28-1.93,4.84-.81l13.43,9.56c1.56,1.11,1.93,3.28,.81,4.84Z"/>
    <path class="cls-3" d="M609.71,231.01c-1.11,1.56-3.28,1.93-4.84,.81l-13.43-9.56c-1.56-1.11-1.93-3.28-.81-4.84s3.28-1.93,4.84-.81l13.43,9.56c1.56,1.11,1.93,3.28,.81,4.84Z"/>
    <path class="cls-3" d="M725.98,93.92c-1.11,1.56-3.28,1.93-4.84,.81l-13.43-9.56c-1.56-1.11-1.93-3.28-.81-4.84s3.28-1.93,4.84-.81l13.43,9.56c1.56,1.11,1.93,3.28,.81,4.84Z"/>
    <path class="cls-3" d="M652.23,105.77c-1.92,0-3.47-1.55-3.47-3.47v-16.49c0-1.92,1.55-3.47,3.47-3.47s3.47,1.55,3.47,3.47v16.49c0,1.92-1.55,3.47-3.47,3.47Z"/>
    <path class="cls-3" d="M614.05,131.23c-1.11,1.56-3.28,1.93-4.84,.81l-13.43-9.56c-1.56-1.11-1.93-3.28-.81-4.84s3.28-1.93,4.84-.81l13.43,9.56c1.56,1.11,1.93,3.28,.81,4.84Z"/>
    <path class="cls-3" d="M572.4,309.81c-.52,1.85-2.43,2.92-4.28,2.4l-15.87-4.46c-1.85-.52-2.92-2.43-2.4-4.28s2.43-2.92,4.28-2.4l15.87,4.46c1.85,.52,2.92,2.43,2.4,4.28Z"/>
    <path class="cls-3" d="M783.69,264.12c0,1.92-1.55,3.47-3.47,3.47h-16.49c-1.92,0-3.47-1.55-3.47-3.47s1.55-3.47,3.47-3.47h16.49c1.92,0,3.47,1.55,3.47,3.47Z"/>
    <path class="cls-3" d="M667.98,399.97c1.84-.55,3.77,.5,4.32,2.34l4.71,15.8c.55,1.84-.5,3.77-2.34,4.32-1.84,.55-3.77-.5-4.32-2.34l-4.71-15.8c-.55-1.84,.5-3.77,2.34-4.32Z"/>
    <path class="cls-3" d="M812.52,157.99c1.39-1.32,3.59-1.25,4.91,.14l11.32,11.99c1.32,1.39,1.25,3.59-.14,4.91s-3.59,1.25-4.91-.14l-11.32-11.99c-1.32-1.39-1.25-3.59,.14-4.91Z"/>
  </g>
  <g>
    <path class="cls-1" d="M393.78,278.64c21.19,51.83-.16,100.55-5.07,111.07-59.9,12.14-115.94-18.79-132.38-66.17-16.34-47.1,7.13-110.61,45.27-119.41,37.2-8.58,77.06,37.54,92.18,74.51Z"/>
    <g>
      <path class="cls-1" d="M321.18,127.99c-11.34,16.37-32.23,24.68-53.71,21.37-19.95-20.76-21.8-50.86-7.1-69.37,13.43-16.9,41.87-25.66,58.93-12.14,17.21,13.64,13.85,42.85,1.88,60.14Z"/>
      <path class="cls-1" d="M265.46,146.25c18.36,20.86,22.6,51.95,10.89,79.94-34.84,20.04-76.23,12.42-96.36-13.71-18.38-23.87-20.68-65.35,3.37-83.91,24.27-18.73,62.71-4.36,82.1,17.68Z"/>
      <path class="cls-3" d="M206.37,123.22c-2.02,0-3.66-1.64-3.66-3.66v-17.37c0-2.02,1.64-3.66,3.66-3.66s3.66,1.64,3.66,3.66v17.37c0,2.02-1.64,3.66-3.66,3.66Z"/>
      <path class="cls-3" d="M275.85,66.54c-2.02,0-3.66-1.64-3.66-3.66v-17.37c0-2.02,1.64-3.66,3.66-3.66s3.66,1.64,3.66,3.66v17.37c0,2.02-1.64,3.66-3.66,3.66Z"/>
      <path class="cls-3" d="M173.61,142.73c-.87,1.82-3.06,2.59-4.88,1.71l-15.66-7.52c-1.82-.87-2.59-3.06-1.71-4.88s3.06-2.59,4.88-1.71l15.66,7.52c1.82,.87,2.59,3.06,1.71,4.88Z"/>
      <path class="cls-3" d="M333.6,147.3c-.87,1.82-3.06,2.59-4.88,1.71l-15.66-7.52c-1.82-.87-2.59-3.06-1.71-4.88s3.06-2.59,4.88-1.71l15.66,7.52c1.82,.87,2.59,3.06,1.71,4.88Z"/>
      <path class="cls-3" d="M171.37,199.37c1.23,1.6,.92,3.9-.68,5.13l-13.79,10.56c-1.6,1.23-3.9,.92-5.13-.68s-.92-3.9,.68-5.13l13.79-10.56c1.6-1.23,3.9-.92,5.13,.68Z"/>
      <path class="cls-3" d="M256.79,322.01c.46,1.97-.77,3.93-2.74,4.39l-16.92,3.93c-1.97,.46-3.93-.77-4.39-2.74-.46-1.97,.77-3.93,2.74-4.39l16.92-3.93c1.97-.46,3.93,.77,4.39,2.74Z"/>
      <path class="cls-3" d="M426.24,305.15c0,2.02-1.64,3.66-3.66,3.66h-17.37c-2.02,0-3.66-1.64-3.66-3.66s1.64-3.66,3.66-3.66h17.37c2.02,0,3.66,1.64,3.66,3.66Z"/>
      <path class="cls-3" d="M390.88,223.09c1.38,1.47,1.32,3.78-.16,5.17l-12.65,11.91c-1.47,1.38-3.78,1.32-5.17-.16s-1.32-3.78,.16-5.17l12.65-11.91c1.47-1.38,3.78-1.32,5.17,.16Z"/>
      <path class="cls-3" d="M343.34,53.05c1.38,1.47,1.32,3.78-.16,5.17l-12.65,11.91c-1.47,1.38-3.78,1.32-5.17-.16s-1.32-3.78,.16-5.17l12.65-11.91c1.47-1.38,3.78-1.32,5.17,.16Z"/>
      <path class="cls-3" d="M301.94,375.35c1.9,.68,2.89,2.77,2.21,4.67l-5.85,16.36c-.68,1.9-2.77,2.89-4.67,2.21s-2.89-2.77-2.21-4.67l5.85-16.36c.68-1.9,2.77-2.89,4.67-2.21Z"/>
    </g>
  </g>
  <path class="cls-1" d="M633.58,482.29c12.65,73.51-37.89,167.42-130.38,182.94-86.52,14.52-168.44-43.84-182.96-130.35-15.69-93.5,58.94-171.04,130.37-182.94,50.73-8.45,93.02,17.35,104.83,24.56,14.83,9.05,67.55,44.3,78.12,105.79Z"/>
  <path class="cls-3" d="M457.53,351.76c-2.27,0-4.1-1.84-4.1-4.1v-19.49c0-2.27,1.84-4.1,4.1-4.1s4.1,1.84,4.1,4.1v19.49c0,2.27-1.84,4.1-4.1,4.1Z"/>
  <path class="cls-3" d="M509.49,354.1c-2.14-.73-3.29-3.06-2.56-5.21l6.3-18.45c.73-2.14,3.06-3.29,5.21-2.56s3.29,3.06,2.56,5.21l-6.3,18.45c-.73,2.14-3.06,3.29-5.21,2.56Z"/>
  <path class="cls-3" d="M322.15,472.42c-.12,2.26-2.05,4-4.31,3.89l-19.47-1.01c-2.26-.12-4-2.05-3.89-4.31s2.05-4,4.31-3.89l19.47,1.01c2.26,.12,4,2.05,3.89,4.31Z"/>
  <path class="cls-3" d="M325.57,560.32c1.11,1.97,.41,4.48-1.56,5.59l-16.98,9.57c-1.97,1.11-4.48,.41-5.59-1.56s-.41-4.48,1.56-5.59l16.98-9.57c1.97-1.11,4.48-.41,5.59,1.56Z"/>
  <path class="cls-2" d="M456.75,372.31c-8.01,6.76-7.62,18.5-1.4,23.84,5.81,5,16.5,4.21,22.44-3.51,7.71,7.12,17.89,7.61,22.44,3.51,5.25-4.74,5.27-17.67-4.91-25.94"/>
</svg>