<?xml version="1.0" encoding="UTF-8"?>
<svg xmlns="http://www.w3.org/2000/svg" xmlns:xlink="http://www.w3.org/1999/xlink" width="200" height="200" viewBox="0 0 200 200" version="1.1">
<g id="surface1">
<path style="fill-rule:nonzero;fill:rgb(54.901963%,72.941178%,40.000001%);fill-opacity:1;stroke-width:8;stroke-linecap:butt;stroke-linejoin:miter;stroke:rgb(34.509805%,35.294119%,65.882355%);stroke-opacity:1;stroke-miterlimit:10;" d="M 633.808594 724.003906 C 623.125 662.558594 570.429688 627.324219 555.605469 618.261719 C 543.769531 611.054688 501.40625 585.195312 450.585938 593.671875 C 393.085938 603.242188 333.515625 655.3125 320.507812 724.003906 L 633.828125 724.003906 Z M 633.808594 724.003906 " transform="matrix(0.2,0,0,0.2,0,0)"/>
<path style="fill-rule:nonzero;fill:rgb(54.901963%,72.941178%,40.000001%);fill-opacity:1;stroke-width:8;stroke-linecap:butt;stroke-linejoin:miter;stroke:rgb(34.509805%,35.294119%,65.882355%);stroke-opacity:1;stroke-miterlimit:10;" d="M 691.503906 578.144531 C 650.058594 579.648438 619.238281 556.679688 607.402344 546.738281 C 615.605469 537.578125 632.109375 521.71875 657.871094 512.480469 C 672.402344 507.304688 683.808594 506.386719 695.761719 505.449219 C 721.621094 503.398438 750.527344 501.09375 763.867188 518.554688 C 765.332031 520.46875 771.210938 528.164062 770.195312 537.636719 C 767.617188 561.464844 723.046875 577.011719 691.503906 578.144531 Z M 691.503906 578.144531 " transform="matrix(0.2,0,0,0.2,0,0)"/>
<path style=" stroke:none;fill-rule:nonzero;fill:rgb(34.509805%,35.294119%,65.882355%);fill-opacity:1;" d="M 143.914062 100.558594 C 143.523438 100.558594 143.207031 100.242188 143.207031 99.855469 L 143.207031 96.503906 C 143.207031 96.113281 143.523438 95.796875 143.914062 95.796875 C 144.304688 95.796875 144.621094 96.113281 144.621094 96.503906 L 144.621094 99.855469 C 144.621094 100.242188 144.304688 100.558594 143.914062 100.558594 Z M 143.914062 100.558594 "/>
<path style=" stroke:none;fill-rule:nonzero;fill:rgb(34.509805%,35.294119%,65.882355%);fill-opacity:1;" d="M 157.925781 108.351562 C 157.90625 108.738281 157.574219 109.039062 157.1875 109.019531 L 153.84375 108.847656 C 153.453125 108.824219 153.152344 108.492188 153.175781 108.105469 C 153.195312 107.71875 153.527344 107.417969 153.914062 107.4375 L 157.257812 107.609375 C 157.644531 107.628906 157.945312 107.960938 157.925781 108.351562 Z M 157.925781 108.351562 "/>
<path style=" stroke:none;fill-rule:nonzero;fill:rgb(34.509805%,35.294119%,65.882355%);fill-opacity:1;" d="M 136.359375 115.640625 C 136.734375 115.53125 137.125 115.742188 137.238281 116.117188 L 138.195312 119.324219 C 138.304688 119.699219 138.09375 120.09375 137.71875 120.203125 C 137.347656 120.316406 136.953125 120.101562 136.84375 119.730469 L 135.886719 116.519531 C 135.773438 116.144531 135.988281 115.753906 136.359375 115.640625 Z M 136.359375 115.640625 "/>
<path style="fill-rule:nonzero;fill:rgb(54.901963%,72.941178%,40.000001%);fill-opacity:1;stroke-width:8;stroke-linecap:butt;stroke-linejoin:miter;stroke:rgb(34.509805%,35.294119%,65.882355%);stroke-opacity:1;stroke-miterlimit:10;" d="M 683.007812 138.730469 C 690.664062 159.394531 684.980469 183.59375 668.359375 200.996094 C 666.523438 200.78125 629.238281 195.9375 615.78125 164.335938 C 606.367188 142.167969 610.078125 110.117188 627.265625 102.324219 C 645.117188 94.238281 673.828125 113.945312 683.007812 138.710938 Z M 683.007812 138.730469 " transform="matrix(0.2,0,0,0.2,0,0)"/>
<path style="fill-rule:nonzero;fill:rgb(54.901963%,72.941178%,40.000001%);fill-opacity:1;stroke-width:8;stroke-linecap:butt;stroke-linejoin:miter;stroke:rgb(34.509805%,35.294119%,65.882355%);stroke-opacity:1;stroke-miterlimit:10;" d="M 804.257812 171.328125 C 784.492188 194.472656 751.445312 203.90625 719.277344 195.585938 C 716.894531 189.0625 696.777344 131.484375 727.714844 92.324219 C 732.871094 85.820312 744.804688 70.703125 765.898438 67.167969 C 767.304688 66.933594 793.476562 62.949219 810.625 79.570312 C 833.847656 102.050781 824.941406 147.070312 804.257812 171.328125 Z M 804.257812 171.328125 " transform="matrix(0.2,0,0,0.2,0,0)"/>
<path style="fill-rule:nonzero;fill:rgb(54.901963%,72.941178%,40.000001%);fill-opacity:1;stroke-width:8;stroke-linecap:butt;stroke-linejoin:miter;stroke:rgb(34.509805%,35.294119%,65.882355%);stroke-opacity:1;stroke-miterlimit:10;" d="M 735.917969 350.527344 C 717.578125 376.347656 691.386719 388.671875 677.558594 395.214844 C 641.347656 412.324219 607.871094 413.320312 589.765625 412.5 C 559.296875 352.128906 563.75 285.175781 600.175781 241.5625 C 632.089844 203.359375 695.703125 174.511719 732.890625 199.53125 C 772.96875 226.484375 769.140625 303.671875 735.917969 350.527344 Z M 735.917969 350.527344 " transform="matrix(0.2,0,0,0.2,0,0)"/>
<path style=" stroke:none;fill-rule:nonzero;fill:rgb(34.509805%,35.294119%,65.882355%);fill-opacity:1;" d="M 154.394531 13.085938 C 154.011719 13.085938 153.699219 12.777344 153.699219 12.390625 L 153.699219 9.09375 C 153.699219 8.710938 154.011719 8.398438 154.394531 8.398438 C 154.777344 8.398438 155.089844 8.710938 155.089844 9.09375 L 155.089844 12.390625 C 155.089844 12.777344 154.777344 13.085938 154.394531 13.085938 Z M 154.394531 13.085938 "/>
<path style=" stroke:none;fill-rule:nonzero;fill:rgb(34.509805%,35.294119%,65.882355%);fill-opacity:1;" d="M 163.949219 18.429688 C 163.769531 18.089844 163.898438 17.667969 164.238281 17.488281 L 167.15625 15.953125 C 167.496094 15.777344 167.914062 15.90625 168.09375 16.242188 C 168.273438 16.582031 168.140625 17.003906 167.804688 17.183594 L 164.886719 18.71875 C 164.546875 18.894531 164.125 18.765625 163.949219 18.429688 Z M 163.949219 18.429688 "/>
<path style=" stroke:none;fill-rule:nonzero;fill:rgb(34.509805%,35.294119%,65.882355%);fill-opacity:1;" d="M 151.964844 71.539062 C 151.742188 71.851562 151.308594 71.925781 150.996094 71.699219 L 148.308594 69.789062 C 147.996094 69.566406 147.925781 69.132812 148.148438 68.820312 C 148.371094 68.507812 148.804688 68.433594 149.117188 68.65625 L 151.800781 70.570312 C 152.113281 70.792969 152.1875 71.226562 151.964844 71.539062 Z M 151.964844 71.539062 "/>
<path style=" stroke:none;fill-rule:nonzero;fill:rgb(34.509805%,35.294119%,65.882355%);fill-opacity:1;" d="M 121.941406 46.203125 C 121.71875 46.515625 121.285156 46.589844 120.972656 46.363281 L 118.289062 44.453125 C 117.976562 44.230469 117.902344 43.796875 118.125 43.484375 C 118.351562 43.171875 118.78125 43.097656 119.09375 43.320312 L 121.78125 45.234375 C 122.09375 45.457031 122.164062 45.890625 121.941406 46.203125 Z M 121.941406 46.203125 "/>
<path style=" stroke:none;fill-rule:nonzero;fill:rgb(34.509805%,35.294119%,65.882355%);fill-opacity:1;" d="M 145.195312 18.785156 C 144.972656 19.097656 144.539062 19.171875 144.226562 18.945312 L 141.542969 17.035156 C 141.230469 16.8125 141.15625 16.378906 141.378906 16.066406 C 141.605469 15.753906 142.035156 15.679688 142.347656 15.902344 L 145.035156 17.816406 C 145.347656 18.039062 145.421875 18.472656 145.195312 18.785156 Z M 145.195312 18.785156 "/>
<path style=" stroke:none;fill-rule:nonzero;fill:rgb(34.509805%,35.294119%,65.882355%);fill-opacity:1;" d="M 130.445312 21.152344 C 130.0625 21.152344 129.753906 20.84375 129.753906 20.460938 L 129.753906 17.160156 C 129.753906 16.777344 130.0625 16.46875 130.445312 16.46875 C 130.828125 16.46875 131.140625 16.777344 131.140625 17.160156 L 131.140625 20.460938 C 131.140625 20.84375 130.828125 21.152344 130.445312 21.152344 Z M 130.445312 21.152344 "/>
<path style=" stroke:none;fill-rule:nonzero;fill:rgb(34.509805%,35.294119%,65.882355%);fill-opacity:1;" d="M 122.808594 26.246094 C 122.589844 26.558594 122.152344 26.632812 121.84375 26.40625 L 119.15625 24.496094 C 118.84375 24.273438 118.769531 23.839844 118.992188 23.527344 C 119.21875 23.214844 119.648438 23.140625 119.960938 23.367188 L 122.648438 25.277344 C 122.960938 25.5 123.035156 25.933594 122.808594 26.246094 Z M 122.808594 26.246094 "/>
<path style=" stroke:none;fill-rule:nonzero;fill:rgb(34.509805%,35.294119%,65.882355%);fill-opacity:1;" d="M 114.480469 61.960938 C 114.375 62.332031 113.992188 62.546875 113.625 62.441406 L 110.449219 61.550781 C 110.078125 61.445312 109.867188 61.0625 109.96875 60.695312 C 110.074219 60.324219 110.457031 60.109375 110.824219 60.214844 L 114 61.105469 C 114.371094 61.210938 114.585938 61.59375 114.480469 61.960938 Z M 114.480469 61.960938 "/>
<path style=" stroke:none;fill-rule:nonzero;fill:rgb(34.509805%,35.294119%,65.882355%);fill-opacity:1;" d="M 156.738281 52.824219 C 156.738281 53.207031 156.429688 53.519531 156.042969 53.519531 L 152.746094 53.519531 C 152.363281 53.519531 152.050781 53.207031 152.050781 52.824219 C 152.050781 52.441406 152.363281 52.128906 152.746094 52.128906 L 156.042969 52.128906 C 156.429688 52.128906 156.738281 52.441406 156.738281 52.824219 Z M 156.738281 52.824219 "/>
<path style=" stroke:none;fill-rule:nonzero;fill:rgb(34.509805%,35.294119%,65.882355%);fill-opacity:1;" d="M 133.597656 79.992188 C 133.964844 79.882812 134.351562 80.09375 134.460938 80.460938 L 135.402344 83.621094 C 135.511719 83.988281 135.300781 84.375 134.933594 84.484375 C 134.566406 84.597656 134.179688 84.386719 134.070312 84.019531 L 133.128906 80.859375 C 133.019531 80.488281 133.226562 80.105469 133.597656 79.992188 Z M 133.597656 79.992188 "/>
<path style=" stroke:none;fill-rule:nonzero;fill:rgb(34.509805%,35.294119%,65.882355%);fill-opacity:1;" d="M 162.503906 31.597656 C 162.78125 31.335938 163.222656 31.347656 163.484375 31.625 L 165.75 34.023438 C 166.015625 34.300781 166 34.742188 165.722656 35.007812 C 165.445312 35.269531 165.003906 35.257812 164.738281 34.976562 L 162.476562 32.578125 C 162.210938 32.300781 162.226562 31.863281 162.503906 31.597656 Z M 162.503906 31.597656 "/>
<path style="fill-rule:nonzero;fill:rgb(54.901963%,72.941178%,40.000001%);fill-opacity:1;stroke-width:8;stroke-linecap:butt;stroke-linejoin:miter;stroke:rgb(34.509805%,35.294119%,65.882355%);stroke-opacity:1;stroke-miterlimit:10;" d="M 393.789062 278.632812 C 414.960938 330.46875 393.613281 379.199219 388.710938 389.707031 C 328.808594 401.855469 272.773438 370.917969 256.328125 323.535156 C 239.980469 276.445312 263.457031 212.929688 301.601562 204.121094 C 338.808594 195.546875 378.652344 241.679688 393.789062 278.632812 Z M 393.789062 278.632812 " transform="matrix(0.2,0,0,0.2,0,0)"/>
<path style="fill-rule:nonzero;fill:rgb(54.901963%,72.941178%,40.000001%);fill-opacity:1;stroke-width:8;stroke-linecap:butt;stroke-linejoin:miter;stroke:rgb(34.509805%,35.294119%,65.882355%);stroke-opacity:1;stroke-miterlimit:10;" d="M 321.171875 127.988281 C 309.84375 144.355469 288.945312 152.675781 267.460938 149.355469 C 247.519531 128.59375 245.664062 98.496094 260.371094 79.980469 C 273.808594 63.085938 302.246094 54.335938 319.296875 67.851562 C 336.503906 81.484375 333.144531 110.703125 321.171875 127.988281 Z M 321.171875 127.988281 " transform="matrix(0.2,0,0,0.2,0,0)"/>
<path style="fill-rule:nonzero;fill:rgb(54.901963%,72.941178%,40.000001%);fill-opacity:1;stroke-width:8;stroke-linecap:butt;stroke-linejoin:miter;stroke:rgb(34.509805%,35.294119%,65.882355%);stroke-opacity:1;stroke-miterlimit:10;" d="M 265.46875 146.25 C 283.828125 167.109375 288.066406 198.203125 276.347656 226.191406 C 241.503906 246.230469 200.117188 238.613281 179.980469 212.480469 C 161.601562 188.613281 159.316406 147.128906 183.359375 128.574219 C 207.636719 109.84375 246.074219 124.21875 265.46875 146.25 Z M 265.46875 146.25 " transform="matrix(0.2,0,0,0.2,0,0)"/>
<path style=" stroke:none;fill-rule:nonzero;fill:rgb(34.509805%,35.294119%,65.882355%);fill-opacity:1;" d="M 41.273438 24.644531 C 40.871094 24.644531 40.542969 24.316406 40.542969 23.910156 L 40.542969 20.4375 C 40.542969 20.035156 40.871094 19.707031 41.273438 19.707031 C 41.679688 19.707031 42.007812 20.035156 42.007812 20.4375 L 42.007812 23.910156 C 42.007812 24.316406 41.679688 24.644531 41.273438 24.644531 Z M 41.273438 24.644531 "/>
<path style=" stroke:none;fill-rule:nonzero;fill:rgb(34.509805%,35.294119%,65.882355%);fill-opacity:1;" d="M 55.171875 13.308594 C 54.765625 13.308594 54.4375 12.980469 54.4375 12.574219 L 54.4375 9.101562 C 54.4375 8.699219 54.765625 8.371094 55.171875 8.371094 C 55.574219 8.371094 55.902344 8.699219 55.902344 9.101562 L 55.902344 12.574219 C 55.902344 12.980469 55.574219 13.308594 55.171875 13.308594 Z M 55.171875 13.308594 "/>
<path style=" stroke:none;fill-rule:nonzero;fill:rgb(34.509805%,35.294119%,65.882355%);fill-opacity:1;" d="M 34.722656 28.546875 C 34.546875 28.910156 34.109375 29.0625 33.746094 28.886719 L 30.613281 27.382812 C 30.25 27.210938 30.097656 26.773438 30.273438 26.40625 C 30.449219 26.042969 30.882812 25.890625 31.246094 26.066406 L 34.378906 27.570312 C 34.742188 27.742188 34.898438 28.183594 34.722656 28.546875 Z M 34.722656 28.546875 "/>
<path style=" stroke:none;fill-rule:nonzero;fill:rgb(34.509805%,35.294119%,65.882355%);fill-opacity:1;" d="M 66.71875 29.460938 C 66.546875 29.824219 66.109375 29.976562 65.742188 29.800781 L 62.613281 28.296875 C 62.246094 28.125 62.09375 27.6875 62.269531 27.320312 C 62.445312 26.957031 62.882812 26.804688 63.246094 26.980469 L 66.378906 28.484375 C 66.742188 28.65625 66.894531 29.097656 66.71875 29.460938 Z M 66.71875 29.460938 "/>
<path style=" stroke:none;fill-rule:nonzero;fill:rgb(34.509805%,35.294119%,65.882355%);fill-opacity:1;" d="M 34.273438 39.875 C 34.519531 40.195312 34.457031 40.652344 34.136719 40.898438 L 31.378906 43.011719 C 31.058594 43.257812 30.601562 43.195312 30.355469 42.875 C 30.109375 42.554688 30.171875 42.097656 30.488281 41.851562 L 33.246094 39.738281 C 33.566406 39.492188 34.027344 39.554688 34.273438 39.875 Z M 34.273438 39.875 "/>
<path style=" stroke:none;fill-rule:nonzero;fill:rgb(34.509805%,35.294119%,65.882355%);fill-opacity:1;" d="M 51.359375 64.402344 C 51.449219 64.796875 51.203125 65.1875 50.808594 65.28125 L 47.425781 66.066406 C 47.03125 66.15625 46.640625 65.910156 46.546875 65.519531 C 46.457031 65.125 46.703125 64.730469 47.097656 64.640625 L 50.480469 63.855469 C 50.875 63.761719 51.265625 64.007812 51.359375 64.402344 Z M 51.359375 64.402344 "/>
<path style=" stroke:none;fill-rule:nonzero;fill:rgb(34.509805%,35.294119%,65.882355%);fill-opacity:1;" d="M 85.246094 61.03125 C 85.246094 61.433594 84.921875 61.761719 84.515625 61.761719 L 81.042969 61.761719 C 80.636719 61.761719 80.308594 61.433594 80.308594 61.03125 C 80.308594 60.625 80.636719 60.296875 81.042969 60.296875 L 84.515625 60.296875 C 84.921875 60.296875 85.246094 60.625 85.246094 61.03125 Z M 85.246094 61.03125 "/>
<path style=" stroke:none;fill-rule:nonzero;fill:rgb(34.509805%,35.294119%,65.882355%);fill-opacity:1;" d="M 78.175781 44.617188 C 78.453125 44.910156 78.441406 45.375 78.144531 45.652344 L 75.613281 48.035156 C 75.320312 48.308594 74.859375 48.296875 74.578125 48.003906 C 74.300781 47.707031 74.316406 47.246094 74.613281 46.96875 L 77.140625 44.585938 C 77.4375 44.308594 77.898438 44.320312 78.175781 44.617188 Z M 78.175781 44.617188 "/>
<path style=" stroke:none;fill-rule:nonzero;fill:rgb(34.509805%,35.294119%,65.882355%);fill-opacity:1;" d="M 68.667969 10.609375 C 68.945312 10.902344 68.933594 11.367188 68.636719 11.644531 L 66.105469 14.027344 C 65.8125 14.300781 65.351562 14.289062 65.070312 13.992188 C 64.792969 13.699219 64.808594 13.238281 65.105469 12.960938 L 67.632812 10.578125 C 67.929688 10.300781 68.390625 10.3125 68.667969 10.609375 Z M 68.667969 10.609375 "/>
<path style=" stroke:none;fill-rule:nonzero;fill:rgb(34.509805%,35.294119%,65.882355%);fill-opacity:1;" d="M 60.386719 75.070312 C 60.769531 75.207031 60.964844 75.625 60.828125 76.003906 L 59.660156 79.277344 C 59.523438 79.65625 59.105469 79.855469 58.726562 79.71875 C 58.347656 79.582031 58.148438 79.164062 58.285156 78.785156 L 59.453125 75.511719 C 59.589844 75.132812 60.007812 74.933594 60.386719 75.070312 Z M 60.386719 75.070312 "/>
<path style="fill-rule:nonzero;fill:rgb(54.901963%,72.941178%,40.000001%);fill-opacity:1;stroke-width:8;stroke-linecap:butt;stroke-linejoin:miter;stroke:rgb(34.509805%,35.294119%,65.882355%);stroke-opacity:1;stroke-miterlimit:10;" d="M 633.574219 482.285156 C 646.230469 555.800781 595.683594 649.707031 503.203125 665.234375 C 416.679688 679.746094 334.765625 621.386719 320.234375 534.882812 C 304.550781 441.386719 379.179688 363.847656 450.605469 351.933594 C 501.347656 343.496094 543.632812 369.296875 555.449219 376.503906 C 570.273438 385.546875 622.988281 420.800781 633.554688 482.285156 Z M 633.574219 482.285156 " transform="matrix(0.2,0,0,0.2,0,0)"/>
<path style=" stroke:none;fill-rule:nonzero;fill:rgb(34.509805%,35.294119%,65.882355%);fill-opacity:1;" d="M 91.507812 70.351562 C 91.050781 70.351562 90.6875 69.984375 90.6875 69.53125 L 90.6875 65.632812 C 90.6875 65.179688 91.054688 64.8125 91.507812 64.8125 C 91.957031 64.8125 92.324219 65.183594 92.324219 65.632812 L 92.324219 69.53125 C 92.324219 69.984375 91.957031 70.351562 91.507812 70.351562 Z M 91.507812 70.351562 "/>
<path style=" stroke:none;fill-rule:nonzero;fill:rgb(34.509805%,35.294119%,65.882355%);fill-opacity:1;" d="M 101.898438 70.820312 C 101.46875 70.675781 101.238281 70.207031 101.386719 69.777344 L 102.644531 66.089844 C 102.792969 65.660156 103.257812 65.429688 103.6875 65.574219 C 104.117188 65.722656 104.347656 66.1875 104.199219 66.617188 L 102.941406 70.308594 C 102.792969 70.734375 102.328125 70.964844 101.898438 70.820312 Z M 101.898438 70.820312 "/>
<path style=" stroke:none;fill-rule:nonzero;fill:rgb(34.509805%,35.294119%,65.882355%);fill-opacity:1;" d="M 64.429688 94.484375 C 64.40625 94.9375 64.019531 95.285156 63.566406 95.261719 L 59.675781 95.058594 C 59.222656 95.035156 58.875 94.648438 58.894531 94.199219 C 58.917969 93.746094 59.304688 93.398438 59.757812 93.421875 L 63.652344 93.621094 C 64.105469 93.644531 64.453125 94.03125 64.429688 94.484375 Z M 64.429688 94.484375 "/>
<path style=" stroke:none;fill-rule:nonzero;fill:rgb(34.509805%,35.294119%,65.882355%);fill-opacity:1;" d="M 65.113281 112.0625 C 65.335938 112.457031 65.195312 112.960938 64.800781 113.183594 L 61.40625 115.097656 C 61.011719 115.316406 60.511719 115.179688 60.289062 114.785156 C 60.066406 114.390625 60.207031 113.886719 60.601562 113.664062 L 63.996094 111.753906 C 64.390625 111.53125 64.890625 111.671875 65.113281 112.0625 Z M 65.113281 112.0625 "/>
<path style="fill:none;stroke-width:8;stroke-linecap:round;stroke-linejoin:miter;stroke:rgb(34.509805%,35.294119%,65.882355%);stroke-opacity:1;stroke-miterlimit:10;" d="M 456.757812 372.304688 C 448.730469 379.0625 449.121094 390.800781 455.351562 396.152344 C 461.152344 401.152344 471.855469 400.351562 477.792969 392.636719 C 485.507812 399.765625 495.683594 400.253906 500.234375 396.152344 C 505.488281 391.40625 505.507812 378.476562 495.3125 370.214844 " transform="matrix(0.2,0,0,0.2,0,0)"/>
</g>
</svg>
