<?xml version="1.0" encoding="UTF-8"?>
<svg xmlns="http://www.w3.org/2000/svg" xmlns:xlink="http://www.w3.org/1999/xlink" width="200" height="200" viewBox="0 0 200 200" version="1.1">
<g id="surface1">
<path style="fill:none;stroke-width:8;stroke-linecap:round;stroke-linejoin:miter;stroke:rgb(34.509805%,35.294119%,65.882355%);stroke-opacity:1;stroke-miterlimit:10;" d="M 478.007812 610 C 475.605469 627.617188 474.179688 649.316406 475.996094 674.003906 C 478.613281 709.628906 487.050781 738.925781 495 760 " transform="matrix(0.2,0,0,0.2,0,0)"/>
<path style="fill-rule:nonzero;fill:rgb(54.901963%,72.941178%,40.000001%);fill-opacity:1;stroke-width:8;stroke-linecap:butt;stroke-linejoin:miter;stroke:rgb(34.509805%,35.294119%,65.882355%);stroke-opacity:1;stroke-miterlimit:10;" d="M 406.757812 650.78125 C 387.480469 643.828125 312.285156 616.679688 290.820312 544.199219 C 267.539062 465.449219 319.804688 374.042969 382.265625 351.835938 C 438.007812 332.011719 472.402344 377.773438 557.109375 365.332031 C 606.875 358.027344 644.941406 334.882812 669.082031 316.777344 C 724.453125 414.570312 708.632812 533.59375 635.371094 603.691406 C 573.671875 662.714844 481.074219 677.636719 406.757812 650.78125 Z M 406.757812 650.78125 " transform="matrix(0.2,0,0,0.2,0,0)"/>
</g>
</svg>
