<?xml version="1.0" encoding="UTF-8"?>
<svg id="Plants" xmlns="http://www.w3.org/2000/svg" viewBox="0 0 1000 1000">
  <defs>
    <style>
      .cls-1 {
        fill: none;
        stroke-linecap: round;
      }

      .cls-1, .cls-2 {
        stroke: #585aa8;
        stroke-miterlimit: 10;
        stroke-width: 8px;
      }

      .cls-2 {
        fill: #8aca71;
      }
    </style>
  </defs>
  <path class="cls-1" d="M478,610c-2.4,17.61-3.82,39.32-2,64,2.62,35.63,11.05,64.92,19,86"/>
  <path class="cls-2" d="M655,426c-10.21-1.61-14.04,10.29-38.14,19.21-15.97,5.91-42.46,11.12-47.8,2.32-5.46-9,10.15-34.42,32.05-43.31,18.86-7.65,34.62,.09,37.89-6.23,4.81-9.29-25.3-33.62-28.46-36.15-52.58-42.01-112.76-51.49-118.28-43.61-2.61,3.72,1.22,7.21-.86,20.8-1.26,8.22-5.29,24.12-10.94,24.39-6.68,.31-12.89-21.39-12.82-31.02,.02-2.98,.54-5.73,.54-5.73,1.22-6.39,4.11-10.58,4.65-11.49,3.69-6.27-3.5-28.49-34.6-57-26.79-24.56-42.5-38.95-59.79-34.55-17.14,4.36-25.29,24.51-33.31,44.34,0,0-10.96,27.11-4.9,48.72,.23,.81,.31,1.24,.55,1.7,3.87,7.25,19.16,4.28,33.55,17.55,.03,.03,.12,.11,.25,.24,2.55,2.38,17.8,16.92,14.36,23.53-2.7,5.21-20.16,5.32-33.46-2.57-14.79-8.78-14.47-21.55-22.52-22.4-8.91-.94-16.03,14.01-35.19,49.11-23.03,42.2-31.03,53.72-26.44,58.84,5.85,6.53,22.15-8.5,50.37-5.26,18.08,2.08,39.54,11.49,39.71,21.26,.19,10.68-25.04,23.14-48.77,24.28-27.65,1.33-37.95-13.43-49.34-6.5-20.34,12.37-4.36,69.62-2.73,75.29,5.74,19.95,9.2,31.97,19.93,37.13,15.52,7.45,28.39-8.05,67.34-14.31,19.02-3.06,46.51-3.31,48.39,3.54,1.85,6.72-20.93,20.56-42.25,27.86-36.07,12.36-58.28,2.68-62,11-5.38,12.04,31.68,53.29,78,59,58.61,7.23,102.03-46.13,106.48-51.78,49.06,26.89,101.12,32.02,136.69,15.6,6.45-2.98,25.37-11.03,41.09-30.07,17.91-21.69,28.5-53.41,19.73-60.74-5.75-4.81-15.05,4.86-41,10-22.63,4.48-51.94,4.32-54-3-1.98-7.02,20.37-23.13,44.99-28.87,28.83-6.72,40.97,5.39,52.01-3.13,22.72-17.55,3.77-94.09-21-98Z"/>
</svg>