<?xml version="1.0" encoding="UTF-8"?>
<svg xmlns="http://www.w3.org/2000/svg" xmlns:xlink="http://www.w3.org/1999/xlink" width="200" height="200" viewBox="0 0 200 200" version="1.1">
<g id="surface1">
<path style="fill:none;stroke-width:8;stroke-linecap:round;stroke-linejoin:miter;stroke:rgb(34.509805%,35.294119%,65.882355%);stroke-opacity:1;stroke-miterlimit:10;" d="M 478.007812 610 C 475.605469 627.617188 474.179688 649.316406 475.996094 674.003906 C 478.613281 709.628906 487.050781 738.925781 495 760 " transform="matrix(0.2,0,0,0.2,0,0)"/>
<path style="fill-rule:nonzero;fill:rgb(54.11765%,79.215688%,44.313726%);fill-opacity:1;stroke-width:8;stroke-linecap:butt;stroke-linejoin:miter;stroke:rgb(34.509805%,35.294119%,65.882355%);stroke-opacity:1;stroke-miterlimit:10;" d="M 655 425.996094 C 644.785156 424.394531 640.957031 436.289062 616.855469 445.214844 C 600.898438 451.113281 574.394531 456.328125 569.0625 447.539062 C 563.59375 438.535156 579.21875 413.105469 601.113281 404.21875 C 619.960938 396.5625 635.722656 404.316406 639.003906 397.988281 C 643.808594 388.691406 613.691406 364.375 610.546875 361.835938 C 557.96875 319.824219 497.773438 310.351562 492.265625 318.222656 C 489.648438 321.953125 493.476562 325.449219 491.40625 339.023438 C 490.136719 347.246094 486.113281 363.144531 480.46875 363.417969 C 473.789062 363.730469 467.578125 342.03125 467.636719 332.402344 C 467.65625 329.414062 468.183594 326.679688 468.183594 326.679688 C 469.394531 320.273438 472.285156 316.09375 472.832031 315.175781 C 476.523438 308.90625 469.335938 286.699219 438.222656 258.183594 C 411.445312 233.613281 395.722656 219.238281 378.4375 223.632812 C 361.308594 227.988281 353.144531 248.144531 345.136719 267.96875 C 345.136719 267.96875 334.179688 295.078125 340.234375 316.699219 C 340.46875 317.5 340.546875 317.929688 340.78125 318.398438 C 344.648438 325.644531 359.941406 322.675781 374.335938 335.9375 C 374.355469 335.976562 374.453125 336.054688 374.570312 336.171875 C 377.128906 338.554688 392.382812 353.105469 388.945312 359.707031 C 386.230469 364.921875 368.789062 365.039062 355.488281 357.148438 C 340.683594 348.359375 341.015625 335.585938 332.96875 334.746094 C 324.042969 333.808594 316.933594 348.75 297.773438 383.847656 C 274.746094 426.054688 266.738281 437.578125 271.328125 442.695312 C 277.1875 449.21875 293.476562 434.199219 321.699219 437.421875 C 339.785156 439.511719 361.230469 448.925781 361.40625 458.691406 C 361.601562 469.375 336.367188 481.835938 312.636719 482.96875 C 284.980469 484.296875 274.6875 469.53125 263.300781 476.464844 C 242.96875 488.847656 258.945312 546.09375 260.566406 551.757812 C 266.308594 571.71875 269.765625 583.730469 280.507812 588.886719 C 296.015625 596.347656 308.886719 580.839844 347.832031 574.570312 C 366.855469 571.523438 394.355469 571.269531 396.230469 578.125 C 398.085938 584.84375 375.292969 598.671875 353.984375 605.976562 C 317.910156 618.339844 295.703125 608.652344 291.972656 616.972656 C 286.601562 629.023438 323.652344 670.273438 369.980469 675.976562 C 428.59375 683.203125 472.011719 629.84375 476.464844 624.199219 C 525.527344 651.09375 577.578125 656.210938 613.144531 639.804688 C 619.609375 636.816406 638.515625 628.769531 654.238281 609.726562 C 672.148438 588.046875 682.734375 556.328125 673.964844 548.984375 C 668.222656 544.179688 658.925781 553.847656 632.96875 558.984375 C 610.332031 563.476562 581.035156 563.300781 578.964844 555.996094 C 576.992188 548.964844 599.335938 532.851562 623.964844 527.128906 C 652.792969 520.390625 664.921875 532.519531 675.976562 523.984375 C 698.691406 506.445312 679.746094 429.902344 654.960938 425.996094 Z M 655 425.996094 " transform="matrix(0.2,0,0,0.2,0,0)"/>
</g>
</svg>
