<?xml version="1.0" encoding="UTF-8"?>
<svg xmlns="http://www.w3.org/2000/svg" xmlns:xlink="http://www.w3.org/1999/xlink" width="200" height="200" viewBox="0 0 200 200" version="1.1">
<g id="surface1">
<path style="fill-rule:nonzero;fill:rgb(54.11765%,79.215688%,44.313726%);fill-opacity:1;stroke-width:8;stroke-linecap:butt;stroke-linejoin:miter;stroke:rgb(34.509805%,35.294119%,65.882355%);stroke-opacity:1;stroke-miterlimit:10;" d="M 319.648438 725 L 442.890625 725 C 458.378906 671.113281 473.398438 592.949219 466.09375 499.140625 C 456.386719 374.238281 411.503906 278.300781 379.0625 221.992188 C 349.472656 265.039062 288.886719 365.957031 283.007812 506.992188 C 279.003906 603.066406 301.953125 679.667969 319.648438 725 Z M 319.648438 725 " transform="matrix(0.2,0,0,0.2,0,0)"/>
<path style="fill-rule:nonzero;fill:rgb(54.11765%,79.215688%,44.313726%);fill-opacity:1;stroke-width:8;stroke-linecap:butt;stroke-linejoin:miter;stroke:rgb(34.509805%,35.294119%,65.882355%);stroke-opacity:1;stroke-miterlimit:10;" d="M 512.65625 725 L 635.898438 725 C 651.386719 671.113281 666.40625 592.949219 659.101562 499.140625 C 649.375 374.238281 604.492188 278.300781 572.050781 221.992188 C 542.460938 265.039062 481.875 365.957031 475.996094 506.992188 C 471.992188 603.066406 494.960938 679.667969 512.65625 725 Z M 512.65625 725 " transform="matrix(0.2,0,0,0.2,0,0)"/>
<path style="fill-rule:nonzero;fill:rgb(54.11765%,79.215688%,44.313726%);fill-opacity:1;stroke-width:8;stroke-linecap:butt;stroke-linejoin:miter;stroke:rgb(34.509805%,35.294119%,65.882355%);stroke-opacity:1;stroke-miterlimit:10;" d="M 419.648438 725 L 542.890625 725 C 558.378906 671.113281 573.398438 592.949219 566.09375 499.140625 C 556.386719 374.238281 511.503906 278.300781 479.0625 221.992188 C 449.472656 265.039062 388.886719 365.957031 383.007812 506.992188 C 379.003906 603.066406 401.953125 679.667969 419.648438 725 Z M 419.648438 725 " transform="matrix(0.2,0,0,0.2,0,0)"/>
</g>
</svg>
