<?xml version="1.0" encoding="UTF-8"?>
<svg id="Plants" xmlns="http://www.w3.org/2000/svg" viewBox="0 0 1000 1000">
  <defs>
    <style>
      .cls-1 {
        fill: #8aca71;
        stroke: #585aa8;
        stroke-miterlimit: 10;
        stroke-width: 8px;
      }
    </style>
  </defs>
  <path class="cls-1" d="M319.65,725h123.24c15.49-53.88,30.51-132.05,23.21-225.86-9.72-124.91-54.6-220.83-87.04-277.14-29.59,43.04-90.18,143.95-96.06,285-4,96.07,18.96,172.66,36.65,218Z"/>
  <path class="cls-1" d="M512.65,725h123.24c15.49-53.88,30.51-132.05,23.21-225.86-9.72-124.91-54.6-220.83-87.04-277.14-29.59,43.04-90.18,143.95-96.06,285-4,96.07,18.96,172.66,36.65,218Z"/>
  <path class="cls-1" d="M419.65,725h123.24c15.49-53.88,30.51-132.05,23.21-225.86-9.72-124.91-54.6-220.83-87.04-277.14-29.59,43.04-90.18,143.95-96.06,285-4,96.07,18.96,172.66,36.65,218Z"/>
</svg>