<?xml version="1.0" encoding="UTF-8"?>
<svg xmlns="http://www.w3.org/2000/svg" xmlns:xlink="http://www.w3.org/1999/xlink" width="200" height="200" viewBox="0 0 200 200" version="1.1">
<g id="surface1">
<path style="fill-rule:nonzero;fill:rgb(54.11765%,79.215688%,44.313726%);fill-opacity:1;stroke-width:8;stroke-linecap:butt;stroke-linejoin:miter;stroke:rgb(34.509805%,35.294119%,65.882355%);stroke-opacity:1;stroke-miterlimit:10;" d="M 324.003906 725 L 443.457031 725 C 437.402344 689.160156 430.449219 635.449219 430.410156 569.902344 C 430.332031 465.800781 448.710938 418.125 418.847656 389.882812 C 388.984375 361.679688 329.804688 362.167969 299.765625 390.605469 C 268.59375 420.097656 275.683594 473.144531 290.917969 576.308594 C 300.175781 639.140625 313.515625 690.097656 324.003906 725 Z M 324.003906 725 " transform="matrix(0.2,0,0,0.2,0,0)"/>
<path style="fill-rule:nonzero;fill:rgb(54.11765%,79.215688%,44.313726%);fill-opacity:1;stroke-width:8;stroke-linecap:butt;stroke-linejoin:miter;stroke:rgb(34.509805%,35.294119%,65.882355%);stroke-opacity:1;stroke-miterlimit:10;" d="M 626.914062 725 C 587.109375 725 547.285156 725 507.460938 725 C 513.535156 689.160156 520.488281 635.449219 520.527344 569.902344 C 520.585938 465.800781 502.207031 418.125 532.089844 389.882812 C 561.953125 361.679688 621.132812 362.167969 651.171875 390.605469 C 682.324219 420.097656 675.234375 473.144531 660.019531 576.308594 C 650.742188 639.140625 637.402344 690.097656 626.914062 725 Z M 626.914062 725 " transform="matrix(0.2,0,0,0.2,0,0)"/>
<path style="fill-rule:nonzero;fill:rgb(54.11765%,79.215688%,44.313726%);fill-opacity:1;stroke-width:8;stroke-linecap:butt;stroke-linejoin:miter;stroke:rgb(34.509805%,35.294119%,65.882355%);stroke-opacity:1;stroke-miterlimit:10;" d="M 436.757812 720.996094 L 524.746094 720.996094 C 531.660156 684.140625 540.566406 632.402344 548.652344 570 C 565.761719 438.164062 559.0625 414.882812 544.824219 399.003906 C 515.488281 366.210938 451.601562 361.972656 418.339844 390.605469 C 382.714844 421.269531 390.527344 482.402344 402.324219 573.007812 C 410.488281 635.761719 424.980469 686.425781 436.757812 720.996094 Z M 436.757812 720.996094 " transform="matrix(0.2,0,0,0.2,0,0)"/>
</g>
</svg>
