<?xml version="1.0" encoding="UTF-8"?>
<svg id="Plants" xmlns="http://www.w3.org/2000/svg" viewBox="0 0 1000 1000">
  <defs>
    <style>
      .cls-1 {
        fill: #8aca71;
        stroke: #585aa8;
        stroke-miterlimit: 10;
        stroke-width: 8px;
      }
    </style>
  </defs>
  <path class="cls-1" d="M324.01,725h119.45c-6.06-35.84-13.01-89.56-13.05-155.1-.07-104.1,18.31-151.78-11.57-180.01-29.86-28.21-89.04-27.73-119.08,.71-31.16,29.5-24.07,82.54-8.85,185.7,9.27,62.84,22.61,113.8,33.1,148.7Z"/>
  <path class="cls-1" d="M626.92,725c-39.82,0-79.63,0-119.45,0,6.06-35.84,13.01-89.56,13.05-155.1,.07-104.1-18.31-151.78,11.57-180.01,29.86-28.21,89.04-27.73,119.08,.71,31.16,29.5,24.07,82.54,8.85,185.7-9.27,62.84-22.61,113.8-33.1,148.7Z"/>
  <path class="cls-1" d="M436.76,721h87.99c6.91-36.86,15.81-88.59,23.91-151,17.11-131.83,10.4-155.11-3.83-171-29.34-32.78-93.23-37.03-126.49-8.4-35.62,30.66-27.81,91.81-16.02,182.4,8.17,62.77,22.66,113.42,34.43,148Z"/>
</svg>