<?xml version="1.0" encoding="UTF-8"?>
<svg id="Plants" xmlns="http://www.w3.org/2000/svg" viewBox="0 0 1000 1000">
  <defs>
    <style>
      .cls-1 {
        fill: none;
        stroke-linecap: round;
      }

      .cls-1, .cls-2 {
        stroke: #585aa8;
        stroke-miterlimit: 10;
        stroke-width: 8px;
      }

      .cls-2 {
        fill: #8aca71;
      }
    </style>
  </defs>
  <path class="cls-1" d="M497,735c-7.41-16.14-17.56-43.59-19-79-1.28-31.44,4.79-56.88,10-73"/>
  <path class="cls-2" d="M478,656c-21.83,11.88-64.09,30.97-120,32-37,.68-67.25-6.78-87.49-13.61-.89-7.91-1.28-18.9,.91-31.68,2.4-14.06,7.04-25.13,10.86-32.59-11.46-8.44-32.04-25.94-47.07-55.22-13.28-25.87-16.42-49.6-17.2-63.37,8.67-9.7,25.47-25.93,51.6-37.12,22.58-9.67,42.8-11.56,55.22-11.77,7.01-29.29,22.8-78.78,60.65-129.45,36.81-49.28,78.38-78.11,104.11-93.24,21.83,14.1,60.3,43.07,90.53,93.24,25.31,42.01,34.38,81.53,38.02,105.92,15.37,1.52,40.62,6,67.89,20.82,22.78,12.38,38.42,27.32,47.98,38.02-4.63,16.37-12.29,37.31-25.35,59.75-10.8,18.56-22.45,33.25-32.59,44.36,4.56,7.14,9.73,16.84,13.58,28.97,5.99,18.87,6.19,35.42,5.43,46.17-17.56,9.73-57.78,28.94-112.07,27.81-50.44-1.05-87.62-19.11-105-29Z"/>
</svg>