<?xml version="1.0" encoding="UTF-8"?>
<svg xmlns="http://www.w3.org/2000/svg" xmlns:xlink="http://www.w3.org/1999/xlink" width="200" height="200" viewBox="0 0 200 200" version="1.1">
<g id="surface1">
<path style="fill:none;stroke-width:8;stroke-linecap:round;stroke-linejoin:miter;stroke:rgb(34.509805%,35.294119%,65.882355%);stroke-opacity:1;stroke-miterlimit:10;" d="M 496.992188 735 C 489.589844 718.867188 479.433594 691.40625 478.007812 655.996094 C 476.71875 624.550781 482.792969 599.121094 488.007812 583.007812 " transform="matrix(0.2,0,0,0.2,0,0)"/>
<path style="fill-rule:nonzero;fill:rgb(54.11765%,79.215688%,44.313726%);fill-opacity:1;stroke-width:8;stroke-linecap:butt;stroke-linejoin:miter;stroke:rgb(34.509805%,35.294119%,65.882355%);stroke-opacity:1;stroke-miterlimit:10;" d="M 478.007812 655.996094 C 456.171875 667.871094 413.90625 686.972656 358.007812 688.007812 C 320.996094 688.671875 290.742188 681.210938 270.507812 674.394531 C 269.628906 666.484375 269.238281 655.488281 271.425781 642.714844 C 273.828125 628.652344 278.457031 617.578125 282.285156 610.117188 C 270.820312 601.679688 250.234375 584.179688 235.214844 554.902344 C 221.933594 529.023438 218.789062 505.292969 218.007812 491.523438 C 226.679688 481.835938 243.476562 465.605469 269.609375 454.414062 C 292.1875 444.746094 312.402344 442.851562 324.824219 442.636719 C 331.835938 413.359375 347.636719 363.867188 385.488281 313.183594 C 422.285156 263.90625 463.867188 235.078125 489.589844 219.941406 C 511.425781 234.042969 549.882812 263.027344 580.117188 313.183594 C 605.429688 355.195312 614.492188 394.726562 618.144531 419.101562 C 633.515625 420.625 658.769531 425.117188 686.035156 439.921875 C 708.808594 452.304688 724.453125 467.246094 734.003906 477.949219 C 729.375 494.316406 721.71875 515.253906 708.652344 537.695312 C 697.851562 556.269531 686.210938 570.957031 676.074219 582.050781 C 680.625 589.199219 685.800781 598.90625 689.648438 611.035156 C 695.644531 629.902344 695.839844 646.445312 695.078125 657.207031 C 677.519531 666.933594 637.304688 686.132812 583.007812 685.019531 C 532.578125 683.964844 495.390625 665.898438 478.007812 656.015625 Z M 478.007812 655.996094 " transform="matrix(0.2,0,0,0.2,0,0)"/>
</g>
</svg>
