<?xml version="1.0" encoding="UTF-8"?><svg id="Laag_1" xmlns="http://www.w3.org/2000/svg" viewBox="0 0 192.61 279.29"><defs><style>.cls-1{fill:#2c2738;}.cls-2{opacity:.69;}.cls-3{fill:#fff;}.cls-4{fill:#e3b2d3;}.cls-5{fill:#5f3016;}.cls-6{fill:none;stroke:#1d1d1b;stroke-miterlimit:10;}.cls-7{fill:#a05423;}.cls-8{fill:#f5f3f6;}.cls-9{fill:#efedf1;}.cls-10{fill:#bbe3f8;}.cls-11{fill:#5caf69;}.cls-12{fill:#342e3d;}.cls-13{fill:#1d1d1b;}.cls-14{fill:#7abe7e;}.cls-15{fill:#fefefe;}</style></defs><g><path class="cls-14" d="M91.55,208.31c-4.11-1.68-5.49-5.11-5.86-9.17-.18-1.93,0-3.85,.3-5.75,.42-2.66,2.09-4.56,3.94-6.33,.57-.55,1.09-1.16,1.71-1.62,1.85-1.39,2.19-3.32,2.2-5.45,0-.88-.33-1.13-1.13-1.2-3.52-.3-6.08,1.17-7.89,4.12-1.58,2.57-1.93,5.48-2.32,8.38-.16,1.17-.42,2.32-1,3.37-.64,1.13-1.68,1.47-2.61,.62-4.1-3.75-7.81-10.15-2.43-16.2,2.1-2.36,4.62-4.29,6.64-6.72,.67-.81,1.39-1.58,1.82-2.55,.57-1.28,.22-1.99-1.14-2.32-2.43-.6-4.49,.24-6.32,1.75-2.73,2.25-4.36,5.32-6,8.36-.33,.62-.64,1.24-.96,1.86-1.02,1.94-1.46,2.09-3.52,1.29-2.48-.98-3.6-3.07-3.63-5.46-.12-8.8,2.3-16.78,8.68-23.12,3.33-3.31,7.54-4.8,12.29-4.59,.27,.4,.52,.81,.81,1.19,6.46,8.35,12.5,17,18.13,25.95,.55,.88,.92,1.93,1.93,2.5-6.07-10.44-12.84-20.41-20.13-30.03,2.92-6.46,6.71-12.22,12.79-16.18,.25-.16,.48-.36,.72-.55,.37-.11,.74-.23,1.11-.34,.15-.15,.31-.29,.46-.44,.37-.11,.73-.21,1.1-.32,1.13-.11,2.19-.59,3.35-.52,.76,.04,1.02-.29,1.04-1.09,.09-4.27,1.69-7.98,4.35-11.28,2.3-2.86,5.19-5.08,8.11-7.24,.77-.57,.68-.89,.03-1.44-2.38-2.01-7.35-2.14-9.84-.23-.46,.1-.93,.2-1.39,.31-.76,.55-1.72,.79-2.37,1.53-.4,.09-.76,.25-1.02,.59-1.21,.77-2.4,1.56-3.44,2.57l-1,.44c-2.8,1.82-5.7,3.34-9.14,3.55-3.88,.23-5.85-2.5-6.11-5.71-.02-.26-.03-.52-.04-.79-.07-3.54,1.6-6.16,4.32-8.24,2.27-1.73,4.83-2.78,7.58-3.45,.43-.08,.85-.17,1.28-.25,.3,0,.58-.05,.81-.26,2.83-.28,5.67-.27,8.5-.34,.3,.03,.6,.06,.9,.1,2.3,.37,4.64,.52,6.88,1.26,1.19,.4,2.36,.83,3.4,1.57,.59,.28,1.16,.6,1.77,.84,3.39,1.32,6.64,2.92,9.77,4.77,7.43,4.37,14.14,9.65,20.09,15.9,.36,.38,.66,.91,1.28,.98,.17-.39-.08-.56-.25-.73-3.02-3.1-6.13-6.11-9.48-8.85-4.99-4.09-10.31-7.67-16.07-10.58-2.21-1.12-4.43-2.28-6.89-2.84,.01-6.54,1.68-12.54,5.93-17.64,4.81-5.77,13.24-8.68,21.18-4.53,4.41,2.31,10.19,6.48,13.21,9.85-1.9,.36-3.72,.69-5.54,1.04-4.33,.85-8.62,1.85-12.74,3.47-1.47,.58-2.88,1.26-4.11,2.29-1.09,.91-1.48,2.13-.98,3.26,.53,1.22,1.59,1.4,2.75,1.24,2.96-.4,5.56-1.73,7.65-3.74,3.49-3.34,7.52-3.67,11.69-2.21,5.03,1.76,9.23,4.92,12.77,8.91,.23,.26,.42,.56,.6,.86,1.02,1.7,.67,2.76-1.25,3.21-3.06,.71-6.16,1.25-9.23,1.91-2.09,.45-4.19,.9-6.07,1.99-.99,.57-1.84,1.25-1.47,2.6,.37,1.34,1.4,1.53,2.57,1.51,3.09-.04,5.87-1.26,8.69-2.3,2.3-.85,4.57-1.69,7.08-1.74,3.67-.08,6.41,1.52,8.44,4.43,2.34,3.35,3.22,7.22,3.83,11.17,.18,1.17,.24,2.35,.45,3.51,.2,1.08,.03,1.55-1.26,1.49-3.33-.17-6.65-.03-9.95,.48-.99,.16-1.97,.38-2.9,.76-.83,.34-1.74,.76-1.69,1.77,.05,1.11,1.09,1.41,1.98,1.62,1.71,.41,3.45,.54,5.21,.55,3.07,0,6.13,.02,9.2-.03,1.19-.02,1.51,.49,1.43,1.59-.32,4.34-1.47,8.51-2.73,12.64-2.17,7.12-4.83,14.04-9.18,20.17-.76,1.07-1.65,2.04-2.46,3.07-.38,.48-.78,.53-1.21,.12-.57-.55-1.17-1.07-1.65-1.68-4.2-5.36-7.88-11.01-10.02-17.54-.69-2.12-.2-4.36-.7-6.5-.18-.77-.34-1.53-.73-2.23-.19-.35-.43-.75-.88-.65-.46,.1-.46,.56-.51,.95-.32,2.16-.34,4.36-.75,6.51-.78,4.12-2.25,5.36-6.78,3.15-2.97-1.46-4.3-4.91-3.67-8.55,.65-3.76,2.2-7.26,3.17-10.93,.32-1.21,.71-2.44,.46-3.73-.31-1.56-1.35-2.01-2.68-1.12-1.04,.7-1.75,1.7-2.32,2.8-1.71,3.33-2.26,6.95-2.65,10.61-.22,2-.33,4.01-.54,6.01-.28,2.75-1.23,3.44-3.9,2.86-.86-.19-1.46-.41-1.33,.95,.13,1.37-1.16,2.44-2.83,2.4-3.06-.08-6.12-.25-9.18-.45-2.37-.16-4.73-.19-7.04,.41-1.54,.4-2.44,1.4-2.55,2.65-.18,2.12,.81,3.24,3.06,3.34,2.86,.13,5.66-.44,8.5-.64,2.57-.18,5.16-.46,7.72-.1,4.07,.57,6.78,3.04,8.58,6.59,1.67,3.3,2.39,6.84,2.37,10.52-.02,3.14-1.56,4.32-4.65,3.71-3-.59-5.6-2.15-8.34-3.4-2.59-1.18-5.23-2.19-8.06-2.63-2.06-.32-3.81,.27-4.56,1.56-1.11,1.91-.38,4.99,1.49,6.22,1.05,.69,2.23,.98,3.47,1.07,3.61,.26,7.16-.3,10.73-.66,1-.1,2.01-.17,3.01-.11,3.11,.2,4.65,1.9,5.04,5.76,.25,2.57,.28,5.16-.21,7.72-.66,3.41-2.55,4.45-5.68,2.92-3.37-1.65-6.56-3.66-10.2-4.71-1.26-.36-2.51-.75-3.85-.68-.52,.03-.97,.14-1.21,.62-.26,.52,.06,.93,.38,1.29,.91,1.04,2.11,1.69,3.27,2.39,2.98,1.83,5.95,3.68,8.61,5.98,4.29,3.7,5.03,10.96,1.58,15.21-1.08,1.33-2.57,2.03-3.97,2.9-1.67,.56-3.39,.68-5.13,.63-.82-.02-1.71,.03-2.45-.26-2.35-.93-4.11-2.58-5.38-4.79-.86-1.49-1.33-3.13-2.04-4.68-.25-.97-.5-1.94-.75-2.91-.02-.92-.25-1.81-.49-2.69-.33-3.13-.66-6.27-1.02-9.72-2.62,2.8-3.49,5.91-3.81,9.25-.16,.89-.32,1.78-.48,2.67-.24,.28-.33,.71-.83,.73-2.5,.12-5.02,.39-7.28-1.09-.75-.75-1.17-1.68-1.41-2.69-.12-2.75,.79-5.23,1.99-7.63,.99-1.98,2.03-3.95,2.63-6.1,.5-1.8,.62-3.61,.13-5.43-.47-1.75-1.63-2.19-3.14-1.22-1.01,.65-1.78,1.54-2.41,2.55-.04,.16-.08,.31-.13,.47l.03,.04c-1.01,.63-1.19,1.73-1.54,2.73-.63,2.21-1.16,4.43-1.25,6.74-.31,1.58-.73,3.15-.76,4.77-.39,.95-.42,2.03-1.07,2.89-.48,.13-.96,.24-1.44,.03Zm19.35-21.36l-.06-.04,.04,.05c0,.44,.14,.81,.53,1.05l.05,.04-.04-.05c0-.44-.13-.81-.52-1.06Zm-1.59-2.61c.05,.35,.23,.61,.53,.79,0,.44,.14,.81,.53,1.05l.05,.04-.04-.05c0-.44-.14-.81-.53-1.05-.05-.35-.22-.61-.52-.79-.03-.29,0-.63-.41-.78-.09,.46,.16,.62,.39,.79Zm-3.13-5.28c-.05-.43-.07-.88-.62-1.13-.06,.61,.25,.89,.58,1.15,.55,1.45,1.7,3.22,2.38,3.66-.5-1.37-1.55-3.02-2.35-3.68Zm-10.58-28.44c.15,.31,.39,.52,.73,.61,.15,.23,.37,.29,.62,.25,.3,.24,.65,.27,1.02,.26,.85-.02,1.69-.06,2.43-.53,.27-.1,.54-.19,.81-.29,2.22-.88,4.02-2.43,5.95-3.78,3.95-2.76,8.13-4.76,13.12-4.45,.59,.04,1.25,.59,1.71,.17,.49-.45-.04-1.15-.08-1.73-.24-4.44,1.66-7.94,4.66-10.99,1.29-1.31,2.65-2.55,3.77-4.02,.98-1.28,1.41-2.66,1.09-4.29-.35-1.79-1.35-2.25-2.87-1.2-1.02,.7-1.81,1.65-2.58,2.6-2.58,3.16-3.76,6.95-4.84,10.79-.52,1.84-.97,3.71-1.82,5.45-.55,1.12-1.37,1.6-2.65,1.39-1.34-.22-2.68-.34-3.96-.85-.47-.19-.94-.17-1.42-.03-1.76,.52-3.57,.78-5.37,1.07-1.52,.24-3.16,0-4.55,.94-.26,.02-.53,.03-.79,.05-.54,.21-1.13,.33-1.57,.76-.4,.08-.76,.24-1.03,.57-.43,.11-.71,.39-.88,.79-.46,.11-.76,.42-.98,.82-.85,.63-1.32,1.55-1.48,2.52-.19,1.13-.46,2.43,.94,3.14Zm56.97-25.84c-.45,.06-.54,.19-.47,.3,.11,.17,.26,.36,.44,.43,.22,.08,.29-.11,.22-.31-.08-.2-.18-.39-.19-.42Zm2.48,3.46s-.05,.05-.07,.08c.05,.02,.1,.05,.15,.07,0-.03,.02-.08,0-.1-.02-.03-.06-.03-.09-.05Zm-1.03-1.13s.08-.02,.09-.05c.01-.03-.01-.07-.02-.1-.05,.03-.1,.06-.15,.08,.03,.02,.05,.05,.08,.07Z"/><path class="cls-11" d="M107.17,97.57c-.3-.03-.6-.06-.9-.1,.28-1.23,.53-2.48,.84-3.7,.16-.63,.16-.98-.65-.95-1.05,.04-1.96-.46-2.76-1.07-1.21-.94-2.36-1.94-3.52-2.94-1.75-1.52-3.48-3.04-5.79-4.16,1.34,4.46,2.61,8.76,3.37,13.17-.23,.21-.51,.27-.81,.26-.7-4.58-2.07-8.99-3.43-13.41-.17-.54-.61-.67-1.08-.83-2.3-.76-4.64-.84-6.99-.42-2.06,.37-2.46,1.45-1.24,3.13,.41,.56,.88,1.09,1.38,1.58,1.97,1.93,4.12,3.66,6.36,5.27,1.77,1.28,3.04,2.86,3.72,4.92-2.75,.67-5.31,1.72-7.58,3.45-2.73,2.08-4.4,4.7-4.32,8.24-2.36-2.09-3.97-4.75-5.66-7.36-.85-1.32-1.66-2.68-2.56-3.97-1.04-1.47-1.88-1.72-3.2-1.14-1.34,.6-1.98,1.81-1.76,3.3,.32,2.18,1.6,3.85,2.94,5.47,1.62,1.96,3.44,3.74,5.23,5.54,3.65,3.67,4.01,7.98,.82,12.02-2.96,3.74-6.69,6.39-11.53,7.18-1.98,.32-3.1-.5-3.45-2.46-.48-2.64-.19-5.33-.5-7.99-.41-3.52-1.52-6.73-3.77-9.48-.68-.83-1.44-1.85-2.71-1.45-1.21,.39-1.23,1.63-1.32,2.65-.21,2.56,.65,4.9,1.63,7.21,1.07,2.53,2.45,4.94,2.91,7.7,.53,3.14-1.63,7.05-4.57,8.28-1.79,.75-3.45,.49-4.94-.66-1.57-1.22-2.26-2.86-1.89-4.86,.23-1.26,.31-2.52-.06-3.77-.17-.57-.25-1.37-.99-1.35-.65,.02-.78,.76-.88,1.31-.37,2.02-.68,4.05-1.04,6.07-1.14,6.43-2.93,12.6-7.07,17.84-3.06,3.88-5.82,3.84-8.66-.24-2.52-3.61-4.09-7.7-5.64-11.79-1.79-4.73-4.04-9.31-5.04-14.3-1.87-9.36-1.07-18.44,3.25-27.07,.67-1.33,1.55-2.54,2.59-3.61,1.56-1.6,3.36-2.52,5.69-2.49,3.73,.05,7.27,.81,10.74,2.12,1.67,.63,3.37,1.23,5.21,1.15,.76-.03,1.58-.04,1.92-.84,.35-.83-.3-1.41-.82-1.92-2.04-2-4.63-2.92-7.34-3.54-2.18-.5-4.4-.72-6.63-.83-1.01-.05-2.29,.13-2.83-.96-.57-1.13,.26-2.12,.92-2.97,4.26-5.4,9.39-9.48,16.33-10.89,2.6-.53,4.84,.1,6.82,1.81,1.06,.91,2.12,1.84,3.25,2.67,1.78,1.31,3.77,1.84,5.95,1.18,1.63-.5,1.95-1.49,1.02-2.88-.78-1.16-1.92-1.9-3.09-2.6-3.29-1.98-6.91-2.9-10.7-3.19-2.92-.22-5.85-.32-8.77-.54-1.74-.13-2.13-.86-1.01-2.13,5.21-5.89,11.26-10.64,19.26-11.81,5.81-.85,11.07,1.17,15.59,4.84,4.86,3.94,7.02,9.24,7.19,15.41,.01,.44,.02,.88,0,1.31-.05,.8,.24,.85,.93,.57,2.88-1.16,5.85-2.07,8.92-2.55,4.63-.73,9.23-.9,13.64,1.15,1.19,.56,2.27,1.3,3.42,2.26,.54-1.58,1.02-3.05,1.53-4.5,1.87-5.32,3.95-10.55,6.62-15.53,.1-.18,.11-.41,.16-.61,2.61-4.2,5.26-8.38,8.99-11.73,4.26-3.82,9.16-6.08,14.96-6.12,4.4-.03,8.59,1,12.64,2.65,1.5,.61,3.1,1.06,4.47,2.11-.44,.26-.7,.01-.95-.11-2.1-1.01-4.26-1.85-6.49-2.52-4.31-1.29-8.67-2.07-13.18-1.14-6.05,1.25-10.64,4.71-14.37,9.48-1.83,2.35-3.6,4.74-4.8,7.48-1.21,1.41-1.84,3.13-2.62,4.78-2.41,5.09-4.31,10.38-6.03,15.73-.14,.43-.24,.77,.13,1.18,4.13,4.69,1.4,10.79-3.03,13.31-1.03,.59-1.55,1.25-1.72,2.36-.17,1.12-.44,2.22-.66,3.33Z"/><path class="cls-14" d="M121.11,56.88c1.21-2.75,2.97-5.14,4.8-7.48,3.72-4.77,8.32-8.23,14.37-9.48,4.51-.93,8.87-.16,13.18,1.14,2.22,.67,4.39,1.51,6.49,2.52,.26,.12,.51,.37,.95,.11-1.37-1.05-2.97-1.5-4.47-2.11-4.05-1.65-8.24-2.68-12.64-2.65-5.8,.04-10.7,2.29-14.96,6.12-3.73,3.35-6.38,7.53-8.99,11.73-6.99,.06-13.83,1.22-20.62,2.77-2.1,.48-4.23,.69-6.37,.2-1.49-.34-2.42-1.3-3.01-2.67-.42-.98-.64-2.02-.7-3.06-.29-5.09-.12-10.15,1.76-14.99,.4-1.02,.87-2,1.49-2.9,2.12-3.13,4.73-4.11,8.39-3.11,3.2,.87,6.02,2.53,8.85,4.19,1.69,1,3.37,2.02,5.08,2.99,.64,.36,1.34,.64,2.05,.86,1.1,.34,2.12,.06,2.84-.82,.76-.93,.41-1.91-.17-2.8-.85-1.32-2.04-2.28-3.44-2.96-3.75-1.83-7.82-2.69-11.76-3.96-.95-.31-1.91-.62-2.84-1-1.74-.72-1.85-1.01-.84-2.56,2.61-4.01,5.98-7.31,9.76-10.2,2.48-1.9,5.16-3.45,8.3-4.01,2.1-.38,3.16,.08,3.99,2.03,1.46,3.43,1.52,7.07,1.33,10.7-.08,1.59-.11,3.14,.4,4.66,.87,2.63,3.31,4.52,6.06,4.73,1.11,.08,1.5-.58,1.53-1.53,.04-1.42-.44-2.74-.94-4.05-.77-2.01-1.81-3.87-2.95-5.69-.79-1.26-1.48-2.57-1.88-4.01-.66-2.35-.24-4.45,1.5-6.17,3.99-3.95,8.71-6.21,14.43-6.06,.26,0,.53,.02,.78,.06,2.88,.49,3.52,1.56,2.42,4.24-1.33,3.23-3.09,6.26-4.28,9.55-.98,2.69-1.68,5.43-1.4,8.33,.13,1.32,.31,2.69,1.76,3.26,1.02,.4,2.3-.43,3.27-1.93,.94-1.45,1.22-3.07,1.24-4.75,.06-3.72-.03-7.44,.54-11.13,.09-.6,.22-1.2,.4-1.78,.72-2.29,1.41-2.79,3.77-2.77,1.09,.01,2.19-.04,3.25,.34,1.22,.44,1.72,1.29,1.46,2.56-.26,1.25-.82,2.38-1.43,3.5-2.09,3.8-3.83,7.74-4.68,12.03-.18,.91-.25,1.83-.11,2.74,.17,1.13,.94,1.44,1.88,.78,.87-.62,1.5-1.46,2.04-2.37,1.57-2.61,2.46-5.48,3.14-8.42,1.12-4.87,3.59-5.91,7.86-3.29,3.46,2.13,6.22,5.1,9.17,7.83,1.29,1.19,2.51,2.45,3.75,3.69,.74,.74,1.43,1.54,1.98,2.44,1.49,2.46,1.13,3.9-1.35,5.28-2.33,1.3-4.91,2.04-7.32,3.19-.77,.37-1.92,.5-1.6,1.82,.27,1.12,1.38,1.69,2.71,1.47,1.28-.22,2.37-.87,3.43-1.57,1.39-.92,2.74-1.88,4.13-2.8,.83-.54,1.63-.64,2.25,.34,.6,.94,1.03,1.92,.03,2.83-.68,.62-1.48,1.09-2.19,1.68-.45,.37-1.17,.73-.89,1.43,.25,.63,1,.59,1.62,.62,.88,.04,1.74-.12,2.6-.26,1.47-.25,1.73,0,2.02,1.46,.3,1.52,.17,3.06,.19,4.59,.03,2.65,.68,5.11,2.45,7.04,4.43,4.84,4.97,10.6,4.31,16.72-.34,.04-.33-.27-.39-.49-1.13-4.11-3.91-6.47-7.96-7.5-1.65-.42-3.29-.86-4.93-1.32-.92-.25-1.37-.84-1.29-1.84,.1-1.24-.13-2.44-.79-3.52-.3-.5-.62-.98-1.29-.97-.69,0-.98,.53-1.23,1.04-.43,.86-.78,1.75-1.2,2.61-.19,.38-.44,.88-.94,.77-.53-.12-.44-.69-.46-1.11-.1-2.25,.48-4.43,.73-6.64,.16-1.39,.33-2.79-.1-4.16-.49-1.56-1.69-2.21-3.53-1.96-1.21,.16-1.78,.94-1.83,2.6-.08,2.3,.62,4.49,1,6.72,.48,2.83-.1,3.74-2.93,4.25-6.49,1.17-12.56-3.75-12.75-10.32-.05-1.58,.09-3.15,.34-4.7,.17-1.05-.32-1.41-1.31-1.45-2.68-.11-4.46,1.92-4.17,4.83,.13,1.32,.55,2.55,1.11,3.75,.4,.87,.8,1.75,.93,2.71,.24,1.76-.28,2.67-1.95,3.19-.79,.25-1.62,.48-2.43,.49-5.21,.1-10.43,.36-15.57-.72-3.24-.68-5.84-2.27-7.22-5.45Zm42.65-11.65l-.04-.05,.04,.04s.06,.07,.09,.09c.03,.02,.07,0,.1,0-.07-.03-.13-.06-.2-.1Z"/><path class="cls-7" d="M91.55,208.31c.49,.21,.96,.1,1.44-.03,.33,0,.67-.02,1-.02,.37,0,.74,0,1.11,0,.34,0,.67,0,1.01,0,.26,0,.51,0,.77,0,.51,.25,1.06,.21,1.61,.22,.24,1.02,.66,1.94,1.41,2.69-1.7,.12-3.41-.08-5.1-.06-7.46,.1-14.92,.4-22.33,1.44-2.09,.3-4.18,.6-6.26,.9,.4,.28,.77,.39,1.15,.44,3.03,.39,6.06,.72,9.09,1.15,3.97,.56,7.98,.85,11.96,.94,8.73,.19,17.46,.02,26.15-1.05,.71,1.54,1.19,3.19,2.04,4.68,1.27,2.21,3.02,3.86,5.38,4.79,.74,.29,1.63,.24,2.45,.26,1.74,.04,3.46-.07,5.13-.63-.15,3.42-.41,5.45-4.65,5.84-.75,.07-1.02,.39-1.13,1.14-1.82,11.97-3.68,23.94-5.53,35.9-.35,2.26-1.34,3.34-3.49,3.63-8.43,1.11-16.9,1.67-25.4,1.29-4.72-.21-9.42-.68-14.11-1.27-2.13-.27-3.23-1.32-3.55-3.4-1.85-11.92-3.7-23.84-5.52-35.77-.16-1.02-.56-1.51-1.65-1.57-2.71-.16-3.72-1.26-4.13-3.94-.61-3.95-1.31-7.9-2-11.84-.32-1.79-.35-1.76,1.42-2.12,10.14-2.04,20.38-3.26,30.73-3.45,.34,0,.69-.1,1.03-.15Z"/><path class="cls-11" d="M99.07,112.97c.33-.15,.67-.29,1-.44,.28,2.7,.56,5.4,.88,8.46,1.49-3.79,1.89-7.44,2.55-11.03,.26-.33,.62-.5,1.02-.59-.07,1.16-.63,2.26-.45,3.45-.16-.07-.2,.04-.2,.16,0,.04,.06,.09,.1,.14,.03-.11,.05-.21,.08-.32,1.01-1.62,2.05-3.21,2.85-4.95,.46-.1,.93-.2,1.39-.31-.08,.15-.14,.32-.25,.45-4.79,6.31-6.23,13.69-6.79,21.35-.37,.11-.73,.21-1.1,.32-.15-.83,.47-1.63,.05-2.66-.17,1.16-.68,2.07-.51,3.1-.37,.11-.74,.23-1.11,.34,.21-.98,.3-2,.65-2.93,1.36-3.63,.88-7.33,.47-11.01-.13-1.18,.14-2.45-.63-3.53Z"/><path class="cls-11" d="M117.66,99.89c2.45,.56,4.68,1.72,6.89,2.84,5.75,2.91,11.08,6.49,16.07,10.58,3.36,2.75,6.46,5.75,9.48,8.85,.17,.18,.42,.34,.25,.73-.62-.06-.92-.6-1.28-.98-5.95-6.25-12.66-11.52-20.09-15.9-3.14-1.85-6.38-3.45-9.77-4.77-.61-.24-1.18-.56-1.77-.84,.07-.17,.14-.35,.22-.52Z"/><path class="cls-11" d="M85.08,147.16c7.29,9.62,14.06,19.59,20.13,30.03-1-.57-1.37-1.61-1.93-2.5-5.62-8.94-11.66-17.59-18.13-25.95-.29-.38-.54-.79-.81-1.19,.32,0,.53-.2,.73-.4Z"/><path class="cls-5" d="M114.56,214.92c-8.69,1.07-17.42,1.24-26.15,1.05-3.98-.09-7.99-.38-11.96-.94-3.02-.43-6.06-.76-9.09-1.15-.38-.05-.76-.16-1.15-.44,2.09-.3,4.17-.61,6.26-.9,7.4-1.05,14.86-1.34,22.33-1.44,1.7-.02,3.4,.18,5.1,.06,2.26,1.48,4.78,1.21,7.28,1.09,.49-.02,.59-.45,.83-.73,1.93,.27,3.86,.45,5.81,.49,.25,.97,.5,1.94,.75,2.91Z"/><path class="cls-11" d="M97.61,191.14c-.08,5.71-.35,11.41-.73,17.11-.26,0-.51,0-.77,0,.18-3.4,.36-6.79,.53-10.19-.58,3.39-1.59,6.72-1.54,10.19-.37,0-.74,0-1.11,0,.03-.95,.33-1.9,.07-2.86,.02-1.63,.45-3.19,.76-4.77,.05,.37,.09,.75,.18,1.42,.23-1.25,.48-2.18,.55-3.13,.13-1.68,.83-3.3,.52-5.03,.35-1,.53-2.1,1.54-2.73Z"/><path class="cls-7" d="M108.49,208.85c1.61,.16,3.22,.31,4.83,.47,.24,.88,.47,1.77,.49,2.69-1.95-.04-3.88-.22-5.81-.49,.16-.89,.32-1.78,.48-2.67Z"/><path class="cls-11" d="M99.03,142.77c-.32,2.99-.94,5.94-1.06,8.95-.36,.01-.72-.02-1.02-.26,.35-2.71,.7-5.42,1.04-8.13,.27-.32,.63-.48,1.03-.57Z"/><path class="cls-11" d="M100.41,151.2c.11-3.06,.34-6.12,.19-9.18,.26-.02,.53-.03,.79-.05,.16,2.98-.12,5.96-.18,8.94-.27,.1-.54,.19-.81,.29Z"/><path class="cls-11" d="M97.12,144.13c-.26,2.36-.52,4.72-.79,7.09-.34-.09-.58-.29-.73-.61-.02-1.91,.36-3.77,.54-5.66,.22-.4,.51-.71,.98-.82Z"/><path class="cls-11" d="M106.19,179.05c.79,.66,1.84,2.31,2.35,3.68-.68-.43-1.83-2.2-2.38-3.66l.03-.03Z"/><path class="cls-11" d="M152.58,124.77s.12,.22,.19,.42c.07,.2,0,.39-.22,.31-.18-.06-.33-.26-.44-.43-.07-.11,.02-.24,.47-.3Z"/><path class="cls-11" d="M106.15,179.07c-.33-.27-.64-.55-.58-1.15,.54,.25,.57,.7,.62,1.13,0,0-.03,.03-.03,.03Z"/><path class="cls-11" d="M110.37,186.17c-.39-.24-.53-.62-.53-1.05,0,0,.01-.01,.01-.01,.39,.24,.52,.62,.53,1.05h-.01Z"/><path class="cls-11" d="M109.32,184.33c-.23-.18-.48-.34-.39-.79,.41,.15,.37,.49,.41,.78h-.02Z"/><path class="cls-11" d="M111.42,188.01c-.39-.24-.53-.61-.53-1.05h.01c.39,.23,.52,.6,.52,1.04h0Z"/><path class="cls-11" d="M155.05,128.23s.08,.02,.09,.05c.01,.02,0,.07,0,.1-.05-.02-.1-.05-.15-.07,.02-.03,.05-.05,.07-.08Z"/><path class="cls-11" d="M154.02,127.1s-.05-.05-.08-.07c.05-.03,.1-.06,.15-.08,0,.04,.04,.08,.02,.1-.01,.03-.06,.03-.09,.05Z"/><path class="cls-11" d="M109.33,184.32c.3,.18,.47,.44,.52,.79,0,0-.01,.01-.01,.01-.3-.18-.48-.44-.53-.79,0,0,.02-.01,.02-.01Z"/><polygon class="cls-11" points="111.43 188 111.47 188.05 111.42 188.01 111.43 188"/><path class="cls-11" d="M97.7,190.64c-.04,.16-.08,.31-.13,.47,.04-.16,.08-.31,.13-.47Z"/><polygon class="cls-11" points="110.38 186.16 110.42 186.21 110.37 186.17 110.38 186.16"/><polygon class="cls-11" points="110.89 186.96 110.85 186.9 110.91 186.95 110.89 186.96"/><path class="cls-11" d="M163.75,45.23c.07,.03,.13,.06,.2,.1-.03,0-.08,0-.1,0-.04-.02-.06-.06-.09-.09h0Z"/><polygon class="cls-11" points="163.76 45.22 163.71 45.18 163.75 45.23 163.76 45.22"/></g><path class="cls-13" d="M78.97,213.92c.91-1.74,3.91-3.02,6.62-2.76,1.97,.19,3.64,1,5.15,2.31,3.46,3,6.07,15.18,2.1,19.74-.32,0-.64,0-.95-.01,1.41-2.1,2.47-4.28,1.85-7.21-.44,.68-.69,1.09-.97,1.48-1.77,2.44-4.12,3.44-7.13,2.97-2.88-.46-4.5-2.29-5.42-4.87-.86-2.4-.97-4.82-.39-7.34,.45-1.95,1.5-3.63,2.22-5.52-1.31-.08-1.92,1.24-3.08,1.22Zm11.17,11.74c1.87-.66,2.69-1.93,2.12-3.88-.33-1.16-1.3-1.39-2.3-1.09-2.01,.62-2.02,2.19-1.67,3.88,.02,.08,0,.16,0,.24-.55,.06-1.09,.12-1.64,.18-.66-1.64-1.19-3.29-.9-5.11,.17-1.05-.28-1.86-1.35-2.25-1.06-.39-1.66,.33-2.24,.96-2.48,2.69-1.77,6.26,1.65,8.45,1.29,1.49,2.96,1.58,4.69,1.17,1.28-.3,1.8-1.24,1.64-2.54Zm-3.47-8.34c.13,1.06,.7,1.85,1.93,1.87,1.24,.03,1.95-.73,1.93-1.92-.02-1.23-.93-1.83-2.05-1.88-1.13-.05-1.67,.72-1.81,1.92Z"/><path class="cls-3" d="M78.97,213.92c1.16,.02,1.77-1.29,3.08-1.22-.72,1.89-1.77,3.57-2.22,5.52-.58,2.51-.47,4.94,.39,7.34,.93,2.58,2.55,4.41,5.42,4.87,3,.48,5.36-.53,7.13-2.97,.28-.39,.52-.8,.97-1.48,.62,2.93-.44,5.11-1.85,7.21-5.62,5.64-14.65,3.08-16.06-5.05-.26-1.48-.11-3.03-.2-4.54-.04-.7,.43-1.72-.89-1.81-.11-.61-.16-1.21,.46-1.62,1.92-1.26,1.66-3.67,2.84-5.32,0,0-.03,.03-.03,.03,.45,.1,.57-.12,.52-.52,0,0-.04,.04-.04,.04,.39,.04,.64-.05,.51-.52l-.03,.03Z"/><path class="cls-13" d="M106.54,211.6c4.96-1.17,8.63,.62,10.59,5.28,.77,1.82,1.46,3.7,1.49,5.73-.5,.88-.46,1.7,.29,2.43,0,.31,.01,.63,.02,.94-.27,0-.53,.01-.8,.02-.74,.16-.78,.91-1.13,1.38-2.39,3.29-5.9,4.08-9.55,2.1-.08-.55-.72-1.13,.11-1.62,.94,.18,1.87,.43,2.82,.52,2.18,.22,4.08-.07,4.36-2.82,.2-.13,.41-.25,.6-.39,1.26-.92,1.56-2.15,1.01-3.56-.44-1.13-1.43-1.21-2.39-.89-1.43,.47-1.86,1.6-1.67,3.02,.03,.24,.05,.47,.08,.71-.39,.6-.98,.59-1.58,.53-.62-1.54-1.05-3.07-.94-4.81,.17-2.56-.94-3.14-3.35-1.97-1.47-.45-1.05-1.84-1.43-2.84l1.16-2.4c.47-.38,.22-.91,.3-1.37Zm8.19,5.83c-.08-1.21-.78-1.89-1.93-2.04-1.17-.15-1.81,.59-1.92,1.63-.13,1.17,.48,2.02,1.7,2.15,1.24,.14,1.87-.61,2.15-1.75Z"/><path class="cls-13" d="M74.74,221.8c1.33,.09,.85,1.1,.89,1.81,.09,1.51-.06,3.06,.2,4.54,1.41,8.12,10.44,10.69,16.06,5.05,.32,0,.64,0,.95,.01-2.65,3.44-6.62,4.79-10.6,3.62-4.38-1.28-7.29-5.05-7.58-10-.1-1.67,.05-3.36,.08-5.03Z"/><path class="cls-12" d="M75,209.77c-1.03-1.19-.8-2.19-.33-3,1.62-2.8,4.14-4.38,7.29-4.94,.63-.11,1.38-.11,1.58,.71,.19,.82-.39,1.13-1.09,1.26-3.44,.67-6.07,2.38-7.45,5.98Z"/><path d="M105.7,244.03c-6.41-2.83-14.73-.94-15.16,3.25-1.11-.83-1.71-1.82-2.1-3.19,1.18,.86,2.04,.45,3.09-.16,3.01-1.75,6.18-3.11,9.81-2.6,1.58,.23,3.06,.68,4.36,2.69Z"/><path class="cls-1" d="M118.03,209.88c-1.6-3.62-4.16-5.54-7.71-6.15-.59-.1-1.04-.47-.94-1.18,.07-.46,.42-.61,.84-.73,2.95-.8,8.54,3.78,8.32,6.83-.02,.28-.23,.55-.52,1.22Z"/><path class="cls-13" d="M99.77,227.15c-.21,.39-.41,.77-.62,1.16-.9-5.24-.48-10.19,3.27-14.38,.12,.21,.25,.41,.37,.62-2.91,3.73-3.15,8.1-2.99,12.56l-.04,.12v-.08Z"/><path class="cls-13" d="M78.04,214.86c-1.17,1.65-.92,4.07-2.84,5.32-.41-2.5,1.14-3.95,2.84-5.32Z"/><path class="cls-13" d="M106.54,211.6c-.08,.46,.17,1-.3,1.37-1.61-.49-2.26,1.13-3.44,1.57-.12-.21-.25-.41-.37-.62,1.13-1.2,2.47-2.03,4.11-2.32Z"/><path class="cls-13" d="M118.91,225.05c-.75-.73-.79-1.55-.29-2.43,.36,.78,.47,1.59,.29,2.43Z"/><path class="cls-1" d="M78.53,214.38c.05,.4-.07,.62-.52,.52-.26-.61-.09-.78,.52-.52Z"/><path class="cls-1" d="M79,213.9c.13,.47-.12,.56-.51,.52-.27-.6-.1-.78,.51-.52Z"/><path class="cls-8" d="M83.81,227.03c-3.42-2.19-4.13-5.77-1.65-8.45,.58-.63,1.18-1.35,2.24-.96,1.07,.39,1.52,1.21,1.35,2.25-.29,1.83,.24,3.47,.9,5.11-.54,1.24-1.4,2.05-2.83,2.04Z"/><path class="cls-8" d="M88.29,224.81c0-.08,.01-.16,0-.24-.34-1.68-.34-3.26,1.67-3.88,1-.31,1.97-.07,2.3,1.09,.56,1.95-.25,3.23-2.12,3.88-.33-.05-.67-.1-1-.15-.08-.14-.2-.21-.36-.2l.06,.14c-.06-.32-.21-.56-.57-.59l.03-.05Z"/><path class="cls-13" d="M89.14,225.52c.33,.05,.67,.1,1,.15,.15,1.3-.36,2.24-1.64,2.54-1.73,.41-3.4,.32-4.69-1.17,1.44,0,2.29-.8,2.83-2.04,.55-.06,1.09-.12,1.64-.18,0,0-.02,.05-.02,.05,.19,.2,.38,.4,.57,.59,0,0-.06-.14-.06-.14,.03,.24-.03,.64,.36,.2Z"/><path class="cls-9" d="M86.67,217.33c.13-1.2,.67-1.97,1.81-1.92,1.12,.04,2.03,.65,2.05,1.88,.02,1.19-.69,1.95-1.93,1.92-1.23-.03-1.8-.82-1.93-1.87Z"/><path class="cls-3" d="M102.8,214.55c1.19-.44,1.83-2.06,3.44-1.57-.39,.8-.77,1.6-1.16,2.4-.88,1.28-1.24,2.78-1.35,4.26-.28,3.82,.09,7.47,3.72,9.85,3.65,1.98,7.17,1.19,9.55-2.1,.35-.48,.39-1.22,1.13-1.38,.4,7.8-5.89,10.89-10.48,10.12-4.35-.73-7-3.74-7.85-9.09,0,0,.02,.07,.02,.07-.16-4.46,.08-8.83,2.99-12.56Z"/><path class="cls-8" d="M106.51,218.22c2.41-1.17,3.52-.59,3.35,1.97-.11,1.73,.32,3.26,.94,4.81,0,0,.1,0,.1,0l-.17,.07v.2c-.71,1.26-1.69,1.96-3.2,1.57-3.2-2.53-3.48-4.92-1.01-8.63Z"/><path class="cls-13" d="M106.51,218.22c-2.47,3.71-2.19,6.1,1.01,8.63,.02,.34,.03,.69,.05,1.03-.83,.48-.19,1.07-.11,1.62-3.63-2.38-4-6.03-3.72-9.85,.11-1.48,.46-2.98,1.35-4.26,.38,1-.04,2.39,1.43,2.84Z"/><path class="cls-9" d="M112.38,224.46c-.03-.24-.04-.47-.08-.71-.19-1.42,.24-2.55,1.67-3.02,.96-.32,1.95-.24,2.39,.89,.55,1.41,.25,2.64-1.01,3.56-.19,.14-.4,.26-.6,.39-1.04,.16-1.75-.38-2.37-1.11Z"/><path class="cls-13" d="M112.38,224.46c.62,.73,1.33,1.27,2.37,1.11-.28,2.76-2.18,3.04-4.36,2.82-.95-.09-1.88-.34-2.82-.52-.02-.34-.03-.69-.05-1.03,1.51,.39,2.49-.3,3.2-1.56-.03-.14,.03-.23,.18-.28,0,0-.1,0-.1,0,.61,.06,1.2,.07,1.58-.53Z"/><path class="cls-9" d="M114.73,217.44c-.28,1.14-.91,1.89-2.15,1.75-1.22-.14-1.82-.98-1.7-2.15,.11-1.05,.75-1.78,1.92-1.63,1.15,.15,1.84,.82,1.93,2.04Z"/><path class="cls-15" d="M99.81,227.11s-.02-.07-.02-.07c0,0-.02,.11-.02,.11,0,0,0,.08,0,.08l.04-.12Z"/><path class="cls-1" d="M88.83,225.45c-.19-.2-.38-.39-.57-.59,.36,.03,.51,.27,.57,.59Z"/><path class="cls-1" d="M89.14,225.52c-.4,.44-.34,.04-.36-.2,.16,0,.28,.06,.36,.2Z"/><path class="cls-1" d="M110.89,225.01c-.15,.05-.21,.14-.18,.28,0,0,0-.21,0-.21l.17-.07Z"/><path class="cls-6" d="M99.39,224.27c-.2,9.43,4.73,11.84,10,11.84,5.28,0,9.19-2.68,9.46-11.67,.2-6.86-4.35-12.71-9.62-12.71s-9.69,5.68-9.84,12.54Z"/><g class="cls-2"><ellipse class="cls-4" cx="77.62" cy="238.37" rx=".65" ry=".77"/><ellipse class="cls-4" cx="81.35" cy="239.32" rx=".47" ry=".53"/><ellipse class="cls-4" cx="79.22" cy="242.4" rx=".47" ry=".53"/><ellipse class="cls-4" cx="82.54" cy="241.63" rx=".36" ry=".47"/><ellipse class="cls-4" cx="85.32" cy="238.96" rx="1.01" ry=".77"/><ellipse class="cls-4" cx="115.57" cy="237.68" rx=".65" ry=".77"/><ellipse class="cls-4" cx="111.83" cy="238.62" rx=".47" ry=".53"/><ellipse class="cls-4" cx="113.97" cy="241.7" rx=".47" ry=".53"/><ellipse class="cls-4" cx="110.65" cy="240.93" rx=".36" ry=".47"/><ellipse class="cls-4" cx="107.86" cy="238.27" rx="1.01" ry=".77"/></g><path class="cls-10" d="M116.13,233.26c-4.57,4.58-10.64,3.87-13.11,.75-1.17-1.47,4.65-2.79,6.46-3.19,2.81-.63,5.36-2.12,6.65-.75s1.57,1.63,0,3.2Z"/><path class="cls-10" d="M92.6,232.41c-4.76,4.78-11.09,4.03-13.67,.78-1.22-1.54,4.85-2.91,6.73-3.33,2.93-.66,5.59-2.21,6.93-.78s1.63,1.7,0,3.33Z"/><path class="cls-6" d="M94.38,224.04c.15,10.39-4.39,11.73-9.67,11.73s-9.36-2.6-9.63-11.58c-.2-6.86,4.47-12.57,9.75-12.57s9.45,5.56,9.55,12.42Z"/><path class="cls-13" d="M118.14,226.01c.27,0,.53-.01,.8-.02,.27,6.13-3.14,10.56-8.58,11.14-5.71,.61-10.26-2.98-11.2-8.82,.21-.39,.41-.77,.62-1.16,0,0,.02-.12,.02-.12,.85,5.36,3.51,8.37,7.85,9.1,4.59,.77,10.89-2.32,10.48-10.12Z"/></svg>