<svg xmlns="http://www.w3.org/2000/svg" xmlns:xlink="http://www.w3.org/1999/xlink" width="473" height="456" viewBox="0 0 473 456">
  <defs>
    <clipPath id="clip-path">
      <rect id="Rectangle_314" data-name="Rectangle 314" width="54.472" height="54.057" fill="none"/>
    </clipPath>
    <clipPath id="clip-Artboard_1">
      <rect width="473" height="456"/>
    </clipPath>
  </defs>
  <g id="Artboard_1" data-name="Artboard – 1" clip-path="url(#clip-Artboard_1)">
    <g id="Group_376" data-name="Group 376" transform="translate(40 -88)">
      <circle id="Ellipse_30" data-name="Ellipse 30" cx="224" cy="224" r="224" transform="translate(-27 96)" fill="#9ed0b3"/>
      <g id="Group_375" data-name="Group 375" transform="translate(148.127 190.437)">
        <path id="Rectangle_306" data-name="Rectangle 306" d="M10,0H87.153a10,10,0,0,1,10,10V172.368a0,0,0,0,1,0,0H0a0,0,0,0,1,0,0V10A10,10,0,0,1,10,0Z" transform="translate(3.409 0)" fill="#fff"/>
        <g id="Group_372" data-name="Group 372" transform="translate(0 18.04)">
          <g id="Group_366" data-name="Group 366" transform="translate(24.749 0)">
            <rect id="Rectangle_308" data-name="Rectangle 308" width="54.472" height="54.057" transform="translate(0 0)" fill="#0e4240"/>
            <g id="Group_365" data-name="Group 365" transform="translate(0 0)">
              <g id="Group_364" data-name="Group 364" clip-path="url(#clip-path)">
                <path id="Path_783" data-name="Path 783" d="M5.221,5.221A5.227,5.227,0,0,1,0,0H1.34A3.885,3.885,0,0,0,5.221,3.881,3.885,3.885,0,0,0,9.1,0h1.34A5.227,5.227,0,0,1,5.221,5.221" transform="translate(8.412 34.173)" fill="#f2843f"/>
                <path id="Path_784" data-name="Path 784" d="M5.221,10.443a5.221,5.221,0,1,1,5.221-5.221,5.227,5.227,0,0,1-5.221,5.221m0-9.1A3.882,3.882,0,1,0,9.1,5.222,3.886,3.886,0,0,0,5.221,1.34" transform="translate(20.169 21.947)" fill="#f2843f"/>
                <path id="Path_785" data-name="Path 785" d="M5.221,10.443a5.221,5.221,0,1,1,5.221-5.221,5.227,5.227,0,0,1-5.221,5.221m0-9.1A3.882,3.882,0,1,0,9.1,5.222,3.885,3.885,0,0,0,5.221,1.34" transform="translate(34.721 21.947)" fill="#f2843f"/>
                <rect id="Rectangle_309" data-name="Rectangle 309" width="1.34" height="8.716" transform="translate(32.126 23.004)" fill="#f2843f"/>
                <rect id="Rectangle_310" data-name="Rectangle 310" width="1.34" height="8.716" transform="translate(29.405 23.004)" fill="#f2843f"/>
                <rect id="Rectangle_311" data-name="Rectangle 311" width="1.34" height="3.816" transform="translate(17.514 23.005)" fill="#f2843f"/>
                <rect id="Rectangle_312" data-name="Rectangle 312" width="1.34" height="1.74" transform="translate(17.514 32.433)" fill="#f2843f"/>
                <rect id="Rectangle_313" data-name="Rectangle 313" width="1.34" height="8.716" transform="translate(43.958 23.004)" fill="#f2843f"/>
                <path id="Path_786" data-name="Path 786" d="M5.221,10.443a5.221,5.221,0,1,1,5.221-5.221,5.227,5.227,0,0,1-5.221,5.221m0-9.1A3.882,3.882,0,1,0,9.1,5.222,3.885,3.885,0,0,0,5.221,1.34" transform="translate(8.412 21.947)" fill="#f2843f"/>
                <path id="Path_787" data-name="Path 787" d="M.9,3.791c-.058,0-.11,0-.16-.006L.067,3.757l-.05-.586S0,3.006,0,2.951c0-.211,0-.425.014-.637A2.537,2.537,0,0,1,.259,1.308,2.2,2.2,0,0,1,1.125.433,4.006,4.006,0,0,1,3.231,0l.628.009L3.9.773a3.646,3.646,0,0,1-.013.768,2.567,2.567,0,0,1-.313.99,2.444,2.444,0,0,1-1.332,1.02,4.3,4.3,0,0,1-.811.187c-.127.018-.254.032-.381.045A1.212,1.212,0,0,1,.9,3.791M2.555,1.367a1.918,1.918,0,0,0-.746.218.921.921,0,0,0-.358.334,1.358,1.358,0,0,0-.1.475A2.735,2.735,0,0,0,1.8,2.286a1.154,1.154,0,0,0,.623-.447,1.391,1.391,0,0,0,.131-.473" transform="translate(32.195 17.778)" fill="#f2843f"/>
                <path id="Path_788" data-name="Path 788" d="M6.077,7H4.6A4.6,4.6,0,0,1,0,2.406V0H1.482a4.6,4.6,0,0,1,4.6,4.6ZM1.34,1.34V2.406A3.261,3.261,0,0,0,4.6,5.663h.142V4.6A3.261,3.261,0,0,0,1.482,1.34Z" transform="translate(24.674 14.568)" fill="#f2843f"/>
              </g>
            </g>
          </g>
          <g id="Group_374" data-name="Group 374" transform="translate(30.558 154.676)">
            <g id="Group_363" data-name="Group 363" transform="translate(0 0)">
              <rect id="Rectangle_307" data-name="Rectangle 307" width="40.742" height="83.505" fill="#7b7b7b"/>
              <path id="Polygon_5" data-name="Polygon 5" d="M20.371,0,40.742,34.474H0Z" transform="translate(40.742 117.979) rotate(180)" fill="#7b7b7b"/>
            </g>
            <path id="Path_789" data-name="Path 789" d="M4.874,0A4.874,4.874,0,1,1,0,4.874,4.874,4.874,0,0,1,4.874,0Z" transform="translate(5.75 68.155)" fill="#9b9696"/>
            <path id="Path_790" data-name="Path 790" d="M4.874,0A4.874,4.874,0,1,1,0,4.874,4.874,4.874,0,0,1,4.874,0Z" transform="translate(25.245 68.155)" fill="#9b9696"/>
          </g>
          <g id="Group_369" data-name="Group 369" transform="translate(22.743 68.677)">
            <path id="Union_45" data-name="Union 45" d="M0,3.252H4.336L2.169,6.5Zm0,0L2.169,0,4.336,3.252Z" transform="translate(4.337 0)" fill="#fff"/>
            <path id="Union_45_-_Outline" data-name="Union 45 - Outline" d="M-612.249,5285l1.75,3.5H-614Zm-1.752,3.5h3.5l-1.75,3.5Z" transform="translate(617.502 -5285)" fill="#707070"/>
            <path id="Union_50" data-name="Union 50" d="M0,3.252H4.336L2.169,6.5Zm0,0L2.169,0,4.336,3.252Z" transform="translate(4.337 19.513)" fill="#fff"/>
            <path id="Union_50_-_Outline" data-name="Union 50 - Outline" d="M-612.249,5285l1.75,3.5H-614Zm-1.752,3.5h3.5l-1.75,3.5Z" transform="translate(617.502 -5266.324)" fill="#707070"/>
            <path id="Union_45-2" data-name="Union 45" d="M0,3.252H4.336L2.169,6.5Zm0,0L2.169,0,4.336,3.252Z" transform="translate(10.841 0)" fill="#fff"/>
            <path id="Union_45_-_Outline-2" data-name="Union 45 - Outline" d="M-612.249,5285l1.75,3.5H-614Zm-1.752,3.5h3.5l-1.75,3.5Z" transform="translate(625.673 -5285)" fill="#707070"/>
            <path id="Union_51" data-name="Union 51" d="M0,3.252H4.336L2.169,6.5Zm0,0L2.169,0,4.336,3.252Z" transform="translate(10.841 19.513)" fill="#fff"/>
            <path id="Union_51_-_Outline" data-name="Union 51 - Outline" d="M-612.249,5285l1.75,3.5H-614Zm-1.752,3.5h3.5l-1.75,3.5Z" transform="translate(625.673 -5266.324)" fill="#707070"/>
            <path id="Union_45-3" data-name="Union 45" d="M0,3.252H4.336L2.169,6.5Zm0,0L2.169,0,4.336,3.252Z" transform="translate(19.514 0)" fill="#fff"/>
            <path id="Union_45_-_Outline-3" data-name="Union 45 - Outline" d="M-612.249,5285l1.75,3.5H-614Zm-1.752,3.5h3.5l-1.75,3.5Z" transform="translate(633.844 -5285)" fill="#707070"/>
            <path id="Union_52" data-name="Union 52" d="M0,3.252H4.336L2.169,6.5Zm0,0L2.169,0,4.336,3.252Z" transform="translate(19.514 19.513)" fill="#fff"/>
            <path id="Union_52_-_Outline" data-name="Union 52 - Outline" d="M-612.249,5285l1.75,3.5H-614Zm-1.752,3.5h3.5l-1.75,3.5Z" transform="translate(633.844 -5266.324)" fill="#707070"/>
            <path id="Union_49" data-name="Union 49" d="M0,3.252H4.336L2.169,6.5Zm0,0L2.169,0,4.336,3.252Z" transform="translate(23.85 8.673)" fill="#fff"/>
            <path id="Union_49_-_Outline" data-name="Union 49 - Outline" d="M-612.249,5285l1.75,3.5H-614Zm-1.752,3.5h3.5l-1.75,3.5Z" transform="translate(637.346 -5275.661)" fill="#707070"/>
            <path id="Union_53" data-name="Union 53" d="M0,3.252H4.336L2.169,6.5Zm0,0L2.169,0,4.336,3.252Z" transform="translate(23.85 28.186)" fill="#fff"/>
            <path id="Union_53_-_Outline" data-name="Union 53 - Outline" d="M-612.249,5285l1.75,3.5H-614Zm-1.752,3.5h3.5l-1.75,3.5Z" transform="translate(637.346 -5256.986)" fill="#707070"/>
            <g id="Group_367" data-name="Group 367" transform="translate(0 8.672)">
              <path id="Union_46" data-name="Union 46" d="M0,3.252H4.336L2.169,6.5Zm0,0L2.169,0,4.336,3.252Z" transform="translate(0 0)" fill="#fff"/>
              <path id="Union_46_-_Outline" data-name="Union 46 - Outline" d="M-612.249,5285l1.75,3.5H-614Zm-1.752,3.5h3.5l-1.75,3.5Z" transform="translate(614 -5284.334)" fill="#707070"/>
              <path id="Union_47" data-name="Union 47" d="M0,3.252H4.336L2.169,6.5Zm0,0L2.169,0,4.336,3.252Z" transform="translate(8.673 0)" fill="#fff"/>
              <path id="Union_47_-_Outline" data-name="Union 47 - Outline" d="M-612.249,5285l1.75,3.5H-614Zm-1.752,3.5h3.5l-1.75,3.5Z" transform="translate(622.171 -5284.334)" fill="#707070"/>
              <path id="Union_48" data-name="Union 48" d="M0,3.252H4.336L2.169,6.5Zm0,0L2.169,0,4.336,3.252Z" transform="translate(17.345 0)" fill="#fff"/>
              <path id="Union_48_-_Outline" data-name="Union 48 - Outline" d="M-612.249,5285l1.75,3.5H-614Zm-1.752,3.5h3.5l-1.75,3.5Z" transform="translate(630.342 -5284.334)" fill="#707070"/>
            </g>
            <g id="Group_368" data-name="Group 368" transform="translate(0 28.015)">
              <path id="Union_46-2" data-name="Union 46" d="M0,3.252H4.336L2.169,6.5Zm0,0L2.169,0,4.336,3.252Z" transform="translate(0 0.172)" fill="#fff"/>
              <path id="Union_46_-_Outline-2" data-name="Union 46 - Outline" d="M-612.249,5285l1.75,3.5H-614Zm-1.752,3.5h3.5l-1.75,3.5Z" transform="translate(614 -5285)" fill="#707070"/>
              <path id="Union_47-2" data-name="Union 47" d="M0,3.252H4.336L2.169,6.5Zm0,0L2.169,0,4.336,3.252Z" transform="translate(8.673 0.172)" fill="#fff"/>
              <path id="Union_47_-_Outline-2" data-name="Union 47 - Outline" d="M-612.249,5285l1.75,3.5H-614Zm-1.752,3.5h3.5l-1.75,3.5Z" transform="translate(622.171 -5285)" fill="#707070"/>
              <path id="Union_48-2" data-name="Union 48" d="M0,3.252H4.336L2.169,6.5Zm0,0L2.169,0,4.336,3.252Z" transform="translate(17.345 0.172)" fill="#fff"/>
              <path id="Union_48_-_Outline-2" data-name="Union 48 - Outline" d="M-612.249,5285l1.75,3.5H-614Zm-1.752,3.5h3.5l-1.75,3.5Z" transform="translate(630.342 -5285)" fill="#707070"/>
            </g>
          </g>
          <g id="Group_371" data-name="Group 371" transform="translate(59.783 117.413)">
            <path id="Union_45-4" data-name="Union 45" d="M0,2.8H3.735L1.868,5.6Zm0,0L1.868,0,3.735,2.8Z" transform="translate(3.735 0)" fill="#fff"/>
            <path id="Union_50-2" data-name="Union 50" d="M0,2.8H3.735L1.868,5.6Zm0,0L1.868,0,3.735,2.8Z" transform="translate(3.735 16.809)" fill="#fff"/>
            <path id="Union_45-5" data-name="Union 45" d="M0,2.8H3.735L1.868,5.6Zm0,0L1.868,0,3.735,2.8Z" transform="translate(9.338 0)" fill="#fff"/>
            <path id="Union_45_-_Outline-4" data-name="Union 45 - Outline" d="M-612.491,5285l1.508,3.016H-614Zm-1.509,3.016h3.016l-1.508,3.019Z" transform="translate(624.055 -5285)" fill="#707070"/>
            <path id="Union_51-2" data-name="Union 51" d="M0,2.8H3.735L1.868,5.6Zm0,0L1.868,0,3.735,2.8Z" transform="translate(9.338 16.809)" fill="#fff"/>
            <path id="Union_51_-_Outline-2" data-name="Union 51 - Outline" d="M-612.491,5285l1.508,3.016H-614Zm-1.509,3.016h3.016l-1.508,3.019Z" transform="translate(624.055 -5268.912)" fill="#707070"/>
            <path id="Union_45-6" data-name="Union 45" d="M0,2.8H3.735L1.868,5.6Zm0,0L1.868,0,3.735,2.8Z" transform="translate(16.809 0)" fill="#fff"/>
            <path id="Union_45_-_Outline-5" data-name="Union 45 - Outline" d="M-612.491,5285l1.508,3.016H-614Zm-1.509,3.016h3.016l-1.508,3.019Z" transform="translate(631.093 -5285)" fill="#707070"/>
            <path id="Union_52-2" data-name="Union 52" d="M0,2.8H3.735L1.868,5.6Zm0,0L1.868,0,3.735,2.8Z" transform="translate(16.809 16.809)" fill="#fff"/>
            <path id="Union_52_-_Outline-2" data-name="Union 52 - Outline" d="M-612.491,5285l1.508,3.016H-614Zm-1.509,3.016h3.016l-1.508,3.019Z" transform="translate(631.093 -5268.912)" fill="#707070"/>
            <path id="Union_49-2" data-name="Union 49" d="M0,2.8H3.735L1.868,5.6Zm0,0L1.868,0,3.735,2.8Z" transform="translate(20.544 7.471)" fill="#fff"/>
            <path id="Union_49_-_Outline-2" data-name="Union 49 - Outline" d="M-612.491,5285l1.508,3.016H-614Zm-1.509,3.016h3.016l-1.508,3.019Z" transform="translate(634.11 -5276.956)" fill="#707070"/>
            <path id="Union_53-2" data-name="Union 53" d="M0,2.8H3.735L1.868,5.6Zm0,0L1.868,0,3.735,2.8Z" transform="translate(20.544 24.28)" fill="#fff"/>
            <g id="Group_367-2" data-name="Group 367" transform="translate(0 7.47)">
              <path id="Union_46-3" data-name="Union 46" d="M0,2.8H3.735L1.868,5.6Zm0,0L1.868,0,3.735,2.8Z" transform="translate(0 0)" fill="#fff"/>
              <path id="Union_47-3" data-name="Union 47" d="M0,2.8H3.735L1.868,5.6Zm0,0L1.868,0,3.735,2.8Z" transform="translate(7.471 0)" fill="#fff"/>
              <path id="Union_47_-_Outline-3" data-name="Union 47 - Outline" d="M-612.491,5285l1.508,3.016H-614Zm-1.509,3.016h3.016l-1.508,3.019Z" transform="translate(621.038 -5284.426)" fill="#707070"/>
              <path id="Union_48-3" data-name="Union 48" d="M0,2.8H3.735L1.868,5.6Zm0,0L1.868,0,3.735,2.8Z" transform="translate(14.941 0)" fill="#fff"/>
              <path id="Union_48_-_Outline-3" data-name="Union 48 - Outline" d="M-612.491,5285l1.508,3.016H-614Zm-1.509,3.016h3.016l-1.508,3.019Z" transform="translate(628.077 -5284.426)" fill="#707070"/>
            </g>
          </g>
          <rect id="Rectangle_315" data-name="Rectangle 315" width="16" height="24" rx="4" transform="translate(-0.127 15.523)" fill="#fff"/>
          <rect id="Rectangle_316" data-name="Rectangle 316" width="16" height="23" rx="4" transform="translate(-0.127 55.523)" fill="#fff"/>
        </g>
      </g>
    </g>
  </g>
</svg>
