<svg width="437" height="437" viewBox="0 0 437 437" fill="none" xmlns="http://www.w3.org/2000/svg">
<path d="M218.125 436.653C338.505 436.653 436.092 339.066 436.092 218.687C436.092 98.3068 338.505 0.719727 218.125 0.719727C97.7451 0.719727 0.158009 98.3068 0.158009 218.687C0.158009 339.066 97.7451 436.653 218.125 436.653Z" fill="#9ED0B3"/>
<g clip-path="url(#clip0_272_35365)">
<path d="M210.672 377.236C246.78 377.236 276.06 369.812 276.06 360.649C276.06 351.486 246.788 344.062 210.672 344.062C174.555 344.062 145.284 351.486 145.284 360.649C145.284 369.812 174.555 377.236 210.672 377.236Z" fill="#EEEEEE"/>
<path d="M183.542 161.346C190.923 180.331 183.484 198.183 181.777 202.031C160.915 206.476 141.401 195.152 135.686 177.792C129.995 160.547 138.171 137.275 151.451 134.05C164.405 130.905 178.287 147.799 183.551 161.346H183.542Z" fill="#92C361"/>
<path d="M154.656 132.337C167.744 132.337 180.12 149.003 184.714 160.845C191.76 178.969 185.81 196.083 182.923 202.602L182.655 203.217L182.028 203.349C178.948 204.007 175.81 204.341 172.664 204.341C154.974 204.341 139.627 193.852 134.472 178.231C131.091 167.988 132.288 154.942 137.518 144.997C140.991 138.39 145.836 134.032 151.15 132.75C152.296 132.469 153.476 132.328 154.656 132.328V132.337ZM180.89 200.854C183.71 194.247 188.814 178.46 182.363 161.856C177.342 148.95 165.325 135.016 154.656 135.016C153.669 135.016 152.689 135.131 151.727 135.368C147.125 136.484 142.865 140.367 139.752 146.306C134.857 155.618 133.736 167.812 136.882 177.362C141.602 191.673 156.321 201.671 172.664 201.671C175.425 201.671 178.179 201.398 180.89 200.862V200.854Z" fill="#92C361"/>
<path d="M135.836 177.238C135.911 177.581 135.853 177.95 135.677 178.249C135.501 178.547 135.217 178.767 134.882 178.846L128.991 180.287C128.665 180.366 128.313 180.304 128.029 180.12C127.744 179.936 127.535 179.628 127.46 179.285C127.384 178.943 127.443 178.574 127.619 178.275C127.794 177.976 128.079 177.757 128.414 177.678L134.305 176.237C134.631 176.158 134.983 176.219 135.267 176.404C135.552 176.588 135.761 176.896 135.836 177.238Z" fill="#92C361"/>
<path d="M194.839 171.054C194.839 171.406 194.705 171.748 194.463 172.003C194.22 172.258 193.902 172.398 193.559 172.398H187.509C187.342 172.398 187.174 172.363 187.024 172.293C186.873 172.223 186.731 172.126 186.614 172.003C186.496 171.88 186.404 171.731 186.337 171.564C186.27 171.406 186.237 171.23 186.237 171.054C186.237 170.878 186.27 170.703 186.337 170.545C186.404 170.386 186.496 170.237 186.614 170.114C186.731 169.991 186.873 169.894 187.024 169.824C187.174 169.754 187.342 169.719 187.509 169.719H193.559C193.894 169.719 194.22 169.859 194.463 170.114C194.705 170.369 194.839 170.703 194.839 171.063V171.054Z" fill="#92C361"/>
<path d="M182.53 140.99C182.764 141.245 182.89 141.597 182.873 141.948C182.865 142.3 182.722 142.642 182.471 142.879L178.07 147.246C177.827 147.492 177.492 147.623 177.158 147.606C176.823 147.597 176.497 147.448 176.271 147.184C176.036 146.929 175.919 146.578 175.928 146.227C175.936 145.875 176.078 145.532 176.329 145.295L180.731 140.929C180.973 140.683 181.308 140.56 181.643 140.569C181.978 140.578 182.296 140.736 182.53 140.99Z" fill="#92C361"/>
<path d="M151.56 196.768C151.878 196.891 152.137 197.137 152.279 197.453C152.422 197.779 152.438 198.139 152.33 198.473L150.296 204.464C150.238 204.631 150.154 204.78 150.045 204.912C149.936 205.044 149.794 205.149 149.643 205.22C149.493 205.299 149.325 205.343 149.158 205.351C148.991 205.36 148.823 205.334 148.664 205.272C148.505 205.211 148.363 205.123 148.238 205.009C148.112 204.895 148.012 204.745 147.945 204.587C147.869 204.429 147.836 204.253 147.828 204.078C147.828 203.902 147.844 203.726 147.903 203.559L149.936 197.568C149.995 197.401 150.079 197.251 150.187 197.12C150.296 196.988 150.438 196.882 150.589 196.812C150.74 196.733 150.907 196.698 151.074 196.689C151.242 196.68 151.409 196.707 151.568 196.768H151.56Z" fill="#92C361"/>
<path d="M285.457 263.651C270.487 264.214 259.357 255.499 255.089 251.712C260.043 245.852 266.303 241.381 273.315 238.701C277.733 237.12 282.344 236.215 287.005 236.022C296.336 235.24 306.779 234.361 311.599 240.994C312.126 241.723 314.252 244.649 313.883 248.242C312.954 257.3 296.854 263.212 285.457 263.634V263.651Z" fill="#7DB352"/>
<path d="M158.263 106.157C154.313 112.148 147.041 115.197 139.56 113.985C132.614 106.376 131.97 95.3509 137.091 88.5774C141.769 82.3838 151.669 79.1771 157.61 84.132C163.601 89.1309 162.43 99.8314 158.263 106.157Z" fill="#7DB352"/>
<path d="M142.807 115.592C141.652 115.592 140.506 115.496 139.359 115.311L138.932 115.241L138.631 114.916C131.435 107.035 130.338 95.3509 136.079 87.7428C137.845 85.5025 140.045 83.684 142.539 82.4101C145.033 81.1362 147.752 80.4422 150.522 80.3631C153.359 80.3016 156.137 81.2592 158.388 83.0778C164.806 88.4281 164.037 99.726 159.292 106.921C157.409 109.662 154.932 111.876 152.053 113.387C149.183 114.898 146.003 115.654 142.79 115.592H142.807ZM140.179 112.728C141.049 112.851 141.928 112.913 142.807 112.913C145.602 112.974 148.38 112.324 150.882 111.015C153.392 109.706 155.56 107.782 157.208 105.401C161.208 99.3306 162.028 89.5262 156.815 85.1863C155.007 83.7455 152.798 82.9899 150.53 83.0514C148.146 83.1129 145.803 83.7191 143.652 84.8173C141.501 85.9155 139.61 87.488 138.087 89.4208C133.292 95.7726 134.23 105.928 140.179 112.737V112.728Z" fill="#7DB352"/>
<path d="M119.611 101.869C126.64 101.869 134.757 105.928 139.811 111.963C146.489 119.949 148.062 131.985 143.819 142.651L143.652 143.072L143.284 143.301C138.673 146.121 133.435 147.614 128.096 147.641C120.012 147.641 112.531 144.012 108.088 137.933C101.268 128.612 100.414 112.684 109.494 105.322C112.397 103.002 115.962 101.79 119.611 101.878V101.869ZM141.635 141.192C145.3 131.581 143.853 120.845 137.895 113.729C133.301 108.238 125.945 104.54 119.602 104.54C116.523 104.461 113.502 105.48 111.042 107.43C103.243 113.756 104.13 128.137 110.096 136.29C114.071 141.719 120.79 144.952 128.087 144.952C132.832 144.926 137.493 143.635 141.627 141.192H141.635Z" fill="#80BC4B"/>
<path d="M282.051 103.565C284.863 111.542 282.771 120.881 276.679 127.593C276.001 127.514 262.319 125.643 257.391 113.449C253.935 104.892 255.29 92.522 261.6 89.5086C268.143 86.3898 278.679 93.9979 282.051 103.556V103.565Z" fill="#80BC4B"/>
<path d="M326.536 116.154C319.289 125.089 307.164 128.735 295.365 125.52C294.495 123.007 287.114 100.78 298.461 85.6693C300.352 83.1567 304.737 77.3233 312.469 75.9616C312.988 75.8737 322.586 74.3275 328.879 80.7408C337.389 89.4207 334.134 106.789 326.536 116.154Z" fill="#80BC4B"/>
<path d="M263.968 231.769C268.277 258.134 251.048 291.808 219.525 297.378C205.358 299.882 190.831 296.359 179.141 287.591C167.442 278.824 159.535 265.531 157.158 250.632C151.802 217.098 177.25 189.292 201.601 185.023C218.897 181.992 233.307 191.243 237.341 193.834C242.395 197.076 260.361 209.718 263.976 231.769H263.968Z" fill="#7DB352"/>
<path d="M142.472 83.6485C142.137 83.6485 141.811 83.5079 141.568 83.2531C141.326 82.9984 141.192 82.6645 141.192 82.3043V75.9438C141.192 75.5923 141.326 75.2497 141.568 74.9949C141.811 74.7402 142.129 74.5996 142.472 74.5996C142.815 74.5996 143.133 74.7402 143.376 74.9949C143.618 75.2497 143.752 75.5836 143.752 75.9438V82.3043C143.752 82.6557 143.618 82.9984 143.376 83.2531C143.133 83.5079 142.815 83.6485 142.472 83.6485Z" fill="#7DB352"/>
<path d="M162.58 113.237C162.505 113.396 162.405 113.536 162.279 113.659C162.154 113.773 162.011 113.87 161.852 113.923C161.693 113.975 161.526 114.002 161.359 113.993C161.191 113.984 161.032 113.94 160.873 113.861L155.417 111.111C155.116 110.953 154.882 110.681 154.765 110.347C154.656 110.013 154.673 109.644 154.815 109.319C154.966 109.003 155.225 108.757 155.543 108.634C155.861 108.511 156.212 108.537 156.514 108.695L161.97 111.445C162.12 111.524 162.254 111.63 162.363 111.761C162.472 111.893 162.564 112.043 162.614 112.21C162.673 112.376 162.689 112.552 162.681 112.728C162.673 112.904 162.631 113.079 162.555 113.237H162.58Z" fill="#7DB352"/>
<path d="M138.857 112.852C145.25 120.495 146.723 131.881 142.648 142.133C130.514 149.478 116.104 146.684 109.092 137.108C102.69 128.366 101.887 113.168 110.263 106.377C118.715 99.5155 132.096 104.778 138.849 112.852H138.857Z" fill="#80BC4B"/>
<path d="M118.28 104.408C117.945 104.408 117.619 104.268 117.376 104.013C117.134 103.758 117 103.424 117 103.064V96.7035C117 96.3521 117.134 96.0095 117.376 95.7547C117.619 95.4999 117.937 95.3594 118.28 95.3594C118.623 95.3594 118.941 95.4999 119.184 95.7547C119.426 96.0095 119.56 96.3433 119.56 96.7035V103.064C119.56 103.416 119.426 103.758 119.184 104.013C118.941 104.268 118.623 104.408 118.28 104.408Z" fill="#80BC4B"/>
<path d="M106.874 111.56C106.799 111.718 106.699 111.859 106.573 111.982C106.448 112.096 106.305 112.192 106.146 112.245C105.987 112.307 105.82 112.324 105.653 112.315C105.485 112.307 105.326 112.263 105.167 112.184L99.7113 109.434C99.41 109.276 99.1757 109.003 99.0586 108.669C98.9498 108.336 98.9665 107.967 99.1088 107.642C99.2594 107.325 99.5188 107.079 99.8368 106.956C100.155 106.842 100.506 106.86 100.808 107.018L106.263 109.768C106.414 109.847 106.548 109.952 106.657 110.084C106.766 110.216 106.858 110.365 106.908 110.532C106.966 110.699 106.983 110.875 106.975 111.05C106.966 111.226 106.925 111.402 106.849 111.56H106.874Z" fill="#80BC4B"/>
<path d="M106.096 132.311C106.197 132.452 106.272 132.61 106.314 132.777C106.356 132.944 106.364 133.128 106.347 133.295C106.322 133.471 106.272 133.638 106.188 133.787C106.104 133.936 105.996 134.077 105.862 134.182L101.059 138.048C100.791 138.259 100.456 138.338 100.121 138.294C99.795 138.241 99.4937 138.057 99.2929 137.784C99.092 137.503 99 137.152 99.0418 136.809C99.0837 136.458 99.251 136.141 99.5105 135.922L104.314 132.056C104.448 131.951 104.598 131.872 104.757 131.828C104.916 131.784 105.084 131.775 105.251 131.793C105.418 131.819 105.577 131.872 105.72 131.96C105.862 132.047 105.987 132.162 106.096 132.302V132.311Z" fill="#80BC4B"/>
<path d="M157.267 229.389C157.25 229.74 157.099 230.074 156.848 230.311C156.597 230.548 156.271 230.671 155.928 230.654L149.886 230.329C149.551 230.311 149.233 230.153 149.007 229.889C148.782 229.626 148.664 229.274 148.681 228.923C148.698 228.572 148.849 228.238 149.1 228.001C149.351 227.763 149.677 227.64 150.02 227.658L156.062 227.983C156.396 228.001 156.714 228.159 156.94 228.422C157.166 228.686 157.284 229.037 157.267 229.389Z" fill="#7DB352"/>
<path d="M158.949 258.09C159.116 258.397 159.158 258.766 159.066 259.109C158.974 259.452 158.756 259.742 158.463 259.917L153.192 263.036C152.899 263.212 152.547 263.256 152.221 263.159C151.894 263.062 151.618 262.834 151.451 262.527C151.284 262.219 151.242 261.85 151.334 261.507C151.426 261.165 151.643 260.875 151.936 260.699L157.208 257.58C157.501 257.405 157.853 257.361 158.179 257.457C158.505 257.554 158.781 257.782 158.949 258.09Z" fill="#7DB352"/>
<path d="M318.988 151.963C318.988 152.139 318.954 152.315 318.887 152.473C318.82 152.631 318.728 152.78 318.611 152.903C318.494 153.026 318.352 153.123 318.201 153.193C318.051 153.264 317.883 153.299 317.716 153.299H311.666C311.331 153.299 311.005 153.158 310.762 152.903C310.519 152.649 310.385 152.315 310.385 151.955C310.385 151.594 310.519 151.26 310.762 151.006C311.005 150.751 311.323 150.61 311.666 150.61H317.716C317.883 150.61 318.051 150.645 318.201 150.716C318.352 150.786 318.494 150.883 318.611 151.006C318.728 151.129 318.82 151.278 318.887 151.436C318.954 151.594 318.988 151.77 318.988 151.946V151.963Z" fill="#7DB352"/>
<path d="M165.978 78.7024C166.212 78.9572 166.329 79.3086 166.321 79.66C166.313 80.0114 166.17 80.354 165.919 80.5913L161.518 84.9575C161.275 85.2035 160.94 85.3353 160.606 85.3177C160.271 85.309 159.945 85.1596 159.719 84.8961C159.484 84.6413 159.367 84.2899 159.376 83.9385C159.384 83.587 159.526 83.2444 159.777 83.0072L164.179 78.6409C164.421 78.3949 164.756 78.2719 165.091 78.2807C165.426 78.2895 165.744 78.4476 165.978 78.7024Z" fill="#7DB352"/>
<path d="M264.905 87.4619C271.859 87.4619 280.26 94.6219 283.248 103.1C286.21 111.507 283.993 121.487 277.599 128.524L277.164 129.008L276.537 128.929C275.926 128.858 261.483 126.996 256.219 113.976C252.554 104.918 253.876 91.7228 261.081 88.2965C262.286 87.7343 263.591 87.4531 264.905 87.4707V87.4619ZM276.21 126.161C281.591 119.897 283.424 111.279 280.863 104.031C278.26 96.6338 270.796 90.1414 264.905 90.1414C263.951 90.1239 263.006 90.3259 262.135 90.73C256.47 93.4271 255.441 105.191 258.57 112.922C262.688 123.086 273.516 125.669 276.219 126.161H276.21Z" fill="#80BC4B"/>
<path d="M303.883 128.006C300.904 128.006 297.934 127.602 295.047 126.811L294.394 126.636L294.16 125.977C292.704 121.777 286.009 100.069 297.448 84.835C299.415 82.217 304.017 76.0848 312.243 74.6353C313.356 74.4683 314.477 74.3805 315.599 74.3893C319.649 74.3893 325.389 75.3205 329.757 79.7747C338.519 88.7005 335.782 106.798 327.498 117.024C324.553 120.547 320.912 123.35 316.837 125.247C312.762 127.145 308.344 128.085 303.883 128.015V128.006ZM296.335 124.386C298.804 125.01 301.34 125.318 303.883 125.326C307.975 125.406 312.034 124.545 315.774 122.805C319.523 121.074 322.862 118.5 325.573 115.276C333.13 105.964 335.766 89.6142 327.992 81.6899C324.235 77.8595 319.18 77.06 315.607 77.06C314.628 77.06 313.641 77.1215 312.67 77.2709C305.415 78.5447 301.239 84.1146 299.457 86.4954C289.298 100.025 294.905 119.967 296.335 124.395V124.386Z" fill="#80BC4B"/>
<path d="M284.068 265.013C270.194 265.013 259.441 257.317 254.269 252.731L253.265 251.844L254.144 250.816C259.24 244.789 265.683 240.195 272.888 237.445C277.407 235.82 282.127 234.888 286.905 234.695C290.051 234.432 293.298 234.159 296.444 234.159C301.499 234.159 308.678 234.783 312.611 240.195C315.063 243.577 315.348 246.529 315.155 248.4C314.109 258.538 297.264 264.548 285.507 264.987C285.03 265.013 284.545 265.022 284.068 265.022V265.013ZM256.939 251.572C262.16 255.956 271.859 262.334 284.068 262.334C284.511 262.334 284.963 262.325 285.415 262.307C296.21 261.903 311.775 256.298 312.62 248.101C312.762 246.713 312.528 244.491 310.595 241.82C308.118 238.411 303.624 236.83 296.453 236.83C293.398 236.83 290.21 237.093 287.114 237.357C282.562 237.542 278.06 238.42 273.75 239.966C267.365 242.4 261.608 246.38 256.947 251.572H256.939Z" fill="#7DB352"/>
<path d="M295.591 235.02C295.423 235.02 295.256 234.984 295.105 234.914C294.955 234.844 294.812 234.747 294.695 234.624C294.578 234.501 294.486 234.352 294.419 234.194C294.352 234.036 294.319 233.86 294.319 233.684V227.324C294.319 226.972 294.453 226.63 294.695 226.375C294.938 226.12 295.256 225.979 295.599 225.979C295.942 225.979 296.26 226.12 296.503 226.375C296.746 226.63 296.871 226.963 296.871 227.324V233.684C296.871 233.86 296.838 234.036 296.779 234.194C296.712 234.352 296.62 234.501 296.503 234.624C296.386 234.747 296.243 234.844 296.093 234.914C295.942 234.984 295.775 235.02 295.607 235.02H295.591Z" fill="#7DB352"/>
<path d="M314.695 75.2764C314.36 75.2764 314.034 75.1358 313.791 74.8811C313.549 74.6263 313.415 74.2925 313.415 73.9323V67.5717C313.415 67.2203 313.549 66.8777 313.791 66.6229C314.034 66.3681 314.352 66.2275 314.695 66.2275C315.038 66.2275 315.356 66.3681 315.599 66.6229C315.833 66.8777 315.975 67.2115 315.975 67.5717V73.9323C315.975 74.108 315.942 74.2837 315.875 74.4418C315.808 74.6087 315.716 74.7493 315.599 74.8723C315.482 74.9953 315.339 75.0919 315.189 75.1622C315.038 75.2325 314.871 75.2676 314.703 75.2676L314.695 75.2764Z" fill="#80BC4B"/>
<path d="M332.218 85.5906C332.142 85.4324 332.092 85.2655 332.075 85.0898C332.059 84.9141 332.075 84.7384 332.126 84.5715C332.176 84.4046 332.26 84.2464 332.36 84.1146C332.469 83.9829 332.603 83.8686 332.745 83.7896L338.092 80.8289C338.243 80.7411 338.402 80.6884 338.577 80.6708C338.745 80.6532 338.92 80.6708 339.079 80.7147C339.247 80.7674 339.397 80.8465 339.523 80.9607C339.657 81.0749 339.766 81.2155 339.841 81.3736C339.925 81.5318 339.967 81.7075 339.983 81.8832C340 82.0589 339.983 82.2434 339.925 82.4103C339.874 82.5772 339.791 82.7353 339.674 82.8759C339.565 83.0077 339.423 83.1219 339.272 83.201L333.925 86.1616C333.774 86.2407 333.615 86.2934 333.448 86.311C333.28 86.3285 333.113 86.311 332.954 86.2583C332.795 86.2055 332.644 86.1177 332.519 86.0123C332.393 85.8981 332.285 85.7575 332.209 85.6081L332.218 85.5906Z" fill="#80BC4B"/>
<path d="M320.896 249.823C320.879 250.174 320.728 250.508 320.477 250.745C320.226 250.983 319.9 251.106 319.557 251.088L313.515 250.763C313.18 250.737 312.871 250.578 312.645 250.315C312.427 250.051 312.31 249.709 312.327 249.357C312.344 249.006 312.494 248.681 312.737 248.435C312.98 248.198 313.306 248.075 313.641 248.083L319.682 248.408C319.85 248.417 320.017 248.461 320.168 248.54C320.318 248.619 320.452 248.725 320.569 248.857C320.678 248.988 320.77 249.138 320.82 249.305C320.879 249.472 320.904 249.647 320.896 249.823Z" fill="#7DB352"/>
<path d="M297.825 86.2756C297.633 86.5655 297.331 86.7588 296.997 86.8203C296.662 86.8818 296.319 86.794 296.051 86.5919L291.122 82.9021C290.846 82.7 290.662 82.3837 290.603 82.0323C290.545 81.6809 290.628 81.3207 290.821 81.0308C291.013 80.7409 291.315 80.5476 291.649 80.4861C291.984 80.4246 292.327 80.5125 292.603 80.7145L297.532 84.4044C297.808 84.6064 297.992 84.9227 298.051 85.2741C298.109 85.6255 298.026 85.9857 297.833 86.2756H297.825Z" fill="#80BC4B"/>
<path d="M270.763 90.8526C270.428 90.8526 270.102 90.712 269.859 90.4572C269.616 90.2025 269.482 89.8686 269.482 89.5084V83.1479C269.482 82.7965 269.616 82.4538 269.859 82.1991C270.093 81.9443 270.42 81.8037 270.763 81.8037C271.106 81.8037 271.424 81.9443 271.666 82.1991C271.909 82.4538 272.043 82.7877 272.043 83.1479V89.5084C272.043 89.8598 271.909 90.2025 271.666 90.4572C271.424 90.712 271.106 90.8526 270.763 90.8526Z" fill="#80BC4B"/>
<path d="M256.755 100.675C256.562 100.965 256.261 101.158 255.926 101.22C255.591 101.281 255.248 101.193 254.972 100.991L250.043 97.3015C249.767 97.0994 249.583 96.7831 249.525 96.4317C249.466 96.0803 249.55 95.7201 249.742 95.4302C249.935 95.1403 250.236 94.947 250.571 94.8855C250.905 94.824 251.248 94.9119 251.525 95.1139L256.453 98.8038C256.729 99.0058 256.914 99.3221 256.972 99.6735C257.031 100.025 256.947 100.385 256.755 100.675Z" fill="#80BC4B"/>
<path d="M281.951 263.677C282.277 263.572 282.62 263.616 282.921 263.783C283.223 263.949 283.44 264.239 283.541 264.573L285.273 270.67C285.365 271.013 285.323 271.373 285.164 271.681C285.005 271.988 284.729 272.225 284.411 272.322C284.093 272.419 283.742 272.383 283.449 272.216C283.156 272.05 282.93 271.768 282.829 271.435L281.097 265.338C281.005 264.995 281.039 264.626 281.198 264.318C281.357 264.002 281.633 263.774 281.951 263.668V263.677Z" fill="#7DB352"/>
<path d="M329.573 111.006C329.691 110.883 329.841 110.795 329.992 110.725C330.151 110.663 330.318 110.628 330.486 110.637C330.653 110.637 330.82 110.681 330.971 110.751C331.121 110.822 331.264 110.927 331.373 111.05L335.523 115.68C335.64 115.803 335.741 115.961 335.799 116.119C335.866 116.286 335.891 116.462 335.891 116.637C335.891 116.813 335.849 116.989 335.783 117.156C335.716 117.323 335.615 117.463 335.49 117.586C335.364 117.709 335.222 117.806 335.063 117.867C334.904 117.929 334.737 117.955 334.561 117.955C334.393 117.955 334.226 117.903 334.075 117.832C333.925 117.753 333.783 117.648 333.674 117.516L329.523 112.886C329.406 112.754 329.322 112.605 329.255 112.447C329.197 112.28 329.163 112.104 329.172 111.929C329.172 111.753 329.214 111.577 329.281 111.419C329.347 111.261 329.448 111.111 329.565 110.997L329.573 111.006Z" fill="#80BC4B"/>
<path d="M301.465 185.312C294.737 195.283 285.131 200.036 280.051 202.558C269.993 207.504 258.93 209.797 247.843 209.234C236.671 185.936 238.303 160.089 251.667 143.266C263.382 128.515 286.712 117.384 300.361 127.039C315.063 137.441 313.657 167.241 301.465 185.312Z" fill="#7DB352"/>
<path d="M251.048 210.641C249.851 210.641 248.755 210.606 247.784 210.562L247.039 210.527L246.705 209.824C235.366 186.183 236.931 159.712 250.688 142.388C260.194 130.422 275.583 122.067 288.118 122.067C292.704 121.944 297.223 123.288 301.08 125.915C306.486 129.737 310.118 136.212 311.582 144.628C313.934 158.157 310.377 174.428 302.511 186.086C295.624 196.294 285.901 201.135 280.671 203.736C271.407 208.33 261.29 210.694 251.056 210.65L251.048 210.641ZM248.646 207.917C249.391 207.944 250.186 207.961 251.048 207.961C260.888 208.014 270.612 205.747 279.507 201.337C284.587 198.807 293.926 194.168 300.427 184.522C307.791 173.593 311.264 157.753 309.063 145.094C307.724 137.406 304.469 131.538 299.649 128.129C296.218 125.801 292.193 124.624 288.11 124.738C276.461 124.738 261.549 132.882 252.638 144.101C239.667 160.442 238.127 185.409 248.646 207.909V207.917Z" fill="#7DB352"/>
<path d="M310.235 188.08C310.042 188.37 309.741 188.563 309.406 188.625C309.072 188.686 308.729 188.598 308.452 188.396L303.524 184.706C303.39 184.601 303.273 184.478 303.181 184.329C303.088 184.179 303.03 184.012 303.005 183.837C302.98 183.661 302.98 183.485 303.022 183.31C303.055 183.143 303.13 182.976 303.222 182.835C303.314 182.695 303.44 182.572 303.582 182.475C303.724 182.378 303.883 182.317 304.042 182.29C304.21 182.264 304.377 182.264 304.536 182.308C304.695 182.343 304.854 182.422 304.988 182.519L309.917 186.209C310.193 186.42 310.377 186.727 310.436 187.078C310.494 187.43 310.411 187.79 310.218 188.08H310.235Z" fill="#7DB352"/>
<path d="M255.165 139.19C254.972 139.48 254.671 139.673 254.336 139.734C254.002 139.796 253.658 139.708 253.391 139.506L248.462 135.816C248.186 135.614 248.002 135.298 247.943 134.946C247.884 134.595 247.968 134.235 248.161 133.945C248.353 133.655 248.654 133.462 248.989 133.4C249.324 133.339 249.667 133.427 249.943 133.629L254.872 137.318C255.148 137.52 255.332 137.837 255.391 138.188C255.449 138.54 255.365 138.9 255.173 139.19H255.165Z" fill="#7DB352"/>
<path d="M241.475 169.596C241.433 169.763 241.349 169.921 241.249 170.061C241.148 170.202 241.014 170.316 240.872 170.404C240.73 170.492 240.562 170.544 240.403 170.562C240.236 170.58 240.069 170.562 239.91 170.518L234.086 168.796C233.759 168.7 233.483 168.471 233.316 168.164C233.148 167.856 233.106 167.487 233.199 167.145C233.291 166.802 233.508 166.512 233.801 166.336C234.094 166.161 234.445 166.117 234.772 166.213L240.596 167.935C240.755 167.979 240.905 168.067 241.039 168.172C241.173 168.278 241.282 168.418 241.366 168.568C241.449 168.717 241.5 168.893 241.516 169.069C241.533 169.244 241.516 169.42 241.475 169.587V169.596Z" fill="#7DB352"/>
<path d="M276.545 204.403C276.871 204.297 277.214 204.341 277.516 204.508C277.817 204.675 278.035 204.965 278.135 205.299L279.867 211.396C279.917 211.563 279.934 211.747 279.917 211.923C279.901 212.099 279.85 212.274 279.775 212.424C279.691 212.582 279.591 212.722 279.457 212.828C279.323 212.942 279.173 213.021 279.014 213.074C278.855 213.127 278.679 213.144 278.512 213.127C278.344 213.109 278.185 213.056 278.035 212.968C277.884 212.881 277.758 212.766 277.65 212.626C277.541 212.485 277.466 212.327 277.415 212.16L275.683 206.063C275.583 205.721 275.625 205.352 275.784 205.044C275.943 204.728 276.219 204.499 276.537 204.394L276.545 204.403Z" fill="#7DB352"/>
<path d="M208.58 183.081C223.04 183.081 234.303 190.311 238.002 192.683C245.014 197.181 261.7 209.982 265.223 231.532C267.558 245.817 263.725 262.087 254.972 275.072C250.88 281.266 245.659 286.546 239.608 290.604C233.558 294.655 226.805 297.404 219.734 298.687C216.68 299.223 213.592 299.495 210.496 299.504C197.383 299.53 184.697 294.655 174.697 285.737C164.698 276.82 158.037 264.459 155.903 250.851C154.765 243.454 155.024 235.898 156.681 228.607C158.338 221.324 161.35 214.453 165.551 208.4C174.43 195.31 187.827 186.077 201.4 183.705C203.776 183.292 206.178 183.081 208.588 183.09L208.58 183.081ZM210.496 296.824C213.45 296.824 216.404 296.561 219.316 296.043C226.052 294.821 232.487 292.195 238.253 288.329C244.018 284.464 248.997 279.43 252.889 273.526C261.257 261.112 264.93 245.589 262.713 231.989C259.365 211.51 243.382 199.281 236.671 194.968C233.123 192.692 222.32 185.752 208.58 185.752C206.312 185.752 204.044 185.945 201.81 186.34C188.89 188.607 176.112 197.427 167.618 209.955C163.618 215.718 160.74 222.264 159.158 229.213C157.576 236.153 157.325 243.357 158.405 250.412C160.438 263.396 166.79 275.195 176.329 283.699C185.869 292.203 197.977 296.86 210.488 296.833L210.496 296.824Z" fill="#7DB352"/>
<path d="M204.546 184.785C204.212 184.785 203.885 184.645 203.643 184.39C203.408 184.135 203.274 183.801 203.274 183.441V177.08C203.274 176.72 203.408 176.386 203.643 176.132C203.877 175.877 204.203 175.736 204.546 175.736C204.889 175.736 205.207 175.877 205.45 176.132C205.693 176.378 205.818 176.72 205.818 177.08V183.441C205.818 183.792 205.684 184.135 205.45 184.39C205.207 184.645 204.889 184.785 204.546 184.785Z" fill="#7DB352"/>
<path d="M220.672 185.549C220.513 185.497 220.37 185.4 220.245 185.286C220.119 185.171 220.019 185.031 219.944 184.873C219.868 184.715 219.826 184.539 219.818 184.363C219.81 184.188 219.826 184.012 219.885 183.845L221.843 177.827C221.902 177.66 221.985 177.511 222.094 177.379C222.203 177.247 222.337 177.142 222.487 177.063C222.638 176.984 222.797 176.94 222.964 176.931C223.132 176.922 223.299 176.94 223.458 177.001C223.617 177.063 223.759 177.15 223.885 177.265C224.01 177.379 224.111 177.519 224.186 177.678C224.261 177.836 224.303 178.011 224.312 178.178C224.32 178.345 224.303 178.53 224.245 178.697L222.287 184.715C222.236 184.882 222.144 185.04 222.036 185.163C221.927 185.294 221.793 185.4 221.642 185.479C221.492 185.558 221.324 185.602 221.157 185.611C220.99 185.62 220.822 185.602 220.663 185.54L220.672 185.549Z" fill="#7DB352"/>
<path d="M204.672 312.875L199.442 302.93H209.902L204.672 312.875Z" fill="#7B7B7B"/>
<path d="M209.91 278.858H199.45V302.939H209.91V278.858Z" fill="#7B7B7B"/>
<path d="M202.17 298.511C202.421 298.511 202.663 298.59 202.864 298.748C203.074 298.906 203.233 299.126 203.325 299.38C203.417 299.635 203.442 299.916 203.4 300.189C203.35 300.461 203.233 300.716 203.057 300.909C202.881 301.102 202.655 301.243 202.412 301.296C202.17 301.348 201.919 301.322 201.693 301.217C201.467 301.111 201.266 300.927 201.132 300.698C200.998 300.47 200.923 300.198 200.923 299.916C200.923 299.547 201.057 299.187 201.291 298.924C201.525 298.66 201.843 298.511 202.178 298.511H202.17Z" fill="#9B9696"/>
<path d="M207.174 298.511C207.425 298.511 207.668 298.59 207.868 298.748C208.078 298.906 208.237 299.126 208.329 299.38C208.421 299.635 208.446 299.916 208.404 300.189C208.354 300.461 208.237 300.716 208.061 300.909C207.885 301.102 207.659 301.243 207.417 301.296C207.174 301.348 206.923 301.322 206.697 301.217C206.471 301.111 206.27 300.927 206.136 300.698C206.002 300.47 205.927 300.198 205.927 299.916C205.927 299.547 206.061 299.187 206.295 298.924C206.53 298.66 206.848 298.511 207.182 298.511H207.174Z" fill="#9B9696"/>
<path d="M261.993 274.167H156.706V291.254H261.993V274.167Z" fill="#A67C52"/>
<path d="M161.401 291.255L170.187 354.966L248.897 355.335C251.692 334.101 254.487 312.858 257.29 291.624L161.401 291.255Z" fill="#A67C52"/>
<path d="M183.467 224.732H198.404C199.735 224.732 201.007 225.321 201.944 226.375C202.881 227.43 203.408 228.862 203.408 230.346V274.431H178.455V230.346C178.455 228.853 178.982 227.43 179.919 226.375C180.856 225.321 182.128 224.732 183.459 224.732H183.467Z" fill="white"/>
<path d="M190.94 229.934C187.074 229.934 183.944 233.219 183.944 237.278V238.183C183.944 242.242 187.074 245.528 190.94 245.528C194.806 245.528 197.936 242.242 197.936 238.183V237.278C197.936 233.219 194.806 229.934 190.94 229.934Z" fill="#0E4240"/>
<path d="M187.442 241.292C187.091 241.292 186.747 241.134 186.496 240.853C186.245 240.572 186.103 240.185 186.103 239.79H186.446C186.446 240.089 186.555 240.37 186.739 240.581C186.923 240.792 187.183 240.906 187.442 240.906C187.701 240.906 187.961 240.792 188.145 240.581C188.329 240.37 188.438 240.089 188.438 239.79H188.781C188.781 240.185 188.639 240.572 188.388 240.853C188.137 241.134 187.793 241.292 187.442 241.292Z" fill="#F18340"/>
<path d="M190.463 239.272C190.195 239.272 189.936 239.184 189.718 239.017C189.501 238.85 189.325 238.613 189.224 238.341C189.124 238.068 189.099 237.761 189.149 237.471C189.199 237.181 189.325 236.909 189.517 236.698C189.701 236.487 189.944 236.346 190.203 236.285C190.463 236.223 190.731 236.258 190.982 236.373C191.233 236.487 191.434 236.68 191.584 236.926C191.735 237.172 191.81 237.462 191.81 237.761C191.81 237.963 191.777 238.156 191.71 238.341C191.643 238.525 191.542 238.692 191.417 238.833C191.291 238.973 191.141 239.087 190.982 239.158C190.823 239.237 190.647 239.272 190.471 239.272H190.463ZM190.463 236.645C190.262 236.645 190.07 236.715 189.911 236.838C189.743 236.961 189.618 237.137 189.542 237.339C189.467 237.541 189.45 237.77 189.484 237.989C189.526 238.209 189.618 238.402 189.76 238.56C189.902 238.718 190.078 238.824 190.27 238.868C190.463 238.912 190.664 238.885 190.848 238.806C191.032 238.718 191.183 238.578 191.291 238.393C191.4 238.209 191.459 237.989 191.459 237.77C191.459 237.471 191.35 237.19 191.166 236.979C190.982 236.768 190.722 236.654 190.463 236.654" fill="#F18340"/>
<path d="M194.203 239.272C193.936 239.272 193.676 239.184 193.459 239.017C193.241 238.85 193.065 238.613 192.965 238.341C192.864 238.068 192.839 237.761 192.89 237.471C192.94 237.181 193.065 236.909 193.258 236.698C193.442 236.487 193.685 236.346 193.944 236.285C194.203 236.223 194.471 236.258 194.722 236.373C194.965 236.487 195.174 236.68 195.325 236.926C195.475 237.172 195.551 237.462 195.551 237.761C195.551 238.156 195.408 238.543 195.157 238.824C194.906 239.105 194.563 239.263 194.212 239.263M194.212 236.636C194.011 236.636 193.818 236.698 193.659 236.821C193.492 236.944 193.367 237.119 193.291 237.321C193.216 237.524 193.199 237.752 193.233 237.972C193.275 238.191 193.367 238.385 193.509 238.543C193.651 238.701 193.827 238.806 194.019 238.85C194.212 238.894 194.413 238.868 194.597 238.789C194.781 238.701 194.931 238.56 195.04 238.376C195.149 238.191 195.208 237.972 195.208 237.752C195.208 237.453 195.099 237.172 194.915 236.961C194.731 236.75 194.471 236.636 194.212 236.636Z" fill="#F18340"/>
<path d="M192.538 236.566H192.195V239.079H192.538V236.566Z" fill="#F18340"/>
<path d="M191.835 236.566H191.492V239.079H191.835V236.566Z" fill="#F18340"/>
<path d="M188.789 236.566H188.446V237.665H188.789V236.566Z" fill="#F18340"/>
<path d="M188.789 239.29H188.446V239.791H188.789V239.29Z" fill="#F18340"/>
<path d="M195.576 236.566H195.233V239.079H195.576V236.566Z" fill="#F18340"/>
<path d="M187.442 239.272C187.174 239.272 186.915 239.184 186.697 239.017C186.48 238.85 186.304 238.613 186.204 238.341C186.103 238.068 186.078 237.761 186.128 237.471C186.178 237.181 186.304 236.909 186.496 236.698C186.68 236.487 186.923 236.346 187.183 236.285C187.442 236.223 187.71 236.258 187.961 236.373C188.203 236.487 188.413 236.68 188.563 236.926C188.714 237.172 188.789 237.462 188.789 237.761C188.789 238.156 188.647 238.543 188.396 238.824C188.145 239.105 187.802 239.263 187.45 239.263M187.45 236.636C187.25 236.636 187.057 236.698 186.898 236.821C186.731 236.944 186.605 237.119 186.53 237.321C186.455 237.524 186.438 237.752 186.471 237.972C186.513 238.191 186.605 238.385 186.747 238.543C186.89 238.701 187.065 238.806 187.258 238.85C187.45 238.894 187.651 238.868 187.835 238.789C188.019 238.701 188.17 238.56 188.279 238.376C188.388 238.191 188.446 237.972 188.446 237.752C188.446 237.453 188.337 237.172 188.153 236.961C187.969 236.75 187.71 236.636 187.45 236.636Z" fill="#F18340"/>
<path d="M192.446 236.154H192.229L192.212 235.978C192.212 235.978 192.212 235.934 192.212 235.917C192.212 235.855 192.212 235.794 192.212 235.732C192.212 235.635 192.237 235.53 192.27 235.442C192.321 235.337 192.396 235.249 192.496 235.187C192.664 235.091 192.848 235.047 193.04 235.064H193.199V235.284C193.216 235.354 193.216 235.433 193.199 235.504C193.191 235.6 193.166 235.697 193.116 235.794C193.032 235.934 192.915 236.04 192.772 236.083C192.705 236.11 192.639 236.127 192.563 236.136C192.53 236.136 192.496 236.145 192.463 236.145C192.454 236.145 192.438 236.145 192.429 236.145M192.856 235.442C192.789 235.442 192.722 235.468 192.664 235.504C192.622 235.53 192.597 235.556 192.572 235.6C192.555 235.644 192.547 235.688 192.547 235.741C192.588 235.741 192.622 235.723 192.664 235.706C192.731 235.688 192.789 235.635 192.823 235.574C192.839 235.53 192.856 235.486 192.856 235.442Z" fill="#F18340"/>
<path d="M191.844 236.153H191.467C191.157 236.153 190.856 236.013 190.63 235.767C190.413 235.521 190.287 235.178 190.287 234.827V234.133H190.664C190.973 234.133 191.275 234.273 191.5 234.519C191.718 234.765 191.844 235.108 191.844 235.459V236.153ZM190.63 234.519V234.827C190.63 235.073 190.722 235.31 190.873 235.486C191.032 235.661 191.241 235.758 191.467 235.758H191.5V235.451C191.5 235.205 191.408 234.959 191.258 234.783C191.099 234.607 190.89 234.511 190.664 234.511H190.63V234.519Z" fill="#F18340"/>
<path d="M184.538 250.675H185.651L185.099 251.615L184.538 250.675ZM184.538 250.675L185.099 249.735L185.651 250.675H184.538Z" fill="white"/>
<path d="M184.781 249.735L185.233 250.746H184.329L184.781 249.735ZM184.329 250.746H185.233L184.781 251.756L184.329 250.746Z" fill="#717070"/>
<path d="M184.538 256.298H185.651L185.099 257.238L184.538 256.298ZM184.538 256.298L185.099 255.358L185.651 256.298H184.538Z" fill="white"/>
<path d="M184.781 255.121L185.233 256.131H184.329L184.781 255.121ZM184.329 256.131H185.233L184.781 257.142L184.329 256.131Z" fill="#717070"/>
<path d="M186.212 250.675H187.325L186.773 251.615L186.212 250.675ZM186.212 250.675L186.773 249.735L187.325 250.675H186.212Z" fill="white"/>
<path d="M186.873 249.735L187.325 250.746H186.421L186.873 249.735ZM186.421 250.746H187.325L186.873 251.756L186.421 250.746Z" fill="#717070"/>
<path d="M186.212 256.298H187.325L186.773 257.238L186.212 256.298ZM186.212 256.298L186.773 255.358L187.325 256.298H186.212Z" fill="white"/>
<path d="M186.873 255.121L187.325 256.131H186.421L186.873 255.121ZM186.421 256.131H187.325L186.873 257.142L186.421 256.131Z" fill="#717070"/>
<path d="M188.438 250.675H189.551L188.998 251.615L188.438 250.675ZM188.438 250.675L188.998 249.735L189.551 250.675H188.438Z" fill="white"/>
<path d="M188.973 249.735L189.425 250.746H188.521L188.973 249.735ZM188.521 250.746H189.425L188.973 251.756L188.521 250.746Z" fill="#717070"/>
<path d="M188.438 256.298H189.551L188.998 257.238L188.438 256.298ZM188.438 256.298L188.998 255.358L189.551 256.298H188.438Z" fill="white"/>
<path d="M188.973 255.121L189.425 256.131H188.521L188.973 255.121ZM188.521 256.131H189.425L188.973 257.142L188.521 256.131Z" fill="#717070"/>
<path d="M189.551 253.179H190.664L190.111 254.119L189.551 253.179ZM189.551 253.179L190.111 252.239L190.664 253.179H189.551Z" fill="white"/>
<path d="M189.877 252.433L190.329 253.443H189.425L189.877 252.433ZM189.425 253.443H190.329L189.877 254.453L189.425 253.443Z" fill="#717070"/>
<path d="M189.551 258.802H190.664L190.111 259.742L189.551 258.802ZM189.551 258.802L190.111 257.862L190.664 258.802H189.551Z" fill="white"/>
<path d="M189.877 257.818L190.329 258.829H189.425L189.877 257.818ZM189.425 258.829H190.329L189.877 259.839L189.425 258.829Z" fill="#717070"/>
<path d="M183.425 253.179H184.538L183.986 254.119L183.425 253.179ZM183.425 253.179L183.986 252.239L184.538 253.179H183.425Z" fill="white"/>
<path d="M183.877 252.433L184.329 253.443H183.425L183.877 252.433ZM183.425 253.443H184.329L183.877 254.453L183.425 253.443Z" fill="#717070"/>
<path d="M185.66 253.179H186.773L186.22 254.119L185.66 253.179ZM185.66 253.179L186.22 252.239L186.773 253.179H185.66Z" fill="white"/>
<path d="M185.978 252.433L186.429 253.443H185.526L185.978 252.433ZM185.526 253.443H186.429L185.978 254.453L185.526 253.443Z" fill="#717070"/>
<path d="M187.885 253.179H188.998L188.446 254.119L187.885 253.179ZM187.885 253.179L188.446 252.239L188.998 253.179H187.885Z" fill="white"/>
<path d="M188.078 252.433L188.53 253.443H187.626L188.078 252.433ZM187.626 253.443H188.53L188.078 254.453L187.626 253.443Z" fill="#717070"/>
<path d="M183.425 258.802H184.538L183.986 259.742L183.425 258.802ZM183.425 258.802L183.986 257.862L184.538 258.802H183.425Z" fill="white"/>
<path d="M183.877 257.818L184.329 258.829H183.425L183.877 257.818ZM183.425 258.829H184.329L183.877 259.839L183.425 258.829Z" fill="#717070"/>
<path d="M185.66 258.802H186.773L186.22 259.742L185.66 258.802ZM185.66 258.802L186.22 257.862L186.773 258.802H185.66Z" fill="white"/>
<path d="M185.978 257.818L186.429 258.829H185.526L185.978 257.818ZM185.526 258.829H186.429L185.978 259.839L185.526 258.829Z" fill="#717070"/>
<path d="M187.885 258.802H188.998L188.446 259.742L187.885 258.802ZM187.885 258.802L188.446 257.862L188.998 258.802H187.885Z" fill="white"/>
<path d="M188.078 257.818L188.53 258.829H187.626L188.078 257.818ZM187.626 258.829H188.53L188.078 259.839L187.626 258.829Z" fill="#717070"/>
<path d="M193.902 266.216H194.864L194.387 267.025L193.91 266.216H193.902ZM193.902 266.216L194.379 265.408L194.856 266.216H193.894H193.902Z" fill="white"/>
<path d="M193.902 269.441H194.864L194.387 270.249L193.91 269.441H193.902ZM193.902 269.441L194.379 268.633L194.856 269.441H193.894H193.902Z" fill="white"/>
<path d="M195.341 264.6H196.304L195.827 265.408L195.35 264.6H195.341ZM195.341 264.6L195.818 263.792L196.295 264.6H195.333H195.341Z" fill="white"/>
<path d="M195.91 263.792L196.295 264.662H195.517L195.902 263.792H195.91ZM195.526 264.662H196.304L195.919 265.531L195.534 264.662H195.526Z" fill="#717070"/>
<path d="M195.341 269.441H196.304L195.827 270.249L195.35 269.441H195.341ZM195.341 269.441L195.818 268.633L196.295 269.441H195.333H195.341Z" fill="white"/>
<path d="M195.91 268.431L196.295 269.3H195.517L195.902 268.431H195.91ZM195.526 269.3H196.304L195.919 270.17L195.534 269.3H195.526Z" fill="#717070"/>
<path d="M197.258 264.6H198.22L197.743 265.408L197.266 264.6H197.258ZM197.258 264.6L197.735 263.792L198.212 264.6H197.249H197.258Z" fill="white"/>
<path d="M197.718 263.792L198.103 264.662H197.325L197.71 263.792H197.718ZM197.333 264.662H198.111L197.726 265.531L197.341 264.662H197.333Z" fill="#717070"/>
<path d="M197.258 269.441H198.22L197.743 270.249L197.266 269.441H197.258ZM197.258 269.441L197.735 268.633L198.212 269.441H197.249H197.258Z" fill="white"/>
<path d="M197.718 268.431L198.103 269.3H197.325L197.71 268.431H197.718ZM197.333 269.3H198.111L197.726 270.17L197.341 269.3H197.333Z" fill="#717070"/>
<path d="M198.22 266.753H199.182L198.705 267.561L198.228 266.753H198.22ZM198.22 266.753L198.697 265.944L199.174 266.753H198.212H198.22Z" fill="white"/>
<path d="M198.496 266.111L198.881 266.981H198.103L198.488 266.111H198.496ZM198.111 266.981H198.889L198.505 267.851L198.12 266.981H198.111Z" fill="#717070"/>
<path d="M198.22 271.602H199.182L198.705 272.41L198.228 271.602H198.22ZM198.22 271.602L198.697 270.794L199.174 271.602H198.212H198.22Z" fill="white"/>
<path d="M192.94 266.753H193.902L193.425 267.561L192.948 266.753H192.94ZM192.94 266.753L193.417 265.944L193.894 266.753H192.931H192.94Z" fill="white"/>
<path d="M194.856 266.753H195.818L195.341 267.561L194.864 266.753H194.856ZM194.856 266.753L195.333 265.944L195.81 266.753H194.848H194.856Z" fill="white"/>
<path d="M195.132 266.111L195.517 266.981H194.739L195.124 266.111H195.132ZM194.747 266.981H195.526L195.141 267.851L194.756 266.981H194.747Z" fill="#717070"/>
<path d="M196.781 266.753H197.743L197.266 267.561L196.789 266.753H196.781ZM196.781 266.753L197.258 265.944L197.735 266.753H196.772H196.781Z" fill="white"/>
<path d="M196.94 266.111L197.325 266.981H196.546L196.931 266.111H196.94ZM196.555 266.981H197.333L196.948 267.851L196.563 266.981H196.555Z" fill="#717070"/>
<path d="M181.676 236.848C181.676 235.609 180.781 234.599 179.676 234.599C178.572 234.599 177.676 235.609 177.676 236.848V239.097C177.676 240.335 178.572 241.346 179.676 241.346C180.781 241.346 181.676 240.335 181.676 239.097V236.848Z" fill="white"/>
<path d="M181.676 248.093C181.676 246.854 180.781 245.844 179.676 245.844C178.572 245.844 177.676 246.854 177.676 248.093V250.342C177.676 251.581 178.572 252.591 179.676 252.591C180.781 252.591 181.676 251.581 181.676 250.342V248.093Z" fill="white"/>
</g>
<defs>
<clipPath id="clip0_272_35365">
<rect width="241" height="311" fill="white" transform="translate(99 66.2363)"/>
</clipPath>
</defs>
</svg>
