<svg width="436" height="436" viewBox="0 0 436 436" fill="none" xmlns="http://www.w3.org/2000/svg">
<path d="M217.967 435.934C338.347 435.934 435.934 338.347 435.934 217.967C435.934 97.5871 338.347 0 217.967 0C97.5871 0 0 97.5871 0 217.967C0 338.347 97.5871 435.934 217.967 435.934Z" fill="#9ED0B3"/>
<g clip-path="url(#clip0_658_34390)">
<path d="M215.891 379C251.101 379 279.652 371.767 279.652 362.84C279.652 353.912 251.109 346.68 215.891 346.68C180.674 346.68 152.131 353.912 152.131 362.84C152.131 371.767 180.674 379 215.891 379Z" fill="#EEEEEE"/>
<path d="M189.438 168.664C196.635 187.16 189.381 204.553 187.716 208.302C167.374 212.633 148.345 201.6 142.772 184.687C137.224 167.885 145.196 145.211 158.145 142.07C170.776 139.006 184.313 155.465 189.446 168.664H189.438Z" fill="#92C361"/>
<path d="M161.27 140.4C174.032 140.4 186.1 156.637 190.58 168.175C197.451 185.833 191.649 202.507 188.834 208.858L188.573 209.457L187.961 209.585C184.958 210.227 181.898 210.552 178.83 210.552C161.58 210.552 146.615 200.333 141.589 185.114C138.293 175.134 139.459 162.423 144.559 152.734C147.945 146.298 152.67 142.052 157.851 140.802C158.969 140.529 160.12 140.392 161.27 140.392V140.4ZM186.851 207.154C189.601 200.718 194.578 185.337 188.287 169.159C183.391 156.586 171.674 143.011 161.27 143.011C160.307 143.011 159.353 143.122 158.414 143.353C153.927 144.44 149.773 148.223 146.738 154.009C141.964 163.082 140.871 174.963 143.939 184.267C148.541 198.21 162.894 207.95 178.83 207.95C181.523 207.95 184.207 207.685 186.851 207.163V207.154Z" fill="#92C361"/>
<path d="M142.919 184.147C142.993 184.481 142.935 184.841 142.764 185.132C142.593 185.423 142.315 185.637 141.989 185.714L136.244 187.117C135.926 187.194 135.583 187.135 135.306 186.955C135.029 186.775 134.825 186.475 134.751 186.142C134.678 185.808 134.735 185.448 134.906 185.157C135.078 184.866 135.355 184.652 135.681 184.575L141.426 183.172C141.744 183.095 142.087 183.154 142.364 183.334C142.642 183.514 142.846 183.814 142.919 184.147Z" fill="#92C361"/>
<path d="M200.453 178.121C200.453 178.464 200.323 178.798 200.086 179.046C199.849 179.294 199.539 179.431 199.205 179.431H193.305C193.142 179.431 192.979 179.397 192.832 179.328C192.685 179.26 192.547 179.166 192.432 179.046C192.318 178.926 192.228 178.78 192.163 178.618C192.098 178.464 192.065 178.293 192.065 178.121C192.065 177.95 192.098 177.779 192.163 177.625C192.228 177.471 192.318 177.325 192.432 177.205C192.547 177.086 192.685 176.992 192.832 176.923C192.979 176.855 193.142 176.82 193.305 176.82H199.205C199.531 176.82 199.849 176.957 200.086 177.205C200.323 177.454 200.453 177.779 200.453 178.13V178.121Z" fill="#92C361"/>
<path d="M188.45 148.831C188.679 149.079 188.801 149.422 188.785 149.764C188.777 150.107 188.638 150.44 188.393 150.671L184.101 154.925C183.865 155.165 183.538 155.293 183.212 155.276C182.885 155.268 182.567 155.122 182.347 154.866C182.118 154.617 182.004 154.275 182.012 153.933C182.02 153.59 182.159 153.256 182.404 153.025L186.696 148.771C186.933 148.532 187.259 148.412 187.585 148.42C187.912 148.429 188.222 148.583 188.45 148.831Z" fill="#92C361"/>
<path d="M158.251 203.174C158.561 203.294 158.814 203.534 158.953 203.842C159.092 204.159 159.108 204.51 159.002 204.835L157.019 210.672C156.962 210.835 156.88 210.98 156.774 211.109C156.668 211.237 156.53 211.34 156.383 211.408C156.236 211.485 156.073 211.528 155.909 211.537C155.746 211.545 155.583 211.52 155.428 211.46C155.273 211.4 155.134 211.314 155.012 211.203C154.889 211.092 154.791 210.946 154.726 210.792C154.653 210.638 154.62 210.467 154.612 210.296C154.612 210.125 154.628 209.953 154.685 209.791L156.668 203.953C156.725 203.791 156.807 203.645 156.913 203.517C157.019 203.388 157.158 203.286 157.305 203.217C157.452 203.14 157.615 203.106 157.778 203.097C157.941 203.089 158.104 203.114 158.259 203.174H158.251Z" fill="#92C361"/>
<path d="M288.815 268.336C274.217 268.884 263.365 260.393 259.203 256.704C264.034 250.995 270.137 246.638 276.975 244.028C281.284 242.487 285.78 241.605 290.324 241.417C299.423 240.655 309.606 239.799 314.306 246.262C314.82 246.972 316.893 249.822 316.534 253.323C315.628 262.148 299.928 267.908 288.815 268.319V268.336Z" fill="#7DB352"/>
<path d="M164.787 114.893C160.936 120.731 153.845 123.701 146.55 122.519C139.778 115.107 139.149 104.365 144.143 97.7659C148.704 91.7315 158.357 88.6074 164.151 93.4349C169.993 98.3051 168.851 108.73 164.787 114.893Z" fill="#7DB352"/>
<path d="M149.716 124.086C148.59 124.086 147.472 123.992 146.354 123.812L145.938 123.744L145.644 123.427C138.627 115.75 137.558 104.366 143.156 96.9533C144.877 94.7707 147.023 92.9989 149.455 91.7578C151.887 90.5167 154.539 89.8405 157.239 89.7635C160.006 89.7035 162.715 90.6365 164.91 92.4083C171.168 97.6209 170.417 108.628 165.791 115.638C163.955 118.309 161.54 120.466 158.733 121.938C155.934 123.41 152.833 124.146 149.7 124.086H149.716ZM147.154 121.296C148.003 121.416 148.859 121.476 149.716 121.476C152.441 121.536 155.151 120.902 157.59 119.627C160.038 118.352 162.152 116.477 163.759 114.158C167.659 108.243 168.459 98.6908 163.376 94.4625C161.613 93.0588 159.459 92.3227 157.248 92.3826C154.922 92.4425 152.637 93.0331 150.54 94.103C148.443 95.1729 146.599 96.7051 145.114 98.5881C140.439 104.777 141.352 114.671 147.154 121.305V121.296Z" fill="#7DB352"/>
<path d="M127.097 110.717C133.952 110.717 141.867 114.671 146.795 120.551C153.306 128.332 154.84 140.058 150.703 150.449L150.54 150.86L150.181 151.083C145.685 153.83 140.577 155.285 135.371 155.311C127.489 155.311 120.194 151.776 115.861 145.853C109.211 136.771 108.379 121.253 117.232 114.081C120.064 111.821 123.54 110.64 127.097 110.725V110.717ZM148.574 149.028C152.148 139.664 150.736 129.205 144.926 122.272C140.447 116.922 133.274 113.319 127.089 113.319C124.086 113.242 121.141 114.235 118.742 116.135C111.137 122.298 112.002 136.309 117.82 144.252C121.696 149.542 128.248 152.692 135.363 152.692C139.99 152.666 144.535 151.408 148.566 149.028H148.574Z" fill="#80BC4B"/>
<path d="M285.494 112.369C288.236 120.141 286.196 129.239 280.255 135.779C279.594 135.702 266.253 133.878 261.447 121.998C258.077 113.661 259.399 101.61 265.552 98.6739C271.932 95.6354 282.206 103.048 285.494 112.36V112.369Z" fill="#80BC4B"/>
<path d="M328.871 124.634C321.805 133.339 309.981 136.891 298.476 133.758C297.627 131.31 290.431 109.655 301.495 94.9334C303.339 92.4854 307.615 86.802 315.155 85.4753C315.66 85.3897 325.02 83.8833 331.156 90.1316C339.454 98.5882 336.28 115.51 328.871 124.634Z" fill="#80BC4B"/>
<path d="M267.861 237.275C272.063 262.962 255.262 295.769 224.524 301.196C210.71 303.636 196.545 300.203 185.146 291.661C173.738 283.119 166.027 270.169 163.71 255.652C158.488 222.981 183.302 195.891 207.046 191.731C223.913 188.778 237.964 197.791 241.897 200.316C246.825 203.474 264.344 215.791 267.869 237.275H267.861Z" fill="#7DB352"/>
<path d="M149.39 92.9645C149.063 92.9645 148.745 92.8276 148.509 92.5794C148.272 92.3312 148.141 92.0059 148.141 91.655V85.458C148.141 85.1156 148.272 84.7818 148.509 84.5336C148.745 84.2854 149.055 84.1484 149.39 84.1484C149.724 84.1484 150.034 84.2854 150.271 84.5336C150.508 84.7818 150.638 85.1071 150.638 85.458V91.655C150.638 91.9973 150.508 92.3312 150.271 92.5794C150.034 92.8276 149.724 92.9645 149.39 92.9645Z" fill="#7DB352"/>
<path d="M168.998 121.793C168.924 121.947 168.826 122.084 168.704 122.204C168.581 122.315 168.443 122.409 168.288 122.46C168.133 122.512 167.969 122.537 167.806 122.529C167.643 122.52 167.488 122.478 167.333 122.4L162.013 119.721C161.719 119.567 161.491 119.302 161.376 118.977C161.27 118.651 161.287 118.292 161.425 117.975C161.572 117.667 161.825 117.428 162.135 117.308C162.445 117.188 162.788 117.214 163.082 117.368L168.402 120.047C168.549 120.124 168.679 120.226 168.785 120.355C168.891 120.483 168.981 120.629 169.03 120.791C169.087 120.954 169.104 121.125 169.095 121.296C169.087 121.468 169.047 121.639 168.973 121.793H168.998Z" fill="#7DB352"/>
<path d="M145.865 121.416C152.099 128.863 153.535 139.956 149.561 149.944C137.73 157.1 123.678 154.378 116.841 145.048C110.598 136.532 109.815 121.724 117.983 115.108C126.224 108.423 139.272 113.55 145.857 121.416H145.865Z" fill="#80BC4B"/>
<path d="M125.8 113.19C125.474 113.19 125.155 113.053 124.919 112.805C124.682 112.557 124.552 112.231 124.552 111.881V105.684C124.552 105.341 124.682 105.007 124.919 104.759C125.155 104.511 125.465 104.374 125.8 104.374C126.135 104.374 126.445 104.511 126.681 104.759C126.918 105.007 127.048 105.333 127.048 105.684V111.881C127.048 112.223 126.918 112.557 126.681 112.805C126.445 113.053 126.135 113.19 125.8 113.19Z" fill="#80BC4B"/>
<path d="M114.678 120.157C114.605 120.311 114.507 120.448 114.385 120.568C114.262 120.679 114.123 120.774 113.968 120.825C113.813 120.885 113.65 120.902 113.487 120.893C113.324 120.885 113.169 120.842 113.014 120.765L107.694 118.086C107.4 117.932 107.171 117.667 107.057 117.341C106.951 117.016 106.967 116.657 107.106 116.34C107.253 116.032 107.506 115.792 107.816 115.672C108.126 115.561 108.469 115.578 108.762 115.732L114.083 118.411C114.23 118.488 114.36 118.591 114.466 118.719C114.572 118.848 114.662 118.993 114.711 119.156C114.768 119.319 114.784 119.49 114.776 119.661C114.768 119.832 114.727 120.003 114.654 120.157H114.678Z" fill="#80BC4B"/>
<path d="M113.919 140.375C114.017 140.512 114.091 140.666 114.132 140.828C114.172 140.991 114.181 141.171 114.164 141.333C114.14 141.504 114.091 141.667 114.009 141.813C113.928 141.958 113.822 142.095 113.691 142.198L109.007 145.964C108.746 146.169 108.42 146.246 108.093 146.203C107.775 146.152 107.481 145.972 107.286 145.707C107.09 145.433 107 145.091 107.041 144.757C107.082 144.415 107.245 144.106 107.498 143.892L112.181 140.126C112.312 140.024 112.459 139.947 112.614 139.904C112.769 139.861 112.932 139.852 113.095 139.87C113.258 139.895 113.414 139.947 113.552 140.032C113.691 140.118 113.813 140.229 113.919 140.366V140.375Z" fill="#80BC4B"/>
<path d="M163.816 234.955C163.8 235.298 163.653 235.623 163.408 235.854C163.163 236.085 162.845 236.205 162.511 236.188L156.619 235.871C156.293 235.854 155.983 235.7 155.763 235.443C155.542 235.186 155.428 234.844 155.444 234.502C155.461 234.159 155.607 233.834 155.852 233.603C156.097 233.372 156.415 233.252 156.75 233.269L162.641 233.586C162.968 233.603 163.278 233.757 163.498 234.014C163.718 234.271 163.832 234.613 163.816 234.955Z" fill="#7DB352"/>
<path d="M165.456 262.918C165.619 263.218 165.66 263.577 165.57 263.911C165.481 264.245 165.269 264.527 164.983 264.698L159.842 267.737C159.557 267.908 159.214 267.951 158.896 267.857C158.578 267.763 158.308 267.54 158.145 267.241C157.982 266.941 157.941 266.581 158.031 266.248C158.121 265.914 158.333 265.631 158.618 265.46L163.759 262.422C164.045 262.25 164.387 262.208 164.706 262.302C165.024 262.396 165.293 262.619 165.456 262.918Z" fill="#7DB352"/>
<path d="M321.511 159.522C321.511 159.693 321.478 159.865 321.413 160.019C321.348 160.173 321.258 160.318 321.144 160.438C321.03 160.558 320.891 160.652 320.744 160.721C320.597 160.789 320.434 160.823 320.271 160.823H314.371C314.045 160.823 313.727 160.686 313.49 160.438C313.253 160.19 313.123 159.865 313.123 159.514C313.123 159.163 313.253 158.837 313.49 158.589C313.727 158.341 314.037 158.204 314.371 158.204H320.271C320.434 158.204 320.597 158.238 320.744 158.307C320.891 158.375 321.03 158.469 321.144 158.589C321.258 158.709 321.348 158.855 321.413 159.009C321.478 159.163 321.511 159.334 321.511 159.505V159.522Z" fill="#7DB352"/>
<path d="M172.31 88.1457C172.539 88.3939 172.653 88.7362 172.645 89.0786C172.637 89.421 172.498 89.7548 172.253 89.9859L167.961 94.2399C167.725 94.4795 167.398 94.6079 167.072 94.5908C166.745 94.5823 166.427 94.4368 166.207 94.18C165.978 93.9318 165.864 93.5894 165.872 93.247C165.881 92.9046 166.019 92.5708 166.264 92.3397L170.556 88.0857C170.793 87.8461 171.119 87.7262 171.445 87.7348C171.772 87.7434 172.082 87.8974 172.31 88.1457Z" fill="#7DB352"/>
<path d="M268.775 96.6797C275.555 96.6797 283.748 103.656 286.661 111.915C289.549 120.107 287.387 129.83 281.153 136.686L280.729 137.157L280.117 137.08C279.521 137.011 265.437 135.197 260.305 122.512C256.731 113.687 258.02 100.831 265.046 97.4928C266.221 96.945 267.494 96.6711 268.775 96.6882V96.6797ZM279.798 134.384C285.045 128.281 286.832 119.884 284.335 112.823C281.798 105.616 274.519 99.2903 268.775 99.2903C267.844 99.2732 266.922 99.47 266.074 99.8638C260.55 102.491 259.546 113.952 262.598 121.485C266.612 131.388 277.171 133.904 279.807 134.384H279.798Z" fill="#80BC4B"/>
<path d="M306.783 136.181C303.878 136.181 300.981 135.787 298.166 135.016L297.53 134.845L297.301 134.203C295.881 130.112 289.353 108.962 300.508 94.12C302.425 91.5693 306.913 85.5949 314.934 84.1826C316.019 84.02 317.113 83.9344 318.206 83.943C322.156 83.943 327.753 84.8503 332.012 89.1898C340.556 97.8861 337.887 115.518 329.809 125.481C326.937 128.914 323.388 131.644 319.414 133.493C315.44 135.342 311.132 136.258 306.783 136.189V136.181ZM299.423 132.654C301.83 133.262 304.302 133.561 306.783 133.57C310.773 133.647 314.73 132.808 318.378 131.113C322.033 129.427 325.289 126.919 327.933 123.778C335.301 114.705 337.871 98.7763 330.291 91.0558C326.627 87.3239 321.699 86.545 318.214 86.545C317.26 86.545 316.297 86.6049 315.35 86.7504C308.276 87.9915 304.204 93.4181 302.466 95.7377C292.56 108.919 298.027 128.349 299.423 132.663V132.654Z" fill="#80BC4B"/>
<path d="M287.46 269.663C273.932 269.663 263.446 262.165 258.404 257.697L257.424 256.832L258.281 255.831C263.251 249.959 269.534 245.483 276.559 242.804C280.965 241.22 285.567 240.313 290.227 240.125C293.295 239.868 296.461 239.603 299.529 239.603C304.457 239.603 311.458 240.21 315.293 245.483C317.684 248.778 317.961 251.654 317.774 253.477C316.754 263.355 300.328 269.209 288.864 269.637C288.399 269.663 287.926 269.671 287.46 269.671V269.663ZM261.007 256.567C266.098 260.838 275.555 267.052 287.46 267.052C287.893 267.052 288.334 267.044 288.774 267.027C299.3 266.633 314.477 261.172 315.301 253.186C315.44 251.834 315.212 249.668 313.327 247.066C310.911 243.745 306.53 242.205 299.537 242.205C296.559 242.205 293.45 242.461 290.431 242.718C285.992 242.898 281.602 243.754 277.399 245.26C271.174 247.631 265.56 251.509 261.015 256.567H261.007Z" fill="#7DB352"/>
<path d="M298.696 240.441C298.533 240.441 298.37 240.407 298.223 240.339C298.076 240.27 297.937 240.176 297.823 240.056C297.709 239.936 297.619 239.791 297.554 239.637C297.489 239.483 297.456 239.312 297.456 239.14V232.943C297.456 232.601 297.587 232.267 297.823 232.019C298.06 231.771 298.37 231.634 298.704 231.634C299.039 231.634 299.349 231.771 299.586 232.019C299.822 232.267 299.945 232.592 299.945 232.943V239.14C299.945 239.312 299.912 239.483 299.855 239.637C299.79 239.791 299.7 239.936 299.586 240.056C299.472 240.176 299.333 240.27 299.186 240.339C299.039 240.407 298.876 240.441 298.713 240.441H298.696Z" fill="#7DB352"/>
<path d="M317.325 84.8073C316.999 84.8073 316.68 84.6704 316.444 84.4221C316.207 84.1739 316.077 83.8487 316.077 83.4977V77.3008C316.077 76.9584 316.207 76.6246 316.444 76.3764C316.68 76.1282 316.99 75.9912 317.325 75.9912C317.66 75.9912 317.97 76.1282 318.206 76.3764C318.435 76.6246 318.573 76.9499 318.573 77.3008V83.4977C318.573 83.6689 318.541 83.8401 318.476 83.9942C318.41 84.1568 318.32 84.2938 318.206 84.4136C318.092 84.5334 317.953 84.6276 317.806 84.696C317.66 84.7645 317.496 84.7988 317.333 84.7988L317.325 84.8073Z" fill="#80BC4B"/>
<path d="M334.411 94.8564C334.338 94.7024 334.289 94.5397 334.273 94.3685C334.256 94.1974 334.273 94.0262 334.322 93.8635C334.371 93.7009 334.452 93.5468 334.55 93.4185C334.656 93.2901 334.787 93.1788 334.926 93.1018L340.14 90.2173C340.286 90.1317 340.441 90.0803 340.613 90.0632C340.776 90.0461 340.947 90.0632 341.102 90.106C341.266 90.1574 341.412 90.2344 341.535 90.3457C341.665 90.4569 341.772 90.5939 341.845 90.7479C341.927 90.902 341.967 91.0732 341.984 91.2444C342 91.4156 341.984 91.5953 341.927 91.7579C341.878 91.9206 341.796 92.0746 341.682 92.2116C341.576 92.34 341.437 92.4513 341.29 92.5283L336.076 95.4128C335.929 95.4898 335.774 95.5412 335.611 95.5583C335.448 95.5754 335.285 95.5583 335.129 95.5069C334.974 95.4556 334.828 95.37 334.705 95.2673C334.583 95.156 334.477 95.019 334.403 94.8735L334.411 94.8564Z" fill="#80BC4B"/>
<path d="M323.371 254.864C323.355 255.206 323.208 255.532 322.963 255.763C322.719 255.994 322.4 256.114 322.066 256.097L316.174 255.78C315.848 255.754 315.546 255.6 315.326 255.343C315.114 255.087 314.999 254.753 315.016 254.41C315.032 254.068 315.179 253.751 315.416 253.512C315.652 253.281 315.97 253.161 316.297 253.169L322.188 253.486C322.351 253.495 322.515 253.537 322.661 253.614C322.808 253.691 322.939 253.794 323.053 253.923C323.159 254.051 323.249 254.196 323.298 254.359C323.355 254.522 323.379 254.693 323.371 254.864Z" fill="#7DB352"/>
<path d="M300.875 95.5237C300.687 95.8061 300.394 95.9944 300.067 96.0543C299.741 96.1143 299.406 96.0287 299.145 95.8318L294.339 92.2369C294.07 92.04 293.89 91.7319 293.833 91.3895C293.776 91.0471 293.858 90.6962 294.045 90.4137C294.233 90.1313 294.527 89.943 294.853 89.8831C295.18 89.8232 295.514 89.9087 295.783 90.1056L300.589 93.7005C300.859 93.8974 301.038 94.2055 301.095 94.5479C301.152 94.8903 301.071 95.2412 300.883 95.5237H300.875Z" fill="#80BC4B"/>
<path d="M274.486 99.9831C274.16 99.9831 273.842 99.8461 273.605 99.5979C273.369 99.3497 273.238 99.0244 273.238 98.6735V92.4766C273.238 92.1342 273.369 91.8004 273.605 91.5522C273.834 91.3039 274.152 91.167 274.486 91.167C274.821 91.167 275.131 91.3039 275.368 91.5522C275.604 91.8004 275.735 92.1256 275.735 92.4766V98.6735C275.735 99.0159 275.604 99.3497 275.368 99.5979C275.131 99.8461 274.821 99.9831 274.486 99.9831Z" fill="#80BC4B"/>
<path d="M260.827 109.553C260.639 109.835 260.346 110.024 260.019 110.084C259.693 110.144 259.358 110.058 259.089 109.861L254.283 106.266C254.014 106.069 253.834 105.761 253.777 105.419C253.72 105.076 253.802 104.726 253.989 104.443C254.177 104.161 254.471 103.972 254.797 103.912C255.123 103.852 255.458 103.938 255.727 104.135L260.533 107.73C260.803 107.927 260.982 108.235 261.039 108.577C261.096 108.92 261.015 109.271 260.827 109.553Z" fill="#80BC4B"/>
<path d="M285.396 268.362C285.714 268.259 286.049 268.302 286.343 268.465C286.636 268.628 286.848 268.91 286.946 269.235L288.635 275.175C288.725 275.509 288.684 275.86 288.529 276.16C288.374 276.459 288.105 276.69 287.795 276.785C287.485 276.879 287.142 276.844 286.857 276.682C286.571 276.519 286.351 276.245 286.253 275.92L284.564 269.98C284.474 269.646 284.507 269.287 284.662 268.987C284.817 268.679 285.086 268.456 285.396 268.354V268.362Z" fill="#7DB352"/>
<path d="M331.833 119.619C331.947 119.499 332.094 119.413 332.241 119.345C332.396 119.285 332.559 119.251 332.722 119.259C332.886 119.259 333.049 119.302 333.196 119.37C333.343 119.439 333.481 119.542 333.587 119.661L337.635 124.172C337.749 124.292 337.847 124.446 337.904 124.6C337.969 124.763 337.994 124.934 337.994 125.105C337.994 125.276 337.953 125.448 337.888 125.61C337.822 125.773 337.724 125.91 337.602 126.03C337.48 126.149 337.341 126.244 337.186 126.303C337.031 126.363 336.868 126.389 336.696 126.389C336.533 126.389 336.37 126.338 336.223 126.269C336.076 126.192 335.937 126.089 335.831 125.961L331.784 121.45C331.67 121.322 331.588 121.176 331.523 121.022C331.466 120.86 331.433 120.689 331.441 120.517C331.441 120.346 331.482 120.175 331.547 120.021C331.613 119.867 331.711 119.721 331.825 119.61L331.833 119.619Z" fill="#80BC4B"/>
<path d="M304.424 192.013C297.864 201.728 288.497 206.358 283.544 208.815C273.736 213.634 262.949 215.868 252.137 215.32C241.244 192.621 242.835 167.439 255.866 151.048C267.29 136.677 290.039 125.832 303.347 135.239C317.684 145.373 316.313 174.407 304.424 192.013Z" fill="#7DB352"/>
<path d="M255.262 216.689C254.095 216.689 253.026 216.655 252.08 216.612L251.354 216.578L251.027 215.893C239.971 192.86 241.497 167.071 254.911 150.192C264.181 138.534 279.186 130.394 291.41 130.394C295.881 130.274 300.288 131.584 304.049 134.143C309.32 137.867 312.862 144.175 314.29 152.375C316.582 165.556 313.115 181.408 305.444 192.766C298.729 202.712 289.247 207.428 284.148 209.962C275.115 214.438 265.25 216.741 255.27 216.698L255.262 216.689ZM252.92 214.036C253.647 214.062 254.422 214.079 255.262 214.079C264.858 214.13 274.34 211.922 283.013 207.625C287.966 205.16 297.073 200.641 303.413 191.242C310.593 180.595 313.98 165.162 311.834 152.828C310.528 145.339 307.354 139.621 302.654 136.3C299.308 134.032 295.384 132.885 291.402 132.996C280.043 132.996 265.503 140.931 256.813 151.861C244.165 167.781 242.664 192.107 252.92 214.027V214.036Z" fill="#7DB352"/>
<path d="M312.976 194.709C312.788 194.991 312.494 195.18 312.168 195.24C311.842 195.299 311.507 195.214 311.238 195.017L306.432 191.422C306.301 191.319 306.187 191.2 306.097 191.054C306.007 190.909 305.95 190.746 305.926 190.575C305.901 190.404 305.901 190.232 305.942 190.061C305.975 189.899 306.048 189.736 306.138 189.599C306.228 189.462 306.35 189.342 306.489 189.248C306.628 189.154 306.783 189.094 306.938 189.068C307.101 189.043 307.264 189.043 307.419 189.085C307.574 189.12 307.729 189.197 307.86 189.291L312.666 192.886C312.935 193.091 313.115 193.391 313.172 193.733C313.229 194.076 313.147 194.426 312.96 194.709H312.976Z" fill="#7DB352"/>
<path d="M259.277 147.076C259.089 147.359 258.795 147.547 258.469 147.607C258.143 147.667 257.808 147.581 257.547 147.385L252.741 143.79C252.472 143.593 252.292 143.285 252.235 142.942C252.178 142.6 252.259 142.249 252.447 141.966C252.635 141.684 252.928 141.496 253.255 141.436C253.581 141.376 253.916 141.461 254.185 141.658L258.991 145.253C259.26 145.45 259.44 145.758 259.497 146.101C259.554 146.443 259.473 146.794 259.285 147.076H259.277Z" fill="#7DB352"/>
<path d="M245.927 176.701C245.887 176.863 245.805 177.017 245.707 177.154C245.609 177.291 245.479 177.403 245.34 177.488C245.201 177.574 245.038 177.625 244.883 177.642C244.72 177.659 244.557 177.642 244.402 177.599L238.722 175.922C238.404 175.828 238.135 175.605 237.972 175.306C237.809 175.006 237.768 174.646 237.857 174.313C237.947 173.979 238.159 173.696 238.445 173.525C238.731 173.354 239.073 173.311 239.392 173.405L245.071 175.083C245.226 175.126 245.373 175.211 245.503 175.314C245.634 175.417 245.74 175.554 245.821 175.699C245.903 175.845 245.952 176.016 245.968 176.187C245.985 176.358 245.968 176.529 245.927 176.692V176.701Z" fill="#7DB352"/>
<path d="M280.125 210.612C280.443 210.509 280.778 210.552 281.071 210.715C281.365 210.878 281.577 211.16 281.675 211.485L283.364 217.425C283.413 217.588 283.43 217.768 283.413 217.939C283.397 218.11 283.348 218.281 283.274 218.427C283.193 218.581 283.095 218.718 282.964 218.821C282.834 218.932 282.687 219.009 282.532 219.06C282.377 219.112 282.206 219.129 282.042 219.112C281.879 219.094 281.724 219.043 281.577 218.958C281.43 218.872 281.308 218.761 281.202 218.624C281.096 218.487 281.022 218.333 280.973 218.17L279.284 212.23C279.186 211.896 279.227 211.537 279.382 211.237C279.537 210.929 279.807 210.706 280.117 210.604L280.125 210.612Z" fill="#7DB352"/>
<path d="M213.852 189.839C227.952 189.839 238.935 196.883 242.541 199.194C249.379 203.577 265.649 216.048 269.085 237.044C271.361 250.961 267.624 266.813 259.089 279.464C255.099 285.498 250.007 290.642 244.108 294.596C238.208 298.542 231.623 301.221 224.728 302.471C221.75 302.993 218.739 303.258 215.72 303.267C202.934 303.293 190.564 298.542 180.813 289.855C171.062 281.167 164.567 269.124 162.486 255.865C161.376 248.659 161.629 241.298 163.245 234.193C164.861 227.098 167.798 220.404 171.894 214.507C180.552 201.753 193.615 192.758 206.851 190.447C209.168 190.044 211.51 189.839 213.86 189.847L213.852 189.839ZM215.72 300.656C218.601 300.656 221.481 300.4 224.32 299.895C230.889 298.705 237.164 296.146 242.786 292.38C248.408 288.613 253.263 283.709 257.057 277.957C265.217 265.863 268.799 250.738 266.637 237.489C263.373 217.537 247.788 205.622 241.244 201.42C237.784 199.203 227.25 192.441 213.852 192.441C211.64 192.441 209.429 192.629 207.25 193.014C194.652 195.223 182.192 203.816 173.91 216.022C170.009 221.637 167.202 228.013 165.66 234.784C164.118 241.546 163.873 248.564 164.926 255.438C166.909 268.088 173.102 279.583 182.404 287.869C191.706 296.154 203.513 300.691 215.712 300.665L215.72 300.656Z" fill="#7DB352"/>
<path d="M209.919 191.5C209.592 191.5 209.274 191.363 209.037 191.115C208.809 190.866 208.678 190.541 208.678 190.19V183.993C208.678 183.642 208.809 183.317 209.037 183.069C209.266 182.821 209.584 182.684 209.919 182.684C210.253 182.684 210.563 182.821 210.8 183.069C211.036 183.308 211.159 183.642 211.159 183.993V190.19C211.159 190.532 211.028 190.866 210.8 191.115C210.563 191.363 210.253 191.5 209.919 191.5Z" fill="#7DB352"/>
<path d="M225.642 192.244C225.487 192.193 225.349 192.099 225.226 191.988C225.104 191.876 225.006 191.739 224.932 191.585C224.859 191.431 224.818 191.26 224.81 191.089C224.802 190.918 224.818 190.747 224.875 190.584L226.785 184.721C226.842 184.558 226.923 184.413 227.03 184.284C227.136 184.156 227.266 184.053 227.413 183.976C227.56 183.899 227.715 183.856 227.878 183.848C228.041 183.839 228.205 183.856 228.36 183.916C228.515 183.976 228.653 184.062 228.776 184.173C228.898 184.284 228.996 184.421 229.069 184.575C229.143 184.729 229.184 184.901 229.192 185.063C229.2 185.226 229.184 185.406 229.127 185.568L227.217 191.431C227.168 191.594 227.078 191.748 226.972 191.868C226.866 191.996 226.736 192.099 226.589 192.176C226.442 192.253 226.279 192.296 226.116 192.304C225.952 192.313 225.789 192.296 225.634 192.236L225.642 192.244Z" fill="#7DB352"/>
<path d="M210.041 316.294L204.941 306.604H215.141L210.041 316.294Z" fill="#7B7B7B"/>
<path d="M215.149 283.152H204.95V306.613H215.149V283.152Z" fill="#7B7B7B"/>
<path d="M207.601 302.3C207.846 302.3 208.083 302.377 208.278 302.531C208.482 302.685 208.637 302.899 208.727 303.147C208.817 303.395 208.841 303.669 208.801 303.935C208.752 304.2 208.637 304.448 208.466 304.636C208.295 304.825 208.074 304.962 207.838 305.013C207.601 305.064 207.356 305.039 207.136 304.936C206.916 304.833 206.72 304.654 206.589 304.431C206.459 304.209 206.385 303.943 206.385 303.669C206.385 303.31 206.516 302.959 206.744 302.702C206.973 302.445 207.283 302.3 207.609 302.3H207.601Z" fill="#9B9696"/>
<path d="M212.481 302.3C212.726 302.3 212.962 302.377 213.158 302.531C213.362 302.685 213.517 302.899 213.607 303.147C213.697 303.395 213.721 303.669 213.68 303.935C213.631 304.2 213.517 304.448 213.346 304.636C213.174 304.825 212.954 304.962 212.717 305.013C212.481 305.064 212.236 305.039 212.016 304.936C211.795 304.833 211.599 304.654 211.469 304.431C211.338 304.209 211.265 303.943 211.265 303.669C211.265 303.31 211.395 302.959 211.624 302.702C211.852 302.445 212.162 302.3 212.489 302.3H212.481Z" fill="#9B9696"/>
<path d="M265.935 278.582H163.269V295.23H265.935V278.582Z" fill="#A67C52"/>
<path d="M167.847 295.229L176.415 357.302L253.165 357.661C255.89 336.973 258.616 316.277 261.349 295.589L167.847 295.229Z" fill="#A67C52"/>
<path d="M189.364 230.419H203.929C205.227 230.419 206.467 230.992 207.381 232.02C208.295 233.047 208.809 234.442 208.809 235.888V278.839H184.477V235.888C184.477 234.433 184.991 233.047 185.905 232.02C186.818 230.992 188.059 230.419 189.356 230.419H189.364Z" fill="white"/>
<path d="M196.651 235.486C192.881 235.486 189.829 238.688 189.829 242.642V243.524C189.829 247.478 192.881 250.679 196.651 250.679C200.421 250.679 203.472 247.478 203.472 243.524V242.642C203.472 238.688 200.421 235.486 196.651 235.486Z" fill="#0E4240"/>
<path d="M193.24 246.553C192.897 246.553 192.563 246.399 192.318 246.126C192.073 245.852 191.935 245.475 191.935 245.09H192.269C192.269 245.381 192.375 245.655 192.555 245.86C192.734 246.066 192.987 246.177 193.24 246.177C193.493 246.177 193.746 246.066 193.926 245.86C194.105 245.655 194.211 245.381 194.211 245.09H194.546C194.546 245.475 194.407 245.852 194.162 246.126C193.917 246.399 193.583 246.553 193.24 246.553Z" fill="#F18340"/>
<path d="M196.186 244.585C195.925 244.585 195.672 244.499 195.46 244.337C195.247 244.174 195.076 243.943 194.978 243.678C194.88 243.412 194.856 243.113 194.905 242.83C194.954 242.548 195.076 242.282 195.264 242.077C195.443 241.872 195.68 241.735 195.933 241.675C196.186 241.615 196.447 241.649 196.692 241.76C196.936 241.872 197.132 242.06 197.279 242.3C197.426 242.539 197.499 242.822 197.499 243.113C197.499 243.31 197.467 243.498 197.402 243.678C197.336 243.857 197.238 244.02 197.116 244.157C196.994 244.294 196.847 244.405 196.692 244.474C196.537 244.551 196.365 244.585 196.194 244.585H196.186ZM196.186 242.026C195.99 242.026 195.802 242.094 195.647 242.214C195.484 242.334 195.362 242.505 195.288 242.702C195.215 242.899 195.198 243.121 195.231 243.335C195.272 243.549 195.362 243.737 195.5 243.892C195.639 244.046 195.81 244.148 195.998 244.191C196.186 244.234 196.382 244.208 196.561 244.131C196.741 244.046 196.888 243.909 196.994 243.729C197.1 243.549 197.157 243.335 197.157 243.121C197.157 242.83 197.051 242.556 196.871 242.351C196.692 242.145 196.439 242.034 196.186 242.034" fill="#F18340"/>
<path d="M199.833 244.585C199.572 244.585 199.319 244.499 199.107 244.337C198.895 244.174 198.723 243.943 198.626 243.678C198.528 243.412 198.503 243.113 198.552 242.83C198.601 242.548 198.723 242.282 198.911 242.077C199.091 241.872 199.327 241.735 199.58 241.675C199.833 241.615 200.094 241.649 200.339 241.76C200.576 241.872 200.78 242.06 200.927 242.3C201.073 242.539 201.147 242.822 201.147 243.113C201.147 243.498 201.008 243.874 200.763 244.148C200.519 244.422 200.184 244.576 199.841 244.576M199.841 242.017C199.646 242.017 199.458 242.077 199.303 242.197C199.14 242.317 199.017 242.488 198.944 242.685C198.87 242.882 198.854 243.104 198.887 243.318C198.927 243.532 199.017 243.72 199.156 243.874C199.295 244.028 199.466 244.131 199.654 244.174C199.841 244.217 200.037 244.191 200.217 244.114C200.396 244.028 200.543 243.892 200.649 243.712C200.755 243.532 200.812 243.318 200.812 243.104C200.812 242.813 200.706 242.539 200.527 242.334C200.347 242.128 200.094 242.017 199.841 242.017Z" fill="#F18340"/>
<path d="M198.209 241.948H197.875V244.396H198.209V241.948Z" fill="#F18340"/>
<path d="M197.524 241.948H197.189V244.396H197.524V241.948Z" fill="#F18340"/>
<path d="M194.554 241.948H194.219V243.018H194.554V241.948Z" fill="#F18340"/>
<path d="M194.554 244.602H194.219V245.089H194.554V244.602Z" fill="#F18340"/>
<path d="M201.171 241.948H200.837V244.396H201.171V241.948Z" fill="#F18340"/>
<path d="M193.24 244.585C192.979 244.585 192.726 244.499 192.514 244.337C192.302 244.174 192.13 243.943 192.032 243.678C191.935 243.412 191.91 243.113 191.959 242.83C192.008 242.548 192.13 242.282 192.318 242.077C192.498 241.872 192.734 241.735 192.987 241.675C193.24 241.615 193.501 241.649 193.746 241.76C193.983 241.872 194.187 242.06 194.334 242.3C194.48 242.539 194.554 242.822 194.554 243.113C194.554 243.498 194.415 243.874 194.17 244.148C193.926 244.422 193.591 244.576 193.248 244.576M193.248 242.017C193.052 242.017 192.865 242.077 192.71 242.197C192.547 242.317 192.424 242.488 192.351 242.685C192.277 242.882 192.261 243.104 192.294 243.318C192.334 243.532 192.424 243.72 192.563 243.874C192.702 244.028 192.873 244.131 193.061 244.174C193.248 244.217 193.444 244.191 193.624 244.114C193.803 244.028 193.95 243.892 194.056 243.712C194.162 243.532 194.219 243.318 194.219 243.104C194.219 242.813 194.113 242.539 193.934 242.334C193.754 242.128 193.501 242.017 193.248 242.017Z" fill="#F18340"/>
<path d="M198.12 241.546H197.907L197.891 241.375C197.891 241.375 197.891 241.333 197.891 241.315C197.891 241.255 197.891 241.196 197.891 241.136C197.891 241.041 197.916 240.939 197.948 240.853C197.997 240.75 198.071 240.665 198.169 240.605C198.332 240.511 198.511 240.468 198.699 240.485H198.854V240.699C198.87 240.768 198.87 240.845 198.854 240.913C198.846 241.007 198.821 241.101 198.772 241.196C198.691 241.333 198.577 241.435 198.438 241.478C198.373 241.504 198.307 241.521 198.234 241.529C198.201 241.529 198.169 241.538 198.136 241.538C198.128 241.538 198.111 241.538 198.103 241.538M198.519 240.853C198.454 240.853 198.389 240.879 198.332 240.913C198.291 240.939 198.266 240.964 198.242 241.007C198.226 241.05 198.218 241.093 198.218 241.144C198.258 241.144 198.291 241.127 198.332 241.11C198.397 241.093 198.454 241.041 198.487 240.982C198.503 240.939 198.519 240.896 198.519 240.853Z" fill="#F18340"/>
<path d="M197.532 241.546H197.165C196.863 241.546 196.569 241.409 196.349 241.169C196.137 240.93 196.014 240.596 196.014 240.253V239.577H196.382C196.684 239.577 196.977 239.714 197.198 239.954C197.41 240.193 197.532 240.527 197.532 240.87V241.546ZM196.349 239.954V240.253C196.349 240.493 196.439 240.724 196.586 240.895C196.741 241.066 196.945 241.161 197.165 241.161H197.198V240.861C197.198 240.621 197.108 240.382 196.961 240.211C196.806 240.039 196.602 239.945 196.382 239.945H196.349V239.954Z" fill="#F18340"/>
<path d="M190.409 255.694H191.494L190.955 256.61L190.409 255.694ZM190.409 255.694L190.955 254.778L191.494 255.694H190.409Z" fill="white"/>
<path d="M190.645 254.778L191.086 255.763H190.205L190.645 254.778ZM190.205 255.763H191.086L190.645 256.747L190.205 255.763Z" fill="#717070"/>
<path d="M190.409 261.173H191.494L190.955 262.089L190.409 261.173ZM190.409 261.173L190.955 260.257L191.494 261.173H190.409Z" fill="white"/>
<path d="M190.645 260.025L191.086 261.01H190.205L190.645 260.025ZM190.205 261.01H191.086L190.645 261.994L190.205 261.01Z" fill="#717070"/>
<path d="M192.041 255.694H193.126L192.587 256.61L192.041 255.694ZM192.041 255.694L192.587 254.778L193.126 255.694H192.041Z" fill="white"/>
<path d="M192.685 254.778L193.126 255.763H192.245L192.685 254.778ZM192.245 255.763H193.126L192.685 256.747L192.245 255.763Z" fill="#717070"/>
<path d="M192.041 261.173H193.126L192.587 262.089L192.041 261.173ZM192.041 261.173L192.587 260.257L193.126 261.173H192.041Z" fill="white"/>
<path d="M192.685 260.025L193.126 261.01H192.245L192.685 260.025ZM192.245 261.01H193.126L192.685 261.994L192.245 261.01Z" fill="#717070"/>
<path d="M194.211 255.694H195.296L194.758 256.61L194.211 255.694ZM194.211 255.694L194.758 254.778L195.296 255.694H194.211Z" fill="white"/>
<path d="M194.733 254.778L195.174 255.763H194.293L194.733 254.778ZM194.293 255.763H195.174L194.733 256.747L194.293 255.763Z" fill="#717070"/>
<path d="M194.211 261.173H195.296L194.758 262.089L194.211 261.173ZM194.211 261.173L194.758 260.257L195.296 261.173H194.211Z" fill="white"/>
<path d="M194.733 260.025L195.174 261.01H194.293L194.733 260.025ZM194.293 261.01H195.174L194.733 261.994L194.293 261.01Z" fill="#717070"/>
<path d="M195.296 258.134H196.382L195.843 259.049L195.296 258.134ZM195.296 258.134L195.843 257.218L196.382 258.134H195.296Z" fill="white"/>
<path d="M195.615 257.406L196.055 258.391H195.174L195.615 257.406ZM195.174 258.391H196.055L195.615 259.375L195.174 258.391Z" fill="#717070"/>
<path d="M195.296 263.612H196.382L195.843 264.528L195.296 263.612ZM195.296 263.612L195.843 262.696L196.382 263.612H195.296Z" fill="white"/>
<path d="M195.615 262.653L196.055 263.638H195.174L195.615 262.653ZM195.174 263.638H196.055L195.615 264.622L195.174 263.638Z" fill="#717070"/>
<path d="M189.323 258.134H190.409L189.87 259.049L189.323 258.134ZM189.323 258.134L189.87 257.218L190.409 258.134H189.323Z" fill="white"/>
<path d="M189.764 257.406L190.205 258.391H189.323L189.764 257.406ZM189.323 258.391H190.205L189.764 259.375L189.323 258.391Z" fill="#717070"/>
<path d="M191.502 258.134H192.587L192.049 259.049L191.502 258.134ZM191.502 258.134L192.049 257.218L192.587 258.134H191.502Z" fill="white"/>
<path d="M191.812 257.406L192.253 258.391H191.372L191.812 257.406ZM191.372 258.391H192.253L191.812 259.375L191.372 258.391Z" fill="#717070"/>
<path d="M193.673 258.134H194.758L194.219 259.049L193.673 258.134ZM193.673 258.134L194.219 257.218L194.758 258.134H193.673Z" fill="white"/>
<path d="M193.86 257.406L194.301 258.391H193.42L193.86 257.406ZM193.42 258.391H194.301L193.86 259.375L193.42 258.391Z" fill="#717070"/>
<path d="M189.323 263.612H190.409L189.87 264.528L189.323 263.612ZM189.323 263.612L189.87 262.696L190.409 263.612H189.323Z" fill="white"/>
<path d="M189.764 262.653L190.205 263.638H189.323L189.764 262.653ZM189.323 263.638H190.205L189.764 264.622L189.323 263.638Z" fill="#717070"/>
<path d="M191.502 263.612H192.587L192.049 264.528L191.502 263.612ZM191.502 263.612L192.049 262.696L192.587 263.612H191.502Z" fill="white"/>
<path d="M191.812 262.653L192.253 263.638H191.372L191.812 262.653ZM191.372 263.638H192.253L191.812 264.622L191.372 263.638Z" fill="#717070"/>
<path d="M193.673 263.612H194.758L194.219 264.528L193.673 263.612ZM193.673 263.612L194.219 262.696L194.758 263.612H193.673Z" fill="white"/>
<path d="M193.86 262.653L194.301 263.638H193.42L193.86 262.653ZM193.42 263.638H194.301L193.86 264.622L193.42 263.638Z" fill="#717070"/>
<path d="M199.539 270.836H200.478L200.013 271.624L199.548 270.836H199.539ZM199.539 270.836L200.005 270.049L200.47 270.836H199.531H199.539Z" fill="white"/>
<path d="M199.539 273.977H200.478L200.013 274.764L199.548 273.977H199.539ZM199.539 273.977L200.005 273.189L200.47 273.977H199.531H199.539Z" fill="white"/>
<path d="M200.943 269.261H201.881L201.416 270.049L200.951 269.261H200.943ZM200.943 269.261L201.408 268.474L201.873 269.261H200.935H200.943Z" fill="white"/>
<path d="M201.498 268.474L201.873 269.321H201.114L201.49 268.474H201.498ZM201.122 269.321H201.881L201.506 270.168L201.131 269.321H201.122Z" fill="#717070"/>
<path d="M200.943 273.977H201.881L201.416 274.764L200.951 273.977H200.943ZM200.943 273.977L201.408 273.189L201.873 273.977H200.935H200.943Z" fill="white"/>
<path d="M201.498 272.993L201.873 273.841H201.114L201.49 272.993H201.498ZM201.122 273.841H201.881L201.506 274.688L201.131 273.841H201.122Z" fill="#717070"/>
<path d="M202.811 269.261H203.75L203.285 270.049L202.82 269.261H202.811ZM202.811 269.261L203.277 268.474L203.742 269.261H202.803H202.811Z" fill="white"/>
<path d="M203.26 268.474L203.636 269.321H202.877L203.252 268.474H203.26ZM202.885 269.321H203.644L203.268 270.168L202.893 269.321H202.885Z" fill="#717070"/>
<path d="M202.811 273.977H203.75L203.285 274.764L202.82 273.977H202.811ZM202.811 273.977L203.277 273.189L203.742 273.977H202.803H202.811Z" fill="white"/>
<path d="M203.26 272.993L203.636 273.841H202.877L203.252 272.993H203.26ZM202.885 273.841H203.644L203.268 274.688L202.893 273.841H202.885Z" fill="#717070"/>
<path d="M203.75 271.358H204.688L204.223 272.145L203.758 271.358H203.75ZM203.75 271.358L204.215 270.57L204.68 271.358H203.742H203.75Z" fill="white"/>
<path d="M204.019 270.733L204.394 271.581H203.636L204.011 270.733H204.019ZM203.644 271.581H204.403L204.027 272.428L203.652 271.581H203.644Z" fill="#717070"/>
<path d="M203.75 276.083H204.688L204.223 276.871L203.758 276.083H203.75ZM203.75 276.083L204.215 275.296L204.68 276.083H203.742H203.75Z" fill="white"/>
<path d="M198.601 271.358H199.539L199.074 272.145L198.609 271.358H198.601ZM198.601 271.358L199.066 270.57L199.531 271.358H198.593H198.601Z" fill="white"/>
<path d="M200.47 271.358H201.408L200.943 272.145L200.478 271.358H200.47ZM200.47 271.358L200.935 270.57L201.4 271.358H200.461H200.47Z" fill="white"/>
<path d="M200.739 270.733L201.114 271.581H200.355L200.731 270.733H200.739ZM200.364 271.581H201.122L200.747 272.428L200.372 271.581H200.364Z" fill="#717070"/>
<path d="M202.346 271.358H203.285L202.82 272.145L202.355 271.358H202.346ZM202.346 271.358L202.811 270.57L203.277 271.358H202.338H202.346Z" fill="white"/>
<path d="M202.501 270.733L202.877 271.581H202.118L202.493 270.733H202.501ZM202.126 271.581H202.885L202.51 272.428L202.134 271.581H202.126Z" fill="#717070"/>
<path d="M187.618 242.222C187.618 241.016 186.745 240.031 185.668 240.031C184.591 240.031 183.718 241.016 183.718 242.222V244.414C183.718 245.62 184.591 246.605 185.668 246.605C186.745 246.605 187.618 245.62 187.618 244.414V242.222Z" fill="white"/>
<path d="M187.618 253.178C187.618 251.972 186.745 250.987 185.668 250.987C184.591 250.987 183.718 251.972 183.718 253.178V255.37C183.718 256.577 184.591 257.561 185.668 257.561C186.745 257.561 187.618 256.577 187.618 255.37V253.178Z" fill="white"/>
<path d="M177.555 244.632C178.36 244.438 178.855 243.627 178.661 242.822L175.491 229.697C175.296 228.892 174.486 228.396 173.681 228.591C172.875 228.785 172.38 229.595 172.575 230.401L175.393 242.067L163.729 244.881C162.924 245.075 162.428 245.885 162.623 246.69C162.818 247.496 163.628 247.991 164.433 247.797L177.555 244.632ZM98.0875 196.567L176.421 244.453L177.985 241.894L99.6512 194.008L98.0875 196.567Z" fill="#FF0000"/>
</g>
<defs>
<clipPath id="clip0_658_34390">
<rect width="235" height="303" fill="white" transform="translate(107 76)"/>
</clipPath>
</defs>
</svg>
