<svg width="436" height="436" viewBox="0 0 436 436" fill="none" xmlns="http://www.w3.org/2000/svg">
<path d="M217.967 435.934C338.347 435.934 435.934 338.347 435.934 217.967C435.934 97.5871 338.347 0 217.967 0C97.5871 0 0 97.5871 0 217.967C0 338.347 97.5871 435.934 217.967 435.934Z" fill="#9ED0B3"/>
<g clip-path="url(#clip0_658_34391)">
<path d="M218.274 371C253.284 371 281.673 364.126 281.673 355.64C281.673 347.155 253.292 340.28 218.274 340.28C183.256 340.28 154.876 347.155 154.876 355.64C154.876 364.126 183.256 371 218.274 371Z" fill="#EEEEEE"/>
<path d="M191.97 171.077C199.126 188.658 191.914 205.189 190.258 208.753C170.031 212.869 151.111 202.382 145.569 186.307C140.052 170.336 147.979 148.785 160.855 145.799C173.415 142.887 186.875 158.532 191.978 171.077H191.97Z" fill="#92C361"/>
<path d="M163.963 144.212C176.652 144.212 188.652 159.645 193.106 170.612C199.938 187.396 194.169 203.244 191.37 209.281L191.11 209.85L190.502 209.972C187.516 210.582 184.473 210.892 181.423 210.892C164.271 210.892 149.391 201.178 144.393 186.713C141.115 177.226 142.275 165.145 147.346 155.936C150.713 149.818 155.411 145.782 160.563 144.595C161.675 144.334 162.819 144.204 163.963 144.204V144.212ZM189.398 207.662C192.133 201.544 197.082 186.924 190.826 171.548C185.958 159.597 174.307 146.694 163.963 146.694C163.005 146.694 162.056 146.799 161.123 147.019C156.661 148.052 152.531 151.648 149.513 157.148C144.766 165.772 143.679 177.064 146.73 185.907C151.306 199.16 165.577 208.418 181.423 208.418C184.1 208.418 186.77 208.166 189.398 207.67V207.662Z" fill="#92C361"/>
<path d="M145.715 185.794C145.788 186.111 145.732 186.453 145.561 186.729C145.391 187.006 145.115 187.209 144.791 187.282L139.079 188.617C138.762 188.69 138.421 188.633 138.146 188.462C137.87 188.291 137.667 188.007 137.594 187.689C137.521 187.372 137.578 187.03 137.748 186.754C137.918 186.477 138.194 186.274 138.519 186.2L144.231 184.866C144.547 184.793 144.888 184.85 145.164 185.021C145.44 185.192 145.642 185.476 145.715 185.794Z" fill="#92C361"/>
<path d="M202.924 180.066C202.924 180.391 202.794 180.708 202.558 180.944C202.323 181.18 202.015 181.31 201.682 181.31H195.816C195.654 181.31 195.492 181.278 195.346 181.213C195.2 181.148 195.062 181.058 194.948 180.944C194.834 180.83 194.745 180.692 194.68 180.538C194.615 180.391 194.583 180.228 194.583 180.066C194.583 179.903 194.615 179.74 194.68 179.594C194.745 179.447 194.834 179.309 194.948 179.195C195.062 179.081 195.2 178.992 195.346 178.927C195.492 178.862 195.654 178.829 195.816 178.829H201.682C202.007 178.829 202.323 178.959 202.558 179.195C202.794 179.431 202.924 179.74 202.924 180.074V180.066Z" fill="#92C361"/>
<path d="M190.989 152.226C191.216 152.462 191.337 152.787 191.321 153.113C191.313 153.438 191.175 153.755 190.932 153.975L186.664 158.018C186.429 158.246 186.104 158.368 185.78 158.352C185.455 158.344 185.139 158.206 184.92 157.961C184.693 157.726 184.579 157.4 184.587 157.075C184.595 156.749 184.733 156.432 184.977 156.212L189.244 152.169C189.479 151.941 189.804 151.827 190.129 151.835C190.453 151.844 190.761 151.99 190.989 152.226Z" fill="#92C361"/>
<path d="M160.961 203.879C161.269 203.993 161.52 204.221 161.658 204.514C161.796 204.815 161.813 205.149 161.707 205.458L159.736 211.006C159.679 211.161 159.598 211.299 159.492 211.421C159.387 211.543 159.249 211.641 159.103 211.706C158.957 211.779 158.794 211.82 158.632 211.828C158.47 211.836 158.308 211.812 158.153 211.755C157.999 211.698 157.861 211.616 157.74 211.511C157.618 211.405 157.521 211.267 157.456 211.12C157.383 210.974 157.35 210.811 157.342 210.648C157.342 210.486 157.358 210.323 157.415 210.168L159.387 204.62C159.443 204.465 159.525 204.327 159.63 204.205C159.736 204.083 159.873 203.985 160.019 203.92C160.166 203.847 160.328 203.814 160.49 203.806C160.652 203.798 160.815 203.822 160.969 203.879H160.961Z" fill="#92C361"/>
<path d="M290.784 265.815C276.269 266.335 265.478 258.265 261.34 254.758C266.144 249.332 272.212 245.191 279.012 242.71C283.295 241.245 287.766 240.407 292.285 240.228C301.332 239.504 311.457 238.691 316.131 244.833C316.642 245.508 318.703 248.217 318.346 251.545C317.445 259.933 301.835 265.408 290.784 265.798V265.815Z" fill="#7DB352"/>
<path d="M167.46 119.969C163.63 125.517 156.579 128.34 149.326 127.217C142.592 120.172 141.967 109.962 146.932 103.689C151.468 97.9537 161.066 94.9842 166.827 99.5727C172.636 104.202 171.5 114.111 167.46 119.969Z" fill="#7DB352"/>
<path d="M152.474 128.706C151.354 128.706 150.243 128.617 149.131 128.446L148.717 128.381L148.425 128.08C141.448 120.782 140.385 109.962 145.951 102.917C147.663 100.842 149.797 99.1579 152.214 97.9783C154.632 96.7986 157.269 96.1559 159.955 96.0827C162.705 96.0257 165.399 96.9125 167.581 98.5966C173.804 103.551 173.058 114.014 168.458 120.677C166.632 123.215 164.23 125.265 161.439 126.664C158.656 128.064 155.573 128.763 152.458 128.706H152.474ZM149.926 126.054C150.77 126.168 151.622 126.225 152.474 126.225C155.184 126.282 157.878 125.68 160.303 124.468C162.738 123.256 164.839 121.474 166.437 119.269C170.315 113.647 171.111 104.568 166.056 100.549C164.303 99.2149 162.161 98.5152 159.963 98.5722C157.65 98.6291 155.379 99.1905 153.293 100.207C151.208 101.224 149.375 102.681 147.898 104.47C143.249 110.352 144.158 119.757 149.926 126.062V126.054Z" fill="#7DB352"/>
<path d="M129.983 115.998C136.799 115.998 144.669 119.757 149.569 125.346C156.044 132.741 157.569 143.887 153.456 153.763L153.293 154.154L152.936 154.366C148.466 156.977 143.387 158.36 138.211 158.384C130.373 158.384 123.119 155.024 118.811 149.395C112.199 140.763 111.371 126.013 120.174 119.195C122.99 117.048 126.446 115.925 129.983 116.006V115.998ZM151.338 152.413C154.892 143.513 153.488 133.571 147.711 126.981C143.257 121.896 136.125 118.471 129.975 118.471C126.99 118.398 124.061 119.342 121.675 121.148C114.114 127.006 114.974 140.323 120.758 147.873C124.612 152.901 131.127 155.895 138.202 155.895C142.803 155.871 147.322 154.675 151.33 152.413H151.338Z" fill="#80BC4B"/>
<path d="M287.482 117.569C290.208 124.956 288.18 133.604 282.273 139.82C281.616 139.746 268.351 138.014 263.572 126.721C260.221 118.797 261.535 107.342 267.653 104.552C273.998 101.664 284.212 108.709 287.482 117.561V117.569Z" fill="#80BC4B"/>
<path d="M330.613 129.227C323.587 137.501 311.831 140.877 300.391 137.899C299.547 135.573 292.391 114.989 303.393 100.996C305.226 98.6695 309.478 93.2675 316.975 92.0064C317.478 91.9251 326.784 90.4932 332.885 96.4322C341.136 104.47 337.98 120.554 330.613 129.227Z" fill="#80BC4B"/>
<path d="M269.949 236.291C274.127 260.706 257.422 291.89 226.858 297.048C213.122 299.366 199.037 296.104 187.703 287.985C176.36 279.865 168.693 267.556 166.389 253.758C161.196 222.705 185.869 196.956 209.479 193.002C226.25 190.195 240.221 198.762 244.132 201.162C249.032 204.164 266.452 215.871 269.957 236.291H269.949Z" fill="#7DB352"/>
<path d="M152.149 99.1248C151.825 99.1248 151.508 98.9946 151.273 98.7587C151.038 98.5227 150.908 98.2136 150.908 97.88V91.9899C150.908 91.6644 151.038 91.3472 151.273 91.1112C151.508 90.8753 151.817 90.7451 152.149 90.7451C152.482 90.7451 152.79 90.8753 153.026 91.1112C153.261 91.3472 153.391 91.6563 153.391 91.9899V97.88C153.391 98.2055 153.261 98.5227 153.026 98.7587C152.79 98.9946 152.482 99.1248 152.149 99.1248Z" fill="#7DB352"/>
<path d="M171.646 126.526C171.573 126.672 171.476 126.803 171.354 126.916C171.232 127.022 171.094 127.112 170.94 127.161C170.786 127.209 170.624 127.234 170.462 127.226C170.299 127.218 170.145 127.177 169.991 127.104L164.701 124.557C164.409 124.411 164.182 124.159 164.068 123.849C163.963 123.54 163.979 123.199 164.117 122.898C164.263 122.605 164.514 122.377 164.823 122.263C165.131 122.149 165.472 122.173 165.764 122.32L171.054 124.866C171.2 124.94 171.33 125.037 171.435 125.159C171.541 125.281 171.63 125.42 171.679 125.574C171.735 125.729 171.752 125.891 171.743 126.054C171.735 126.217 171.695 126.38 171.622 126.526H171.646Z" fill="#7DB352"/>
<path d="M148.644 126.168C154.843 133.246 156.271 143.789 152.32 153.284C140.555 160.085 126.584 157.498 119.785 148.63C113.578 140.535 112.799 126.461 120.921 120.172C129.115 113.818 142.089 118.691 148.636 126.168H148.644Z" fill="#80BC4B"/>
<path d="M128.693 118.349C128.369 118.349 128.052 118.219 127.817 117.983C127.582 117.747 127.452 117.438 127.452 117.105V111.214C127.452 110.889 127.582 110.572 127.817 110.336C128.052 110.1 128.361 109.97 128.693 109.97C129.026 109.97 129.334 110.1 129.57 110.336C129.805 110.572 129.935 110.881 129.935 111.214V117.105C129.935 117.43 129.805 117.747 129.57 117.983C129.334 118.219 129.026 118.349 128.693 118.349Z" fill="#80BC4B"/>
<path d="M117.635 124.972C117.562 125.118 117.464 125.248 117.343 125.362C117.221 125.468 117.083 125.558 116.929 125.606C116.775 125.663 116.612 125.68 116.45 125.671C116.288 125.663 116.134 125.623 115.98 125.549L110.69 123.003C110.398 122.857 110.17 122.604 110.057 122.295C109.951 121.986 109.968 121.644 110.105 121.343C110.252 121.05 110.503 120.823 110.811 120.709C111.12 120.603 111.46 120.619 111.752 120.766L117.042 123.312C117.189 123.385 117.318 123.483 117.424 123.605C117.529 123.727 117.619 123.865 117.667 124.02C117.724 124.174 117.74 124.337 117.732 124.5C117.724 124.663 117.683 124.825 117.61 124.972H117.635Z" fill="#80BC4B"/>
<path d="M116.88 144.188C116.978 144.318 117.051 144.465 117.091 144.619C117.132 144.774 117.14 144.945 117.124 145.099C117.099 145.262 117.051 145.417 116.969 145.555C116.888 145.693 116.783 145.823 116.653 145.921L111.996 149.501C111.736 149.696 111.412 149.769 111.087 149.728C110.771 149.68 110.479 149.509 110.284 149.257C110.089 148.996 110 148.671 110.041 148.353C110.081 148.028 110.243 147.735 110.495 147.532L115.152 143.952C115.282 143.854 115.428 143.781 115.582 143.741C115.736 143.7 115.898 143.692 116.061 143.708C116.223 143.732 116.377 143.781 116.515 143.863C116.653 143.944 116.775 144.05 116.88 144.18V144.188Z" fill="#80BC4B"/>
<path d="M166.494 234.087C166.478 234.412 166.332 234.721 166.088 234.941C165.845 235.161 165.529 235.274 165.196 235.258L159.338 234.957C159.013 234.941 158.705 234.794 158.486 234.55C158.267 234.306 158.153 233.981 158.17 233.655C158.186 233.33 158.332 233.021 158.575 232.801C158.819 232.582 159.135 232.468 159.468 232.484L165.326 232.785C165.65 232.801 165.959 232.948 166.178 233.192C166.397 233.436 166.51 233.761 166.494 234.087Z" fill="#7DB352"/>
<path d="M168.125 260.665C168.287 260.95 168.328 261.292 168.238 261.609C168.149 261.926 167.938 262.195 167.654 262.358L162.543 265.246C162.259 265.408 161.918 265.449 161.602 265.36C161.285 265.27 161.017 265.059 160.855 264.774C160.693 264.489 160.652 264.147 160.742 263.83C160.831 263.513 161.042 263.244 161.326 263.082L166.437 260.194C166.721 260.031 167.062 259.99 167.378 260.08C167.695 260.169 167.963 260.381 168.125 260.665Z" fill="#7DB352"/>
<path d="M323.295 162.388C323.295 162.55 323.262 162.713 323.197 162.86C323.133 163.006 323.043 163.144 322.93 163.258C322.816 163.372 322.678 163.462 322.532 163.527C322.386 163.592 322.224 163.624 322.062 163.624H316.196C315.871 163.624 315.555 163.494 315.319 163.258C315.084 163.022 314.954 162.713 314.954 162.38C314.954 162.046 315.084 161.737 315.319 161.501C315.555 161.265 315.863 161.135 316.196 161.135H322.062C322.224 161.135 322.386 161.167 322.532 161.232C322.678 161.297 322.816 161.387 322.93 161.501C323.043 161.615 323.133 161.753 323.197 161.9C323.262 162.046 323.295 162.209 323.295 162.371V162.388Z" fill="#7DB352"/>
<path d="M174.94 94.5452C175.167 94.7811 175.281 95.1066 175.273 95.432C175.265 95.7574 175.127 96.0747 174.883 96.2944L170.616 100.338C170.38 100.566 170.056 100.688 169.731 100.671C169.407 100.663 169.09 100.525 168.871 100.281C168.644 100.045 168.531 99.7194 168.539 99.394C168.547 99.0686 168.685 98.7513 168.928 98.5317L173.196 94.4883C173.431 94.2605 173.756 94.1466 174.08 94.1547C174.405 94.1628 174.713 94.3093 174.94 94.5452Z" fill="#7DB352"/>
<path d="M270.858 102.656C277.6 102.656 285.746 109.287 288.642 117.138C291.514 124.923 289.364 134.165 283.166 140.682L282.744 141.129L282.135 141.056C281.543 140.991 267.539 139.266 262.436 127.209C258.882 118.822 260.164 106.602 267.15 103.429C268.318 102.908 269.584 102.648 270.858 102.664V102.656ZM281.819 138.494C287.036 132.693 288.813 124.712 286.33 118C283.807 111.15 276.569 105.138 270.858 105.138C269.933 105.121 269.016 105.308 268.172 105.683C262.679 108.18 261.681 119.074 264.716 126.233C268.708 135.646 279.206 138.038 281.827 138.494H281.819Z" fill="#80BC4B"/>
<path d="M308.65 140.202C305.762 140.202 302.881 139.828 300.082 139.095L299.449 138.933L299.222 138.323C297.81 134.434 291.32 114.331 302.411 100.224C304.317 97.7992 308.78 92.1205 316.755 90.7782C317.835 90.6236 318.922 90.5422 320.009 90.5504C323.936 90.5504 329.502 91.4127 333.737 95.5375C342.232 103.803 339.579 120.563 331.546 130.032C328.69 133.295 325.161 135.89 321.21 137.647C317.258 139.405 312.975 140.275 308.65 140.21V140.202ZM301.332 136.85C303.725 137.428 306.184 137.712 308.65 137.721C312.618 137.794 316.553 136.996 320.179 135.386C323.814 133.783 327.051 131.399 329.68 128.413C337.007 119.79 339.562 104.649 332.025 97.311C328.382 93.7639 323.481 93.0236 320.017 93.0236C319.068 93.0236 318.11 93.0805 317.169 93.2188C310.135 94.3985 306.086 99.5565 304.358 101.761C294.508 114.29 299.944 132.758 301.332 136.858V136.85Z" fill="#80BC4B"/>
<path d="M289.437 267.076C275.985 267.076 265.559 259.949 260.545 255.703L259.572 254.881L260.424 253.929C265.365 248.348 271.612 244.093 278.598 241.547C282.979 240.042 287.555 239.179 292.188 239C295.239 238.756 298.387 238.504 301.437 238.504C306.338 238.504 313.299 239.082 317.112 244.093C319.49 247.225 319.766 249.959 319.579 251.692C318.565 261.08 302.232 266.645 290.833 267.052C290.37 267.076 289.9 267.084 289.437 267.084V267.076ZM263.134 254.629C268.196 258.688 277.6 264.595 289.437 264.595C289.867 264.595 290.306 264.587 290.744 264.57C301.21 264.196 316.301 259.006 317.121 251.415C317.258 250.13 317.031 248.071 315.157 245.598C312.755 242.442 308.399 240.977 301.445 240.977C298.484 240.977 295.393 241.221 292.391 241.465C287.977 241.636 283.612 242.45 279.433 243.882C273.243 246.135 267.661 249.821 263.142 254.629H263.134Z" fill="#7DB352"/>
<path d="M300.61 239.301C300.447 239.301 300.285 239.269 300.139 239.204C299.993 239.139 299.855 239.049 299.742 238.935C299.628 238.821 299.539 238.683 299.474 238.536C299.409 238.39 299.376 238.227 299.376 238.065V232.174C299.376 231.849 299.506 231.532 299.742 231.296C299.977 231.06 300.285 230.93 300.618 230.93C300.95 230.93 301.259 231.06 301.494 231.296C301.729 231.532 301.851 231.841 301.851 232.174V238.065C301.851 238.227 301.819 238.39 301.762 238.536C301.697 238.683 301.608 238.821 301.494 238.935C301.38 239.049 301.242 239.139 301.096 239.204C300.95 239.269 300.788 239.301 300.626 239.301H300.61Z" fill="#7DB352"/>
<path d="M319.133 91.3718C318.808 91.3718 318.492 91.2417 318.256 91.0057C318.021 90.7698 317.891 90.4607 317.891 90.1271V84.2369C317.891 83.9115 318.021 83.5942 318.256 83.3583C318.492 83.1224 318.8 82.9922 319.133 82.9922C319.465 82.9922 319.774 83.1224 320.009 83.3583C320.236 83.5942 320.374 83.9034 320.374 84.2369V90.1271C320.374 90.2898 320.342 90.4525 320.277 90.599C320.212 90.7535 320.123 90.8837 320.009 90.9976C319.895 91.1115 319.757 91.201 319.611 91.2661C319.465 91.3312 319.303 91.3637 319.141 91.3637L319.133 91.3718Z" fill="#80BC4B"/>
<path d="M336.122 100.923C336.049 100.777 336.001 100.622 335.984 100.46C335.968 100.297 335.984 100.134 336.033 99.9798C336.082 99.8252 336.163 99.6787 336.26 99.5567C336.366 99.4347 336.495 99.3289 336.633 99.2557L341.818 96.514C341.964 96.4326 342.118 96.3838 342.289 96.3676C342.451 96.3513 342.621 96.3676 342.775 96.4082C342.938 96.4571 343.084 96.5303 343.205 96.636C343.335 96.7418 343.441 96.872 343.514 97.0184C343.595 97.1649 343.635 97.3276 343.652 97.4903C343.668 97.653 343.652 97.8238 343.595 97.9784C343.546 98.133 343.465 98.2794 343.351 98.4096C343.246 98.5316 343.108 98.6374 342.962 98.7106L337.777 101.452C337.631 101.526 337.477 101.574 337.315 101.591C337.153 101.607 336.99 101.591 336.836 101.542C336.682 101.493 336.536 101.412 336.414 101.314C336.293 101.208 336.187 101.078 336.114 100.94L336.122 100.923Z" fill="#80BC4B"/>
<path d="M325.145 253.01C325.129 253.335 324.982 253.644 324.739 253.864C324.496 254.084 324.179 254.197 323.847 254.181L317.989 253.88C317.664 253.856 317.364 253.709 317.145 253.465C316.934 253.221 316.82 252.904 316.837 252.579C316.853 252.253 316.999 251.952 317.234 251.724C317.469 251.505 317.786 251.391 318.11 251.399L323.968 251.7C324.131 251.708 324.293 251.749 324.439 251.822C324.585 251.895 324.715 251.993 324.828 252.115C324.934 252.237 325.023 252.375 325.072 252.53C325.129 252.684 325.153 252.847 325.145 253.01Z" fill="#7DB352"/>
<path d="M302.776 101.558C302.589 101.826 302.297 102.005 301.973 102.062C301.648 102.119 301.315 102.038 301.056 101.851L296.277 98.4339C296.009 98.2468 295.831 97.9539 295.774 97.6285C295.717 97.303 295.798 96.9695 295.985 96.701C296.172 96.4325 296.464 96.2535 296.788 96.1966C297.113 96.1396 297.445 96.221 297.713 96.4081L302.492 99.8251C302.76 100.012 302.938 100.305 302.995 100.63C303.052 100.956 302.971 101.289 302.784 101.558H302.776Z" fill="#80BC4B"/>
<path d="M276.537 105.797C276.212 105.797 275.896 105.666 275.661 105.431C275.425 105.195 275.296 104.885 275.296 104.552V98.6617C275.296 98.3363 275.425 98.019 275.661 97.7831C275.888 97.5472 276.204 97.417 276.537 97.417C276.87 97.417 277.178 97.5472 277.413 97.7831C277.649 98.019 277.778 98.3282 277.778 98.6617V104.552C277.778 104.877 277.649 105.195 277.413 105.431C277.178 105.666 276.87 105.797 276.537 105.797Z" fill="#80BC4B"/>
<path d="M262.955 114.892C262.768 115.16 262.476 115.339 262.152 115.396C261.827 115.453 261.495 115.372 261.227 115.185L256.448 111.768C256.18 111.581 256.002 111.288 255.945 110.962C255.888 110.637 255.969 110.303 256.156 110.035C256.343 109.767 256.635 109.588 256.959 109.531C257.284 109.474 257.616 109.555 257.884 109.742L262.663 113.159C262.931 113.346 263.109 113.639 263.166 113.964C263.223 114.29 263.142 114.623 262.955 114.892Z" fill="#80BC4B"/>
<path d="M287.385 265.84C287.701 265.742 288.034 265.783 288.326 265.938C288.618 266.092 288.829 266.361 288.926 266.67L290.606 272.316C290.695 272.633 290.654 272.967 290.5 273.251C290.346 273.536 290.078 273.756 289.77 273.845C289.462 273.935 289.121 273.902 288.837 273.748C288.553 273.593 288.334 273.333 288.237 273.024L286.557 267.378C286.468 267.06 286.5 266.719 286.655 266.434C286.809 266.141 287.076 265.929 287.385 265.832V265.84Z" fill="#7DB352"/>
<path d="M333.558 124.459C333.672 124.345 333.818 124.264 333.964 124.199C334.118 124.142 334.281 124.109 334.443 124.117C334.605 124.117 334.767 124.158 334.913 124.223C335.059 124.288 335.197 124.386 335.303 124.5L339.327 128.787C339.441 128.901 339.538 129.048 339.595 129.194C339.66 129.349 339.684 129.511 339.684 129.674C339.684 129.837 339.643 129.999 339.579 130.154C339.514 130.309 339.416 130.439 339.295 130.553C339.173 130.667 339.035 130.756 338.881 130.813C338.727 130.87 338.564 130.894 338.394 130.894C338.232 130.894 338.07 130.846 337.923 130.78C337.777 130.707 337.639 130.61 337.534 130.488L333.51 126.2C333.396 126.078 333.315 125.94 333.25 125.793C333.193 125.639 333.161 125.476 333.169 125.313C333.169 125.151 333.21 124.988 333.274 124.842C333.339 124.695 333.437 124.557 333.55 124.451L333.558 124.459Z" fill="#80BC4B"/>
<path d="M306.305 193.27C299.782 202.504 290.468 206.905 285.543 209.24C275.791 213.821 265.065 215.944 254.314 215.423C243.483 193.848 245.065 169.913 258.022 154.333C269.381 140.674 292.001 130.366 305.234 139.307C319.49 148.939 318.127 176.535 306.305 193.27Z" fill="#7DB352"/>
<path d="M257.422 216.726C256.261 216.726 255.199 216.693 254.257 216.652L253.535 216.62L253.211 215.969C242.217 194.076 243.734 169.564 257.073 153.52C266.29 142.439 281.21 134.702 293.364 134.702C297.811 134.589 302.192 135.833 305.932 138.266C311.173 141.805 314.695 147.801 316.115 155.595C318.394 168.124 314.946 183.191 307.32 193.987C300.642 203.44 291.214 207.923 286.143 210.331C277.162 214.586 267.353 216.774 257.43 216.734L257.422 216.726ZM255.093 214.204C255.815 214.228 256.586 214.244 257.422 214.244C266.963 214.293 276.391 212.194 285.016 208.11C289.94 205.767 298.995 201.471 305.299 192.538C312.439 182.418 315.806 167.749 313.672 156.026C312.374 148.907 309.218 143.473 304.545 140.316C301.218 138.16 297.316 137.07 293.356 137.176C282.062 137.176 267.604 144.717 258.963 155.107C246.387 170.239 244.894 193.36 255.093 214.195V214.204Z" fill="#7DB352"/>
<path d="M314.808 195.833C314.622 196.102 314.33 196.281 314.005 196.337C313.68 196.394 313.348 196.313 313.08 196.126L308.301 192.709C308.171 192.611 308.058 192.497 307.969 192.359C307.879 192.221 307.823 192.066 307.798 191.904C307.774 191.741 307.774 191.578 307.814 191.415C307.847 191.261 307.92 191.106 308.009 190.976C308.098 190.846 308.22 190.732 308.358 190.643C308.496 190.553 308.65 190.496 308.804 190.472C308.967 190.447 309.129 190.447 309.283 190.488C309.437 190.521 309.591 190.594 309.721 190.683L314.5 194.1C314.768 194.295 314.946 194.58 315.003 194.906C315.06 195.231 314.979 195.565 314.792 195.833H314.808Z" fill="#7DB352"/>
<path d="M261.413 150.558C261.227 150.826 260.935 151.005 260.61 151.062C260.286 151.119 259.953 151.038 259.693 150.851L254.915 147.434C254.647 147.247 254.468 146.954 254.412 146.628C254.355 146.303 254.436 145.969 254.623 145.701C254.809 145.433 255.101 145.254 255.426 145.197C255.75 145.14 256.083 145.221 256.351 145.408L261.13 148.825C261.397 149.012 261.576 149.305 261.633 149.63C261.689 149.956 261.608 150.289 261.422 150.558H261.413Z" fill="#7DB352"/>
<path d="M248.14 178.716C248.099 178.87 248.018 179.017 247.921 179.147C247.823 179.277 247.694 179.383 247.556 179.464C247.418 179.546 247.255 179.594 247.101 179.611C246.939 179.627 246.777 179.611 246.623 179.57L240.976 177.975C240.659 177.886 240.391 177.674 240.229 177.39C240.067 177.105 240.026 176.763 240.116 176.446C240.205 176.129 240.416 175.86 240.7 175.697C240.984 175.535 241.325 175.494 241.641 175.584L247.288 177.178C247.442 177.219 247.588 177.3 247.718 177.398C247.848 177.495 247.953 177.626 248.034 177.764C248.116 177.902 248.164 178.065 248.18 178.228C248.197 178.39 248.18 178.553 248.14 178.708V178.716Z" fill="#7DB352"/>
<path d="M282.143 210.948C282.46 210.851 282.793 210.891 283.085 211.046C283.377 211.201 283.588 211.469 283.685 211.778L285.364 217.424C285.413 217.579 285.429 217.75 285.413 217.912C285.397 218.075 285.348 218.238 285.275 218.376C285.194 218.523 285.097 218.653 284.967 218.75C284.837 218.856 284.691 218.929 284.537 218.978C284.383 219.027 284.212 219.043 284.05 219.027C283.888 219.011 283.734 218.962 283.588 218.881C283.442 218.799 283.32 218.693 283.214 218.563C283.109 218.433 283.036 218.287 282.987 218.132L281.308 212.486C281.21 212.169 281.251 211.827 281.405 211.542C281.559 211.249 281.827 211.038 282.135 210.94L282.143 210.948Z" fill="#7DB352"/>
<path d="M216.246 191.204C230.266 191.204 241.187 197.9 244.773 200.096C251.572 204.262 267.75 216.115 271.166 236.072C273.43 249.3 269.714 264.368 261.227 276.392C257.259 282.128 252.197 287.017 246.331 290.776C240.465 294.526 233.917 297.073 227.061 298.26C224.1 298.757 221.106 299.009 218.104 299.017C205.39 299.041 193.09 294.526 183.394 286.269C173.699 278.011 167.241 266.564 165.172 253.962C164.068 247.112 164.32 240.115 165.926 233.363C167.533 226.618 170.453 220.256 174.526 214.651C183.135 202.529 196.124 193.978 209.284 191.782C211.589 191.399 213.917 191.204 216.254 191.212L216.246 191.204ZM218.104 296.536C220.968 296.536 223.832 296.292 226.655 295.812C233.187 294.681 239.426 292.248 245.016 288.669C250.606 285.089 255.434 280.427 259.207 274.96C267.32 263.464 270.882 249.089 268.732 236.495C265.486 217.531 249.99 206.206 243.483 202.212C240.043 200.104 229.568 193.677 216.246 193.677C214.047 193.677 211.848 193.856 209.682 194.222C197.155 196.321 184.766 204.49 176.53 216.091C172.652 221.428 169.861 227.489 168.328 233.924C166.794 240.351 166.551 247.022 167.597 253.555C169.569 265.58 175.727 276.506 184.977 284.381C194.226 292.256 205.966 296.568 218.096 296.544L218.104 296.536Z" fill="#7DB352"/>
<path d="M212.335 192.782C212.011 192.782 211.694 192.652 211.459 192.416C211.232 192.18 211.102 191.871 211.102 191.537V185.647C211.102 185.314 211.232 185.004 211.459 184.768C211.686 184.533 212.002 184.402 212.335 184.402C212.668 184.402 212.976 184.533 213.211 184.768C213.447 184.996 213.568 185.314 213.568 185.647V191.537C213.568 191.863 213.439 192.18 213.211 192.416C212.976 192.652 212.668 192.782 212.335 192.782Z" fill="#7DB352"/>
<path d="M227.97 193.49C227.816 193.441 227.678 193.352 227.556 193.246C227.434 193.14 227.337 193.01 227.264 192.863C227.191 192.717 227.15 192.554 227.142 192.392C227.134 192.229 227.15 192.066 227.207 191.912L229.106 186.339C229.162 186.184 229.244 186.046 229.349 185.924C229.455 185.802 229.584 185.704 229.73 185.631C229.876 185.558 230.031 185.517 230.193 185.509C230.355 185.501 230.517 185.517 230.672 185.574C230.826 185.631 230.964 185.712 231.085 185.818C231.207 185.924 231.304 186.054 231.377 186.2C231.45 186.347 231.491 186.509 231.499 186.664C231.507 186.819 231.491 186.989 231.434 187.144L229.536 192.717C229.487 192.872 229.398 193.018 229.292 193.132C229.187 193.254 229.057 193.352 228.911 193.425C228.765 193.498 228.603 193.539 228.44 193.547C228.278 193.555 228.116 193.539 227.962 193.482L227.97 193.49Z" fill="#7DB352"/>
<path d="M212.457 311.4L207.386 302.19H217.528L212.457 311.4Z" fill="#7B7B7B"/>
<path d="M217.536 279.898H207.394V302.198H217.536V279.898Z" fill="#7B7B7B"/>
<path d="M210.031 298.098C210.274 298.098 210.51 298.171 210.704 298.317C210.907 298.464 211.061 298.667 211.151 298.903C211.24 299.139 211.264 299.399 211.224 299.652C211.175 299.904 211.061 300.14 210.891 300.319C210.721 300.498 210.502 300.628 210.266 300.677C210.031 300.725 209.788 300.701 209.568 300.603C209.349 300.506 209.155 300.335 209.025 300.123C208.895 299.912 208.822 299.66 208.822 299.399C208.822 299.058 208.952 298.724 209.179 298.48C209.406 298.236 209.715 298.098 210.039 298.098H210.031Z" fill="#9B9696"/>
<path d="M214.883 298.098C215.126 298.098 215.361 298.171 215.556 298.317C215.759 298.464 215.913 298.667 216.002 298.903C216.092 299.139 216.116 299.399 216.075 299.652C216.027 299.904 215.913 300.14 215.743 300.319C215.572 300.498 215.353 300.628 215.118 300.677C214.883 300.725 214.639 300.701 214.42 300.603C214.201 300.506 214.007 300.335 213.877 300.123C213.747 299.912 213.674 299.66 213.674 299.399C213.674 299.058 213.804 298.724 214.031 298.48C214.258 298.236 214.566 298.098 214.891 298.098H214.883Z" fill="#9B9696"/>
<path d="M268.034 275.554H165.95V291.377H268.034V275.554Z" fill="#A67C52"/>
<path d="M170.502 291.378L179.021 350.377L255.336 350.719C258.046 331.055 260.756 311.383 263.474 291.72L170.502 291.378Z" fill="#A67C52"/>
<path d="M236.148 233.126C234.801 233.915 233.495 234.696 232.181 235.461C231.118 236.088 230.047 236.673 229 237.324C227.337 238.366 226.574 239.911 226.81 241.848C227.053 243.808 228.197 245.183 230.063 245.793C232.018 246.444 233.779 245.956 235.158 244.402C235.783 243.694 236.205 242.824 236.213 241.848C236.237 239.033 236.229 236.21 236.229 233.395C236.229 233.33 236.197 233.265 236.148 233.118V233.126Z" fill="#3E9AD4"/>
<path d="M239.223 251.114C237.3 250.13 235.377 249.153 233.455 248.161C233.041 247.949 232.895 248.039 232.903 248.511C232.968 250.675 233.024 252.839 233.081 255.003C233.357 255.035 233.43 255.288 233.552 255.467C234.639 257.045 236.497 257.387 238.193 256.305C239.888 255.231 240.383 253.4 239.434 251.741C239.321 251.545 239.126 251.374 239.215 251.114H239.223Z" fill="#3E9AD4"/>
<path d="M328.991 165.186C328.853 165.186 328.715 165.194 328.577 165.202C328.406 165.365 328.252 165.568 328.058 165.682C322.281 168.92 316.512 172.166 310.727 175.379C307.238 177.316 303.733 179.211 300.236 181.123C297.632 183.019 294.719 184.345 291.953 185.948C288.366 188.03 284.748 190.064 281.097 192.017C280.083 192.562 280.05 193.05 280.488 194.051C284.147 202.381 287.766 210.737 291.393 219.092C291.587 219.539 291.734 220.003 291.904 220.459C294.971 227.48 298.054 234.501 301.096 241.538C302.743 245.346 304.545 249.08 305.956 252.993L306.029 253.042L306.111 253.026C307.068 252.521 308.066 252.09 308.967 251.496C309.94 250.853 310.419 251.114 310.881 252.171C313.169 257.37 318.411 259.266 323.181 256.63C327.587 254.189 331.976 251.716 336.374 249.243C344.958 244.418 353.526 239.561 362.134 234.794C363.676 233.939 365.104 232.996 366.312 231.67C366.231 230.189 365.566 228.944 364.893 227.691C363.83 225.714 362.491 223.916 361.647 221.809C359.554 218.539 357.647 215.146 355.814 211.713C355.611 211.453 355.384 211.2 355.221 210.916C348.268 198.891 341.323 186.859 334.37 174.834C334.151 174.452 333.899 174.094 333.907 173.614C332.033 170.962 330.483 168.098 328.991 165.194V165.186Z" fill="#FAB514"/>
<path d="M368.714 209.289C371.968 204.05 374.945 198.721 375.757 192.286C377.777 176.34 367.067 161.216 351.976 158.93C347.23 158.214 342.581 158.547 338.118 160.524C338.191 161.037 338.5 161.403 338.751 161.818C340.187 164.169 341.615 166.528 343.035 168.888C344.138 168.692 345.234 168.432 346.337 168.318C357.818 167.098 367.53 177.528 366.329 189.666C365.947 193.522 364.357 196.793 362.54 200.014C363.351 201.275 364.146 202.544 364.982 203.781C366.223 205.612 367.14 207.678 368.69 209.281L368.714 209.289Z" fill="#BD7816"/>
<path d="M258.59 239.187C264.772 240.977 270.955 242.767 277.137 244.557C278.736 244.077 280.367 243.711 282.022 243.516C286.127 243.036 289.194 239.252 289.007 234.892C288.861 231.483 287.028 228.668 286.03 225.56C285.575 224.169 284.813 222.892 284.659 221.387C277.17 222.306 269.681 223.225 262.192 224.145C261.316 224.25 260.44 224.372 259.564 224.486C259.507 225.267 259.442 226.057 259.393 226.838C259.126 230.946 258.866 235.063 258.606 239.171L258.59 239.187Z" fill="#BD7816"/>
<path d="M258.59 239.187C258.85 235.078 259.117 230.962 259.377 226.853C259.426 226.072 259.491 225.283 259.547 224.502C255.612 220.548 251.661 216.611 247.759 212.616C246.582 211.412 245.316 210.786 243.726 211.404C242.047 212.055 241.535 213.544 241.43 215.268C240.813 225.503 240.213 235.729 239.588 245.964C239.491 247.583 239.937 248.901 241.3 249.739C242.671 250.577 243.978 250.316 245.219 249.373C249.673 245.972 254.128 242.588 258.582 239.195L258.59 239.187Z" fill="#FAB514"/>
<path d="M366.304 231.662C365.104 232.98 363.676 233.932 362.126 234.786C353.518 239.554 344.95 244.411 336.366 249.235C331.968 251.7 327.587 254.181 323.173 256.622C318.402 259.258 313.161 257.362 310.873 252.164C310.411 251.114 309.932 250.846 308.958 251.489C308.058 252.082 307.06 252.514 306.102 253.018C307.076 255.255 308.009 257.525 309.04 259.73C311.311 264.587 316.52 266.499 321.031 263.993C334.646 256.427 348.236 248.804 361.81 241.156C365.298 239.188 366.872 235.697 366.296 231.662H366.304Z" fill="#BD7816"/>
<path d="M284.65 221.394C284.805 222.899 285.567 224.177 286.022 225.568C287.028 228.676 288.853 231.482 288.999 234.899C289.186 239.26 286.119 243.043 282.014 243.523C280.358 243.718 278.736 244.084 277.129 244.564C284.099 246.623 291.068 248.681 298.038 250.723C300.675 251.496 303.32 252.228 305.956 252.977C304.545 249.063 302.735 245.329 301.096 241.522C298.054 234.484 294.971 227.472 291.904 220.442C289.478 220.735 287.044 220.89 284.642 221.402L284.65 221.394Z" fill="#905B16"/>
<path d="M300.236 181.115C303.733 179.204 307.246 177.316 310.727 175.372C316.512 172.158 322.289 168.912 328.057 165.674C328.252 165.56 328.406 165.357 328.577 165.194C324.796 162.981 320.69 162.2 316.455 162.2C308.812 162.2 301.672 164.462 294.776 167.749C293.94 168.147 293.819 168.497 294.273 169.376C296.301 173.265 298.249 177.194 300.228 181.115H300.236Z" fill="#BD7816"/>
<path d="M368.714 209.289C367.164 207.694 366.239 205.62 365.006 203.789C364.171 202.553 363.375 201.275 362.564 200.022C360.317 203.919 358.061 207.808 355.814 211.705C357.647 215.147 359.554 218.531 361.647 221.801C364.13 217.709 366.548 213.576 368.722 209.289H368.714Z" fill="#905B16"/>
<path d="M343.051 168.896C341.623 166.536 340.203 164.177 338.767 161.826C338.516 161.411 338.199 161.037 338.134 160.532C336.341 160.89 334.84 161.948 333.258 162.81C331.83 163.591 330.419 164.397 328.999 165.194C330.483 168.098 332.033 170.962 333.915 173.614C336.95 172.012 339.838 170.108 343.059 168.904L343.051 168.896Z" fill="#905B16"/>
<path d="M230.331 254.303C229.747 252.22 229.162 250.137 228.586 248.055C228.465 247.599 228.294 247.558 227.962 247.884C226.42 249.397 224.87 250.902 223.329 252.415C223.499 252.643 223.353 252.863 223.305 253.082C222.883 254.954 223.897 256.548 225.836 257.077C227.775 257.598 229.446 256.727 230.022 254.897C230.087 254.685 230.079 254.425 230.339 254.311L230.331 254.303Z" fill="#3E9AD4"/>
<path d="M233.065 258.908C233.041 260.437 233.016 261.934 232.984 263.423C232.96 264.627 232.903 265.839 232.911 267.043C232.927 268.971 233.828 270.403 235.564 271.192C237.325 271.998 239.053 271.737 240.521 270.484C242.063 269.175 242.558 267.45 241.966 265.497C241.698 264.611 241.187 263.813 240.375 263.309C238.039 261.853 235.686 260.413 233.333 258.973C233.276 258.94 233.203 258.94 233.065 258.899V258.908Z" fill="#3E9AD4"/>
<path d="M230.331 263.464C229.958 262.056 229.584 260.657 229.219 259.249C229.138 258.94 229.025 258.916 228.797 259.127C227.751 260.128 226.696 261.129 225.641 262.121C225.755 262.276 225.657 262.422 225.625 262.569C225.325 263.822 225.99 264.904 227.288 265.27C228.586 265.636 229.714 265.066 230.12 263.846C230.169 263.7 230.16 263.529 230.339 263.456L230.331 263.464Z" fill="#3E9AD4"/>
<path d="M194.888 227H209.453C210.75 227 211.99 227.573 212.904 228.601C213.818 229.628 214.332 231.023 214.332 232.469V275.42H190V232.469C190 231.014 190.514 229.628 191.428 228.601C192.342 227.573 193.582 227 194.88 227H194.888Z" fill="white"/>
<path d="M202.174 232.067C198.405 232.067 195.353 235.269 195.353 239.223V240.105C195.353 244.059 198.405 247.26 202.174 247.26C205.944 247.26 208.996 244.059 208.996 240.105V239.223C208.996 235.269 205.944 232.067 202.174 232.067Z" fill="#0E4240"/>
<path d="M198.764 243.135C198.421 243.135 198.086 242.98 197.842 242.707C197.597 242.433 197.458 242.056 197.458 241.671H197.793C197.793 241.962 197.899 242.236 198.078 242.441C198.258 242.647 198.511 242.758 198.764 242.758C199.017 242.758 199.269 242.647 199.449 242.441C199.628 242.236 199.735 241.962 199.735 241.671H200.069C200.069 242.056 199.93 242.433 199.686 242.707C199.441 242.98 199.106 243.135 198.764 243.135Z" fill="#F18340"/>
<path d="M201.709 241.166C201.448 241.166 201.195 241.08 200.983 240.918C200.771 240.755 200.6 240.524 200.502 240.259C200.404 239.993 200.379 239.694 200.428 239.411C200.477 239.129 200.6 238.863 200.787 238.658C200.967 238.453 201.203 238.316 201.456 238.256C201.709 238.196 201.97 238.23 202.215 238.341C202.46 238.453 202.656 238.641 202.803 238.881C202.95 239.12 203.023 239.403 203.023 239.694C203.023 239.891 202.99 240.079 202.925 240.259C202.86 240.438 202.762 240.601 202.639 240.738C202.517 240.875 202.37 240.986 202.215 241.055C202.06 241.132 201.889 241.166 201.717 241.166H201.709ZM201.709 238.607C201.513 238.607 201.326 238.675 201.171 238.795C201.008 238.915 200.885 239.086 200.812 239.283C200.738 239.48 200.722 239.702 200.755 239.916C200.795 240.13 200.885 240.319 201.024 240.473C201.163 240.627 201.334 240.729 201.522 240.772C201.709 240.815 201.905 240.789 202.085 240.712C202.264 240.627 202.411 240.49 202.517 240.31C202.623 240.13 202.68 239.916 202.68 239.702C202.68 239.411 202.574 239.137 202.395 238.932C202.215 238.727 201.962 238.615 201.709 238.615" fill="#F18340"/>
<path d="M205.357 241.166C205.096 241.166 204.843 241.08 204.63 240.918C204.418 240.755 204.247 240.524 204.149 240.259C204.051 239.993 204.027 239.694 204.076 239.411C204.125 239.129 204.247 238.863 204.435 238.658C204.614 238.453 204.851 238.316 205.104 238.256C205.357 238.196 205.618 238.23 205.863 238.341C206.099 238.453 206.303 238.641 206.45 238.881C206.597 239.12 206.67 239.403 206.67 239.694C206.67 240.079 206.532 240.455 206.287 240.729C206.042 241.003 205.708 241.157 205.365 241.157M205.365 238.598C205.169 238.598 204.981 238.658 204.826 238.778C204.663 238.898 204.541 239.069 204.467 239.266C204.394 239.463 204.377 239.685 204.41 239.899C204.451 240.113 204.541 240.301 204.679 240.455C204.818 240.61 204.989 240.712 205.177 240.755C205.365 240.798 205.561 240.772 205.74 240.695C205.92 240.61 206.067 240.473 206.173 240.293C206.279 240.113 206.336 239.899 206.336 239.685C206.336 239.394 206.23 239.12 206.05 238.915C205.871 238.709 205.618 238.598 205.365 238.598Z" fill="#F18340"/>
<path d="M203.733 238.529H203.398V240.977H203.733V238.529Z" fill="#F18340"/>
<path d="M203.047 238.529H202.713V240.977H203.047V238.529Z" fill="#F18340"/>
<path d="M200.077 238.529H199.743V239.599H200.077V238.529Z" fill="#F18340"/>
<path d="M200.077 241.183H199.743V241.671H200.077V241.183Z" fill="#F18340"/>
<path d="M206.695 238.529H206.36V240.977H206.695V238.529Z" fill="#F18340"/>
<path d="M198.764 241.166C198.502 241.166 198.25 241.08 198.037 240.918C197.825 240.755 197.654 240.524 197.556 240.259C197.458 239.993 197.434 239.694 197.482 239.411C197.531 239.129 197.654 238.863 197.842 238.658C198.021 238.453 198.258 238.316 198.511 238.256C198.764 238.196 199.025 238.23 199.269 238.341C199.506 238.453 199.71 238.641 199.857 238.881C200.004 239.12 200.077 239.403 200.077 239.694C200.077 240.079 199.939 240.455 199.694 240.729C199.449 241.003 199.114 241.157 198.772 241.157M198.772 238.598C198.576 238.598 198.388 238.658 198.233 238.778C198.07 238.898 197.948 239.069 197.874 239.266C197.801 239.463 197.784 239.685 197.817 239.899C197.858 240.113 197.948 240.301 198.086 240.455C198.225 240.61 198.396 240.712 198.584 240.755C198.772 240.798 198.968 240.772 199.147 240.695C199.327 240.61 199.473 240.473 199.58 240.293C199.686 240.113 199.743 239.899 199.743 239.685C199.743 239.394 199.637 239.12 199.457 238.915C199.278 238.709 199.025 238.598 198.772 238.598Z" fill="#F18340"/>
<path d="M203.643 238.128H203.431L203.415 237.956C203.415 237.956 203.415 237.914 203.415 237.896C203.415 237.837 203.415 237.777 203.415 237.717C203.415 237.623 203.439 237.52 203.472 237.434C203.521 237.332 203.594 237.246 203.692 237.186C203.855 237.092 204.035 237.049 204.222 237.066H204.377V237.28C204.394 237.349 204.394 237.426 204.377 237.494C204.369 237.588 204.345 237.682 204.296 237.777C204.214 237.914 204.1 238.016 203.961 238.059C203.896 238.085 203.831 238.102 203.757 238.11C203.725 238.11 203.692 238.119 203.659 238.119C203.651 238.119 203.635 238.119 203.627 238.119M204.043 237.434C203.978 237.434 203.912 237.46 203.855 237.494C203.814 237.52 203.79 237.546 203.765 237.588C203.749 237.631 203.741 237.674 203.741 237.725C203.782 237.725 203.814 237.708 203.855 237.691C203.921 237.674 203.978 237.623 204.01 237.563C204.027 237.52 204.043 237.477 204.043 237.434Z" fill="#F18340"/>
<path d="M203.056 238.127H202.688C202.386 238.127 202.093 237.99 201.872 237.75C201.66 237.511 201.538 237.177 201.538 236.834V236.158H201.905C202.207 236.158 202.501 236.295 202.721 236.535C202.933 236.774 203.056 237.108 203.056 237.451V238.127ZM201.872 236.535V236.834C201.872 237.074 201.962 237.305 202.109 237.476C202.264 237.648 202.468 237.742 202.688 237.742H202.721V237.442C202.721 237.202 202.631 236.963 202.484 236.792C202.329 236.62 202.125 236.526 201.905 236.526H201.872V236.535Z" fill="#F18340"/>
<path d="M216.424 238.803C216.424 237.597 215.551 236.612 214.474 236.612C213.397 236.612 212.523 237.597 212.523 238.803V240.995C212.523 242.202 213.397 243.186 214.474 243.186C215.551 243.186 216.424 242.202 216.424 240.995V238.803Z" fill="white"/>
<path d="M216.424 249.76C216.424 248.553 215.551 247.568 214.474 247.568C213.397 247.568 212.523 248.553 212.523 249.76V251.951C212.523 253.158 213.397 254.142 214.474 254.142C215.551 254.142 216.424 253.158 216.424 251.951V249.76Z" fill="white"/>
</g>
<defs>
<clipPath id="clip0_658_34391">
<rect width="266" height="288" fill="white" transform="translate(110 83)"/>
</clipPath>
</defs>
</svg>
